<svg width="178" height="64" viewBox="0 0 178 64" fill="none" xmlns="http://www.w3.org/2000/svg">
<g filter="url(#filter0_d_619_2767)">
<rect x="7" y="7" width="164.743" height="50.4063" rx="25.2032" fill="url(#paint0_radial_619_2767)"/>
<path d="M42.8234 37.738C42.0368 37.738 41.3018 37.595 40.6184 37.309C39.9351 37.015 39.3312 36.6137 38.8067 36.1051C38.2902 35.5966 37.885 35.0046 37.591 34.3292C37.297 33.6538 37.15 32.9307 37.15 32.1599C37.15 31.3892 37.297 30.6661 37.591 29.9907C37.885 29.3153 38.2902 28.7233 38.8067 28.2147C39.3312 27.7062 39.9351 27.3089 40.6184 27.0228C41.3018 26.7288 42.0368 26.5818 42.8234 26.5818C43.6101 26.5818 44.3451 26.7288 45.0284 27.0228C45.7118 27.3089 46.3117 27.7062 46.8282 28.2147C47.3526 28.7233 47.7619 29.3153 48.0559 29.9907C48.3499 30.6661 48.4969 31.3892 48.4969 32.1599C48.4969 32.9307 48.3499 33.6538 48.0559 34.3292C47.7619 35.0046 47.3526 35.5966 46.8282 36.1051C46.3117 36.6137 45.7118 37.015 45.0284 37.309C44.3451 37.595 43.6101 37.738 42.8234 37.738ZM42.8234 35.6641C43.4671 35.6641 44.0471 35.5092 44.5636 35.1993C45.0801 34.8815 45.4893 34.4563 45.7913 33.924C46.1012 33.3916 46.2561 32.8036 46.2561 32.1599C46.2561 31.5084 46.1012 30.9204 45.7913 30.3959C45.4893 29.8635 45.0801 29.4424 44.5636 29.1325C44.0471 28.8147 43.4671 28.6558 42.8234 28.6558C42.1798 28.6558 41.5958 28.8147 41.0713 29.1325C40.5548 29.4424 40.1456 29.8635 39.8437 30.3959C39.5417 30.9204 39.3907 31.5084 39.3907 32.1599C39.3907 32.8036 39.5417 33.3916 39.8437 33.924C40.1456 34.4563 40.5548 34.8815 41.0713 35.1993C41.5958 35.5092 42.1798 35.6641 42.8234 35.6641ZM50.6174 37.5235V30.3721H52.4768V31.5997C52.7231 31.1866 53.033 30.8687 53.4065 30.6462C53.7879 30.4158 54.2328 30.3006 54.7414 30.3006L55.1943 32.1361C55.0433 32.0884 54.8725 32.0646 54.6818 32.0646C54.0858 32.0646 53.6051 32.2593 53.2396 32.6486C52.8741 33.03 52.6913 33.5783 52.6913 34.2934V37.5235H50.6174ZM59.7802 37.7142C59.1128 37.7142 58.5089 37.5434 57.9685 37.2017C57.4282 36.86 56.9952 36.4071 56.6694 35.8429C56.3515 35.2708 56.1926 34.6391 56.1926 33.9478C56.1926 33.2565 56.3515 32.6248 56.6694 32.0527C56.9952 31.4806 57.4282 31.0276 57.9685 30.6939C58.5089 30.3522 59.1128 30.1814 59.7802 30.1814C60.1616 30.1814 60.5152 30.237 60.841 30.3483C61.1668 30.4595 61.4608 30.6184 61.723 30.825V26.0812H63.7969V37.5235H62.0091V36.8203C61.7389 37.0984 61.4131 37.3169 61.0317 37.4758C60.6503 37.6347 60.2332 37.7142 59.7802 37.7142ZM60.0186 35.8906C60.3682 35.8906 60.6861 35.8032 60.9721 35.6284C61.2582 35.4536 61.4846 35.2192 61.6515 34.9252C61.8263 34.6312 61.9137 34.3054 61.9137 33.9478C61.9137 33.5902 61.8263 33.2644 61.6515 32.9704C61.4846 32.6764 61.2582 32.442 60.9721 32.2672C60.6861 32.0924 60.3682 32.005 60.0186 32.005C59.669 32.005 59.3511 32.0924 59.0651 32.2672C58.779 32.442 58.5486 32.6764 58.3738 32.9704C58.2069 33.2644 58.1235 33.5902 58.1235 33.9478C58.1235 34.3054 58.2069 34.6312 58.3738 34.9252C58.5486 35.2192 58.779 35.4536 59.0651 35.6284C59.3511 35.8032 59.669 35.8906 60.0186 35.8906ZM69.7599 37.7619C68.9573 37.7619 68.2501 37.595 67.6383 37.2613C67.0264 36.9275 66.5497 36.4707 66.208 35.8906C65.8663 35.3026 65.6955 34.6312 65.6955 33.8763C65.6955 33.1532 65.8624 32.5135 66.1961 31.9573C66.5298 31.3932 66.9788 30.9482 67.5429 30.6224C68.115 30.2966 68.7468 30.1337 69.4381 30.1337C70.1453 30.1337 70.777 30.2966 71.3332 30.6224C71.8894 30.9402 72.3264 31.3773 72.6443 31.9335C72.9701 32.4897 73.133 33.1214 73.133 33.8286V34.5557H68.7706C68.5719 34.5557 68.3812 34.5437 68.1985 34.5199C68.0157 34.4961 67.833 34.4683 67.6502 34.4365C67.7456 34.9132 67.98 35.3026 68.3534 35.6045C68.7348 35.8985 69.2195 36.0455 69.8075 36.0455C70.2605 36.0455 70.6657 35.9542 71.0233 35.7714C71.3888 35.5886 71.6868 35.3622 71.9172 35.092L72.3701 36.9514C72.0126 37.2216 71.6073 37.4242 71.1544 37.5593C70.7094 37.6943 70.2446 37.7619 69.7599 37.7619ZM67.6025 33.185C67.9998 33.0976 68.3892 33.0539 68.7706 33.0539H70.034C70.2565 33.0539 70.4671 33.0618 70.6657 33.0777C70.8644 33.0936 71.0511 33.1214 71.2259 33.1611C71.1067 32.7321 70.8882 32.3943 70.5704 32.148C70.2605 31.9017 69.8751 31.7785 69.4142 31.7785C68.9772 31.7785 68.5958 31.9057 68.27 32.1599C67.9522 32.4063 67.7297 32.7479 67.6025 33.185ZM74.9693 37.5235V30.3721H76.8287V31.5997C77.075 31.1866 77.3849 30.8687 77.7583 30.6462C78.1398 30.4158 78.5847 30.3006 79.0933 30.3006L79.5462 32.1361C79.3952 32.0884 79.2244 32.0646 79.0337 32.0646C78.4377 32.0646 77.957 32.2593 77.5915 32.6486C77.226 33.03 77.0432 33.5783 77.0432 34.2934V37.5235H74.9693ZM94.1896 37.8811L87.7533 31.4567V37.5235H85.7509V26.4388L92.1872 32.8512V26.7964H94.1896V37.8811ZM100.311 37.7619C99.604 37.7619 98.9564 37.591 98.3684 37.2494C97.7804 36.9077 97.3116 36.4468 96.962 35.8668C96.6203 35.2867 96.4494 34.647 96.4494 33.9478C96.4494 33.2406 96.6203 32.6009 96.962 32.0288C97.3116 31.4488 97.7804 30.9879 98.3684 30.6462C98.9564 30.3046 99.604 30.1337 100.311 30.1337C101.026 30.1337 101.674 30.3046 102.254 30.6462C102.842 30.9879 103.307 31.4488 103.649 32.0288C103.998 32.6009 104.173 33.2406 104.173 33.9478C104.173 34.647 103.998 35.2867 103.649 35.8668C103.307 36.4468 102.842 36.9077 102.254 37.2494C101.674 37.591 101.026 37.7619 100.311 37.7619ZM100.311 35.9025C100.669 35.9025 100.991 35.8151 101.277 35.6403C101.571 35.4655 101.801 35.2311 101.968 34.9371C102.143 34.6351 102.23 34.3054 102.23 33.9478C102.23 33.5823 102.143 33.2525 101.968 32.9585C101.801 32.6645 101.571 32.4301 101.277 32.2553C100.991 32.0805 100.669 31.9931 100.311 31.9931C99.9536 31.9931 99.6278 32.0805 99.3338 32.2553C99.0478 32.4301 98.8174 32.6645 98.6425 32.9585C98.4757 33.2525 98.3922 33.5823 98.3922 33.9478C98.3922 34.3054 98.4757 34.6351 98.6425 34.9371C98.8174 35.2311 99.0478 35.4655 99.3338 35.6403C99.6278 35.8151 99.9536 35.9025 100.311 35.9025ZM108.689 37.8811L105.125 30.3721H107.354L108.451 32.6725C108.554 32.8711 108.657 33.0896 108.761 33.328C108.864 33.5584 108.967 33.8207 109.071 34.1147C109.182 33.8366 109.289 33.5942 109.392 33.3876C109.504 33.1731 109.611 32.9665 109.714 32.7678L111.061 30.1337L112.456 32.7678C112.551 32.9426 112.65 33.1373 112.754 33.3518C112.865 33.5664 112.972 33.8207 113.075 34.1147C113.179 33.7968 113.278 33.5267 113.373 33.3042C113.477 33.0817 113.576 32.8711 113.671 32.6725L114.768 30.3721H116.901L113.338 37.8811L111.705 35.1278C111.578 34.9212 111.458 34.7106 111.347 34.4961C111.236 34.2815 111.125 34.0551 111.013 33.8167C110.91 34.0551 110.799 34.2815 110.68 34.4961C110.568 34.7106 110.449 34.9212 110.322 35.1278L108.689 37.8811Z" fill="white"/>
<path d="M131.243 25.5697L137.731 32.0577L131.243 38.5457M136.83 32.0577L123.674 32.0577" stroke="white" stroke-width="1.92237" stroke-miterlimit="10" stroke-linecap="square"/>
</g>
<defs>
<filter id="filter0_d_619_2767" x="0.787627" y="0.787627" width="177.167" height="62.8311" filterUnits="userSpaceOnUse" color-interpolation-filters="sRGB">
<feFlood flood-opacity="0" result="BackgroundImageFix"/>
<feColorMatrix in="SourceAlpha" type="matrix" values="0 0 0 0 0 0 0 0 0 0 0 0 0 0 0 0 0 0 127 0" result="hardAlpha"/>
<feOffset/>
<feGaussianBlur stdDeviation="3.10619"/>
<feComposite in2="hardAlpha" operator="out"/>
<feColorMatrix type="matrix" values="0 0 0 0 0 0 0 0 0 0 0 0 0 0 0 0 0 0 0.25 0"/>
<feBlend mode="normal" in2="BackgroundImageFix" result="effect1_dropShadow_619_2767"/>
<feBlend mode="normal" in="SourceGraphic" in2="effect1_dropShadow_619_2767" result="shape"/>
</filter>
<radialGradient id="paint0_radial_619_2767" cx="0" cy="0" r="1" gradientUnits="userSpaceOnUse" gradientTransform="translate(89.3713 32.2032) rotate(-161.424) scale(79.1159 111.944)">
<stop offset="0.26242" stop-color="#698531"/>
<stop offset="1" stop-color="#90B042"/>
</radialGradient>
</defs>
</svg>
