<svg width="316" height="103" viewBox="0 0 316 103" fill="none" xmlns="http://www.w3.org/2000/svg">
<g filter="url(#filter0_d_619_2905)">
<path d="M44.2191 21.756C44.2191 24.2044 43.4891 26.08 42.0291 27.3827C40.5915 28.6855 38.4464 29.3369 35.5938 29.3369C34.3808 29.3369 33.2577 29.1909 32.2245 28.8989C31.1912 28.5845 30.2928 28.1689 29.5291 27.6523C28.7654 27.1132 28.1701 26.4955 27.7433 25.7992C27.3166 25.0804 27.1144 24.3055 27.1369 23.4744C27.1593 22.5534 27.4401 21.7673 27.9792 21.1159C28.5183 20.442 29.2595 20.1051 30.2029 20.1051C31.2811 20.1051 32.056 20.3971 32.5277 20.9811C32.9994 21.5427 33.224 22.2839 33.2016 23.2048C33.2016 23.699 33.1791 24.2493 33.1342 24.8558C33.0893 25.4398 33.123 25.9901 33.2353 26.5067C33.37 27.0234 33.6284 27.4614 34.0102 27.8208C34.4145 28.1577 35.0435 28.3261 35.897 28.3261C36.6158 28.3261 37.1661 28.0566 37.548 27.5175C37.9523 26.9784 38.1544 26.2372 38.1544 25.2938L38.1881 7.94198C38.1881 6.93119 38.0309 6.16749 37.7164 5.65087C37.402 5.13424 37.0313 4.87593 36.6046 4.87593V4.539H45.8027V4.87593C45.3984 4.87593 45.039 5.13424 44.7245 5.65087C44.4101 6.16749 44.2528 6.93119 44.2528 7.94198L44.2191 21.756ZM67.4996 7.94198C67.4996 6.93119 67.3423 6.16749 67.0279 5.65087C66.7134 5.13424 66.3428 4.87593 65.916 4.87593V4.539H70.0602V4.87593C69.6559 4.87593 69.2965 5.13424 68.9821 5.65087C68.6676 6.16749 68.5104 6.93119 68.5104 7.94198V19.8355C68.5104 22.9802 67.7579 25.3499 66.2529 26.9447C64.748 28.5395 62.5804 29.3369 59.7502 29.3369C56.4034 29.3369 53.8989 28.4272 52.2367 26.6078C50.5745 24.7884 49.7434 22.1042 49.7434 18.5552V7.94198C49.7434 6.93119 49.5862 6.16749 49.2717 5.65087C48.9573 5.13424 48.5867 4.87593 48.1599 4.87593V4.539H57.358V4.87593C56.9537 4.87593 56.5943 5.13424 56.2799 5.65087C55.9654 6.16749 55.8082 6.93119 55.8082 7.94198L55.8418 19.5997C55.8418 22.093 56.3135 23.9348 57.2569 25.1253C58.2228 26.3158 59.6941 26.911 61.6707 26.911C65.5566 26.911 67.4996 24.6536 67.4996 20.1388V7.94198ZM79.7603 25.2601C79.7603 26.3383 79.9176 27.1694 80.232 27.7534C80.5465 28.3374 80.9059 28.6294 81.3102 28.6294V29H72.1121V28.6294C72.5388 28.6294 72.9095 28.3374 73.2239 27.7534C73.5384 27.1694 73.6956 26.3383 73.6956 25.2601V7.94198C73.6956 6.93119 73.5384 6.16749 73.2239 5.65087C72.9095 5.13424 72.5388 4.87593 72.1121 4.87593V4.539H81.3102V4.87593C80.9059 4.87593 80.5465 5.13424 80.232 5.65087C79.9176 6.16749 79.7603 6.93119 79.7603 7.94198V25.2601ZM94.4731 4.16838C95.8208 4.16838 97.0449 4.32561 98.1456 4.64008C99.2462 4.95455 100.178 5.38132 100.942 5.92041C101.728 6.45949 102.323 7.08843 102.728 7.80721C103.155 8.50353 103.357 9.24477 103.334 10.0309C103.312 10.9519 103.031 11.7493 102.492 12.4231C101.953 13.0745 101.212 13.4002 100.268 13.4002C99.19 13.4002 98.4151 13.1194 97.9434 12.5579C97.4717 11.9739 97.2471 11.2214 97.2696 10.3005C97.2696 9.80632 97.2808 9.26723 97.3032 8.68322C97.3257 8.07675 97.2583 7.5152 97.1011 6.99858C96.9439 6.48195 96.6519 6.05518 96.2251 5.71825C95.8208 5.35886 95.1918 5.17917 94.3383 5.17917C93.5746 5.17917 92.8333 5.38132 92.1146 5.78564C91.4182 6.16749 90.8005 6.76273 90.2614 7.57136C89.7224 8.37999 89.2844 9.41323 88.9474 10.6711C88.633 11.9065 88.4757 13.389 88.4757 15.1186C88.4757 16.6684 88.6442 18.0611 88.9811 19.2965C89.3405 20.5319 89.8459 21.5876 90.4973 22.4636C91.1487 23.3171 91.9349 23.9798 92.8558 24.4515C93.7767 24.9232 94.81 25.159 95.9555 25.159C97.8873 25.159 99.4708 24.6087 100.706 23.5081C101.942 22.385 102.66 20.8688 102.863 18.9595H103.199C103.312 20.4869 103.155 21.8908 102.728 23.1711C102.301 24.4515 101.65 25.5521 100.774 26.473C99.9201 27.3715 98.8756 28.0791 97.6402 28.5957C96.4048 29.0898 95.0121 29.3369 93.4623 29.3369C91.7776 29.3369 90.2502 29.0449 88.88 28.4609C87.5099 27.8544 86.3418 27.0009 85.376 25.9003C84.4101 24.7996 83.6577 23.4856 83.1186 21.9582C82.6019 20.4083 82.3436 18.6788 82.3436 16.7695C82.3436 14.7704 82.6469 12.9959 83.2533 11.446C83.8823 9.8737 84.7358 8.54845 85.814 7.47028C86.9146 6.39211 88.2062 5.57225 89.6887 5.0107C91.1712 4.44915 92.7659 4.16838 94.4731 4.16838ZM122.413 4.539L122.582 10.8059H122.278C122.121 10.0422 121.93 9.34585 121.706 8.71691C121.503 8.06552 121.2 7.50397 120.796 7.03227C120.392 6.56057 119.864 6.20118 119.212 5.9541C118.583 5.68456 117.763 5.54979 116.753 5.54979H112.036V16.2978H115.27C116.91 16.2978 118.112 15.9496 118.875 15.2533C119.662 14.557 120.055 13.7147 120.055 12.7264H120.392V20.7789H120.055C120.055 19.7906 119.662 18.9595 118.875 18.2857C118.112 17.5894 116.91 17.2412 115.27 17.2412H112.036V27.9892H116.753C117.763 27.9892 118.583 27.8544 119.212 27.5849C119.864 27.3154 120.392 26.9447 120.796 26.473C121.2 26.0013 121.503 25.451 121.706 24.8221C121.93 24.1707 122.121 23.4631 122.278 22.6994H122.582L122.413 29H104.387V28.6631C104.814 28.6631 105.185 28.4048 105.499 27.8881C105.814 27.3715 105.971 26.6078 105.971 25.597V7.94198C105.971 6.93119 105.814 6.16749 105.499 5.65087C105.185 5.13424 104.814 4.87593 104.387 4.87593V4.539H122.413Z" fill="url(#paint0_radial_619_2905)"/>
<path d="M35.874 42.6619L36.1592 53.2721H35.6458C35.3796 51.9791 35.0564 50.8001 34.6761 49.7353C34.3338 48.6325 33.8204 47.6817 33.1359 46.8831C32.4514 46.0845 31.5577 45.476 30.4548 45.0577C29.39 44.6014 28.0019 44.3732 26.2906 44.3732H18.3045V62.5702H23.7807C26.5568 62.5702 28.5914 61.9808 29.8844 60.8019C31.2154 59.623 31.8809 58.1969 31.8809 56.5236H32.4514V70.1571H31.8809C31.8809 68.4838 31.2154 67.0767 29.8844 65.9358C28.5914 64.7569 26.5568 64.1675 23.7807 64.1675H18.3045V82.3645H26.2906C28.0019 82.3645 29.39 82.1363 30.4548 81.68C31.5577 81.2236 32.4514 80.5961 33.1359 79.7975C33.8204 78.9989 34.3338 78.0672 34.6761 77.0024C35.0564 75.8995 35.3796 74.7016 35.6458 73.4086H36.1592L35.874 84.0758H5.35548V83.5054C6.07804 83.5054 6.70552 83.068 7.23793 82.1934C7.77034 81.3187 8.03655 80.0257 8.03655 78.3144V48.4233C8.03655 46.712 7.77034 45.419 7.23793 44.5443C6.70552 43.6696 6.07804 43.2323 5.35548 43.2323V42.6619H35.874ZM81.5974 43.2323C80.4946 43.2323 79.4298 43.7267 78.403 44.7155C77.4142 45.6662 76.6346 46.9402 76.0642 48.5374L63.1152 84.0758H56.8974L44.0625 48.7656C43.416 46.9782 42.6554 45.6091 41.7807 44.6584C40.9441 43.7077 40.2215 43.2323 39.6131 43.2323V42.6619H57.0685V43.2323C55.8896 43.2323 55.091 43.7077 54.6727 44.6584C54.2924 45.6091 54.4445 47.0543 55.129 48.9938L64.4842 74.9488L74.1817 48.3663C74.8282 46.5028 74.9043 45.1908 74.4099 44.4302C73.9535 43.6316 73.1359 43.2323 71.957 43.2323V42.6619H81.5974V43.2323ZM115.586 42.6619L115.872 53.2721H115.358C115.092 51.9791 114.769 50.8001 114.388 49.7353C114.046 48.6325 113.533 47.6817 112.848 46.8831C112.164 46.0845 111.27 45.476 110.167 45.0577C109.102 44.6014 107.714 44.3732 106.003 44.3732H98.0167V62.5702H103.493C106.269 62.5702 108.304 61.9808 109.597 60.8019C110.928 59.623 111.593 58.1969 111.593 56.5236H112.164V70.1571H111.593C111.593 68.4838 110.928 67.0767 109.597 65.9358C108.304 64.7569 106.269 64.1675 103.493 64.1675H98.0167V82.3645H106.003C107.714 82.3645 109.102 82.1363 110.167 81.68C111.27 81.2236 112.164 80.5961 112.848 79.7975C113.533 78.9989 114.046 78.0672 114.388 77.0024C114.769 75.8995 115.092 74.7016 115.358 73.4086H115.872L115.586 84.0758H85.0678V83.5054C85.7903 83.5054 86.4178 83.068 86.9502 82.1934C87.4826 81.3187 87.7488 80.0257 87.7488 78.3144V48.4233C87.7488 46.712 87.4826 45.419 86.9502 44.5443C86.4178 43.6696 85.7903 43.2323 85.0678 43.2323V42.6619H115.586ZM133.815 42.6619C136.705 42.6619 139.291 42.871 141.572 43.2894C143.892 43.6696 145.851 44.2971 147.448 45.1718C149.045 46.0465 150.262 47.1683 151.099 48.5374C151.974 49.9065 152.411 51.5607 152.411 53.5002C152.411 56.5045 151.384 58.8433 149.33 60.5166C147.277 62.1519 144.387 63.2548 140.66 63.8252C142.523 64.1675 143.968 64.814 144.995 65.7647C146.06 66.6774 146.859 67.7422 147.391 68.9591C147.923 70.1381 148.285 71.374 148.475 72.667C148.703 73.96 148.912 75.1579 149.102 76.2608C149.292 77.3256 149.578 78.2193 149.958 78.9418C150.338 79.6264 150.966 79.9686 151.84 79.9686C153.209 79.9686 153.894 79.17 153.894 77.5728H154.521C154.521 79.8165 153.856 81.5659 152.525 82.8208C151.194 84.0378 149.54 84.6462 147.562 84.6462C145.356 84.6462 143.664 84.2089 142.485 83.3342C141.306 82.4215 140.413 81.2807 139.804 79.9116C139.234 78.5045 138.815 76.9833 138.549 75.3481C138.321 73.6748 138.017 72.0776 137.636 70.5564C137.294 69.0352 136.762 67.7042 136.039 66.5633C135.317 65.4224 134.195 64.6618 132.674 64.2815H132.274V76.7742C132.274 78.9418 132.541 80.5961 133.073 81.737C133.605 82.8779 134.214 83.4483 134.898 83.4483V84.0758H119.325V83.4483C120.048 83.4483 120.675 82.9539 121.208 81.9652C121.74 80.9764 122.006 79.5693 122.006 77.7439V48.4233C122.006 46.712 121.74 45.419 121.208 44.5443C120.675 43.6696 120.048 43.2323 119.325 43.2323V42.6619H133.815ZM132.274 44.3732V62.5702H132.845C135.735 62.5702 137.979 61.7906 139.576 60.2314C141.211 58.6342 142.029 56.4095 142.029 53.5573C142.029 50.667 141.192 48.4233 139.519 46.8261C137.846 45.1908 135.526 44.3732 132.56 44.3732H132.274ZM174.448 77.7439C174.448 79.5693 174.714 80.9764 175.247 81.9652C175.779 82.9539 176.388 83.4483 177.072 83.4483V84.0758H161.499V83.4483C162.222 83.4483 162.849 82.9539 163.382 81.9652C163.914 80.9764 164.18 79.5693 164.18 77.7439V65.3654L156.593 48.6515C155.909 47.0923 155.11 45.7993 154.197 44.7725C153.285 43.7457 152.467 43.2323 151.745 43.2323V42.6619H167.489V43.2323C166.766 43.2323 166.329 43.7457 166.177 44.7725C166.025 45.7993 166.31 47.0923 167.032 48.6515L173.535 62.9695L180.038 48.6515C180.381 47.8909 180.552 47.1874 180.552 46.5409C180.59 45.8563 180.514 45.2669 180.324 44.7725C180.133 44.2781 179.848 43.8978 179.468 43.6316C179.126 43.3654 178.783 43.2323 178.441 43.2323V42.6619H186.77V43.2323C186.047 43.2323 185.229 43.7457 184.317 44.7725C183.404 45.7993 182.605 47.0923 181.921 48.6515L174.448 65.1372V77.7439ZM204.782 42.6619C212.35 42.6619 217.959 44.4302 221.61 47.967C225.299 51.5037 227.143 56.6376 227.143 63.3688C227.143 77.1735 219.69 84.0758 204.782 84.0758H190.236V83.5054C190.958 83.5054 191.586 83.068 192.118 82.1934C192.651 81.3187 192.917 80.0257 192.917 78.3144V48.4233C192.917 46.712 192.651 45.419 192.118 44.5443C191.586 43.6696 190.958 43.2323 190.236 43.2323V42.6619H204.782ZM203.755 82.3645C208.015 82.3645 211.247 80.7673 213.453 77.5728C215.659 74.3403 216.761 69.6627 216.761 63.54C216.761 57.3792 215.639 52.6446 213.396 49.336C211.152 46.0275 207.901 44.3732 203.641 44.3732H203.185V82.3645H203.755ZM248.971 42.6619L261.806 77.9721C262.452 79.7595 263.194 81.1285 264.03 82.0793C264.905 83.03 265.647 83.5054 266.255 83.5054V84.0758H248.8V83.5054C249.978 83.5054 250.758 83.03 251.138 82.0793C251.557 81.1285 251.424 79.6834 250.739 77.7439L249.541 74.4354H233.112L231.686 78.3714C231.002 80.2348 230.907 81.5659 231.401 82.3645C231.896 83.1251 232.732 83.5054 233.911 83.5054V84.0758H224.271V83.5054C225.374 83.5054 226.419 83.03 227.408 82.0793C228.435 81.0905 229.233 79.7975 229.804 78.2003L242.753 42.6619H248.971ZM248.971 72.7241L241.384 51.7889L233.683 72.7241H248.971ZM283.516 77.7439C283.516 79.5693 283.782 80.9764 284.314 81.9652C284.847 82.9539 285.455 83.4483 286.14 83.4483V84.0758H270.567V83.4483C271.289 83.4483 271.917 82.9539 272.449 81.9652C272.982 80.9764 273.248 79.5693 273.248 77.7439V65.3654L265.661 48.6515C264.976 47.0923 264.178 45.7993 263.265 44.7725C262.352 43.7457 261.535 43.2323 260.812 43.2323V42.6619H276.556V43.2323C275.834 43.2323 275.396 43.7457 275.244 44.7725C275.092 45.7993 275.377 47.0923 276.1 48.6515L282.603 62.9695L289.106 48.6515C289.448 47.8909 289.619 47.1874 289.619 46.5409C289.657 45.8563 289.581 45.2669 289.391 44.7725C289.201 44.2781 288.916 43.8978 288.536 43.6316C288.193 43.3654 287.851 43.2323 287.509 43.2323V42.6619H295.837V43.2323C295.115 43.2323 294.297 43.7457 293.384 44.7725C292.472 45.7993 291.673 47.0923 290.989 48.6515L283.516 65.1372V77.7439ZM305.438 84.5892C304.03 84.5892 302.833 84.1328 301.844 83.2201C300.893 82.3074 300.418 81.1856 300.418 79.8546C300.418 78.5235 300.893 77.4017 301.844 76.489C302.833 75.5763 304.03 75.1199 305.438 75.1199C306.845 75.1199 308.024 75.5763 308.974 76.489C309.963 77.4017 310.457 78.5235 310.457 79.8546C310.457 81.1856 309.963 82.3074 308.974 83.2201C308.024 84.1328 306.845 84.5892 305.438 84.5892Z" fill="url(#paint1_radial_619_2905)"/>
<path d="M194.588 11.6504C194.251 10.5946 193.813 9.78591 193.274 9.22433C192.757 8.66275 192.319 8.38195 191.96 8.38195V8.04501H202.27V8.38195C201.574 8.38195 201.113 8.67398 200.889 9.25802C200.664 9.81961 200.743 10.662 201.125 11.7852L205.673 25.7012L208.841 16.0307L207.459 11.6504C207.122 10.5946 206.684 9.78591 206.145 9.22433C205.628 8.66275 205.19 8.38195 204.831 8.38195V8.04501H215.142V8.38195C214.445 8.38195 213.985 8.67398 213.76 9.25802C213.536 9.81961 213.614 10.662 213.996 11.7852L218.545 25.7012L223.229 11.4145C223.588 10.3138 223.633 9.53882 223.363 9.08955C223.094 8.61782 222.611 8.38195 221.914 8.38195V8.04501H227.609V8.38195C226.957 8.38195 226.328 8.67398 225.722 9.25802C225.115 9.81961 224.655 10.5721 224.34 11.5156L217.703 32.5076H214.03L209.447 17.9513L204.831 32.5076H201.158L194.588 11.6504ZM236.196 8.04501L243.777 28.9022C244.159 29.958 244.597 30.7667 245.091 31.3283C245.608 31.8898 246.046 32.1706 246.405 32.1706V32.5076H236.095V32.1706C236.791 32.1706 237.252 31.8898 237.476 31.3283C237.723 30.7667 237.645 29.9131 237.24 28.7674L236.533 26.8131H226.829L225.986 29.1381C225.582 30.2388 225.526 31.025 225.818 31.4967C226.11 31.946 226.604 32.1706 227.3 32.1706V32.5076H221.606V32.1706C222.257 32.1706 222.875 31.8898 223.459 31.3283C224.066 30.7442 224.537 29.9805 224.874 29.037L232.523 8.04501H236.196ZM236.196 25.8023L231.714 13.4362L227.166 25.8023H236.196ZM256.601 28.7674C256.601 29.8457 256.758 30.6768 257.073 31.2609C257.387 31.8449 257.747 32.1369 258.151 32.1369V32.5076H248.952V32.1369C249.379 32.1369 249.75 31.8449 250.064 31.2609C250.379 30.6768 250.536 29.8457 250.536 28.7674V21.4556L246.055 11.583C245.65 10.662 245.178 9.89823 244.639 9.29172C244.1 8.68521 243.617 8.38195 243.19 8.38195V8.04501H252.49V8.38195C252.063 8.38195 251.805 8.68521 251.715 9.29172C251.625 9.89823 251.794 10.662 252.221 11.583L256.062 20.0404L259.903 11.583C260.105 11.1337 260.206 10.7181 260.206 10.3363C260.229 9.93192 260.184 9.58374 260.072 9.29172C259.959 8.9997 259.791 8.77506 259.566 8.61782C259.364 8.46058 259.162 8.38195 258.96 8.38195V8.04501H263.879V8.38195C263.452 8.38195 262.969 8.68521 262.43 9.29172C261.891 9.89823 261.419 10.662 261.015 11.583L256.601 21.3208V28.7674Z" fill="url(#paint2_radial_619_2905)"/>
<path d="M140.577 38.1359C141.526 39.1762 139.935 40.6753 138.956 39.6657C138.068 38.7478 136.875 38.0442 135.56 37.5852C134.305 37.1875 133.02 36.8816 131.735 36.7286C126.626 43.2147 119.803 48.477 112.308 47.8957C107.198 46.3659 110.594 40.4917 113.654 38.6255C117.907 35.566 124.423 33.6691 130.389 34.0668C131.705 32.323 132.867 30.4873 133.938 28.621C133.724 28.8657 133.54 29.0187 133.449 29.1105C132.102 30.3649 129.349 31.3745 128.186 29.3247C127.391 27.489 128.37 25.4697 128.859 23.7258C129.104 22.9916 129.38 22.2879 129.624 21.6148C130.206 20.1157 132.561 20.9111 132.133 22.4409C131.674 24.5213 129.563 27.8867 130.114 28.4068C131.246 29.5082 135.682 25.378 136.722 23.1139C137.334 21.523 139.812 22.5021 139.17 24.093C137.824 27.3054 135.866 30.9768 133.387 34.4952C136.141 35.0765 138.619 36.2391 140.577 38.1359ZM120.079 43.3982C123.261 41.6543 126.014 39.2985 128.401 36.545C123.72 36.6368 118.977 38.1054 115.245 40.7365C108.086 46.9166 115.765 45.9376 120.079 43.3982ZM154.03 22.2573C155.345 21.8596 156.018 23.9094 154.672 24.3377C152.561 24.8884 150.236 25.1332 148.125 24.4601C148.767 27.1219 147.36 29.9672 143.78 30.2119C141.455 30.5485 138.763 29.3859 139.436 26.6323C139.956 24.6743 141.394 23.1751 143.015 22.0125C142.954 21.7678 142.954 21.523 143.046 21.2477C143.321 20.4828 144.239 20.2074 144.943 20.544C144.974 20.5746 145.004 20.5746 145.035 20.6052H145.065C145.494 20.8193 145.861 21.0641 146.197 21.3395C148.584 22.7162 151.368 23.2057 154.03 22.2573ZM145.402 27.3666C146.503 26.3876 146.136 24.7355 145.188 23.7564C145.157 23.7564 145.126 23.787 145.096 23.8176C143.811 24.4601 142.526 25.4697 141.883 26.7853C141.516 27.5808 141.608 27.8255 142.495 27.9479C143.444 28.0703 144.729 27.9479 145.402 27.3666ZM172.875 22.808C173.854 21.37 175.751 22.9304 174.558 24.1848C172.6 26.6017 169.51 28.8046 166.236 27.9785C164.584 27.5502 163.666 26.2958 163.238 24.7967C163.054 25.1332 162.871 25.4391 162.687 25.7451C161.463 27.6114 159.781 29.8142 157.302 29.8142C155.956 29.8142 154.733 28.7128 154.58 27.3666C154.274 25.4085 154.947 23.5423 155.375 21.7678C155.865 19.9933 158.496 20.8193 157.884 22.5632C157.547 23.6035 155.956 27.1219 157.119 27.7337C158.19 28.0703 159.138 27.2748 159.934 26.51C160.943 25.5003 161.769 24.2459 162.381 22.961C162.718 22.2879 162.993 21.6148 163.207 20.9111C163.238 20.8499 163.268 20.7887 163.299 20.7582C163.789 19.1978 166.236 19.8097 165.808 21.4924C164.278 27.7643 170.275 26.1734 172.875 22.808ZM192.085 22.6244C192.85 21.4924 194.686 22.7468 193.86 23.8788C192.973 25.1944 191.871 26.2346 190.617 27.1219C187.466 29.5082 182.54 30.2731 179.419 27.3666C178.501 26.4794 176.666 24.919 178.134 23.7258C178.318 23.6035 178.501 23.5423 178.685 23.5117C180.306 23.1751 182.356 22.6244 182.754 20.9417C182.785 20.6358 182.693 20.391 182.387 20.391C179.052 20.391 176.727 23.6647 175.258 26.357C174.218 28.3456 173.3 30.4567 172.566 32.5983C172.168 33.8527 170.21 33.2714 170.547 32.017C171.862 27.3054 173.606 22.2573 177.675 19.1978C179.664 17.7293 183.611 16.6891 185.171 19.3814C186.425 22.2879 183.886 24.5519 181.255 25.5615C184.467 28.315 189.73 25.9593 192.085 22.6244Z" fill="#FD7034"/>
</g>
<defs>
<filter id="filter0_d_619_2905" x="0.656203" y="2.00926" width="314.501" height="89.8764" filterUnits="userSpaceOnUse" color-interpolation-filters="sRGB">
<feFlood flood-opacity="0" result="BackgroundImageFix"/>
<feColorMatrix in="SourceAlpha" type="matrix" values="0 0 0 0 0 0 0 0 0 0 0 0 0 0 0 0 0 0 127 0" result="hardAlpha"/>
<feOffset dy="2.54014"/>
<feGaussianBlur stdDeviation="2.34963"/>
<feComposite in2="hardAlpha" operator="out"/>
<feColorMatrix type="matrix" values="0 0 0 0 0 0 0 0 0 0 0 0 0 0 0 0 0 0 0.25 0"/>
<feBlend mode="normal" in2="BackgroundImageFix" result="effect1_dropShadow_619_2905"/>
<feBlend mode="normal" in="SourceGraphic" in2="effect1_dropShadow_619_2905" result="shape"/>
</filter>
<radialGradient id="paint0_radial_619_2905" cx="0" cy="0" r="1" gradientUnits="userSpaceOnUse" gradientTransform="translate(74.9293 20) rotate(-155.633) scale(48.4746 85.3675)">
<stop offset="0.26242" stop-color="#698531"/>
<stop offset="1" stop-color="#90B042"/>
</radialGradient>
<radialGradient id="paint1_radial_619_2905" cx="0" cy="0" r="1" gradientUnits="userSpaceOnUse" gradientTransform="translate(158.215 68.5758) rotate(-166.562) scale(144.154 152.677)">
<stop offset="0.26242" stop-color="#698531"/>
<stop offset="1" stop-color="#90B042"/>
</radialGradient>
<radialGradient id="paint2_radial_619_2905" cx="0" cy="0" r="1" gradientUnits="userSpaceOnUse" gradientTransform="translate(228.286 23.5076) rotate(-149.302) scale(39.1761 80.5833)">
<stop offset="0.26242" stop-color="#698531"/>
<stop offset="1" stop-color="#90B042"/>
</radialGradient>
</defs>
</svg>
