<svg width="369" height="87" viewBox="0 0 369 87" fill="none" xmlns="http://www.w3.org/2000/svg">
<g filter="url(#filter0_d_1271_2043)">
<path d="M81.8053 7.75995C81.4944 6.78604 81.0904 6.04006 80.5931 5.52202C80.1165 5.00398 79.7124 4.74497 79.3808 4.74497V4.43414H88.892V4.74497C88.2497 4.74497 87.8249 5.01434 87.6177 5.5531C87.4104 6.07114 87.483 6.8482 87.8352 7.88428L92.0313 20.7213L94.9531 11.8006L93.6787 7.75995C93.3679 6.78604 92.9638 6.04006 92.4665 5.52202C91.9899 5.00398 91.5858 4.74497 91.2543 4.74497V4.43414H100.765V4.74497C100.123 4.74497 99.6983 5.01434 99.4911 5.5531C99.2839 6.07114 99.3564 6.8482 99.7087 7.88428L103.905 20.7213L108.225 7.54237C108.557 6.52702 108.598 5.81212 108.35 5.39769C108.101 4.96254 107.655 4.74497 107.013 4.74497V4.43414H112.266V4.74497C111.665 4.74497 111.085 5.01434 110.525 5.5531C109.966 6.07114 109.541 6.76531 109.251 7.63562L103.128 26.9999H99.7397L95.5126 13.5723L91.2543 26.9999H87.8663L81.8053 7.75995ZM126.164 15.6548C126.164 13.7899 125.273 12.8574 123.49 12.8574C122.952 12.8574 122.413 13.0129 121.874 13.3237C121.356 13.6345 120.921 14.0593 120.569 14.598V23.5808C120.569 23.9538 120.61 24.3268 120.693 24.6998C120.776 25.0728 120.88 25.4147 121.004 25.7255C121.149 26.0156 121.304 26.2539 121.47 26.4404C121.657 26.6062 121.843 26.6891 122.03 26.6891V26.9999H113.824V26.6891C114.01 26.6891 114.187 26.6062 114.352 26.4404C114.539 26.2539 114.694 26.026 114.819 25.7566C114.964 25.4665 115.078 25.1453 115.16 24.793C115.243 24.42 115.285 24.0574 115.285 23.7052V7.79103C115.285 7.39732 115.243 7.02433 115.16 6.67207C115.078 6.29908 114.964 5.97789 114.819 5.70851C114.694 5.41841 114.539 5.19048 114.352 5.02471C114.187 4.83821 114.01 4.74497 113.824 4.74497V4.43414C114.404 4.3927 114.984 4.3409 115.565 4.27873C116.145 4.19585 116.715 4.1026 117.274 3.99899C117.834 3.89538 118.362 3.78141 118.859 3.65708C119.357 3.51203 119.802 3.34626 120.196 3.15977H120.569V13.1993C121.17 12.4741 121.957 11.8524 122.931 11.3344C123.926 10.8164 125.014 10.5574 126.195 10.5574C127.894 10.5574 129.189 11.065 130.08 12.0804C130.992 13.0957 131.448 14.567 131.448 16.4941V23.5808C131.448 23.9538 131.489 24.3268 131.572 24.6998C131.655 25.0728 131.758 25.4147 131.883 25.7255C132.028 26.0156 132.183 26.2539 132.349 26.4404C132.535 26.6062 132.722 26.6891 132.908 26.6891V26.9999H124.703V26.6891C124.889 26.6891 125.065 26.6062 125.231 26.4404C125.418 26.2539 125.573 26.026 125.697 25.7566C125.842 25.4665 125.956 25.1453 126.039 24.793C126.122 24.42 126.164 24.0574 126.164 23.7052V15.6548ZM135.704 34.4285C134.917 34.4285 134.254 34.2939 133.715 34.0245C133.176 33.7551 132.751 33.4132 132.44 32.9988C132.15 32.605 131.964 32.1699 131.881 31.6933C131.819 31.2374 131.86 30.8023 132.005 30.3878C132.15 29.9941 132.399 29.6626 132.751 29.3932C133.104 29.1238 133.559 28.9891 134.119 28.9891C134.637 28.9891 135.041 29.072 135.331 29.2378C135.621 29.4036 135.849 29.6004 136.015 29.8284C136.201 30.077 136.346 30.336 136.45 30.6054C136.554 30.8955 136.668 31.1545 136.792 31.3825C136.916 31.6311 137.061 31.8384 137.227 32.0041C137.414 32.1699 137.683 32.2528 138.035 32.2528C138.388 32.2528 138.729 32.1181 139.061 31.8487C139.413 31.5793 139.734 31.1131 140.025 30.45L134.119 14.2561C133.787 13.3444 133.394 12.6088 132.938 12.0493C132.482 11.4691 132.057 11.179 131.663 11.179V10.8682H140.366V11.179C139.993 11.179 139.745 11.4691 139.62 12.0493C139.496 12.6088 139.6 13.3444 139.931 14.2561L142.977 22.6484L146.148 14.1629C146.314 13.7277 146.376 13.334 146.334 12.9818C146.314 12.6088 146.231 12.298 146.086 12.0493C145.961 11.7799 145.796 11.5727 145.588 11.4277C145.402 11.2619 145.215 11.179 145.029 11.179V10.8682H149.94V11.179C149.753 11.179 149.515 11.2619 149.225 11.4277C148.935 11.5727 148.645 11.7799 148.355 12.0493C148.065 12.298 147.785 12.6088 147.515 12.9818C147.267 13.334 147.06 13.7277 146.894 14.1629L141.081 29.8284C140.501 31.4032 139.766 32.5636 138.875 33.3096C138.004 34.0556 136.947 34.4285 135.704 34.4285ZM172.188 4.09224C173.431 4.09224 174.561 4.23729 175.576 4.52739C176.591 4.81749 177.451 5.2112 178.156 5.70851C178.881 6.20583 179.43 6.78604 179.803 7.44912C180.197 8.09149 180.384 8.7753 180.363 9.50055C180.342 10.3501 180.083 11.0858 179.586 11.7074C179.088 12.3083 178.405 12.6088 177.534 12.6088C176.54 12.6088 175.825 12.3498 175.39 11.8317C174.954 11.293 174.747 10.5988 174.768 9.74921C174.768 9.29334 174.778 8.79602 174.799 8.25726C174.82 7.69778 174.758 7.17974 174.613 6.70315C174.468 6.22655 174.198 5.83284 173.804 5.52202C173.431 5.19048 172.851 5.02471 172.064 5.02471C171.359 5.02471 170.675 5.2112 170.012 5.58419C169.37 5.93645 168.8 6.48557 168.303 7.23155C167.806 7.97752 167.401 8.93071 167.091 10.0911C166.801 11.2308 166.656 12.5984 166.656 14.194C166.656 15.6238 166.811 16.9085 167.122 18.0482C167.453 19.1879 167.92 20.1618 168.52 20.9699C169.121 21.7573 169.847 22.3686 170.696 22.8038C171.546 23.2389 172.499 23.4565 173.556 23.4565C175.338 23.4565 176.799 22.9488 177.938 21.9335C179.078 20.8974 179.741 19.4987 179.928 17.7374H180.238C180.342 19.1464 180.197 20.4415 179.803 21.6226C179.41 22.8038 178.809 23.8191 178.001 24.6687C177.213 25.4976 176.25 26.1503 175.11 26.6269C173.97 27.0828 172.685 27.3107 171.256 27.3107C169.702 27.3107 168.293 27.0413 167.029 26.5026C165.764 25.9431 164.687 25.1557 163.796 24.1403C162.905 23.125 162.211 21.9127 161.713 20.5037C161.237 19.0739 160.999 17.4783 160.999 15.717C160.999 13.8728 161.278 12.2358 161.838 10.806C162.418 9.3555 163.205 8.13293 164.2 7.1383C165.215 6.14367 166.407 5.38733 167.774 4.86929C169.142 4.35126 170.613 4.09224 172.188 4.09224ZM193.363 15.6548C193.363 13.7899 192.472 12.8574 190.69 12.8574C190.151 12.8574 189.613 13.0129 189.074 13.3237C188.556 13.6345 188.121 14.0593 187.768 14.598V23.5808C187.768 23.9538 187.81 24.3268 187.893 24.6998C187.976 25.0728 188.079 25.4147 188.204 25.7255C188.349 26.0156 188.504 26.2539 188.67 26.4404C188.856 26.6062 189.043 26.6891 189.229 26.6891V26.9999H181.024V26.6891C181.21 26.6891 181.386 26.6062 181.552 26.4404C181.738 26.2539 181.894 26.026 182.018 25.7566C182.163 25.4665 182.277 25.1453 182.36 24.793C182.443 24.42 182.484 24.0574 182.484 23.7052V7.79103C182.484 7.39732 182.443 7.02433 182.36 6.67207C182.277 6.29908 182.163 5.97789 182.018 5.70851C181.894 5.41841 181.738 5.19048 181.552 5.02471C181.386 4.83821 181.21 4.74497 181.024 4.74497V4.43414C181.604 4.3927 182.184 4.3409 182.764 4.27873C183.344 4.19585 183.914 4.1026 184.474 3.99899C185.033 3.89538 185.562 3.78141 186.059 3.65708C186.556 3.51203 187.002 3.34626 187.395 3.15977H187.768V13.1993C188.369 12.4741 189.157 11.8524 190.131 11.3344C191.125 10.8164 192.213 10.5574 193.394 10.5574C195.093 10.5574 196.389 11.065 197.28 12.0804C198.191 13.0957 198.647 14.567 198.647 16.4941V23.5808C198.647 23.9538 198.689 24.3268 198.772 24.6998C198.854 25.0728 198.958 25.4147 199.082 25.7255C199.227 26.0156 199.383 26.2539 199.549 26.4404C199.735 26.6062 199.922 26.6891 200.108 26.6891V26.9999H191.902V26.6891C192.089 26.6891 192.265 26.6062 192.431 26.4404C192.617 26.2539 192.773 26.026 192.897 25.7566C193.042 25.4665 193.156 25.1453 193.239 24.793C193.322 24.42 193.363 24.0574 193.363 23.7052V15.6548ZM200.897 18.9496C200.897 17.7477 201.114 16.6391 201.55 15.6238C202.005 14.5877 202.617 13.6967 203.383 12.9507C204.171 12.2047 205.093 11.6245 206.15 11.2101C207.227 10.7749 208.377 10.5574 209.6 10.5574C210.822 10.5574 211.952 10.7749 212.988 11.2101C214.045 11.6245 214.956 12.2047 215.723 12.9507C216.49 13.6967 217.091 14.5877 217.526 15.6238C217.982 16.6391 218.21 17.7477 218.21 18.9496C218.21 20.1307 217.982 21.2393 217.526 22.2754C217.091 23.2907 216.49 24.1714 215.723 24.9174C214.956 25.6633 214.045 26.2539 212.988 26.6891C211.952 27.1035 210.822 27.3107 209.6 27.3107C208.377 27.3107 207.227 27.1035 206.15 26.6891C205.093 26.2539 204.171 25.6633 203.383 24.9174C202.617 24.1714 202.005 23.2907 201.55 22.2754C201.114 21.2393 200.897 20.1307 200.897 18.9496ZM206.554 18.9185C206.554 20.4104 206.626 21.6537 206.771 22.6484C206.937 23.6223 207.155 24.3993 207.424 24.9795C207.714 25.539 208.035 25.9431 208.388 26.1917C208.761 26.4197 209.154 26.5336 209.569 26.5336C209.983 26.5336 210.367 26.4197 210.719 26.1917C211.092 25.9431 211.413 25.539 211.682 24.9795C211.952 24.3993 212.159 23.6223 212.304 22.6484C212.47 21.6537 212.553 20.4104 212.553 18.9185C212.553 17.4265 212.47 16.1936 212.304 15.2197C212.159 14.2458 211.952 13.4791 211.682 12.9196C211.413 12.3394 211.092 11.9353 210.719 11.7074C210.367 11.4587 209.983 11.3344 209.569 11.3344C209.154 11.3344 208.761 11.4587 208.388 11.7074C208.035 11.9353 207.714 12.3394 207.424 12.9196C207.155 13.4791 206.937 14.2458 206.771 15.2197C206.626 16.1936 206.554 17.4265 206.554 18.9185ZM220.072 18.9496C220.072 17.7477 220.289 16.6391 220.725 15.6238C221.18 14.5877 221.792 13.6967 222.558 12.9507C223.346 12.2047 224.268 11.6245 225.325 11.2101C226.402 10.7749 227.552 10.5574 228.775 10.5574C229.997 10.5574 231.127 10.7749 232.163 11.2101C233.22 11.6245 234.131 12.2047 234.898 12.9507C235.665 13.6967 236.266 14.5877 236.701 15.6238C237.157 16.6391 237.385 17.7477 237.385 18.9496C237.385 20.1307 237.157 21.2393 236.701 22.2754C236.266 23.2907 235.665 24.1714 234.898 24.9174C234.131 25.6633 233.22 26.2539 232.163 26.6891C231.127 27.1035 229.997 27.3107 228.775 27.3107C227.552 27.3107 226.402 27.1035 225.325 26.6891C224.268 26.2539 223.346 25.6633 222.558 24.9174C221.792 24.1714 221.18 23.2907 220.725 22.2754C220.289 21.2393 220.072 20.1307 220.072 18.9496ZM225.729 18.9185C225.729 20.4104 225.801 21.6537 225.946 22.6484C226.112 23.6223 226.33 24.3993 226.599 24.9795C226.889 25.539 227.21 25.9431 227.563 26.1917C227.936 26.4197 228.329 26.5336 228.744 26.5336C229.158 26.5336 229.542 26.4197 229.894 26.1917C230.267 25.9431 230.588 25.539 230.857 24.9795C231.127 24.3993 231.334 23.6223 231.479 22.6484C231.645 21.6537 231.728 20.4104 231.728 18.9185C231.728 17.4265 231.645 16.1936 231.479 15.2197C231.334 14.2458 231.127 13.4791 230.857 12.9196C230.588 12.3394 230.267 11.9353 229.894 11.7074C229.542 11.4587 229.158 11.3344 228.744 11.3344C228.329 11.3344 227.936 11.4587 227.563 11.7074C227.21 11.9353 226.889 12.3394 226.599 12.9196C226.33 13.4791 226.112 14.2458 225.946 15.2197C225.801 16.1936 225.729 17.4265 225.729 18.9185ZM245.906 11.3344C245.533 11.3344 245.201 11.4795 244.911 11.7696C244.621 12.0597 244.476 12.4741 244.476 13.0129C244.476 13.6967 244.683 14.2976 245.098 14.8156C245.512 15.3337 246.03 15.8103 246.652 16.2454C247.273 16.6598 247.947 17.0743 248.672 17.4887C249.397 17.8824 250.071 18.3176 250.693 18.7942C251.314 19.25 251.832 19.7784 252.247 20.3794C252.661 20.9596 252.868 21.6434 252.868 22.4308C252.868 23.1353 252.692 23.788 252.34 24.389C252.008 24.9899 251.532 25.5079 250.91 25.9431C250.288 26.3782 249.553 26.7201 248.703 26.9688C247.874 27.1967 246.963 27.3107 245.968 27.3107C244.973 27.3107 244.051 27.2278 243.202 27.062C242.352 26.917 241.606 26.6891 240.964 26.3782C240.342 26.0467 239.845 25.6323 239.472 25.1349C239.12 24.6376 238.943 24.0574 238.943 23.3943C238.943 22.6898 239.171 22.0785 239.627 21.5605C240.104 21.0424 240.705 20.7834 241.43 20.7834C242.031 20.7834 242.497 20.9285 242.829 21.2186C243.16 21.488 243.409 21.8402 243.575 22.2754C243.761 22.7105 243.896 23.1768 243.979 23.6741C244.082 24.1507 244.196 24.6065 244.321 25.0417C244.466 25.4768 244.652 25.8395 244.88 26.1296C245.129 26.399 245.491 26.5336 245.968 26.5336C246.465 26.5336 246.849 26.4197 247.118 26.1917C247.408 25.9638 247.553 25.6115 247.553 25.1349C247.553 24.4719 247.346 23.8916 246.932 23.3943C246.517 22.8763 245.989 22.3893 245.346 21.9335C244.725 21.4776 244.051 21.0321 243.326 20.5969C242.601 20.1618 241.917 19.6852 241.275 19.1671C240.653 18.6491 240.135 18.0793 239.72 17.4576C239.306 16.8153 239.099 16.0796 239.099 15.2508C239.099 14.6084 239.265 14.0075 239.596 13.448C239.948 12.8678 240.425 12.3705 241.026 11.9561C241.627 11.5209 242.331 11.179 243.14 10.9303C243.968 10.6817 244.859 10.5574 245.813 10.5574C248.009 10.5574 249.698 10.9407 250.879 11.7074C252.081 12.4534 252.682 13.4273 252.682 14.6291C252.682 15.2922 252.464 15.8206 252.029 16.2143C251.594 16.608 251.014 16.8049 250.288 16.8049C249.708 16.8049 249.242 16.6702 248.89 16.4008C248.558 16.1314 248.278 15.7999 248.051 15.4062C247.843 14.9918 247.678 14.5462 247.553 14.0696C247.45 13.5931 247.325 13.1579 247.18 12.7642C247.056 12.3498 246.9 12.0079 246.714 11.7385C246.527 11.4691 246.258 11.3344 245.906 11.3344ZM259.823 17.9549C259.927 19.9442 260.414 21.4672 261.284 22.524C262.175 23.5808 263.325 24.1092 264.734 24.1092C265.024 24.1092 265.407 24.0885 265.884 24.0471C266.361 23.9849 266.848 23.8398 267.345 23.6119C267.842 23.384 268.308 23.0524 268.744 22.6173C269.179 22.1614 269.479 21.5294 269.645 20.7213H269.956C269.873 21.7781 269.624 22.7209 269.21 23.5497C268.816 24.3579 268.298 25.0417 267.656 25.6012C267.013 26.1607 266.267 26.5854 265.418 26.8755C264.568 27.1657 263.646 27.3107 262.651 27.3107C261.45 27.3107 260.341 27.1035 259.326 26.6891C258.331 26.2746 257.471 25.6944 256.746 24.9484C256.021 24.2025 255.451 23.3114 255.036 22.2754C254.643 21.2393 254.446 20.0996 254.446 18.8563C254.446 17.613 254.632 16.4837 255.005 15.4684C255.399 14.453 255.938 13.5827 256.621 12.8574C257.326 12.1322 258.155 11.5727 259.108 11.179C260.082 10.7646 261.149 10.5574 262.31 10.5574C263.366 10.5574 264.351 10.7335 265.262 11.0858C266.195 11.4173 267.003 11.8939 267.687 12.5155C268.371 13.1165 268.909 13.8314 269.303 14.6602C269.697 15.4684 269.894 16.349 269.894 17.3022V17.9549H259.823ZM264.765 17.209C264.703 15.3855 264.465 13.9557 264.05 12.9196C263.636 11.8628 263.097 11.3344 262.434 11.3344C262.04 11.3344 261.688 11.4898 261.377 11.8006C261.066 12.1115 260.797 12.5363 260.569 13.075C260.341 13.6138 260.165 14.2458 260.041 14.971C259.916 15.6756 259.833 16.4215 259.792 17.209H264.765Z" fill="white"/>
</g>
<g filter="url(#filter1_d_1271_2043)">
<path d="M15.4597 73.9354C16.0654 73.9354 16.5914 73.521 17.0377 72.6921C17.484 71.8633 17.7072 70.6837 17.7072 69.1535V44.5746C17.7072 43.1401 17.484 42.0562 17.0377 41.3229C16.5914 40.5897 16.0654 40.2231 15.4597 40.2231V39.7449H28.3708C32.6745 39.7449 36.0059 40.4622 38.3649 41.8968C40.724 43.3313 41.9035 45.3238 41.9035 47.8741C41.9035 49.7231 41.3616 51.2852 40.2777 52.5604C39.1938 53.8037 37.7592 54.6006 35.974 54.9513C37.1216 55.1745 38.2055 55.573 39.2257 56.1468C40.2458 56.7206 41.1384 57.422 41.9035 58.2508C42.6686 59.0797 43.2584 60.0201 43.6728 61.0721C44.1191 62.0923 44.3423 63.1602 44.3423 64.276C44.3423 67.7827 43.2425 70.3649 41.0428 72.0227C38.8431 73.6485 35.5595 74.4614 31.1921 74.4614H15.4597V73.9354ZM26.3624 55.286C28.5621 55.286 30.2517 54.6963 31.4312 53.5167C32.6107 52.3053 33.2005 50.5998 33.2005 48.4001C33.2005 46.1048 32.5948 44.3355 31.3834 43.0922C30.2038 41.8171 28.5461 41.1795 26.4102 41.1795H26.3146V55.286H26.3624ZM27.0797 73.0269C32.7861 73.0269 35.6392 70.2852 35.6392 64.802C35.6392 59.4144 32.6904 56.7206 26.7928 56.7206H26.3146V73.0269H27.0797ZM47.6683 62.0763C47.6683 60.2273 48.003 58.5218 48.6725 56.9597C49.3739 55.3657 50.3143 53.9949 51.4938 52.8473C52.7052 51.6996 54.1239 50.807 55.7497 50.1694C57.4074 49.5 59.1767 49.1652 61.0576 49.1652C62.9385 49.1652 64.6759 49.5 66.2699 50.1694C67.8957 50.807 69.2984 51.6996 70.4779 52.8473C71.6575 53.9949 72.582 55.3657 73.2514 56.9597C73.9528 58.5218 74.3034 60.2273 74.3034 62.0763C74.3034 63.8935 73.9528 65.599 73.2514 67.193C72.582 68.755 71.6575 70.1099 70.4779 71.2576C69.2984 72.4052 67.8957 73.3138 66.2699 73.9832C64.6759 74.6208 62.9385 74.9396 61.0576 74.9396C59.1767 74.9396 57.4074 74.6208 55.7497 73.9832C54.1239 73.3138 52.7052 72.4052 51.4938 71.2576C50.3143 70.1099 49.3739 68.755 48.6725 67.193C48.003 65.599 47.6683 63.8935 47.6683 62.0763ZM56.3714 62.0285C56.3714 64.3238 56.4829 66.2366 56.7061 67.7668C56.9611 69.2651 57.2959 70.4606 57.7103 71.3532C58.1566 72.2139 58.6507 72.8356 59.1927 73.2181C59.7665 73.5688 60.3722 73.7441 61.0098 73.7441C61.6474 73.7441 62.2371 73.5688 62.7791 73.2181C63.3529 72.8356 63.847 72.2139 64.2615 71.3532C64.6759 70.4606 64.9947 69.2651 65.2178 67.7668C65.4729 66.2366 65.6004 64.3238 65.6004 62.0285C65.6004 59.7332 65.4729 57.8364 65.2178 56.3381C64.9947 54.8397 64.6759 53.6602 64.2615 52.7995C63.847 51.9068 63.3529 51.2852 62.7791 50.9345C62.2371 50.552 61.6474 50.3607 61.0098 50.3607C60.3722 50.3607 59.7665 50.552 59.1927 50.9345C58.6507 51.2852 58.1566 51.9068 57.7103 52.7995C57.2959 53.6602 56.9611 54.8397 56.7061 56.3381C56.4829 57.8364 56.3714 59.7332 56.3714 62.0285ZM93.2816 57.0075C93.2816 54.1384 92.0701 52.7038 89.6473 52.7038C88.9141 52.7038 88.1809 52.9429 87.4477 53.4211C86.7144 53.8993 86.1087 54.5369 85.6305 55.3339V69.2013C85.6305 69.7752 85.6943 70.349 85.8218 70.9228C85.9493 71.4967 86.1087 72.0227 86.3 72.5009C86.5232 72.9472 86.7622 73.3138 87.0173 73.6007C87.3042 73.8557 87.5911 73.9832 87.878 73.9832V74.4614H75.2538V73.9832C75.5407 73.9832 75.8117 73.8557 76.0668 73.6007C76.3537 73.3138 76.5928 72.9631 76.784 72.5487C77.0072 72.1024 77.1825 71.6082 77.31 71.0663C77.4376 70.4925 77.5013 69.9346 77.5013 69.3926V56.7684C77.5013 56.1627 77.4376 55.5889 77.31 55.047C77.1825 54.4731 77.0072 53.979 76.784 53.5646C76.5928 53.1183 76.3537 52.7676 76.0668 52.5126C75.8117 52.2256 75.5407 52.0822 75.2538 52.0822V51.604C76.1465 51.5402 77.0391 51.4605 77.9317 51.3649C78.8243 51.2374 79.701 51.0939 80.5617 50.9345C81.4225 50.7751 82.2354 50.5998 83.0005 50.4085C83.7656 50.1854 84.451 49.9303 85.0567 49.6434H85.6305V53.182C86.4913 52.0662 87.6389 51.1258 89.0735 50.3607C90.5081 49.5637 92.0861 49.1652 93.8076 49.1652C97.1549 49.1652 99.4183 50.5998 100.598 53.4689C101.427 52.2575 102.574 51.2374 104.041 50.4085C105.539 49.5797 107.181 49.1652 108.966 49.1652C111.453 49.1652 113.334 49.9463 114.609 51.5084C115.916 53.0704 116.569 55.3339 116.569 58.2986V69.2013C116.569 69.7752 116.633 70.349 116.761 70.9228C116.888 71.4967 117.048 72.0227 117.239 72.5009C117.462 72.9472 117.701 73.3138 117.956 73.6007C118.243 73.8557 118.53 73.9832 118.817 73.9832V74.4614H106.193V73.9832C106.48 73.9832 106.751 73.8557 107.006 73.6007C107.292 73.3138 107.532 72.9631 107.723 72.5487C107.946 72.1024 108.121 71.6082 108.249 71.0663C108.376 70.4925 108.44 69.9346 108.44 69.3926V57.0075C108.44 54.1384 107.229 52.7038 104.806 52.7038C104.136 52.7038 103.467 52.911 102.798 53.3255C102.128 53.708 101.554 54.234 101.076 54.9035C101.172 55.4136 101.251 55.9555 101.315 56.5293C101.379 57.0713 101.411 57.6611 101.411 58.2986V69.2013C101.411 69.7752 101.475 70.349 101.602 70.9228C101.73 71.4967 101.889 72.0227 102.08 72.5009C102.303 72.9472 102.542 73.3138 102.798 73.6007C103.084 73.8557 103.371 73.9832 103.658 73.9832V74.4614H91.0341V73.9832C91.321 73.9832 91.592 73.8557 91.847 73.6007C92.1339 73.3138 92.373 72.9631 92.5643 72.5487C92.7874 72.1024 92.9628 71.6082 93.0903 71.0663C93.2178 70.4925 93.2816 69.9346 93.2816 69.3926V57.0075ZM129.653 68.1015C129.908 69.6955 130.545 70.8909 131.565 71.6879C132.586 72.4849 133.654 72.8834 134.769 72.8834C136.204 72.8834 137.352 71.943 138.212 70.0621C139.073 68.1493 139.503 65.599 139.503 62.4111C139.503 59.2231 139.073 56.7366 138.212 54.9513C137.352 53.1342 136.236 52.2256 134.865 52.2256C133.877 52.2256 132.872 52.6241 131.852 53.4211C130.864 54.2181 130.131 55.302 129.653 56.6728V68.1015ZM121.571 45.1963C121.571 44.5587 121.508 43.937 121.38 43.3313C121.252 42.7256 121.077 42.1996 120.854 41.7533C120.663 41.2751 120.424 40.9085 120.137 40.6535C119.882 40.3666 119.611 40.2231 119.324 40.2231V39.7449C120.153 39.6811 121.013 39.6015 121.906 39.5058C122.799 39.3783 123.675 39.2348 124.536 39.0754C125.429 38.916 126.258 38.7407 127.023 38.5494C127.82 38.3263 128.505 38.0712 129.079 37.7843H129.653V53.7558C130.673 52.2894 131.852 51.1577 133.191 50.3607C134.562 49.5637 136.124 49.1652 137.878 49.1652C139.312 49.1652 140.651 49.4521 141.894 50.026C143.138 50.5679 144.222 51.3808 145.146 52.4647C146.071 53.5167 146.788 54.8238 147.298 56.3859C147.84 57.9161 148.111 59.6535 148.111 61.5981C148.111 63.5428 147.84 65.344 147.298 67.0017C146.756 68.6275 145.975 70.0302 144.955 71.2097C143.966 72.3893 142.771 73.3138 141.368 73.9832C139.998 74.6208 138.467 74.9396 136.778 74.9396C133.59 74.9396 131.183 73.9195 129.557 71.8792L122.049 74.4614H121.571V45.1963ZM172.509 70.4925C172.509 71.0344 172.588 71.4648 172.748 71.7836C172.939 72.0705 173.226 72.2139 173.608 72.2139C173.863 72.2139 174.087 72.1502 174.278 72.0227C174.501 71.8951 174.708 71.6242 174.899 71.2097H175.378C175.378 72.2936 174.884 73.1863 173.895 73.8876C172.939 74.5889 171.727 74.9396 170.261 74.9396C167.232 74.9396 165.368 74.0311 164.666 72.2139C163.933 73.1703 163.008 73.8717 161.893 74.318C160.809 74.7324 159.597 74.9396 158.258 74.9396C157.175 74.9396 156.139 74.7643 155.15 74.4136C154.194 74.0629 153.349 73.5529 152.616 72.8834C151.883 72.1821 151.293 71.3532 150.847 70.3968C150.432 69.4086 150.225 68.2928 150.225 67.0495C150.225 65.2643 150.576 63.7659 151.277 62.5545C151.978 61.3431 152.855 60.3708 153.907 59.6376C154.959 58.9043 156.091 58.3783 157.302 58.0595C158.545 57.7408 159.693 57.5814 160.745 57.5814C161.415 57.5814 161.972 57.6292 162.419 57.7248C162.897 57.7886 163.279 57.8683 163.566 57.9639C163.885 58.0914 164.156 58.2189 164.379 58.3465V54.9035C164.379 53.5327 164.14 52.4329 163.662 51.604C163.216 50.7751 162.626 50.3607 161.893 50.3607C160.649 50.3607 160.028 51.6199 160.028 54.1384C160.028 55.1904 159.613 56.0671 158.784 56.7684C157.956 57.4698 156.824 57.8204 155.389 57.8204C154.274 57.8204 153.413 57.5335 152.807 56.9597C152.201 56.3859 151.899 55.6208 151.899 54.6644C151.899 53.8037 152.138 53.0386 152.616 52.3691C153.126 51.6678 153.811 51.078 154.672 50.5998C155.533 50.1216 156.537 49.7709 157.685 49.5478C158.864 49.2927 160.123 49.1652 161.462 49.1652C163.279 49.1652 164.873 49.4362 166.244 49.9782C167.615 50.5201 168.763 51.3011 169.687 52.3213C170.644 53.3095 171.345 54.5209 171.791 55.9555C172.269 57.3582 172.509 58.9362 172.509 60.6896V70.4925ZM164.379 61.4547C164.379 60.9127 164.22 60.4027 163.901 59.9245C163.614 59.4463 163.12 59.2072 162.419 59.2072C161.303 59.2072 160.394 59.9085 159.693 61.3112C158.992 62.682 158.641 64.6586 158.641 67.2408C158.641 68.8347 158.928 70.0621 159.502 70.9228C160.076 71.7836 160.761 72.2139 161.558 72.2139C162.674 72.2139 163.614 71.7198 164.379 70.7316V61.4547ZM177.297 73.266L189.156 50.8389H185.713C184.597 50.8389 183.593 51.0461 182.7 51.4605C181.84 51.8431 181.074 52.385 180.405 53.0864C179.767 53.7877 179.241 54.6166 178.827 55.573C178.413 56.4975 178.094 57.5017 177.871 58.5856H177.392L177.631 49.6434H198.385V50.8389L186.621 73.266H190.495C191.611 73.266 192.599 73.0747 193.46 72.6921C194.352 72.2777 195.117 71.7198 195.755 71.0185C196.424 70.3171 196.966 69.5042 197.381 68.5797C197.795 67.6233 198.114 66.6032 198.337 65.5193H198.815L198.576 74.4614H177.297V73.266ZM226.466 64.1804C226.466 67.6552 225.43 70.3171 223.358 72.1661C221.317 74.0151 218.273 74.9396 214.224 74.9396C212.503 74.9396 210.909 74.7324 209.442 74.318C207.976 73.8717 206.701 73.2819 205.617 72.5487C204.533 71.7836 203.688 70.9069 203.082 69.9186C202.477 68.8985 202.19 67.7987 202.222 66.6191C202.253 65.3121 202.652 64.1963 203.417 63.2718C204.182 62.3154 205.234 61.8372 206.573 61.8372C208.103 61.8372 209.203 62.2517 209.873 63.0805C210.542 63.8775 210.861 64.9295 210.829 66.2366C210.829 66.9379 210.797 67.719 210.733 68.5797C210.67 69.4086 210.717 70.1896 210.877 70.9228C211.068 71.6561 211.435 72.2777 211.977 72.7878C212.55 73.266 213.443 73.505 214.655 73.505C215.675 73.505 216.456 73.1225 216.998 72.3574C217.571 71.5923 217.858 70.5403 217.858 69.2013L217.906 44.5746C217.906 43.1401 217.683 42.0562 217.237 41.3229C216.79 40.5897 216.264 40.2231 215.659 40.2231V39.7449H228.713V40.2231C228.139 40.2231 227.629 40.5897 227.183 41.3229C226.737 42.0562 226.514 43.1401 226.514 44.5746L226.466 64.1804ZM248.656 56.7684C248.656 56.1627 248.592 55.5889 248.464 55.047C248.337 54.4731 248.161 53.979 247.938 53.5646C247.747 53.1183 247.508 52.7676 247.221 52.5126C246.966 52.2256 246.695 52.0822 246.408 52.0822V51.604C247.301 51.5402 248.193 51.4605 249.086 51.3649C249.979 51.2374 250.855 51.0939 251.716 50.9345C252.577 50.7751 253.39 50.5998 254.155 50.4085C254.92 50.1854 255.605 49.9303 256.211 49.6434H256.785V68.1015C256.785 70.3331 257.008 71.8792 257.454 72.7399C257.901 73.5688 258.427 73.9832 259.032 73.9832V74.4614H248.656V70.9706C248.305 71.4488 247.843 71.927 247.269 72.4052C246.727 72.8834 246.073 73.3138 245.308 73.6963C244.543 74.0789 243.698 74.3817 242.774 74.6049C241.849 74.828 240.829 74.9396 239.713 74.9396C237.227 74.9396 235.266 74.2223 233.832 72.7878C232.397 71.3532 231.68 69.2492 231.68 66.4757V56.7684C231.68 56.1627 231.616 55.5889 231.489 55.047C231.361 54.4731 231.186 53.979 230.963 53.5646C230.771 53.1183 230.532 52.7676 230.245 52.5126C229.99 52.2256 229.719 52.0822 229.432 52.0822V51.604C230.325 51.5402 231.218 51.4605 232.11 51.3649C233.003 51.2374 233.88 51.0939 234.74 50.9345C235.601 50.7751 236.414 50.5998 237.179 50.4085C237.944 50.1854 238.63 49.9303 239.235 49.6434H239.809V66.8582C239.809 68.1972 240.16 69.3767 240.861 70.3968C241.562 71.3851 242.599 71.8792 243.969 71.8792C244.543 71.8792 245.101 71.7836 245.643 71.5923C246.217 71.401 246.727 71.13 247.173 70.7794C247.62 70.4287 247.97 70.0302 248.225 69.5839C248.512 69.1057 248.656 68.5797 248.656 68.0059V56.7684ZM267.097 47.635C265.917 47.635 264.913 47.2525 264.084 46.4874C263.287 45.7223 262.889 44.7818 262.889 43.6661C262.889 42.5503 263.287 41.6098 264.084 40.8447C264.913 40.0796 265.917 39.6971 267.097 39.6971C268.276 39.6971 269.265 40.0796 270.062 40.8447C270.891 41.6098 271.305 42.5503 271.305 43.6661C271.305 44.7818 270.891 45.7223 270.062 46.4874C269.265 47.2525 268.276 47.635 267.097 47.635ZM261.454 73.9832C261.741 73.9832 262.012 73.8557 262.267 73.6007C262.554 73.3138 262.793 72.9631 262.984 72.5487C263.208 72.1024 263.383 71.6082 263.51 71.0663C263.638 70.4925 263.702 69.9346 263.702 69.3926V56.7684C263.702 56.1627 263.638 55.5889 263.51 55.047C263.383 54.4731 263.208 53.979 262.984 53.5646C262.793 53.1183 262.554 52.7676 262.267 52.5126C262.012 52.2256 261.741 52.0822 261.454 52.0822V51.604C262.347 51.5402 263.239 51.4605 264.132 51.3649C265.025 51.2374 265.901 51.0939 266.762 50.9345C267.623 50.7751 268.436 50.5998 269.201 50.4085C269.966 50.1854 270.651 49.9303 271.257 49.6434H271.831V69.2013C271.831 69.7752 271.895 70.349 272.022 70.9228C272.15 71.4967 272.309 72.0227 272.5 72.5009C272.724 72.9472 272.963 73.3138 273.218 73.6007C273.505 73.8557 273.792 73.9832 274.078 73.9832V74.4614H261.454V73.9832ZM294.588 59.3028C293.504 59.3028 292.676 59.0797 292.102 58.6334C291.528 58.1871 291.098 57.6451 290.811 57.0075C290.524 56.3381 290.316 55.6208 290.189 54.8557C290.093 54.0587 289.95 53.3414 289.759 52.7038C289.599 52.0344 289.328 51.4765 288.946 51.0302C288.595 50.5839 288.037 50.3607 287.272 50.3607C285.997 50.3607 285.025 51.1417 284.355 52.7038C283.717 54.234 283.399 56.4975 283.399 59.4941C283.399 62.8733 284.036 65.4715 285.311 67.2886C286.618 69.1057 288.324 70.0143 290.428 70.0143C292.245 70.0143 293.791 69.552 295.066 68.6275C296.342 67.703 297.202 66.4279 297.649 64.802H298.127C297.967 67.9899 296.947 70.4765 295.066 72.2618C293.217 74.047 290.699 74.9396 287.511 74.9396C285.662 74.9396 283.972 74.6208 282.442 73.9832C280.912 73.3457 279.589 72.453 278.473 71.3054C277.389 70.1577 276.545 68.7869 275.939 67.193C275.333 65.599 275.03 63.8456 275.03 61.9329C275.03 60.052 275.333 58.3305 275.939 56.7684C276.545 55.1745 277.389 53.8196 278.473 52.7038C279.557 51.5881 280.848 50.7273 282.347 50.1216C283.877 49.484 285.551 49.1652 287.368 49.1652C288.802 49.1652 290.157 49.3406 291.432 49.6912C292.707 50.0419 293.807 50.5201 294.732 51.1258C295.688 51.6996 296.437 52.401 296.979 53.2298C297.521 54.0268 297.792 54.8876 297.792 55.8121C297.792 56.8641 297.457 57.7089 296.788 58.3465C296.15 58.984 295.417 59.3028 294.588 59.3028ZM308.834 60.5461C308.993 63.6065 309.742 65.9497 311.081 67.5755C312.452 69.2013 314.221 70.0143 316.389 70.0143C316.836 70.0143 317.425 69.9824 318.158 69.9186C318.892 69.823 319.641 69.5998 320.406 69.2492C321.171 68.8985 321.888 68.3884 322.558 67.719C323.227 67.0176 323.69 66.0453 323.945 64.802H324.423C324.295 66.4279 323.913 67.8784 323.275 69.1535C322.669 70.3968 321.872 71.4488 320.884 72.3096C319.896 73.1703 318.748 73.8238 317.441 74.2702C316.134 74.7165 314.716 74.9396 313.185 74.9396C311.336 74.9396 309.631 74.6208 308.069 73.9832C306.539 73.3457 305.216 72.453 304.1 71.3054C302.984 70.1577 302.107 68.7869 301.47 67.193C300.864 65.599 300.561 63.8456 300.561 61.9329C300.561 60.0201 300.848 58.2827 301.422 56.7206C302.028 55.1585 302.856 53.8196 303.908 52.7038C304.992 51.5881 306.268 50.7273 307.734 50.1216C309.232 49.484 310.874 49.1652 312.659 49.1652C314.285 49.1652 315.799 49.4362 317.202 49.9782C318.637 50.4882 319.88 51.2214 320.932 52.1778C321.984 53.1023 322.813 54.2022 323.419 55.4773C324.024 56.7206 324.327 58.0755 324.327 59.5419V60.5461H308.834ZM316.437 59.3985C316.341 56.5931 315.975 54.3934 315.337 52.7995C314.7 51.1736 313.871 50.3607 312.851 50.3607C312.245 50.3607 311.703 50.5998 311.225 51.078C310.747 51.5562 310.332 52.2097 309.981 53.0386C309.631 53.8674 309.36 54.8397 309.169 55.9555C308.977 57.0394 308.85 58.1871 308.786 59.3985H316.437ZM338.437 63.5587C338.437 62.1242 338.58 60.833 338.867 59.6854C339.154 58.5059 339.521 57.422 339.967 56.4337C340.413 55.4136 340.891 54.4731 341.401 53.6124C341.943 52.7198 342.438 51.8431 342.884 50.9823C343.362 50.0897 343.745 49.1971 344.032 48.3045C344.35 47.4119 344.51 46.4555 344.51 45.4354C344.51 44.7659 344.414 44.1442 344.223 43.5704C344.032 42.9966 343.761 42.5025 343.41 42.088C343.059 41.6417 342.661 41.2911 342.214 41.036C341.768 40.781 341.274 40.6535 340.732 40.6535C339.68 40.6535 338.867 40.9085 338.293 41.4186C337.719 41.8968 337.289 42.5025 337.002 43.2357C336.715 43.9689 336.54 44.7659 336.476 45.6266C336.444 46.4555 336.428 47.2206 336.428 47.9219C336.46 49.229 336.141 50.2969 335.472 51.1258C334.802 51.9228 333.703 52.3213 332.172 52.3213C330.833 52.3213 329.781 51.859 329.016 50.9345C328.251 49.9782 327.853 48.8464 327.821 47.5394C327.789 46.4236 328.044 45.3716 328.586 44.3833C329.16 43.3632 329.989 42.4706 331.073 41.7055C332.188 40.9404 333.543 40.3347 335.137 39.8884C336.763 39.4421 338.612 39.2189 340.684 39.2189C342.342 39.2189 343.92 39.3942 345.418 39.7449C346.917 40.0956 348.24 40.6056 349.387 41.2751C350.535 41.9446 351.443 42.7734 352.113 43.7617C352.782 44.7181 353.117 45.8179 353.117 47.0612C353.117 48.3364 352.862 49.4362 352.352 50.3607C351.842 51.2852 351.188 52.13 350.391 52.8951C349.626 53.6283 348.766 54.3297 347.809 54.9991C346.853 55.6686 345.928 56.4018 345.036 57.1988C344.175 57.9958 343.394 58.9043 342.693 59.9245C341.991 60.9127 341.481 62.1242 341.162 63.5587C340.971 64.3876 340.493 64.802 339.728 64.802C338.867 64.802 338.437 64.3876 338.437 63.5587ZM339.728 74.8918C338.548 74.8918 337.544 74.5092 336.715 73.7441C335.918 72.979 335.52 72.0386 335.52 70.9228C335.52 69.8071 335.918 68.8666 336.715 68.1015C337.544 67.3364 338.548 66.9539 339.728 66.9539C340.907 66.9539 341.896 67.3364 342.693 68.1015C343.521 68.8666 343.936 69.8071 343.936 70.9228C343.936 72.0386 343.521 72.979 342.693 73.7441C341.896 74.5092 340.907 74.8918 339.728 74.8918Z" fill="white"/>
</g>
<defs>
<filter id="filter0_d_1271_2043" x="75.7301" y="1.24747" width="197.877" height="38.5704" filterUnits="userSpaceOnUse" color-interpolation-filters="sRGB">
<feFlood flood-opacity="0" result="BackgroundImageFix"/>
<feColorMatrix in="SourceAlpha" type="matrix" values="0 0 0 0 0 0 0 0 0 0 0 0 0 0 0 0 0 0 127 0" result="hardAlpha"/>
<feOffset dy="1.73848"/>
<feGaussianBlur stdDeviation="1.8254"/>
<feComposite in2="hardAlpha" operator="out"/>
<feColorMatrix type="matrix" values="0 0 0 0 0 0 0 0 0 0 0 0 0 0 0 0 0 0 0.25 0"/>
<feBlend mode="normal" in2="BackgroundImageFix" result="effect1_dropShadow_1271_2043"/>
<feBlend mode="normal" in="SourceGraphic" in2="effect1_dropShadow_1271_2043" result="shape"/>
</filter>
<filter id="filter1_d_1271_2043" x="9.8431" y="34.8423" width="348.891" height="48.3885" filterUnits="userSpaceOnUse" color-interpolation-filters="sRGB">
<feFlood flood-opacity="0" result="BackgroundImageFix"/>
<feColorMatrix in="SourceAlpha" type="matrix" values="0 0 0 0 0 0 0 0 0 0 0 0 0 0 0 0 0 0 127 0" result="hardAlpha"/>
<feOffset dy="2.67458"/>
<feGaussianBlur stdDeviation="2.80831"/>
<feComposite in2="hardAlpha" operator="out"/>
<feColorMatrix type="matrix" values="0 0 0 0 0 0 0 0 0 0 0 0 0 0 0 0 0 0 0.25 0"/>
<feBlend mode="normal" in2="BackgroundImageFix" result="effect1_dropShadow_1271_2043"/>
<feBlend mode="normal" in="SourceGraphic" in2="effect1_dropShadow_1271_2043" result="shape"/>
</filter>
</defs>
</svg>
