<svg width="93" height="30" viewBox="0 0 93 30" fill="none" xmlns="http://www.w3.org/2000/svg">
<rect x="0.370626" y="0.515279" width="91.8512" height="28.5759" rx="14.288" fill="url(#paint0_radial_544_1146)" stroke="#1C4816" stroke-width="0.680379"/>
<path d="M20.5359 18.4583C20.1005 18.4583 19.6938 18.3792 19.3156 18.2209C18.9374 18.0582 18.6032 17.8361 18.313 17.5547C18.0271 17.2732 17.8029 16.9456 17.6402 16.5718C17.4775 16.1981 17.3961 15.7979 17.3961 15.3713C17.3961 14.9448 17.4775 14.5446 17.6402 14.1708C17.8029 13.7971 18.0271 13.4694 18.313 13.188C18.6032 12.9066 18.9374 12.6867 19.3156 12.5284C19.6938 12.3657 20.1005 12.2843 20.5359 12.2843C20.9712 12.2843 21.378 12.3657 21.7562 12.5284C22.1343 12.6867 22.4663 12.9066 22.7522 13.188C23.0424 13.4694 23.2689 13.7971 23.4316 14.1708C23.5943 14.5446 23.6756 14.9448 23.6756 15.3713C23.6756 15.7979 23.5943 16.1981 23.4316 16.5718C23.2689 16.9456 23.0424 17.2732 22.7522 17.5547C22.4663 17.8361 22.1343 18.0582 21.7562 18.2209C21.378 18.3792 20.9712 18.4583 20.5359 18.4583ZM20.5359 17.3106C20.8921 17.3106 21.2131 17.2249 21.4989 17.0534C21.7847 16.8775 22.0112 16.6422 22.1783 16.3476C22.3498 16.0529 22.4356 15.7275 22.4356 15.3713C22.4356 15.0107 22.3498 14.6853 22.1783 14.3951C22.0112 14.1005 21.7847 13.8674 21.4989 13.6959C21.2131 13.52 20.8921 13.4321 20.5359 13.4321C20.1797 13.4321 19.8565 13.52 19.5662 13.6959C19.2804 13.8674 19.0539 14.1005 18.8868 14.3951C18.7197 14.6853 18.6362 15.0107 18.6362 15.3713C18.6362 15.7275 18.7197 16.0529 18.8868 16.3476C19.0539 16.6422 19.2804 16.8775 19.5662 17.0534C19.8565 17.2249 20.1797 17.3106 20.5359 17.3106ZM24.8492 18.3396V14.3819H25.8782V15.0613C26.0145 14.8327 26.186 14.6568 26.3927 14.5336C26.6037 14.4061 26.85 14.3423 27.1314 14.3423L27.3821 15.3581C27.2985 15.3318 27.204 15.3186 27.0985 15.3186C26.7686 15.3186 26.5026 15.4263 26.3003 15.6418C26.098 15.8529 25.9969 16.1563 25.9969 16.552V18.3396H24.8492ZM29.92 18.4451C29.5506 18.4451 29.2164 18.3506 28.9174 18.1615C28.6184 17.9724 28.3787 17.7218 28.1984 17.4095C28.0225 17.0929 27.9346 16.7433 27.9346 16.3608C27.9346 15.9782 28.0225 15.6286 28.1984 15.312C28.3787 14.9954 28.6184 14.7447 28.9174 14.56C29.2164 14.3709 29.5506 14.2764 29.92 14.2764C30.1311 14.2764 30.3268 14.3072 30.5071 14.3687C30.6873 14.4303 30.8501 14.5182 30.9952 14.6326V12.0073H32.1429V18.3396H31.1535V17.9504C31.004 18.1043 30.8237 18.2253 30.6126 18.3132C30.4015 18.4012 30.1707 18.4451 29.92 18.4451ZM30.0519 17.4359C30.2454 17.4359 30.4213 17.3876 30.5796 17.2908C30.7379 17.1941 30.8632 17.0643 30.9556 16.9016C31.0523 16.7389 31.1007 16.5586 31.1007 16.3608C31.1007 16.1629 31.0523 15.9826 30.9556 15.8199C30.8632 15.6572 30.7379 15.5274 30.5796 15.4307C30.4213 15.334 30.2454 15.2856 30.0519 15.2856C29.8584 15.2856 29.6825 15.334 29.5242 15.4307C29.3659 15.5274 29.2384 15.6572 29.1417 15.8199C29.0493 15.9826 29.0031 16.1629 29.0031 16.3608C29.0031 16.5586 29.0493 16.7389 29.1417 16.9016C29.2384 17.0643 29.3659 17.1941 29.5242 17.2908C29.6825 17.3876 29.8584 17.4359 30.0519 17.4359ZM35.4429 18.4715C34.9987 18.4715 34.6074 18.3792 34.2688 18.1945C33.9301 18.0098 33.6663 17.7569 33.4772 17.4359C33.2881 17.1105 33.1936 16.7389 33.1936 16.3212C33.1936 15.921 33.2859 15.567 33.4706 15.2592C33.6553 14.947 33.9038 14.7007 34.216 14.5204C34.5326 14.3401 34.8822 14.25 35.2648 14.25C35.6561 14.25 36.0057 14.3401 36.3136 14.5204C36.6214 14.6963 36.8632 14.9382 37.0391 15.246C37.2194 15.5538 37.3096 15.9034 37.3096 16.2948V16.6972H34.8954C34.7854 16.6972 34.6799 16.6906 34.5788 16.6774C34.4776 16.6642 34.3765 16.6488 34.2753 16.6312C34.3281 16.895 34.4578 17.1105 34.6645 17.2776C34.8756 17.4403 35.1438 17.5217 35.4692 17.5217C35.7199 17.5217 35.9442 17.4711 36.1421 17.37C36.3443 17.2688 36.5092 17.1435 36.6368 16.994L36.8874 18.023C36.6895 18.1725 36.4653 18.2846 36.2146 18.3594C35.9684 18.4341 35.7111 18.4715 35.4429 18.4715ZM34.249 15.9386C34.4688 15.8902 34.6843 15.866 34.8954 15.866H35.5946C35.7177 15.866 35.8342 15.8704 35.9442 15.8792C36.0541 15.888 36.1574 15.9034 36.2542 15.9254C36.1882 15.688 36.0673 15.5011 35.8914 15.3647C35.7199 15.2284 35.5066 15.1603 35.2516 15.1603C35.0097 15.1603 34.7986 15.2306 34.6183 15.3713C34.4424 15.5077 34.3193 15.6967 34.249 15.9386ZM38.3258 18.3396V14.3819H39.3548V15.0613C39.4912 14.8327 39.6627 14.6568 39.8693 14.5336C40.0804 14.4061 40.3267 14.3423 40.6081 14.3423L40.8588 15.3581C40.7752 15.3318 40.6807 15.3186 40.5751 15.3186C40.2453 15.3186 39.9793 15.4263 39.777 15.6418C39.5747 15.8529 39.4736 16.1563 39.4736 16.552V18.3396H38.3258ZM48.9626 18.5375L45.4007 14.9822V18.3396H44.2925V12.2052L47.8545 15.7539V12.4031H48.9626V18.5375ZM52.3504 18.4715C51.959 18.4715 51.6006 18.377 51.2752 18.1879C50.9498 17.9988 50.6904 17.7437 50.4969 17.4227C50.3078 17.1017 50.2132 16.7477 50.2132 16.3608C50.2132 15.9694 50.3078 15.6154 50.4969 15.2988C50.6904 14.9778 50.9498 14.7227 51.2752 14.5336C51.6006 14.3445 51.959 14.25 52.3504 14.25C52.7462 14.25 53.1045 14.3445 53.4256 14.5336C53.751 14.7227 54.0082 14.9778 54.1973 15.2988C54.3908 15.6154 54.4875 15.9694 54.4875 16.3608C54.4875 16.7477 54.3908 17.1017 54.1973 17.4227C54.0082 17.7437 53.751 17.9988 53.4256 18.1879C53.1045 18.377 52.7462 18.4715 52.3504 18.4715ZM52.3504 17.4425C52.5483 17.4425 52.7264 17.3942 52.8847 17.2974C53.0474 17.2007 53.1749 17.0709 53.2672 16.9082C53.364 16.7411 53.4124 16.5586 53.4124 16.3608C53.4124 16.1585 53.364 15.976 53.2672 15.8133C53.1749 15.6506 53.0474 15.5208 52.8847 15.4241C52.7264 15.3274 52.5483 15.279 52.3504 15.279C52.1525 15.279 51.9722 15.3274 51.8095 15.4241C51.6512 15.5208 51.5237 15.6506 51.4269 15.8133C51.3346 15.976 51.2884 16.1585 51.2884 16.3608C51.2884 16.5586 51.3346 16.7411 51.4269 16.9082C51.5237 17.0709 51.6512 17.2007 51.8095 17.2974C51.9722 17.3942 52.1525 17.4425 52.3504 17.4425ZM56.9869 18.5375L55.0146 14.3819H56.2481L56.855 15.655C56.9121 15.7649 56.9693 15.8858 57.0265 16.0178C57.0836 16.1453 57.1408 16.2904 57.198 16.4531C57.2595 16.2992 57.3189 16.1651 57.3761 16.0507C57.4376 15.932 57.497 15.8177 57.5542 15.7077L58.2995 14.25L59.0713 15.7077C59.124 15.8045 59.179 15.9122 59.2362 16.0309C59.2977 16.1497 59.3571 16.2904 59.4143 16.4531C59.4714 16.2772 59.5264 16.1277 59.5792 16.0046C59.6363 15.8814 59.6913 15.7649 59.7441 15.655L60.3509 14.3819H61.5316L59.5594 18.5375L58.6557 17.0138C58.5854 16.8994 58.5194 16.7829 58.4578 16.6642C58.3963 16.5454 58.3347 16.4201 58.2731 16.2882C58.216 16.4201 58.1544 16.5454 58.0884 16.6642C58.0269 16.7829 57.9609 16.8994 57.8906 17.0138L56.9869 18.5375Z" fill="white"/>
<path d="M69.4685 11.1322L73.0591 14.7227L69.4685 18.3133M72.5604 14.7227L65.2796 14.7227" stroke="white" stroke-width="1.06387" stroke-miterlimit="10" stroke-linecap="square"/>
<defs>
<radialGradient id="paint0_radial_544_1146" cx="0" cy="0" r="1" gradientUnits="userSpaceOnUse" gradientTransform="translate(46.2962 14.8032) scale(45.5854 13.9478)">
<stop stop-color="#2F7E24" stop-opacity="0.5"/>
<stop offset="1" stop-color="#1C4816" stop-opacity="0.5"/>
</radialGradient>
</defs>
</svg>
