<svg width="320" height="69" viewBox="0 0 320 69" fill="none" xmlns="http://www.w3.org/2000/svg">
<g filter="url(#filter0_d_619_2741)">
<path d="M4.389 15V5.2875H5.61925V13.8992H8.98625V15H4.389ZM13.1835 15.1295C12.5576 15.1295 11.9857 14.9784 11.4677 14.6762C10.9497 14.3741 10.536 13.9676 10.2266 13.4568C9.92445 12.946 9.77337 12.3812 9.77337 11.7625C9.77337 11.1366 9.92445 10.5718 10.2266 10.0682C10.536 9.5574 10.9497 9.15091 11.4677 8.84875C11.9857 8.54658 12.5576 8.3955 13.1835 8.3955C13.8167 8.3955 14.3886 8.54658 14.8994 8.84875C15.4174 9.15091 15.8275 9.5574 16.1297 10.0682C16.439 10.5718 16.5937 11.1366 16.5937 11.7625C16.5937 12.3812 16.439 12.946 16.1297 13.4568C15.8275 13.9676 15.4174 14.3741 14.8994 14.6762C14.3886 14.9784 13.8167 15.1295 13.1835 15.1295ZM13.1835 14.0287C13.6008 14.0287 13.9785 13.928 14.3167 13.7266C14.6548 13.5179 14.9246 13.2446 15.126 12.9064C15.3275 12.5611 15.4282 12.1798 15.4282 11.7625C15.4282 11.3452 15.3275 10.9675 15.126 10.6294C14.9246 10.284 14.6548 10.0107 14.3167 9.80921C13.9785 9.60057 13.6008 9.49625 13.1835 9.49625C12.7663 9.49625 12.3886 9.60057 12.0504 9.80921C11.7123 10.0107 11.4425 10.284 11.241 10.6294C11.0396 10.9675 10.9389 11.3452 10.9389 11.7625C10.9389 12.1798 11.0396 12.5611 11.241 12.9064C11.4425 13.2446 11.7123 13.5179 12.0504 13.7266C12.3886 13.928 12.7663 14.0287 13.1835 14.0287ZM18.2091 15V8.525H19.2883V9.71208C19.5185 9.33078 19.8242 9.02861 20.2055 8.80558C20.5868 8.57536 21.0401 8.46025 21.5653 8.46025L21.8567 9.62575C21.72 9.58258 21.5617 9.561 21.3818 9.561C20.7775 9.561 20.2919 9.75525 19.925 10.1437C19.558 10.5251 19.3746 11.0718 19.3746 11.7841V15H18.2091ZM25.9393 15.1295C25.263 15.1295 24.6551 14.9784 24.1155 14.6762C23.5831 14.3741 23.1622 13.964 22.8529 13.446C22.5507 12.9208 22.3996 12.3381 22.3996 11.6977C22.3996 11.0862 22.5471 10.5322 22.8421 10.0358C23.1371 9.53222 23.5328 9.13293 24.0292 8.83796C24.5328 8.54298 25.0868 8.3955 25.6911 8.3955C26.2882 8.3955 26.835 8.53939 27.3314 8.82716C27.8278 9.10775 28.2235 9.48905 28.5185 9.97108C28.8135 10.4531 28.961 10.9999 28.961 11.6114V12.0862H24.7306C24.5436 12.0862 24.3529 12.0791 24.1587 12.0647C23.9644 12.0503 23.7738 12.0287 23.5867 11.9999C23.6658 12.5755 23.9248 13.0575 24.3637 13.446C24.8098 13.8345 25.3386 14.0287 25.9501 14.0287C26.3602 14.0287 26.7415 13.9352 27.094 13.7482C27.4465 13.5611 27.7307 13.3129 27.9465 13.0035L28.2703 14.3309C27.9609 14.5827 27.6048 14.7806 27.2019 14.9245C26.8062 15.0612 26.3853 15.1295 25.9393 15.1295ZM23.5543 11.2121C23.9428 11.1474 24.3349 11.115 24.7306 11.115H26.8782C27.0364 11.115 27.1911 11.1222 27.3422 11.1366C27.5005 11.1438 27.6588 11.1546 27.817 11.169C27.7163 10.6653 27.4645 10.2517 27.0616 9.92791C26.6587 9.59697 26.2019 9.4315 25.6911 9.4315C25.1659 9.4315 24.7054 9.60776 24.3098 9.96029C23.9141 10.3056 23.6623 10.7229 23.5543 11.2121ZM30.5166 15V8.525H31.5958V9.45308C31.8332 9.10055 32.1318 8.83796 32.4915 8.66529C32.8584 8.48543 33.2433 8.3955 33.6462 8.3955C34.0851 8.3955 34.488 8.49982 34.8549 8.70846C35.2218 8.9099 35.5168 9.19408 35.7398 9.561C35.9916 9.1725 36.3154 8.88112 36.7111 8.68687C37.114 8.49262 37.5384 8.3955 37.9845 8.3955C38.4737 8.3955 38.9198 8.51061 39.3227 8.74083C39.7327 8.97105 40.0565 9.2948 40.2939 9.71208C40.5385 10.1222 40.6608 10.6078 40.6608 11.169V15H39.4953V11.3092C39.4953 10.7193 39.3262 10.2732 38.9881 9.97108C38.6572 9.66172 38.2723 9.50704 37.8334 9.50704C37.56 9.50704 37.2938 9.56819 37.0348 9.6905C36.783 9.8128 36.5744 10.0035 36.4089 10.2625C36.2506 10.5215 36.1715 10.8596 36.1715 11.2769V15H35.006V11.3092C35.006 10.8992 34.9232 10.561 34.7578 10.2948C34.5995 10.0286 34.3909 9.83079 34.1319 9.70129C33.8801 9.56459 33.6175 9.49625 33.3441 9.49625C33.0779 9.49625 32.8153 9.5574 32.5563 9.67971C32.3045 9.80201 32.0958 9.99266 31.9304 10.2517C31.7649 10.5107 31.6821 10.8524 31.6821 11.2769V15H30.5166ZM45.829 15V8.525H46.9945V15H45.829ZM46.4118 7.3595C46.1959 7.3595 46.0125 7.28396 45.8614 7.13287C45.7103 6.98179 45.6348 6.79833 45.6348 6.5825C45.6348 6.35947 45.7103 6.17601 45.8614 6.03212C46.0125 5.88104 46.1959 5.8055 46.4118 5.8055C46.6348 5.8055 46.8183 5.88104 46.9621 6.03212C47.1132 6.17601 47.1888 6.35947 47.1888 6.5825C47.1888 6.79833 47.1132 6.98179 46.9621 7.13287C46.8183 7.28396 46.6348 7.3595 46.4118 7.3595ZM49.0615 18.2375V8.525H50.1406V9.37754C50.4356 9.08257 50.7773 8.85235 51.1658 8.68687C51.5543 8.5214 51.9716 8.43866 52.4177 8.43866C53.0148 8.43866 53.5544 8.58975 54.0364 8.89191C54.5256 9.18689 54.9141 9.58618 55.2019 10.0898C55.4969 10.5934 55.6444 11.151 55.6444 11.7625C55.6444 12.374 55.4969 12.9316 55.2019 13.4352C54.9141 13.9388 54.5256 14.3417 54.0364 14.6439C53.5544 14.9388 53.0148 15.0863 52.4177 15.0863C51.9932 15.0863 51.5939 15.0108 51.2198 14.8597C50.8457 14.7086 50.5147 14.5 50.227 14.2338V18.2375H49.0615ZM52.2666 14.0287C52.6767 14.0287 53.0472 13.928 53.3781 13.7266C53.7163 13.5179 53.9825 13.2446 54.1767 12.9064C54.3782 12.5611 54.4789 12.1798 54.4789 11.7625C54.4789 11.3452 54.3782 10.9675 54.1767 10.6294C53.9825 10.284 53.7163 10.0107 53.3781 9.80921C53.0472 9.60057 52.6767 9.49625 52.2666 9.49625C51.8565 9.49625 51.4824 9.60057 51.1443 9.80921C50.8133 10.0107 50.5471 10.284 50.3457 10.6294C50.1514 10.9675 50.0543 11.3452 50.0543 11.7625C50.0543 12.1798 50.1514 12.5611 50.3457 12.9064C50.5471 13.2446 50.8133 13.5179 51.1443 13.7266C51.4824 13.928 51.8565 14.0287 52.2666 14.0287ZM58.9291 15.1295C58.5981 15.1295 58.242 15.0683 57.8607 14.946C57.4866 14.8165 57.1629 14.6043 56.8895 14.3093L57.2132 13.0359C57.4147 13.3741 57.6737 13.6438 57.9902 13.8453C58.3068 14.0395 58.6449 14.1367 59.0046 14.1367C59.35 14.1367 59.609 14.0539 59.7816 13.8885C59.9543 13.7158 60.0406 13.5072 60.0406 13.2625C60.0406 12.982 59.9471 12.7769 59.7601 12.6474C59.5802 12.5179 59.4183 12.428 59.2744 12.3776L58.4003 12.0431C58.242 11.9783 58.0514 11.8848 57.8283 11.7625C57.6053 11.633 57.4111 11.4495 57.2456 11.2121C57.0801 10.9747 56.9974 10.6653 56.9974 10.284C56.9974 9.93871 57.0801 9.62215 57.2456 9.33437C57.4111 9.04659 57.6449 8.81997 57.9471 8.6545C58.2492 8.48183 58.6053 8.3955 59.0154 8.3955C59.3392 8.3955 59.6773 8.45305 60.0298 8.56816C60.3824 8.68328 60.6809 8.87753 60.9256 9.15091L60.6018 10.4243C60.4291 10.1078 60.1953 9.85597 59.9003 9.66891C59.6054 9.48186 59.2996 9.38833 58.9831 9.38833C58.6881 9.38833 58.4543 9.47107 58.2816 9.63654C58.1161 9.80201 58.0334 9.99266 58.0334 10.2085C58.0334 10.3812 58.0909 10.5358 58.2061 10.6725C58.3212 10.8092 58.4938 10.9207 58.7241 11.0071L59.5982 11.3416C59.7565 11.3992 59.9507 11.4927 60.1809 11.6222C60.4183 11.7517 60.627 11.9388 60.8068 12.1834C60.9867 12.428 61.0766 12.7589 61.0766 13.1762C61.0766 13.759 60.8716 14.2302 60.4615 14.5899C60.0586 14.9496 59.5478 15.1295 58.9291 15.1295ZM65.2365 15.1295C64.7832 15.1295 64.3588 15.018 63.9631 14.795C63.5674 14.5647 63.2472 14.2338 63.0026 13.8021C62.758 13.3705 62.6357 12.8525 62.6357 12.2481V8.525H63.8012V12.0862C63.8012 12.5971 63.9523 13.0503 64.2544 13.446C64.5638 13.8345 64.9955 14.0287 65.5494 14.0287C66.0027 14.0287 66.4056 13.8669 66.7581 13.5431C67.1178 13.2122 67.2977 12.7373 67.2977 12.1186V8.525H68.4632V15H67.384V13.9532C67.1466 14.3345 66.8373 14.6259 66.4559 14.8273C66.0818 15.0288 65.6753 15.1295 65.2365 15.1295ZM70.5352 15V8.525H71.6144V9.45308C71.8518 9.10055 72.1504 8.83796 72.5101 8.66529C72.877 8.48543 73.2619 8.3955 73.6648 8.3955C74.1036 8.3955 74.5065 8.49982 74.8735 8.70846C75.2404 8.9099 75.5353 9.19408 75.7584 9.561C76.0102 9.1725 76.3339 8.88112 76.7296 8.68687C77.1325 8.49262 77.557 8.3955 78.003 8.3955C78.4923 8.3955 78.9383 8.51061 79.3412 8.74083C79.7513 8.97105 80.075 9.2948 80.3125 9.71208C80.5571 10.1222 80.6794 10.6078 80.6794 11.169V15H79.5139V11.3092C79.5139 10.7193 79.3448 10.2732 79.0067 9.97108C78.6757 9.66172 78.2908 9.50704 77.852 9.50704C77.5786 9.50704 77.3124 9.56819 77.0534 9.6905C76.8016 9.8128 76.5929 10.0035 76.4275 10.2625C76.2692 10.5215 76.19 10.8596 76.19 11.2769V15H75.0245V11.3092C75.0245 10.8992 74.9418 10.561 74.7763 10.2948C74.618 10.0286 74.4094 9.83079 74.1504 9.70129C73.8986 9.56459 73.636 9.49625 73.3626 9.49625C73.0964 9.49625 72.8338 9.5574 72.5748 9.67971C72.323 9.80201 72.1144 9.99266 71.9489 10.2517C71.7834 10.5107 71.7007 10.8524 71.7007 11.2769V15H70.5352ZM88.621 15.0863C88.0311 15.0863 87.4915 14.9388 87.0023 14.6439C86.5131 14.3417 86.121 13.9388 85.826 13.4352C85.5382 12.9316 85.3943 12.374 85.3943 11.7625C85.3943 11.151 85.5382 10.5934 85.826 10.0898C86.121 9.58618 86.5131 9.18689 87.0023 8.89191C87.4915 8.58975 88.0311 8.43866 88.621 8.43866C89.0455 8.43866 89.4448 8.51421 89.8189 8.66529C90.193 8.81637 90.524 9.02501 90.8117 9.29121V4.64H91.9772V15H90.8981V14.1475C90.6103 14.4352 90.2686 14.6655 89.8729 14.8381C89.4844 15.0036 89.0671 15.0863 88.621 15.0863ZM88.7721 14.0287C89.1822 14.0287 89.5527 13.928 89.8837 13.7266C90.2218 13.5179 90.488 13.2446 90.6822 12.9064C90.8837 12.5611 90.9844 12.1798 90.9844 11.7625C90.9844 11.3452 90.8837 10.9675 90.6822 10.6294C90.488 10.284 90.2218 10.0107 89.8837 9.80921C89.5527 9.60057 89.1822 9.49625 88.7721 9.49625C88.362 9.49625 87.9879 9.60057 87.6498 9.80921C87.3188 10.0107 87.0526 10.284 86.8512 10.6294C86.6569 10.9675 86.5598 11.3452 86.5598 11.7625C86.5598 12.1798 86.6569 12.5611 86.8512 12.9064C87.0526 13.2446 87.3188 13.5179 87.6498 13.7266C87.9879 13.928 88.362 14.0287 88.7721 14.0287ZM96.9994 15.1295C96.3735 15.1295 95.8015 14.9784 95.2835 14.6762C94.7655 14.3741 94.3519 13.9676 94.0425 13.4568C93.7403 12.946 93.5892 12.3812 93.5892 11.7625C93.5892 11.1366 93.7403 10.5718 94.0425 10.0682C94.3519 9.5574 94.7655 9.15091 95.2835 8.84875C95.8015 8.54658 96.3735 8.3955 96.9994 8.3955C97.6325 8.3955 98.2045 8.54658 98.7153 8.84875C99.2333 9.15091 99.6434 9.5574 99.9455 10.0682C100.255 10.5718 100.41 11.1366 100.41 11.7625C100.41 12.3812 100.255 12.946 99.9455 13.4568C99.6434 13.9676 99.2333 14.3741 98.7153 14.6762C98.2045 14.9784 97.6325 15.1295 96.9994 15.1295ZM96.9994 14.0287C97.4167 14.0287 97.7944 13.928 98.1325 13.7266C98.4707 13.5179 98.7405 13.2446 98.9419 12.9064C99.1434 12.5611 99.2441 12.1798 99.2441 11.7625C99.2441 11.3452 99.1434 10.9675 98.9419 10.6294C98.7405 10.284 98.4707 10.0107 98.1325 9.80921C97.7944 9.60057 97.4167 9.49625 96.9994 9.49625C96.5821 9.49625 96.2044 9.60057 95.8663 9.80921C95.5281 10.0107 95.2584 10.284 95.0569 10.6294C94.8555 10.9675 94.7547 11.3452 94.7547 11.7625C94.7547 12.1798 94.8555 12.5611 95.0569 12.9064C95.2584 13.2446 95.5281 13.5179 95.8663 13.7266C96.2044 13.928 96.5821 14.0287 96.9994 14.0287ZM102.025 15V4.64H103.19V15H102.025ZM108.214 15.1295C107.588 15.1295 107.016 14.9784 106.498 14.6762C105.98 14.3741 105.567 13.9676 105.257 13.4568C104.955 12.946 104.804 12.3812 104.804 11.7625C104.804 11.1366 104.955 10.5718 105.257 10.0682C105.567 9.5574 105.98 9.15091 106.498 8.84875C107.016 8.54658 107.588 8.3955 108.214 8.3955C108.847 8.3955 109.419 8.54658 109.93 8.84875C110.448 9.15091 110.858 9.5574 111.16 10.0682C111.47 10.5718 111.624 11.1366 111.624 11.7625C111.624 12.3812 111.47 12.946 111.16 13.4568C110.858 13.9676 110.448 14.3741 109.93 14.6762C109.419 14.9784 108.847 15.1295 108.214 15.1295ZM108.214 14.0287C108.632 14.0287 109.009 13.928 109.347 13.7266C109.686 13.5179 109.955 13.2446 110.157 12.9064C110.358 12.5611 110.459 12.1798 110.459 11.7625C110.459 11.3452 110.358 10.9675 110.157 10.6294C109.955 10.284 109.686 10.0107 109.347 9.80921C109.009 9.60057 108.632 9.49625 108.214 9.49625C107.797 9.49625 107.419 9.60057 107.081 9.80921C106.743 10.0107 106.473 10.284 106.272 10.6294C106.07 10.9675 105.97 11.3452 105.97 11.7625C105.97 12.1798 106.07 12.5611 106.272 12.9064C106.473 13.2446 106.743 13.5179 107.081 13.7266C107.419 13.928 107.797 14.0287 108.214 14.0287ZM113.24 15V8.525H114.319V9.71208C114.549 9.33078 114.855 9.02861 115.236 8.80558C115.618 8.57536 116.071 8.46025 116.596 8.46025L116.887 9.62575C116.751 9.58258 116.592 9.561 116.413 9.561C115.808 9.561 115.323 9.75525 114.956 10.1437C114.589 10.5251 114.405 11.0718 114.405 11.7841V15H113.24ZM123.001 15.1295C122.67 15.1295 122.314 15.0683 121.933 14.946C121.559 14.8165 121.235 14.6043 120.962 14.3093L121.285 13.0359C121.487 13.3741 121.746 13.6438 122.062 13.8453C122.379 14.0395 122.717 14.1367 123.077 14.1367C123.422 14.1367 123.681 14.0539 123.854 13.8885C124.026 13.7158 124.113 13.5072 124.113 13.2625C124.113 12.982 124.019 12.7769 123.832 12.6474C123.652 12.5179 123.49 12.428 123.347 12.3776L122.472 12.0431C122.314 11.9783 122.124 11.8848 121.901 11.7625C121.677 11.633 121.483 11.4495 121.318 11.2121C121.152 10.9747 121.07 10.6653 121.07 10.284C121.07 9.93871 121.152 9.62215 121.318 9.33437C121.483 9.04659 121.717 8.81997 122.019 8.6545C122.321 8.48183 122.678 8.3955 123.088 8.3955C123.411 8.3955 123.749 8.45305 124.102 8.56816C124.455 8.68328 124.753 8.87753 124.998 9.15091L124.674 10.4243C124.501 10.1078 124.267 9.85597 123.973 9.66891C123.678 9.48186 123.372 9.38833 123.055 9.38833C122.76 9.38833 122.526 9.47107 122.354 9.63654C122.188 9.80201 122.106 9.99266 122.106 10.2085C122.106 10.3812 122.163 10.5358 122.278 10.6725C122.393 10.8092 122.566 10.9207 122.796 11.0071L123.67 11.3416C123.829 11.3992 124.023 11.4927 124.253 11.6222C124.491 11.7517 124.699 11.9388 124.879 12.1834C125.059 12.428 125.149 12.7589 125.149 13.1762C125.149 13.759 124.944 14.2302 124.534 14.5899C124.131 14.9496 123.62 15.1295 123.001 15.1295ZM126.837 15V8.525H128.003V15H126.837ZM127.42 7.3595C127.204 7.3595 127.021 7.28396 126.87 7.13287C126.719 6.98179 126.643 6.79833 126.643 6.5825C126.643 6.35947 126.719 6.17601 126.87 6.03212C127.021 5.88104 127.204 5.8055 127.42 5.8055C127.643 5.8055 127.827 5.88104 127.97 6.03212C128.122 6.17601 128.197 6.35947 128.197 6.5825C128.197 6.79833 128.122 6.98179 127.97 7.13287C127.827 7.28396 127.643 7.3595 127.42 7.3595ZM130.825 15V9.49625H129.358V8.525H130.858V6.36666H131.958V8.525H133.566V9.49625H131.991V15H130.825ZM140.932 15.0863C140.342 15.0863 139.802 14.9388 139.313 14.6439C138.824 14.3417 138.432 13.9388 138.137 13.4352C137.849 12.9316 137.705 12.374 137.705 11.7625C137.705 11.151 137.849 10.5934 138.137 10.0898C138.432 9.58618 138.824 9.18689 139.313 8.89191C139.802 8.58975 140.342 8.43866 140.932 8.43866C141.378 8.43866 141.795 8.5214 142.184 8.68687C142.579 8.85235 142.921 9.08257 143.209 9.37754V8.525H144.288V15H143.209V14.1475C142.921 14.4352 142.579 14.6655 142.184 14.8381C141.795 15.0036 141.378 15.0863 140.932 15.0863ZM141.083 14.0287C141.493 14.0287 141.864 13.928 142.195 13.7266C142.533 13.5179 142.799 13.2446 142.993 12.9064C143.195 12.5611 143.295 12.1798 143.295 11.7625C143.295 11.3452 143.195 10.9675 142.993 10.6294C142.799 10.284 142.533 10.0107 142.195 9.80921C141.864 9.60057 141.493 9.49625 141.083 9.49625C140.673 9.49625 140.299 9.60057 139.961 9.80921C139.63 10.0107 139.364 10.284 139.162 10.6294C138.968 10.9675 138.871 11.3452 138.871 11.7625C138.871 12.1798 138.968 12.5611 139.162 12.9064C139.364 13.2446 139.63 13.5179 139.961 13.7266C140.299 13.928 140.673 14.0287 141.083 14.0287ZM146.353 15V8.525H147.433V9.45308C147.67 9.10055 147.969 8.83796 148.328 8.66529C148.695 8.48543 149.08 8.3955 149.483 8.3955C149.922 8.3955 150.325 8.49982 150.692 8.70846C151.059 8.9099 151.354 9.19408 151.577 9.561C151.828 9.1725 152.152 8.88112 152.548 8.68687C152.951 8.49262 153.375 8.3955 153.821 8.3955C154.31 8.3955 154.757 8.51061 155.159 8.74083C155.57 8.97105 155.893 9.2948 156.131 9.71208C156.375 10.1222 156.498 10.6078 156.498 11.169V15H155.332V11.3092C155.332 10.7193 155.163 10.2732 154.825 9.97108C154.494 9.66172 154.109 9.50704 153.67 9.50704C153.397 9.50704 153.131 9.56819 152.872 9.6905C152.62 9.8128 152.411 10.0035 152.246 10.2625C152.087 10.5215 152.008 10.8596 152.008 11.2769V15H150.843V11.3092C150.843 10.8992 150.76 10.561 150.595 10.2948C150.436 10.0286 150.228 9.83079 149.969 9.70129C149.717 9.56459 149.454 9.49625 149.181 9.49625C148.915 9.49625 148.652 9.5574 148.393 9.67971C148.141 9.80201 147.933 9.99266 147.767 10.2517C147.602 10.5107 147.519 10.8524 147.519 11.2769V15H146.353ZM161.52 15.1295C160.843 15.1295 160.236 14.9784 159.696 14.6762C159.164 14.3741 158.743 13.964 158.433 13.446C158.131 12.9208 157.98 12.3381 157.98 11.6977C157.98 11.0862 158.128 10.5322 158.423 10.0358C158.718 9.53222 159.113 9.13293 159.61 8.83796C160.113 8.54298 160.667 8.3955 161.272 8.3955C161.869 8.3955 162.415 8.53939 162.912 8.82716C163.408 9.10775 163.804 9.48905 164.099 9.97108C164.394 10.4531 164.541 10.9999 164.541 11.6114V12.0862H160.311C160.124 12.0862 159.933 12.0791 159.739 12.0647C159.545 12.0503 159.354 12.0287 159.167 11.9999C159.246 12.5755 159.505 13.0575 159.944 13.446C160.39 13.8345 160.919 14.0287 161.531 14.0287C161.941 14.0287 162.322 13.9352 162.674 13.7482C163.027 13.5611 163.311 13.3129 163.527 13.0035L163.851 14.3309C163.541 14.5827 163.185 14.7806 162.782 14.9245C162.387 15.0612 161.966 15.1295 161.52 15.1295ZM159.135 11.2121C159.523 11.1474 159.915 11.115 160.311 11.115H162.459C162.617 11.115 162.772 11.1222 162.923 11.1366C163.081 11.1438 163.239 11.1546 163.398 11.169C163.297 10.6653 163.045 10.2517 162.642 9.92791C162.239 9.59697 161.782 9.4315 161.272 9.4315C160.746 9.4315 160.286 9.60776 159.89 9.96029C159.495 10.3056 159.243 10.7229 159.135 11.2121ZM166.853 15V9.49625H165.385V8.525H166.885V6.36666H167.986V8.525H169.594V9.49625H168.018V15H166.853ZM169.663 16.6188C169.987 16.2159 170.246 15.7482 170.44 15.2158C170.642 14.6834 170.743 14.0719 170.743 13.3812H171.908C171.908 13.9928 171.822 14.5683 171.649 15.1079C171.484 15.6547 171.253 16.1583 170.958 16.6188H169.663ZM179.759 15.1295C179.126 15.1295 178.551 14.9784 178.033 14.6762C177.515 14.3741 177.101 13.9676 176.792 13.4568C176.482 12.946 176.328 12.3812 176.328 11.7625C176.328 11.1438 176.482 10.579 176.792 10.0682C177.101 9.5574 177.515 9.15091 178.033 8.84875C178.551 8.54658 179.126 8.3955 179.759 8.3955C180.227 8.3955 180.666 8.47823 181.076 8.64371C181.486 8.80918 181.846 9.02861 182.155 9.302L181.799 10.7697C181.619 10.4099 181.346 10.1078 180.979 9.86316C180.619 9.61855 180.209 9.49625 179.749 9.49625C179.331 9.49625 178.95 9.60057 178.605 9.80921C178.267 10.0107 177.997 10.284 177.795 10.6294C177.594 10.9675 177.493 11.3452 177.493 11.7625C177.493 12.1726 177.594 12.5503 177.795 12.8956C177.997 13.241 178.267 13.5179 178.605 13.7266C178.95 13.928 179.331 14.0287 179.749 14.0287C180.209 14.0287 180.619 13.91 180.979 13.6726C181.346 13.4352 181.619 13.1294 181.799 12.7553L182.155 14.223C181.846 14.4964 181.486 14.7158 181.076 14.8813C180.666 15.0468 180.227 15.1295 179.759 15.1295ZM186.537 15.1295C185.911 15.1295 185.339 14.9784 184.821 14.6762C184.303 14.3741 183.889 13.9676 183.58 13.4568C183.277 12.946 183.126 12.3812 183.126 11.7625C183.126 11.1366 183.277 10.5718 183.58 10.0682C183.889 9.5574 184.303 9.15091 184.821 8.84875C185.339 8.54658 185.911 8.3955 186.537 8.3955C187.17 8.3955 187.742 8.54658 188.252 8.84875C188.77 9.15091 189.181 9.5574 189.483 10.0682C189.792 10.5718 189.947 11.1366 189.947 11.7625C189.947 12.3812 189.792 12.946 189.483 13.4568C189.181 13.9676 188.77 14.3741 188.252 14.6762C187.742 14.9784 187.17 15.1295 186.537 15.1295ZM186.537 14.0287C186.954 14.0287 187.332 13.928 187.67 13.7266C188.008 13.5179 188.278 13.2446 188.479 12.9064C188.681 12.5611 188.781 12.1798 188.781 11.7625C188.781 11.3452 188.681 10.9675 188.479 10.6294C188.278 10.284 188.008 10.0107 187.67 9.80921C187.332 9.60057 186.954 9.49625 186.537 9.49625C186.119 9.49625 185.742 9.60057 185.403 9.80921C185.065 10.0107 184.796 10.284 184.594 10.6294C184.393 10.9675 184.292 11.3452 184.292 11.7625C184.292 12.1798 184.393 12.5611 184.594 12.9064C184.796 13.2446 185.065 13.5179 185.403 13.7266C185.742 13.928 186.119 14.0287 186.537 14.0287ZM191.562 15V8.525H192.641V9.57179C192.879 9.19048 193.184 8.89911 193.559 8.69766C193.94 8.49622 194.35 8.3955 194.789 8.3955C195.249 8.3955 195.674 8.51061 196.062 8.74083C196.458 8.96386 196.778 9.29121 197.023 9.72287C197.267 10.1473 197.39 10.6653 197.39 11.2769V15H196.224V11.4387C196.224 10.9279 196.069 10.4783 195.76 10.0898C195.458 9.69409 195.03 9.49625 194.476 9.49625C194.023 9.49625 193.616 9.66172 193.256 9.99266C192.904 10.3164 192.728 10.7877 192.728 11.4064V15H191.562ZM201.005 15.1295C200.674 15.1295 200.318 15.0683 199.936 14.946C199.562 14.8165 199.239 14.6043 198.965 14.3093L199.289 13.0359C199.49 13.3741 199.749 13.6438 200.066 13.8453C200.382 14.0395 200.721 14.1367 201.08 14.1367C201.426 14.1367 201.685 14.0539 201.857 13.8885C202.03 13.7158 202.116 13.5072 202.116 13.2625C202.116 12.982 202.023 12.7769 201.836 12.6474C201.656 12.5179 201.494 12.428 201.35 12.3776L200.476 12.0431C200.318 11.9783 200.127 11.8848 199.904 11.7625C199.681 11.633 199.487 11.4495 199.321 11.2121C199.156 10.9747 199.073 10.6653 199.073 10.284C199.073 9.93871 199.156 9.62215 199.321 9.33437C199.487 9.04659 199.721 8.81997 200.023 8.6545C200.325 8.48183 200.681 8.3955 201.091 8.3955C201.415 8.3955 201.753 8.45305 202.106 8.56816C202.458 8.68328 202.757 8.87753 203.001 9.15091L202.678 10.4243C202.505 10.1078 202.271 9.85597 201.976 9.66891C201.681 9.48186 201.375 9.38833 201.059 9.38833C200.764 9.38833 200.53 9.47107 200.357 9.63654C200.192 9.80201 200.109 9.99266 200.109 10.2085C200.109 10.3812 200.167 10.5358 200.282 10.6725C200.397 10.8092 200.57 10.9207 200.8 11.0071L201.674 11.3416C201.832 11.3992 202.026 11.4927 202.257 11.6222C202.494 11.7517 202.703 11.9388 202.883 12.1834C203.062 12.428 203.152 12.7589 203.152 13.1762C203.152 13.759 202.947 14.2302 202.537 14.5899C202.134 14.9496 201.624 15.1295 201.005 15.1295ZM207.927 15.1295C207.251 15.1295 206.643 14.9784 206.104 14.6762C205.571 14.3741 205.15 13.964 204.841 13.446C204.539 12.9208 204.388 12.3381 204.388 11.6977C204.388 11.0862 204.535 10.5322 204.83 10.0358C205.125 9.53222 205.521 9.13293 206.017 8.83796C206.521 8.54298 207.075 8.3955 207.679 8.3955C208.276 8.3955 208.823 8.53939 209.319 8.82716C209.816 9.10775 210.212 9.48905 210.507 9.97108C210.802 10.4531 210.949 10.9999 210.949 11.6114V12.0862H206.719C206.532 12.0862 206.341 12.0791 206.147 12.0647C205.952 12.0503 205.762 12.0287 205.575 11.9999C205.654 12.5755 205.913 13.0575 206.352 13.446C206.798 13.8345 207.327 14.0287 207.938 14.0287C208.348 14.0287 208.73 13.9352 209.082 13.7482C209.435 13.5611 209.719 13.3129 209.935 13.0035L210.258 14.3309C209.949 14.5827 209.593 14.7806 209.19 14.9245C208.794 15.0612 208.373 15.1295 207.927 15.1295ZM205.542 11.2121C205.931 11.1474 206.323 11.115 206.719 11.115H208.866C209.024 11.115 209.179 11.1222 209.33 11.1366C209.489 11.1438 209.647 11.1546 209.805 11.169C209.704 10.6653 209.453 10.2517 209.05 9.92791C208.647 9.59697 208.19 9.4315 207.679 9.4315C207.154 9.4315 206.693 9.60776 206.298 9.96029C205.902 10.3056 205.65 10.7229 205.542 11.2121ZM215.483 15.1295C214.85 15.1295 214.275 14.9784 213.757 14.6762C213.239 14.3741 212.825 13.9676 212.515 13.4568C212.206 12.946 212.051 12.3812 212.051 11.7625C212.051 11.1438 212.206 10.579 212.515 10.0682C212.825 9.5574 213.239 9.15091 213.757 8.84875C214.275 8.54658 214.85 8.3955 215.483 8.3955C215.951 8.3955 216.39 8.47823 216.8 8.64371C217.21 8.80918 217.57 9.02861 217.879 9.302L217.523 10.7697C217.343 10.4099 217.07 10.1078 216.703 9.86316C216.343 9.61855 215.933 9.49625 215.472 9.49625C215.055 9.49625 214.674 9.60057 214.328 9.80921C213.99 10.0107 213.721 10.284 213.519 10.6294C213.318 10.9675 213.217 11.3452 213.217 11.7625C213.217 12.1726 213.318 12.5503 213.519 12.8956C213.721 13.241 213.99 13.5179 214.328 13.7266C214.674 13.928 215.055 14.0287 215.472 14.0287C215.933 14.0287 216.343 13.91 216.703 13.6726C217.07 13.4352 217.343 13.1294 217.523 12.7553L217.879 14.223C217.57 14.4964 217.21 14.7158 216.8 14.8813C216.39 15.0468 215.951 15.1295 215.483 15.1295ZM220.059 15V9.49625H218.591V8.525H220.091V6.36666H221.192V8.525H222.8V9.49625H221.224V15H220.059ZM226.927 15.1295C226.251 15.1295 225.643 14.9784 225.104 14.6762C224.571 14.3741 224.15 13.964 223.841 13.446C223.539 12.9208 223.388 12.3381 223.388 11.6977C223.388 11.0862 223.535 10.5322 223.83 10.0358C224.125 9.53222 224.521 9.13293 225.017 8.83796C225.521 8.54298 226.075 8.3955 226.679 8.3955C227.276 8.3955 227.823 8.53939 228.32 8.82716C228.816 9.10775 229.212 9.48905 229.507 9.97108C229.802 10.4531 229.949 10.9999 229.949 11.6114V12.0862H225.719C225.532 12.0862 225.341 12.0791 225.147 12.0647C224.953 12.0503 224.762 12.0287 224.575 11.9999C224.654 12.5755 224.913 13.0575 225.352 13.446C225.798 13.8345 226.327 14.0287 226.938 14.0287C227.348 14.0287 227.73 13.9352 228.082 13.7482C228.435 13.5611 228.719 13.3129 228.935 13.0035L229.258 14.3309C228.949 14.5827 228.593 14.7806 228.19 14.9245C227.794 15.0612 227.373 15.1295 226.927 15.1295ZM224.542 11.2121C224.931 11.1474 225.323 11.115 225.719 11.115H227.866C228.025 11.115 228.179 11.1222 228.33 11.1366C228.489 11.1438 228.647 11.1546 228.805 11.169C228.704 10.6653 228.453 10.2517 228.05 9.92791C227.647 9.59697 227.19 9.4315 226.679 9.4315C226.154 9.4315 225.694 9.60776 225.298 9.96029C224.902 10.3056 224.65 10.7229 224.542 11.2121ZM232.26 15V9.49625H230.793V8.525H232.293V6.36666H233.393V8.525H235.001V9.49625H233.426V15H232.26ZM238.832 15.1295C238.379 15.1295 237.955 15.018 237.559 14.795C237.163 14.5647 236.843 14.2338 236.598 13.8021C236.354 13.3705 236.232 12.8525 236.232 12.2481V8.525H237.397V12.0862C237.397 12.5971 237.548 13.0503 237.85 13.446C238.16 13.8345 238.591 14.0287 239.145 14.0287C239.599 14.0287 240.001 13.8669 240.354 13.5431C240.714 13.2122 240.894 12.7373 240.894 12.1186V8.525H242.059V15H240.98V13.9532C240.742 14.3345 240.433 14.6259 240.052 14.8273C239.678 15.0288 239.271 15.1295 238.832 15.1295ZM244.131 15V8.525H245.21V9.71208C245.44 9.33078 245.746 9.02861 246.127 8.80558C246.509 8.57536 246.962 8.46025 247.487 8.46025L247.779 9.62575C247.642 9.58258 247.484 9.561 247.304 9.561C246.699 9.561 246.214 9.75525 245.847 10.1437C245.48 10.5251 245.297 11.0718 245.297 11.7841V15H244.131ZM254.993 15.0863C254.403 15.0863 253.864 14.9388 253.374 14.6439C252.885 14.3417 252.493 13.9388 252.198 13.4352C251.91 12.9316 251.766 12.374 251.766 11.7625C251.766 11.151 251.91 10.5934 252.198 10.0898C252.493 9.58618 252.885 9.18689 253.374 8.89191C253.864 8.58975 254.403 8.43866 254.993 8.43866C255.439 8.43866 255.857 8.5214 256.245 8.68687C256.641 8.85235 256.982 9.08257 257.27 9.37754V8.525H258.349V15H257.27V14.1475C256.982 14.4352 256.641 14.6655 256.245 14.8381C255.857 15.0036 255.439 15.0863 254.993 15.0863ZM255.144 14.0287C255.554 14.0287 255.925 13.928 256.256 13.7266C256.594 13.5179 256.86 13.2446 257.054 12.9064C257.256 12.5611 257.357 12.1798 257.357 11.7625C257.357 11.3452 257.256 10.9675 257.054 10.6294C256.86 10.284 256.594 10.0107 256.256 9.80921C255.925 9.60057 255.554 9.49625 255.144 9.49625C254.734 9.49625 254.36 9.60057 254.022 9.80921C253.691 10.0107 253.425 10.284 253.223 10.6294C253.029 10.9675 252.932 11.3452 252.932 11.7625C252.932 12.1798 253.029 12.5611 253.223 12.9064C253.425 13.2446 253.691 13.5179 254.022 13.7266C254.36 13.928 254.734 14.0287 255.144 14.0287ZM263.188 15.0863C262.598 15.0863 262.059 14.9388 261.569 14.6439C261.08 14.3417 260.688 13.9388 260.393 13.4352C260.105 12.9316 259.961 12.374 259.961 11.7625C259.961 11.151 260.105 10.5934 260.393 10.0898C260.688 9.58618 261.08 9.18689 261.569 8.89191C262.059 8.58975 262.598 8.43866 263.188 8.43866C263.613 8.43866 264.012 8.51421 264.386 8.66529C264.76 8.81637 265.091 9.02501 265.379 9.29121V4.64H266.544V15H265.465V14.1475C265.177 14.4352 264.836 14.6655 264.44 14.8381C264.051 15.0036 263.634 15.0863 263.188 15.0863ZM263.339 14.0287C263.749 14.0287 264.12 13.928 264.451 13.7266C264.789 13.5179 265.055 13.2446 265.249 12.9064C265.451 12.5611 265.551 12.1798 265.551 11.7625C265.551 11.3452 265.451 10.9675 265.249 10.6294C265.055 10.284 264.789 10.0107 264.451 9.80921C264.12 9.60057 263.749 9.49625 263.339 9.49625C262.929 9.49625 262.555 9.60057 262.217 9.80921C261.886 10.0107 261.62 10.284 261.418 10.6294C261.224 10.9675 261.127 11.3452 261.127 11.7625C261.127 12.1798 261.224 12.5611 261.418 12.9064C261.62 13.2446 261.886 13.5179 262.217 13.7266C262.555 13.928 262.929 14.0287 263.339 14.0287ZM268.61 15V8.525H269.775V15H268.61ZM269.192 7.3595C268.976 7.3595 268.793 7.28396 268.642 7.13287C268.491 6.98179 268.415 6.79833 268.415 6.5825C268.415 6.35947 268.491 6.17601 268.642 6.03212C268.793 5.88104 268.976 5.8055 269.192 5.8055C269.415 5.8055 269.599 5.88104 269.743 6.03212C269.894 6.17601 269.969 6.35947 269.969 6.5825C269.969 6.79833 269.894 6.98179 269.743 7.13287C269.599 7.28396 269.415 7.3595 269.192 7.3595ZM271.842 18.2375V8.525H272.921V9.37754C273.216 9.08257 273.558 8.85235 273.946 8.68687C274.335 8.5214 274.752 8.43866 275.198 8.43866C275.795 8.43866 276.335 8.58975 276.817 8.89191C277.306 9.18689 277.695 9.58618 277.982 10.0898C278.277 10.5934 278.425 11.151 278.425 11.7625C278.425 12.374 278.277 12.9316 277.982 13.4352C277.695 13.9388 277.306 14.3417 276.817 14.6439C276.335 14.9388 275.795 15.0863 275.198 15.0863C274.774 15.0863 274.374 15.0108 274 14.8597C273.626 14.7086 273.295 14.5 273.008 14.2338V18.2375H271.842ZM275.047 14.0287C275.457 14.0287 275.828 13.928 276.159 13.7266C276.497 13.5179 276.763 13.2446 276.957 12.9064C277.159 12.5611 277.259 12.1798 277.259 11.7625C277.259 11.3452 277.159 10.9675 276.957 10.6294C276.763 10.284 276.497 10.0107 276.159 9.80921C275.828 9.60057 275.457 9.49625 275.047 9.49625C274.637 9.49625 274.263 9.60057 273.925 9.80921C273.594 10.0107 273.328 10.284 273.126 10.6294C272.932 10.9675 272.835 11.3452 272.835 11.7625C272.835 12.1798 272.932 12.5611 273.126 12.9064C273.328 13.2446 273.594 13.5179 273.925 13.7266C274.263 13.928 274.637 14.0287 275.047 14.0287ZM280.037 15V8.525H281.202V15H280.037ZM280.62 7.3595C280.404 7.3595 280.22 7.28396 280.069 7.13287C279.918 6.98179 279.843 6.79833 279.843 6.5825C279.843 6.35947 279.918 6.17601 280.069 6.03212C280.22 5.88104 280.404 5.8055 280.62 5.8055C280.843 5.8055 281.026 5.88104 281.17 6.03212C281.321 6.17601 281.397 6.35947 281.397 6.5825C281.397 6.79833 281.321 6.98179 281.17 7.13287C281.026 7.28396 280.843 7.3595 280.62 7.3595ZM284.942 15.1295C284.611 15.1295 284.255 15.0683 283.874 14.946C283.5 14.8165 283.176 14.6043 282.902 14.3093L283.226 13.0359C283.428 13.3741 283.687 13.6438 284.003 13.8453C284.32 14.0395 284.658 14.1367 285.018 14.1367C285.363 14.1367 285.622 14.0539 285.795 13.8885C285.967 13.7158 286.054 13.5072 286.054 13.2625C286.054 12.982 285.96 12.7769 285.773 12.6474C285.593 12.5179 285.431 12.428 285.287 12.3776L284.413 12.0431C284.255 11.9783 284.064 11.8848 283.841 11.7625C283.618 11.633 283.424 11.4495 283.259 11.2121C283.093 10.9747 283.01 10.6653 283.01 10.284C283.01 9.93871 283.093 9.62215 283.259 9.33437C283.424 9.04659 283.658 8.81997 283.96 8.6545C284.262 8.48183 284.618 8.3955 285.028 8.3955C285.352 8.3955 285.69 8.45305 286.043 8.56816C286.395 8.68328 286.694 8.87753 286.939 9.15091L286.615 10.4243C286.442 10.1078 286.208 9.85597 285.913 9.66891C285.618 9.48186 285.313 9.38833 284.996 9.38833C284.701 9.38833 284.467 9.47107 284.295 9.63654C284.129 9.80201 284.046 9.99266 284.046 10.2085C284.046 10.3812 284.104 10.5358 284.219 10.6725C284.334 10.8092 284.507 10.9207 284.737 11.0071L285.611 11.3416C285.769 11.3992 285.964 11.4927 286.194 11.6222C286.431 11.7517 286.64 11.9388 286.82 12.1834C287 12.428 287.09 12.7589 287.09 13.1762C287.09 13.759 286.885 14.2302 286.475 14.5899C286.072 14.9496 285.561 15.1295 284.942 15.1295ZM288.778 15V8.525H289.944V15H288.778ZM289.361 7.3595C289.145 7.3595 288.962 7.28396 288.811 7.13287C288.659 6.98179 288.584 6.79833 288.584 6.5825C288.584 6.35947 288.659 6.17601 288.811 6.03212C288.962 5.88104 289.145 5.8055 289.361 5.8055C289.584 5.8055 289.767 5.88104 289.911 6.03212C290.062 6.17601 290.138 6.35947 290.138 6.5825C290.138 6.79833 290.062 6.98179 289.911 7.13287C289.767 7.28396 289.584 7.3595 289.361 7.3595ZM294.989 15.1295C294.356 15.1295 293.78 14.9784 293.262 14.6762C292.744 14.3741 292.331 13.9676 292.021 13.4568C291.712 12.946 291.557 12.3812 291.557 11.7625C291.557 11.1438 291.712 10.579 292.021 10.0682C292.331 9.5574 292.744 9.15091 293.262 8.84875C293.78 8.54658 294.356 8.3955 294.989 8.3955C295.457 8.3955 295.896 8.47823 296.306 8.64371C296.716 8.80918 297.076 9.02861 297.385 9.302L297.029 10.7697C296.849 10.4099 296.575 10.1078 296.209 9.86316C295.849 9.61855 295.439 9.49625 294.978 9.49625C294.561 9.49625 294.18 9.60057 293.834 9.80921C293.496 10.0107 293.226 10.284 293.025 10.6294C292.824 10.9675 292.723 11.3452 292.723 11.7625C292.723 12.1726 292.824 12.5503 293.025 12.8956C293.226 13.241 293.496 13.5179 293.834 13.7266C294.18 13.928 294.561 14.0287 294.978 14.0287C295.439 14.0287 295.849 13.91 296.209 13.6726C296.575 13.4352 296.849 13.1294 297.029 12.7553L297.385 14.223C297.076 14.4964 296.716 14.7158 296.306 14.8813C295.896 15.0468 295.457 15.1295 294.989 15.1295ZM298.809 15V8.525H299.975V15H298.809ZM299.392 7.3595C299.176 7.3595 298.993 7.28396 298.842 7.13287C298.691 6.98179 298.615 6.79833 298.615 6.5825C298.615 6.35947 298.691 6.17601 298.842 6.03212C298.993 5.88104 299.176 5.8055 299.392 5.8055C299.615 5.8055 299.799 5.88104 299.943 6.03212C300.094 6.17601 300.169 6.35947 300.169 6.5825C300.169 6.79833 300.094 6.98179 299.943 7.13287C299.799 7.28396 299.615 7.3595 299.392 7.3595ZM302.042 15V8.525H303.121V9.57179C303.358 9.19048 303.664 8.89911 304.038 8.69766C304.42 8.49622 304.83 8.3955 305.269 8.3955C305.729 8.3955 306.153 8.51061 306.542 8.74083C306.938 8.96386 307.258 9.29121 307.502 9.72287C307.747 10.1473 307.869 10.6653 307.869 11.2769V15H306.704V11.4387C306.704 10.9279 306.549 10.4783 306.24 10.0898C305.938 9.69409 305.51 9.49625 304.956 9.49625C304.502 9.49625 304.096 9.66172 303.736 9.99266C303.384 10.3164 303.207 10.7877 303.207 11.4064V15H302.042ZM312.434 18.367C311.938 18.367 311.485 18.2951 311.074 18.1512C310.672 18.0073 310.312 17.8094 309.995 17.5576L310.319 16.241C310.535 16.5504 310.823 16.8022 311.182 16.9965C311.542 17.1907 311.956 17.2878 312.423 17.2878C313.15 17.2878 313.736 17.0684 314.182 16.6295C314.636 16.1907 314.862 15.6259 314.862 14.9352V14.1475C314.575 14.4352 314.233 14.6655 313.837 14.8381C313.449 15.0036 313.031 15.0863 312.585 15.0863C311.995 15.0863 311.456 14.9388 310.967 14.6439C310.477 14.3417 310.085 13.9388 309.79 13.4352C309.502 12.9316 309.359 12.374 309.359 11.7625C309.359 11.151 309.502 10.5934 309.79 10.0898C310.085 9.58618 310.477 9.18689 310.967 8.89191C311.456 8.58975 311.995 8.43866 312.585 8.43866C313.031 8.43866 313.449 8.5214 313.837 8.68687C314.233 8.85235 314.575 9.08257 314.862 9.37754V8.525H315.941V15C315.941 15.7051 315.776 16.3094 315.445 16.813C315.121 17.3166 314.693 17.7015 314.161 17.9677C313.628 18.2339 313.053 18.367 312.434 18.367ZM312.736 14.0287C313.146 14.0287 313.517 13.928 313.848 13.7266C314.186 13.5179 314.452 13.2446 314.646 12.9064C314.848 12.5611 314.949 12.1798 314.949 11.7625C314.949 11.3452 314.848 10.9675 314.646 10.6294C314.452 10.284 314.186 10.0107 313.848 9.80921C313.517 9.60057 313.146 9.49625 312.736 9.49625C312.326 9.49625 311.952 9.60057 311.614 9.80921C311.283 10.0107 311.017 10.284 310.815 10.6294C310.621 10.9675 310.524 11.3452 310.524 11.7625C310.524 12.1798 310.621 12.5611 310.815 12.9064C311.017 13.2446 311.283 13.5179 311.614 13.7266C311.952 13.928 312.326 14.0287 312.736 14.0287ZM9.80743 38.1295C9.13115 38.1295 8.52322 37.9784 7.98364 37.6762C7.45125 37.3741 7.03037 36.964 6.72101 36.446C6.41885 35.9208 6.26776 35.3381 6.26776 34.6977C6.26776 34.0862 6.41525 33.5322 6.71022 33.0358C7.00519 32.5322 7.40089 32.1329 7.89731 31.838C8.40092 31.543 8.95489 31.3955 9.55922 31.3955C10.1564 31.3955 10.7031 31.5394 11.1996 31.8272C11.696 32.1077 12.0917 32.4891 12.3866 32.9711C12.6816 33.4531 12.8291 33.9999 12.8291 34.6114V35.0862H8.59876C8.41171 35.0862 8.22106 35.0791 8.02681 35.0647C7.83256 35.0503 7.6419 35.0287 7.45485 34.9999C7.53399 35.5755 7.79299 36.0575 8.23185 36.446C8.6779 36.8345 9.20669 37.0287 9.81822 37.0287C10.2283 37.0287 10.6096 36.9352 10.9621 36.7482C11.3147 36.5611 11.5988 36.3129 11.8147 36.0035L12.1384 37.3309C11.8291 37.5827 11.4729 37.7806 11.0701 37.9245C10.6744 38.0612 10.2535 38.1295 9.80743 38.1295ZM7.42247 34.2121C7.81097 34.1474 8.20307 34.115 8.59876 34.115H10.7463C10.9046 34.115 11.0593 34.1222 11.2103 34.1366C11.3686 34.1438 11.5269 34.1546 11.6852 34.169C11.5845 33.6653 11.3327 33.2517 10.9298 32.9279C10.5269 32.597 10.07 32.4315 9.55922 32.4315C9.03403 32.4315 8.57358 32.6078 8.17789 32.9603C7.78219 33.3056 7.53039 33.7229 7.42247 34.2121ZM14.3848 38V27.64H15.5503V38H14.3848ZM17.6172 38V31.525H18.7827V38H17.6172ZM18.2 30.3595C17.9841 30.3595 17.8007 30.284 17.6496 30.1329C17.4985 29.9818 17.423 29.7983 17.423 29.5825C17.423 29.3595 17.4985 29.176 17.6496 29.0321C17.8007 28.881 17.9841 28.8055 18.2 28.8055C18.423 28.8055 18.6065 28.881 18.7504 29.0321C18.9014 29.176 18.977 29.3595 18.977 29.5825C18.977 29.7983 18.9014 29.9818 18.7504 30.1329C18.6065 30.284 18.423 30.3595 18.2 30.3595ZM21.6051 38V32.4962H20.1374V31.525H21.6375V29.3667H22.7382V31.525H24.3462V32.4962H22.7706V38H21.6051ZM24.416 39.6188C24.7397 39.2159 24.9987 38.7482 25.193 38.2158C25.3944 37.6834 25.4951 37.0719 25.4951 36.3812H26.6606C26.6606 36.9928 26.5743 37.5683 26.4016 38.1079C26.2362 38.6547 26.006 39.1583 25.711 39.6188H24.416ZM33.2061 38.1295C32.8752 38.1295 32.5191 38.0683 32.1378 37.946C31.7636 37.8165 31.4399 37.6043 31.1665 37.3093L31.4903 36.0359C31.6917 36.3741 31.9507 36.6438 32.2673 36.8453C32.5838 37.0395 32.922 37.1367 33.2817 37.1367C33.627 37.1367 33.886 37.0539 34.0587 36.8885C34.2313 36.7158 34.3177 36.5072 34.3177 36.2625C34.3177 35.982 34.2241 35.7769 34.0371 35.6474C33.8572 35.5179 33.6954 35.428 33.5515 35.3776L32.6773 35.0431C32.5191 34.9783 32.3284 34.8848 32.1054 34.7625C31.8824 34.633 31.6881 34.4495 31.5226 34.2121C31.3572 33.9747 31.2744 33.6653 31.2744 33.284C31.2744 32.9387 31.3572 32.6222 31.5226 32.3344C31.6881 32.0466 31.9219 31.82 32.2241 31.6545C32.5263 31.4818 32.8824 31.3955 33.2925 31.3955C33.6162 31.3955 33.9544 31.4531 34.3069 31.5682C34.6594 31.6833 34.958 31.8775 35.2026 32.1509L34.8788 33.4243C34.7062 33.1078 34.4724 32.856 34.1774 32.6689C33.8824 32.4819 33.5766 32.3883 33.2601 32.3883C32.9651 32.3883 32.7313 32.4711 32.5586 32.6365C32.3932 32.802 32.3104 32.9927 32.3104 33.2085C32.3104 33.3812 32.368 33.5358 32.4831 33.6725C32.5982 33.8092 32.7709 33.9207 33.0011 34.0071L33.8752 34.3416C34.0335 34.3992 34.2277 34.4927 34.458 34.6222C34.6954 34.7517 34.904 34.9388 35.0839 35.1834C35.2637 35.428 35.3537 35.7589 35.3537 36.1762C35.3537 36.759 35.1486 37.2302 34.7386 37.5899C34.3357 37.9496 33.8249 38.1295 33.2061 38.1295ZM40.1287 38.1295C39.4524 38.1295 38.8444 37.9784 38.3049 37.6762C37.7725 37.3741 37.3516 36.964 37.0422 36.446C36.7401 35.9208 36.589 35.3381 36.589 34.6977C36.589 34.0862 36.7365 33.5322 37.0314 33.0358C37.3264 32.5322 37.7221 32.1329 38.2185 31.838C38.7221 31.543 39.2761 31.3955 39.8804 31.3955C40.4776 31.3955 41.0244 31.5394 41.5208 31.8272C42.0172 32.1077 42.4129 32.4891 42.7079 32.9711C43.0028 33.4531 43.1503 33.9999 43.1503 34.6114V35.0862H38.92C38.7329 35.0862 38.5423 35.0791 38.348 35.0647C38.1538 35.0503 37.9631 35.0287 37.7761 34.9999C37.8552 35.5755 38.1142 36.0575 38.5531 36.446C38.9991 36.8345 39.5279 37.0287 40.1394 37.0287C40.5495 37.0287 40.9308 36.9352 41.2834 36.7482C41.6359 36.5611 41.9201 36.3129 42.1359 36.0035L42.4597 37.3309C42.1503 37.5827 41.7942 37.7806 41.3913 37.9245C40.9956 38.0612 40.5747 38.1295 40.1287 38.1295ZM37.7437 34.2121C38.1322 34.1474 38.5243 34.115 38.92 34.115H41.0675C41.2258 34.115 41.3805 34.1222 41.5316 34.1366C41.6898 34.1438 41.8481 34.1546 42.0064 34.169C41.9057 33.6653 41.6539 33.2517 41.251 32.9279C40.8481 32.597 40.3912 32.4315 39.8804 32.4315C39.3552 32.4315 38.8948 32.6078 38.4991 32.9603C38.1034 33.3056 37.8516 33.7229 37.7437 34.2121ZM47.4795 38.0863C46.8895 38.0863 46.3499 37.9388 45.8607 37.6439C45.3715 37.3417 44.9794 36.9388 44.6844 36.4352C44.3966 35.9316 44.2528 35.374 44.2528 34.7625C44.2528 34.151 44.3966 33.5934 44.6844 33.0898C44.9794 32.5862 45.3715 32.1869 45.8607 31.8919C46.3499 31.5897 46.8895 31.4387 47.4795 31.4387C47.9039 31.4387 48.3032 31.5142 48.6773 31.6653C49.0515 31.8164 49.3824 32.025 49.6702 32.2912V27.64H50.8357V38H49.7565V37.1475C49.4687 37.4352 49.127 37.6655 48.7313 37.8381C48.3428 38.0036 47.9255 38.0863 47.4795 38.0863ZM47.6305 37.0287C48.0406 37.0287 48.4111 36.928 48.7421 36.7266C49.0802 36.5179 49.3464 36.2446 49.5407 35.9064C49.7421 35.5611 49.8428 35.1798 49.8428 34.7625C49.8428 34.3452 49.7421 33.9675 49.5407 33.6294C49.3464 33.284 49.0802 33.0107 48.7421 32.8092C48.4111 32.6006 48.0406 32.4962 47.6305 32.4962C47.2205 32.4962 46.8464 32.6006 46.5082 32.8092C46.1773 33.0107 45.9111 33.284 45.7096 33.6294C45.5154 33.9675 45.4183 34.3452 45.4183 34.7625C45.4183 35.1798 45.5154 35.5611 45.7096 35.9064C45.9111 36.2446 46.1773 36.5179 46.5082 36.7266C46.8464 36.928 47.2205 37.0287 47.6305 37.0287ZM58.9068 38.0863C58.3169 38.0863 57.7773 37.9388 57.2881 37.6439C56.7989 37.3417 56.4068 36.9388 56.1118 36.4352C55.824 35.9316 55.6801 35.374 55.6801 34.7625C55.6801 34.151 55.824 33.5934 56.1118 33.0898C56.4068 32.5862 56.7989 32.1869 57.2881 31.8919C57.7773 31.5897 58.3169 31.4387 58.9068 31.4387C59.3313 31.4387 59.7306 31.5142 60.1047 31.6653C60.4788 31.8164 60.8098 32.025 61.0975 32.2912V27.64H62.263V38H61.1839V37.1475C60.8961 37.4352 60.5544 37.6655 60.1587 37.8381C59.7702 38.0036 59.3529 38.0863 58.9068 38.0863ZM59.0579 37.0287C59.468 37.0287 59.8385 36.928 60.1695 36.7266C60.5076 36.5179 60.7738 36.2446 60.968 35.9064C61.1695 35.5611 61.2702 35.1798 61.2702 34.7625C61.2702 34.3452 61.1695 33.9675 60.968 33.6294C60.7738 33.284 60.5076 33.0107 60.1695 32.8092C59.8385 32.6006 59.468 32.4962 59.0579 32.4962C58.6478 32.4962 58.2737 32.6006 57.9356 32.8092C57.6046 33.0107 57.3384 33.284 57.137 33.6294C56.9427 33.9675 56.8456 34.3452 56.8456 34.7625C56.8456 35.1798 56.9427 35.5611 57.137 35.9064C57.3384 36.2446 57.6046 36.5179 57.9356 36.7266C58.2737 36.928 58.6478 37.0287 59.0579 37.0287ZM67.2852 38.1295C66.6593 38.1295 66.0873 37.9784 65.5693 37.6762C65.0513 37.3741 64.6377 36.9676 64.3283 36.4568C64.0261 35.946 63.8751 35.3812 63.8751 34.7625C63.8751 34.1366 64.0261 33.5718 64.3283 33.0682C64.6377 32.5574 65.0513 32.1509 65.5693 31.8487C66.0873 31.5466 66.6593 31.3955 67.2852 31.3955C67.9183 31.3955 68.4903 31.5466 69.0011 31.8487C69.5191 32.1509 69.9292 32.5574 70.2313 33.0682C70.5407 33.5718 70.6954 34.1366 70.6954 34.7625C70.6954 35.3812 70.5407 35.946 70.2313 36.4568C69.9292 36.9676 69.5191 37.3741 69.0011 37.6762C68.4903 37.9784 67.9183 38.1295 67.2852 38.1295ZM67.2852 37.0287C67.7025 37.0287 68.0802 36.928 68.4183 36.7266C68.7565 36.5179 69.0263 36.2446 69.2277 35.9064C69.4292 35.5611 69.5299 35.1798 69.5299 34.7625C69.5299 34.3452 69.4292 33.9675 69.2277 33.6294C69.0263 33.284 68.7565 33.0107 68.4183 32.8092C68.0802 32.6006 67.7025 32.4962 67.2852 32.4962C66.8679 32.4962 66.4902 32.6006 66.1521 32.8092C65.814 33.0107 65.5442 33.284 65.3427 33.6294C65.1413 33.9675 65.0406 34.3452 65.0406 34.7625C65.0406 35.1798 65.1413 35.5611 65.3427 35.9064C65.5442 36.2446 65.814 36.5179 66.1521 36.7266C66.4902 36.928 66.8679 37.0287 67.2852 37.0287ZM78.6296 38.1295C77.9533 38.1295 77.3454 37.9784 76.8058 37.6762C76.2734 37.3741 75.8526 36.964 75.5432 36.446C75.241 35.9208 75.09 35.3381 75.09 34.6977C75.09 34.0862 75.2374 33.5322 75.5324 33.0358C75.8274 32.5322 76.2231 32.1329 76.7195 31.838C77.2231 31.543 77.7771 31.3955 78.3814 31.3955C78.9786 31.3955 79.5253 31.5394 80.0218 31.8272C80.5182 32.1077 80.9139 32.4891 81.2088 32.9711C81.5038 33.4531 81.6513 33.9999 81.6513 34.6114V35.0862H77.421C77.2339 35.0862 77.0433 35.0791 76.849 35.0647C76.6548 35.0503 76.4641 35.0287 76.277 34.9999C76.3562 35.5755 76.6152 36.0575 77.054 36.446C77.5001 36.8345 78.0289 37.0287 78.6404 37.0287C79.0505 37.0287 79.4318 36.9352 79.7843 36.7482C80.1369 36.5611 80.421 36.3129 80.6369 36.0035L80.9606 37.3309C80.6513 37.5827 80.2951 37.7806 79.8923 37.9245C79.4966 38.0612 79.0757 38.1295 78.6296 38.1295ZM76.2447 34.2121C76.6332 34.1474 77.0253 34.115 77.421 34.115H79.5685C79.7268 34.115 79.8815 34.1222 80.0325 34.1366C80.1908 34.1438 80.3491 34.1546 80.5074 34.169C80.4067 33.6653 80.1549 33.2517 79.752 32.9279C79.3491 32.597 78.8922 32.4315 78.3814 32.4315C77.8562 32.4315 77.3958 32.6078 77.0001 32.9603C76.6044 33.3056 76.3526 33.7229 76.2447 34.2121ZM83.207 38V31.525H84.3725V38H83.207ZM83.7897 30.3595C83.5739 30.3595 83.3904 30.284 83.2394 30.1329C83.0883 29.9818 83.0127 29.7983 83.0127 29.5825C83.0127 29.3595 83.0883 29.176 83.2394 29.0321C83.3904 28.881 83.5739 28.8055 83.7897 28.8055C84.0128 28.8055 84.1962 28.881 84.3401 29.0321C84.4912 29.176 84.5667 29.3595 84.5667 29.5825C84.5667 29.7983 84.4912 29.9818 84.3401 30.1329C84.1962 30.284 84.0128 30.3595 83.7897 30.3595ZM88.9107 38.1295C88.4575 38.1295 88.033 38.018 87.6373 37.795C87.2416 37.5647 86.9214 37.2338 86.6768 36.8021C86.4322 36.3705 86.3099 35.8525 86.3099 35.2481V31.525H87.4754V35.0862C87.4754 35.5971 87.6265 36.0503 87.9287 36.446C88.238 36.8345 88.6697 37.0287 89.2237 37.0287C89.6769 37.0287 90.0798 36.8669 90.4323 36.5431C90.7921 36.2122 90.9719 35.7373 90.9719 35.1186V31.525H92.1374V38H91.0583V36.9532C90.8208 37.3345 90.5115 37.6259 90.1302 37.8273C89.7561 38.0288 89.3496 38.1295 88.9107 38.1295ZM95.8821 38.1295C95.5512 38.1295 95.1951 38.0683 94.8138 37.946C94.4396 37.8165 94.1159 37.6043 93.8425 37.3093L94.1663 36.0359C94.3677 36.3741 94.6267 36.6438 94.9433 36.8453C95.2598 37.0395 95.598 37.1367 95.9577 37.1367C96.303 37.1367 96.562 37.0539 96.7347 36.8885C96.9073 36.7158 96.9937 36.5072 96.9937 36.2625C96.9937 35.982 96.9001 35.7769 96.7131 35.6474C96.5332 35.5179 96.3714 35.428 96.2275 35.3776L95.3533 35.0431C95.1951 34.9783 95.0044 34.8848 94.7814 34.7625C94.5584 34.633 94.3641 34.4495 94.1986 34.2121C94.0332 33.9747 93.9504 33.6653 93.9504 33.284C93.9504 32.9387 94.0332 32.6222 94.1986 32.3344C94.3641 32.0466 94.5979 31.82 94.9001 31.6545C95.2023 31.4818 95.5584 31.3955 95.9685 31.3955C96.2922 31.3955 96.6304 31.4531 96.9829 31.5682C97.3354 31.6833 97.634 31.8775 97.8786 32.1509L97.5548 33.4243C97.3822 33.1078 97.1484 32.856 96.8534 32.6689C96.5584 32.4819 96.2526 32.3883 95.9361 32.3883C95.6411 32.3883 95.4073 32.4711 95.2346 32.6365C95.0692 32.802 94.9864 32.9927 94.9864 33.2085C94.9864 33.3812 95.044 33.5358 95.1591 33.6725C95.2742 33.8092 95.4469 33.9207 95.6771 34.0071L96.5512 34.3416C96.7095 34.3992 96.9037 34.4927 97.134 34.6222C97.3714 34.7517 97.58 34.9388 97.7599 35.1834C97.9397 35.428 98.0297 35.7589 98.0297 36.1762C98.0297 36.759 97.8246 37.2302 97.4146 37.5899C97.0117 37.9496 96.5009 38.1295 95.8821 38.1295ZM99.7182 38V31.525H100.797V32.4531C101.035 32.1006 101.333 31.838 101.693 31.6653C102.06 31.4854 102.445 31.3955 102.848 31.3955C103.287 31.3955 103.69 31.4998 104.056 31.7085C104.423 31.9099 104.718 32.1941 104.941 32.561C105.193 32.1725 105.517 31.8811 105.913 31.6869C106.316 31.4926 106.74 31.3955 107.186 31.3955C107.675 31.3955 108.121 31.5106 108.524 31.7408C108.934 31.9711 109.258 32.2948 109.495 32.7121C109.74 33.1222 109.862 33.6078 109.862 34.169V38H108.697V34.3092C108.697 33.7193 108.528 33.2732 108.19 32.9711C107.859 32.6617 107.474 32.507 107.035 32.507C106.762 32.507 106.495 32.5682 106.236 32.6905C105.985 32.8128 105.776 33.0035 105.61 33.2625C105.452 33.5215 105.373 33.8596 105.373 34.2769V38H104.208V34.3092C104.208 33.8992 104.125 33.561 103.959 33.2948C103.801 33.0286 103.592 32.8308 103.333 32.7013C103.082 32.5646 102.819 32.4962 102.546 32.4962C102.279 32.4962 102.017 32.5574 101.758 32.6797C101.506 32.802 101.297 32.9927 101.132 33.2517C100.966 33.5107 100.884 33.8524 100.884 34.2769V38H99.7182ZM114.755 38.1295C114.129 38.1295 113.557 37.9784 113.039 37.6762C112.521 37.3741 112.108 36.9676 111.798 36.4568C111.496 35.946 111.345 35.3812 111.345 34.7625C111.345 34.1366 111.496 33.5718 111.798 33.0682C112.108 32.5574 112.521 32.1509 113.039 31.8487C113.557 31.5466 114.129 31.3955 114.755 31.3955C115.388 31.3955 115.96 31.5466 116.471 31.8487C116.989 32.1509 117.399 32.5574 117.701 33.0682C118.011 33.5718 118.165 34.1366 118.165 34.7625C118.165 35.3812 118.011 35.946 117.701 36.4568C117.399 36.9676 116.989 37.3741 116.471 37.6762C115.96 37.9784 115.388 38.1295 114.755 38.1295ZM114.755 37.0287C115.172 37.0287 115.55 36.928 115.888 36.7266C116.226 36.5179 116.496 36.2446 116.698 35.9064C116.899 35.5611 117 35.1798 117 34.7625C117 34.3452 116.899 33.9675 116.698 33.6294C116.496 33.284 116.226 33.0107 115.888 32.8092C115.55 32.6006 115.172 32.4962 114.755 32.4962C114.338 32.4962 113.96 32.6006 113.622 32.8092C113.284 33.0107 113.014 33.284 112.813 33.6294C112.611 33.9675 112.51 34.3452 112.51 34.7625C112.51 35.1798 112.611 35.5611 112.813 35.9064C113.014 36.2446 113.284 36.5179 113.622 36.7266C113.96 36.928 114.338 37.0287 114.755 37.0287ZM122.554 38.0863C121.964 38.0863 121.425 37.9388 120.935 37.6439C120.446 37.3417 120.054 36.9388 119.759 36.4352C119.471 35.9316 119.327 35.374 119.327 34.7625C119.327 34.151 119.471 33.5934 119.759 33.0898C120.054 32.5862 120.446 32.1869 120.935 31.8919C121.425 31.5897 121.964 31.4387 122.554 31.4387C122.979 31.4387 123.378 31.5142 123.752 31.6653C124.126 31.8164 124.457 32.025 124.745 32.2912V27.64H125.91V38H124.831V37.1475C124.543 37.4352 124.202 37.6655 123.806 37.8381C123.417 38.0036 123 38.0863 122.554 38.0863ZM122.705 37.0287C123.115 37.0287 123.486 36.928 123.817 36.7266C124.155 36.5179 124.421 36.2446 124.615 35.9064C124.817 35.5611 124.917 35.1798 124.917 34.7625C124.917 34.3452 124.817 33.9675 124.615 33.6294C124.421 33.284 124.155 33.0107 123.817 32.8092C123.486 32.6006 123.115 32.4962 122.705 32.4962C122.295 32.4962 121.921 32.6006 121.583 32.8092C121.252 33.0107 120.986 33.284 120.784 33.6294C120.59 33.9675 120.493 34.3452 120.493 34.7625C120.493 35.1798 120.59 35.5611 120.784 35.9064C120.986 36.2446 121.252 36.5179 121.583 36.7266C121.921 36.928 122.295 37.0287 122.705 37.0287ZM131.963 38V32.4962H130.496V31.525H131.996V29.3667H133.097V31.525H134.704V32.4962H133.129V38H131.963ZM138.832 38.1295C138.156 38.1295 137.548 37.9784 137.008 37.6762C136.476 37.3741 136.055 36.964 135.746 36.446C135.443 35.9208 135.292 35.3381 135.292 34.6977C135.292 34.0862 135.44 33.5322 135.735 33.0358C136.03 32.5322 136.425 32.1329 136.922 31.838C137.425 31.543 137.979 31.3955 138.584 31.3955C139.181 31.3955 139.728 31.5394 140.224 31.8272C140.721 32.1077 141.116 32.4891 141.411 32.9711C141.706 33.4531 141.854 33.9999 141.854 34.6114V35.0862H137.623C137.436 35.0862 137.246 35.0791 137.051 35.0647C136.857 35.0503 136.666 35.0287 136.479 34.9999C136.559 35.5755 136.818 36.0575 137.256 36.446C137.702 36.8345 138.231 37.0287 138.843 37.0287C139.253 37.0287 139.634 36.9352 139.987 36.7482C140.339 36.5611 140.623 36.3129 140.839 36.0035L141.163 37.3309C140.854 37.5827 140.497 37.7806 140.095 37.9245C139.699 38.0612 139.278 38.1295 138.832 38.1295ZM136.447 34.2121C136.836 34.1474 137.228 34.115 137.623 34.115H139.771C139.929 34.115 140.084 34.1222 140.235 34.1366C140.393 34.1438 140.551 34.1546 140.71 34.169C140.609 33.6653 140.357 33.2517 139.954 32.9279C139.551 32.597 139.095 32.4315 138.584 32.4315C138.059 32.4315 137.598 32.6078 137.202 32.9603C136.807 33.3056 136.555 33.7229 136.447 34.2121ZM143.409 38V31.525H144.488V32.4531C144.726 32.1006 145.024 31.838 145.384 31.6653C145.751 31.4854 146.136 31.3955 146.539 31.3955C146.978 31.3955 147.381 31.4998 147.748 31.7085C148.114 31.9099 148.409 32.1941 148.632 32.561C148.884 32.1725 149.208 31.8811 149.604 31.6869C150.007 31.4926 150.431 31.3955 150.877 31.3955C151.366 31.3955 151.812 31.5106 152.215 31.7408C152.625 31.9711 152.949 32.2948 153.187 32.7121C153.431 33.1222 153.553 33.6078 153.553 34.169V38H152.388V34.3092C152.388 33.7193 152.219 33.2732 151.881 32.9711C151.55 32.6617 151.165 32.507 150.726 32.507C150.453 32.507 150.186 32.5682 149.927 32.6905C149.676 32.8128 149.467 33.0035 149.302 33.2625C149.143 33.5215 149.064 33.8596 149.064 34.2769V38H147.899V34.3092C147.899 33.8992 147.816 33.561 147.65 33.2948C147.492 33.0286 147.284 32.8308 147.025 32.7013C146.773 32.5646 146.51 32.4962 146.237 32.4962C145.971 32.4962 145.708 32.5574 145.449 32.6797C145.197 32.802 144.989 32.9927 144.823 33.2517C144.658 33.5107 144.575 33.8524 144.575 34.2769V38H143.409ZM155.489 41.2375V31.525H156.568V32.3775C156.863 32.0826 157.205 31.8523 157.594 31.6869C157.982 31.5214 158.399 31.4387 158.845 31.4387C159.443 31.4387 159.982 31.5897 160.464 31.8919C160.953 32.1869 161.342 32.5862 161.63 33.0898C161.925 33.5934 162.072 34.151 162.072 34.7625C162.072 35.374 161.925 35.9316 161.63 36.4352C161.342 36.9388 160.953 37.3417 160.464 37.6439C159.982 37.9388 159.443 38.0863 158.845 38.0863C158.421 38.0863 158.022 38.0108 157.648 37.8597C157.273 37.7086 156.943 37.5 156.655 37.2338V41.2375H155.489ZM158.694 37.0287C159.104 37.0287 159.475 36.928 159.806 36.7266C160.144 36.5179 160.41 36.2446 160.604 35.9064C160.806 35.5611 160.907 35.1798 160.907 34.7625C160.907 34.3452 160.806 33.9675 160.604 33.6294C160.41 33.284 160.144 33.0107 159.806 32.8092C159.475 32.6006 159.104 32.4962 158.694 32.4962C158.284 32.4962 157.91 32.6006 157.572 32.8092C157.241 33.0107 156.975 33.284 156.773 33.6294C156.579 33.9675 156.482 34.3452 156.482 34.7625C156.482 35.1798 156.579 35.5611 156.773 35.9064C156.975 36.2446 157.241 36.5179 157.572 36.7266C157.91 36.928 158.284 37.0287 158.694 37.0287ZM166.641 38.1295C166.015 38.1295 165.443 37.9784 164.925 37.6762C164.407 37.3741 163.994 36.9676 163.684 36.4568C163.382 35.946 163.231 35.3812 163.231 34.7625C163.231 34.1366 163.382 33.5718 163.684 33.0682C163.994 32.5574 164.407 32.1509 164.925 31.8487C165.443 31.5466 166.015 31.3955 166.641 31.3955C167.274 31.3955 167.846 31.5466 168.357 31.8487C168.875 32.1509 169.285 32.5574 169.587 33.0682C169.897 33.5718 170.051 34.1366 170.051 34.7625C170.051 35.3812 169.897 35.946 169.587 36.4568C169.285 36.9676 168.875 37.3741 168.357 37.6762C167.846 37.9784 167.274 38.1295 166.641 38.1295ZM166.641 37.0287C167.058 37.0287 167.436 36.928 167.774 36.7266C168.112 36.5179 168.382 36.2446 168.584 35.9064C168.785 35.5611 168.886 35.1798 168.886 34.7625C168.886 34.3452 168.785 33.9675 168.584 33.6294C168.382 33.284 168.112 33.0107 167.774 32.8092C167.436 32.6006 167.058 32.4962 166.641 32.4962C166.224 32.4962 165.846 32.6006 165.508 32.8092C165.17 33.0107 164.9 33.284 164.699 33.6294C164.497 33.9675 164.396 34.3452 164.396 34.7625C164.396 35.1798 164.497 35.5611 164.699 35.9064C164.9 36.2446 165.17 36.5179 165.508 36.7266C165.846 36.928 166.224 37.0287 166.641 37.0287ZM171.667 38V31.525H172.746V32.7121C172.976 32.3308 173.282 32.0286 173.663 31.8056C174.044 31.5754 174.498 31.4602 175.023 31.4602L175.314 32.6257C175.178 32.5826 175.019 32.561 174.839 32.561C174.235 32.561 173.749 32.7552 173.383 33.1437C173.016 33.5251 172.832 34.0718 172.832 34.7841V38H171.667ZM179.755 38V31.525H180.921V38H179.755ZM180.338 30.3595C180.122 30.3595 179.939 30.284 179.788 30.1329C179.637 29.9818 179.561 29.7983 179.561 29.5825C179.561 29.3595 179.637 29.176 179.788 29.0321C179.939 28.881 180.122 28.8055 180.338 28.8055C180.561 28.8055 180.745 28.881 180.888 29.0321C181.04 29.176 181.115 29.3595 181.115 29.5825C181.115 29.7983 181.04 29.9818 180.888 30.1329C180.745 30.284 180.561 30.3595 180.338 30.3595ZM182.988 38V31.525H184.067V32.5718C184.304 32.1905 184.61 31.8991 184.984 31.6977C185.366 31.4962 185.776 31.3955 186.214 31.3955C186.675 31.3955 187.099 31.5106 187.488 31.7408C187.884 31.9639 188.204 32.2912 188.448 32.7229C188.693 33.1473 188.815 33.6653 188.815 34.2769V38H187.65V34.4387C187.65 33.9279 187.495 33.4783 187.186 33.0898C186.884 32.6941 186.456 32.4962 185.902 32.4962C185.448 32.4962 185.042 32.6617 184.682 32.9927C184.33 33.3164 184.153 33.7877 184.153 34.4064V38H182.988ZM193.736 38.1295C193.103 38.1295 192.528 37.9784 192.01 37.6762C191.492 37.3741 191.078 36.9676 190.769 36.4568C190.459 35.946 190.305 35.3812 190.305 34.7625C190.305 34.1438 190.459 33.579 190.769 33.0682C191.078 32.5574 191.492 32.1509 192.01 31.8487C192.528 31.5466 193.103 31.3955 193.736 31.3955C194.204 31.3955 194.643 31.4782 195.053 31.6437C195.463 31.8092 195.823 32.0286 196.132 32.302L195.776 33.7697C195.596 33.4099 195.323 33.1078 194.956 32.8632C194.596 32.6186 194.186 32.4962 193.725 32.4962C193.308 32.4962 192.927 32.6006 192.582 32.8092C192.243 33.0107 191.974 33.284 191.772 33.6294C191.571 33.9675 191.47 34.3452 191.47 34.7625C191.47 35.1726 191.571 35.5503 191.772 35.8956C191.974 36.241 192.243 36.5179 192.582 36.7266C192.927 36.928 193.308 37.0287 193.725 37.0287C194.186 37.0287 194.596 36.91 194.956 36.6726C195.323 36.4352 195.596 36.1294 195.776 35.7553L196.132 37.223C195.823 37.4964 195.463 37.7158 195.053 37.8813C194.643 38.0468 194.204 38.1295 193.736 38.1295ZM197.557 38V31.525H198.722V38H197.557ZM198.139 30.3595C197.923 30.3595 197.74 30.284 197.589 30.1329C197.438 29.9818 197.362 29.7983 197.362 29.5825C197.362 29.3595 197.438 29.176 197.589 29.0321C197.74 28.881 197.923 28.8055 198.139 28.8055C198.362 28.8055 198.546 28.881 198.69 29.0321C198.841 29.176 198.916 29.3595 198.916 29.5825C198.916 29.7983 198.841 29.9818 198.69 30.1329C198.546 30.284 198.362 30.3595 198.139 30.3595ZM203.562 38.0863C202.972 38.0863 202.433 37.9388 201.944 37.6439C201.454 37.3417 201.062 36.9388 200.767 36.4352C200.48 35.9316 200.336 35.374 200.336 34.7625C200.336 34.151 200.48 33.5934 200.767 33.0898C201.062 32.5862 201.454 32.1869 201.944 31.8919C202.433 31.5897 202.972 31.4387 203.562 31.4387C203.987 31.4387 204.386 31.5142 204.76 31.6653C205.134 31.8164 205.465 32.025 205.753 32.2912V27.64H206.919V38H205.839V37.1475C205.552 37.4352 205.21 37.6655 204.814 37.8381C204.426 38.0036 204.008 38.0863 203.562 38.0863ZM203.714 37.0287C204.124 37.0287 204.494 36.928 204.825 36.7266C205.163 36.5179 205.429 36.2446 205.624 35.9064C205.825 35.5611 205.926 35.1798 205.926 34.7625C205.926 34.3452 205.825 33.9675 205.624 33.6294C205.429 33.284 205.163 33.0107 204.825 32.8092C204.494 32.6006 204.124 32.4962 203.714 32.4962C203.303 32.4962 202.929 32.6006 202.591 32.8092C202.26 33.0107 201.994 33.284 201.793 33.6294C201.598 33.9675 201.501 34.3452 201.501 34.7625C201.501 35.1798 201.598 35.5611 201.793 35.9064C201.994 36.2446 202.26 36.5179 202.591 36.7266C202.929 36.928 203.303 37.0287 203.714 37.0287ZM208.984 38V31.525H210.149V38H208.984ZM209.567 30.3595C209.351 30.3595 209.167 30.284 209.016 30.1329C208.865 29.9818 208.79 29.7983 208.79 29.5825C208.79 29.3595 208.865 29.176 209.016 29.0321C209.167 28.881 209.351 28.8055 209.567 28.8055C209.79 28.8055 209.973 28.881 210.117 29.0321C210.268 29.176 210.344 29.3595 210.344 29.5825C210.344 29.7983 210.268 29.9818 210.117 30.1329C209.973 30.284 209.79 30.3595 209.567 30.3595ZM214.99 38.0863C214.4 38.0863 213.86 37.9388 213.371 37.6439C212.882 37.3417 212.49 36.9388 212.195 36.4352C211.907 35.9316 211.763 35.374 211.763 34.7625C211.763 34.151 211.907 33.5934 212.195 33.0898C212.49 32.5862 212.882 32.1869 213.371 31.8919C213.86 31.5897 214.4 31.4387 214.99 31.4387C215.414 31.4387 215.814 31.5142 216.188 31.6653C216.562 31.8164 216.893 32.025 217.181 32.2912V27.64H218.346V38H217.267V37.1475C216.979 37.4352 216.637 37.6655 216.242 37.8381C215.853 38.0036 215.436 38.0863 214.99 38.0863ZM215.141 37.0287C215.551 37.0287 215.921 36.928 216.252 36.7266C216.591 36.5179 216.857 36.2446 217.051 35.9064C217.252 35.5611 217.353 35.1798 217.353 34.7625C217.353 34.3452 217.252 33.9675 217.051 33.6294C216.857 33.284 216.591 33.0107 216.252 32.8092C215.921 32.6006 215.551 32.4962 215.141 32.4962C214.731 32.4962 214.357 32.6006 214.019 32.8092C213.688 33.0107 213.421 33.284 213.22 33.6294C213.026 33.9675 212.929 34.3452 212.929 34.7625C212.929 35.1798 213.026 35.5611 213.22 35.9064C213.421 36.2446 213.688 36.5179 214.019 36.7266C214.357 36.928 214.731 37.0287 215.141 37.0287ZM222.883 38.1295C222.429 38.1295 222.005 38.018 221.609 37.795C221.213 37.5647 220.893 37.2338 220.649 36.8021C220.404 36.3705 220.282 35.8525 220.282 35.2481V31.525H221.447V35.0862C221.447 35.5971 221.598 36.0503 221.901 36.446C222.21 36.8345 222.642 37.0287 223.196 37.0287C223.649 37.0287 224.052 36.8669 224.404 36.5431C224.764 36.2122 224.944 35.7373 224.944 35.1186V31.525H226.109V38H225.03V36.9532C224.793 37.3345 224.483 37.6259 224.102 37.8273C223.728 38.0288 223.321 38.1295 222.883 38.1295ZM228.181 38V31.525H229.26V32.5718C229.498 32.1905 229.804 31.8991 230.178 31.6977C230.559 31.4962 230.969 31.3955 231.408 31.3955C231.868 31.3955 232.293 31.5106 232.681 31.7408C233.077 31.9639 233.397 32.2912 233.642 32.7229C233.886 33.1473 234.009 33.6653 234.009 34.2769V38H232.843V34.4387C232.843 33.9279 232.689 33.4783 232.379 33.0898C232.077 32.6941 231.649 32.4962 231.095 32.4962C230.642 32.4962 230.235 32.6617 229.876 32.9927C229.523 33.3164 229.347 33.7877 229.347 34.4064V38H228.181ZM236.494 38V32.4962H235.027V31.525H236.527V29.3667H237.627V31.525H239.235V32.4962H237.66V38H236.494ZM246.299 38.1295C245.846 38.1295 245.421 38.018 245.025 37.795C244.63 37.5647 244.31 37.2338 244.065 36.8021C243.82 36.3705 243.698 35.8525 243.698 35.2481V31.525H244.864V35.0862C244.864 35.5971 245.015 36.0503 245.317 36.446C245.626 36.8345 246.058 37.0287 246.612 37.0287C247.065 37.0287 247.468 36.8669 247.82 36.5431C248.18 36.2122 248.36 35.7373 248.36 35.1186V31.525H249.526V38H248.446V36.9532C248.209 37.3345 247.9 37.6259 247.518 37.8273C247.144 38.0288 246.738 38.1295 246.299 38.1295ZM252.353 38V32.4962H250.885V31.525H252.385V29.3667H253.486V31.525H255.094V32.4962H253.518V38H252.353ZM259.686 38V27.64H260.852V38H259.686ZM265.692 38.0863C265.102 38.0863 264.563 37.9388 264.073 37.6439C263.584 37.3417 263.192 36.9388 262.897 36.4352C262.609 35.9316 262.465 35.374 262.465 34.7625C262.465 34.151 262.609 33.5934 262.897 33.0898C263.192 32.5862 263.584 32.1869 264.073 31.8919C264.563 31.5897 265.102 31.4387 265.692 31.4387C266.138 31.4387 266.555 31.5214 266.944 31.6869C267.34 31.8523 267.681 32.0826 267.969 32.3775V31.525H269.048V38H267.969V37.1475C267.681 37.4352 267.34 37.6655 266.944 37.8381C266.555 38.0036 266.138 38.0863 265.692 38.0863ZM265.843 37.0287C266.253 37.0287 266.624 36.928 266.955 36.7266C267.293 36.5179 267.559 36.2446 267.753 35.9064C267.955 35.5611 268.055 35.1798 268.055 34.7625C268.055 34.3452 267.955 33.9675 267.753 33.6294C267.559 33.284 267.293 33.0107 266.955 32.8092C266.624 32.6006 266.253 32.4962 265.843 32.4962C265.433 32.4962 265.059 32.6006 264.721 32.8092C264.39 33.0107 264.124 33.284 263.922 33.6294C263.728 33.9675 263.631 34.3452 263.631 34.7625C263.631 35.1798 263.728 35.5611 263.922 35.9064C264.124 36.2446 264.39 36.5179 264.721 36.7266C265.059 36.928 265.433 37.0287 265.843 37.0287ZM274.47 38.0863C274.024 38.0863 273.606 38.0036 273.218 37.8381C272.829 37.6655 272.488 37.4352 272.193 37.1475V38H271.114V27.64H272.279V32.2912C272.567 32.025 272.898 31.8164 273.272 31.6653C273.646 31.5142 274.045 31.4387 274.47 31.4387C275.067 31.4387 275.607 31.5897 276.089 31.8919C276.578 32.1869 276.966 32.5862 277.254 33.0898C277.549 33.5934 277.696 34.151 277.696 34.7625C277.696 35.374 277.549 35.9316 277.254 36.4352C276.966 36.9388 276.578 37.3417 276.089 37.6439C275.607 37.9388 275.067 38.0863 274.47 38.0863ZM274.319 37.0287C274.729 37.0287 275.099 36.928 275.43 36.7266C275.768 36.5179 276.035 36.2446 276.229 35.9064C276.43 35.5611 276.531 35.1798 276.531 34.7625C276.531 34.3452 276.43 33.9675 276.229 33.6294C276.035 33.284 275.768 33.0107 275.43 32.8092C275.099 32.6006 274.729 32.4962 274.319 32.4962C273.909 32.4962 273.535 32.6006 273.196 32.8092C272.865 33.0107 272.599 33.284 272.398 33.6294C272.204 33.9675 272.106 34.3452 272.106 34.7625C272.106 35.1798 272.204 35.5611 272.398 35.9064C272.599 36.2446 272.865 36.5179 273.196 36.7266C273.535 36.928 273.909 37.0287 274.319 37.0287ZM282.265 38.1295C281.64 38.1295 281.068 37.9784 280.55 37.6762C280.032 37.3741 279.618 36.9676 279.309 36.4568C279.006 35.946 278.855 35.3812 278.855 34.7625C278.855 34.1366 279.006 33.5718 279.309 33.0682C279.618 32.5574 280.032 32.1509 280.55 31.8487C281.068 31.5466 281.64 31.3955 282.265 31.3955C282.899 31.3955 283.471 31.5466 283.981 31.8487C284.499 32.1509 284.909 32.5574 285.212 33.0682C285.521 33.5718 285.676 34.1366 285.676 34.7625C285.676 35.3812 285.521 35.946 285.212 36.4568C284.909 36.9676 284.499 37.3741 283.981 37.6762C283.471 37.9784 282.899 38.1295 282.265 38.1295ZM282.265 37.0287C282.683 37.0287 283.06 36.928 283.399 36.7266C283.737 36.5179 284.006 36.2446 284.208 35.9064C284.409 35.5611 284.51 35.1798 284.51 34.7625C284.51 34.3452 284.409 33.9675 284.208 33.6294C284.006 33.284 283.737 33.0107 283.399 32.8092C283.06 32.6006 282.683 32.4962 282.265 32.4962C281.848 32.4962 281.47 32.6006 281.132 32.8092C280.794 33.0107 280.524 33.284 280.323 33.6294C280.121 33.9675 280.021 34.3452 280.021 34.7625C280.021 35.1798 280.121 35.5611 280.323 35.9064C280.524 36.2446 280.794 36.5179 281.132 36.7266C281.47 36.928 281.848 37.0287 282.265 37.0287ZM287.291 38V31.525H288.37V32.7121C288.6 32.3308 288.906 32.0286 289.287 31.8056C289.669 31.5754 290.122 31.4602 290.647 31.4602L290.939 32.6257C290.802 32.5826 290.644 32.561 290.464 32.561C289.859 32.561 289.374 32.7552 289.007 33.1437C288.64 33.5251 288.456 34.0718 288.456 34.7841V38H287.291ZM295.021 38.1295C294.345 38.1295 293.737 37.9784 293.197 37.6762C292.665 37.3741 292.244 36.964 291.935 36.446C291.633 35.9208 291.481 35.3381 291.481 34.6977C291.481 34.0862 291.629 33.5322 291.924 33.0358C292.219 32.5322 292.615 32.1329 293.111 31.838C293.615 31.543 294.169 31.3955 294.773 31.3955C295.37 31.3955 295.917 31.5394 296.413 31.8272C296.91 32.1077 297.305 32.4891 297.6 32.9711C297.895 33.4531 298.043 33.9999 298.043 34.6114V35.0862H293.812C293.625 35.0862 293.435 35.0791 293.241 35.0647C293.046 35.0503 292.856 35.0287 292.669 34.9999C292.748 35.5755 293.007 36.0575 293.446 36.446C293.892 36.8345 294.42 37.0287 295.032 37.0287C295.442 37.0287 295.823 36.9352 296.176 36.7482C296.528 36.5611 296.813 36.3129 297.028 36.0035L297.352 37.3309C297.043 37.5827 296.687 37.7806 296.284 37.9245C295.888 38.0612 295.467 38.1295 295.021 38.1295ZM292.636 34.2121C293.025 34.1474 293.417 34.115 293.812 34.115H295.96C296.118 34.115 296.273 34.1222 296.424 34.1366C296.582 34.1438 296.741 34.1546 296.899 34.169C296.798 33.6653 296.546 33.2517 296.143 32.9279C295.741 32.597 295.284 32.4315 294.773 32.4315C294.248 32.4315 293.787 32.6078 293.392 32.9603C292.996 33.3056 292.744 33.7229 292.636 34.2121ZM305.917 38.1295C305.241 38.1295 304.633 37.9784 304.094 37.6762C303.561 37.3741 303.14 36.964 302.831 36.446C302.529 35.9208 302.378 35.3381 302.378 34.6977C302.378 34.0862 302.525 33.5322 302.82 33.0358C303.115 32.5322 303.511 32.1329 304.007 31.838C304.511 31.543 305.065 31.3955 305.669 31.3955C306.266 31.3955 306.813 31.5394 307.31 31.8272C307.806 32.1077 308.202 32.4891 308.497 32.9711C308.792 33.4531 308.939 33.9999 308.939 34.6114V35.0862H304.709C304.522 35.0862 304.331 35.0791 304.137 35.0647C303.943 35.0503 303.752 35.0287 303.565 34.9999C303.644 35.5755 303.903 36.0575 304.342 36.446C304.788 36.8345 305.317 37.0287 305.928 37.0287C306.338 37.0287 306.72 36.9352 307.072 36.7482C307.425 36.5611 307.709 36.3129 307.925 36.0035L308.248 37.3309C307.939 37.5827 307.583 37.7806 307.18 37.9245C306.784 38.0612 306.363 38.1295 305.917 38.1295ZM303.532 34.2121C303.921 34.1474 304.313 34.115 304.709 34.115H306.856C307.015 34.115 307.169 34.1222 307.32 34.1366C307.479 34.1438 307.637 34.1546 307.795 34.169C307.694 33.6653 307.443 33.2517 307.04 32.9279C306.637 32.597 306.18 32.4315 305.669 32.4315C305.144 32.4315 304.684 32.6078 304.288 32.9603C303.892 33.3056 303.64 33.7229 303.532 34.2121ZM311.25 38V32.4962H309.782V31.525H311.283V29.3667H312.383V31.525H313.991V32.4962H312.416V38H311.25ZM97.643 61.0863C97.0531 61.0863 96.5135 60.9388 96.0243 60.6439C95.5351 60.3417 95.143 59.9388 94.848 59.4352C94.5602 58.9316 94.4163 58.374 94.4163 57.7625C94.4163 57.151 94.5602 56.5934 94.848 56.0898C95.143 55.5862 95.5351 55.1869 96.0243 54.8919C96.5135 54.5897 97.0531 54.4387 97.643 54.4387C98.0675 54.4387 98.4668 54.5142 98.8409 54.6653C99.215 54.8164 99.546 55.025 99.8337 55.2912V50.64H100.999V61H99.9201V60.1475C99.6323 60.4352 99.2906 60.6655 98.8949 60.8381C98.5064 61.0036 98.0891 61.0863 97.643 61.0863ZM97.7941 60.0287C98.2042 60.0287 98.5747 59.928 98.9057 59.7266C99.2438 59.5179 99.51 59.2446 99.7042 58.9064C99.9057 58.5611 100.006 58.1798 100.006 57.7625C100.006 57.3452 99.9057 56.9675 99.7042 56.6294C99.51 56.284 99.2438 56.0107 98.9057 55.8092C98.5747 55.6006 98.2042 55.4962 97.7941 55.4962C97.384 55.4962 97.0099 55.6006 96.6718 55.8092C96.3408 56.0107 96.0746 56.284 95.8732 56.6294C95.6789 56.9675 95.5818 57.3452 95.5818 57.7625C95.5818 58.1798 95.6789 58.5611 95.8732 58.9064C96.0746 59.2446 96.3408 59.5179 96.6718 59.7266C97.0099 59.928 97.384 60.0287 97.7941 60.0287ZM106.021 61.1295C105.395 61.1295 104.824 60.9784 104.306 60.6762C103.788 60.3741 103.374 59.9676 103.064 59.4568C102.762 58.946 102.611 58.3812 102.611 57.7625C102.611 57.1366 102.762 56.5718 103.064 56.0682C103.374 55.5574 103.788 55.1509 104.306 54.8487C104.824 54.5466 105.395 54.3955 106.021 54.3955C106.655 54.3955 107.226 54.5466 107.737 54.8487C108.255 55.1509 108.665 55.5574 108.968 56.0682C109.277 56.5718 109.432 57.1366 109.432 57.7625C109.432 58.3812 109.277 58.946 108.968 59.4568C108.665 59.9676 108.255 60.3741 107.737 60.6762C107.226 60.9784 106.655 61.1295 106.021 61.1295ZM106.021 60.0287C106.439 60.0287 106.816 59.928 107.155 59.7266C107.493 59.5179 107.762 59.2446 107.964 58.9064C108.165 58.5611 108.266 58.1798 108.266 57.7625C108.266 57.3452 108.165 56.9675 107.964 56.6294C107.762 56.284 107.493 56.0107 107.155 55.8092C106.816 55.6006 106.439 55.4962 106.021 55.4962C105.604 55.4962 105.226 55.6006 104.888 55.8092C104.55 56.0107 104.28 56.284 104.079 56.6294C103.877 56.9675 103.777 57.3452 103.777 57.7625C103.777 58.1798 103.877 58.5611 104.079 58.9064C104.28 59.2446 104.55 59.5179 104.888 59.7266C105.226 59.928 105.604 60.0287 106.021 60.0287ZM111.047 61V50.64H112.212V61H111.047ZM117.236 61.1295C116.61 61.1295 116.038 60.9784 115.52 60.6762C115.002 60.3741 114.589 59.9676 114.279 59.4568C113.977 58.946 113.826 58.3812 113.826 57.7625C113.826 57.1366 113.977 56.5718 114.279 56.0682C114.589 55.5574 115.002 55.1509 115.52 54.8487C116.038 54.5466 116.61 54.3955 117.236 54.3955C117.869 54.3955 118.441 54.5466 118.952 54.8487C119.47 55.1509 119.88 55.5574 120.182 56.0682C120.492 56.5718 120.646 57.1366 120.646 57.7625C120.646 58.3812 120.492 58.946 120.182 59.4568C119.88 59.9676 119.47 60.3741 118.952 60.6762C118.441 60.9784 117.869 61.1295 117.236 61.1295ZM117.236 60.0287C117.654 60.0287 118.031 59.928 118.369 59.7266C118.708 59.5179 118.977 59.2446 119.179 58.9064C119.38 58.5611 119.481 58.1798 119.481 57.7625C119.481 57.3452 119.38 56.9675 119.179 56.6294C118.977 56.284 118.708 56.0107 118.369 55.8092C118.031 55.6006 117.654 55.4962 117.236 55.4962C116.819 55.4962 116.441 55.6006 116.103 55.8092C115.765 56.0107 115.495 56.284 115.294 56.6294C115.092 56.9675 114.992 57.3452 114.992 57.7625C114.992 58.1798 115.092 58.5611 115.294 58.9064C115.495 59.2446 115.765 59.5179 116.103 59.7266C116.441 59.928 116.819 60.0287 117.236 60.0287ZM122.262 61V54.525H123.341V55.7121C123.571 55.3308 123.877 55.0286 124.258 54.8056C124.64 54.5754 125.093 54.4602 125.618 54.4602L125.909 55.6257C125.773 55.5826 125.614 55.561 125.435 55.561C124.83 55.561 124.345 55.7552 123.978 56.1437C123.611 56.5251 123.427 57.0718 123.427 57.7841V61H122.262ZM129.992 61.1295C129.316 61.1295 128.708 60.9784 128.168 60.6762C127.636 60.3741 127.215 59.964 126.906 59.446C126.603 58.9208 126.452 58.3381 126.452 57.6977C126.452 57.0862 126.6 56.5322 126.895 56.0358C127.19 55.5322 127.586 55.1329 128.082 54.838C128.586 54.543 129.14 54.3955 129.744 54.3955C130.341 54.3955 130.888 54.5394 131.384 54.8272C131.881 55.1077 132.276 55.4891 132.571 55.9711C132.866 56.4531 133.014 56.9999 133.014 57.6114V58.0862H128.783C128.596 58.0862 128.406 58.0791 128.211 58.0647C128.017 58.0503 127.827 58.0287 127.639 57.9999C127.719 58.5755 127.978 59.0575 128.416 59.446C128.863 59.8345 129.391 60.0287 130.003 60.0287C130.413 60.0287 130.794 59.9352 131.147 59.7482C131.499 59.5611 131.783 59.3129 131.999 59.0035L132.323 60.3309C132.014 60.5827 131.658 60.7806 131.255 60.9245C130.859 61.0612 130.438 61.1295 129.992 61.1295ZM127.607 57.2121C127.996 57.1474 128.388 57.115 128.783 57.115H130.931C131.089 57.115 131.244 57.1222 131.395 57.1366C131.553 57.1438 131.712 57.1546 131.87 57.169C131.769 56.6653 131.517 56.2517 131.114 55.9279C130.712 55.597 130.255 55.4315 129.744 55.4315C129.219 55.4315 128.758 55.6078 128.363 55.9603C127.967 56.3056 127.715 56.7229 127.607 57.2121ZM137.802 61V54.525H138.881V55.4531C139.118 55.1006 139.417 54.838 139.777 54.6653C140.144 54.4854 140.529 54.3955 140.931 54.3955C141.37 54.3955 141.773 54.4998 142.14 54.7085C142.507 54.9099 142.802 55.1941 143.025 55.561C143.277 55.1725 143.601 54.8811 143.996 54.6869C144.399 54.4926 144.824 54.3955 145.27 54.3955C145.759 54.3955 146.205 54.5106 146.608 54.7408C147.018 54.9711 147.342 55.2948 147.579 55.7121C147.824 56.1222 147.946 56.6078 147.946 57.169V61H146.781V57.3092C146.781 56.7193 146.611 56.2732 146.273 55.9711C145.942 55.6617 145.557 55.507 145.119 55.507C144.845 55.507 144.579 55.5682 144.32 55.6905C144.068 55.8128 143.86 56.0035 143.694 56.2625C143.536 56.5215 143.457 56.8596 143.457 57.2769V61H142.291V57.3092C142.291 56.8992 142.208 56.561 142.043 56.2948C141.885 56.0286 141.676 55.8308 141.417 55.7013C141.165 55.5646 140.903 55.4962 140.629 55.4962C140.363 55.4962 140.1 55.5574 139.841 55.6797C139.59 55.802 139.381 55.9927 139.216 56.2517C139.05 56.5107 138.967 56.8524 138.967 57.2769V61H137.802ZM152.655 61.0863C152.065 61.0863 151.526 60.9388 151.037 60.6439C150.547 60.3417 150.155 59.9388 149.86 59.4352C149.572 58.9316 149.429 58.374 149.429 57.7625C149.429 57.151 149.572 56.5934 149.86 56.0898C150.155 55.5862 150.547 55.1869 151.037 54.8919C151.526 54.5897 152.065 54.4387 152.655 54.4387C153.101 54.4387 153.519 54.5214 153.907 54.6869C154.303 54.8523 154.645 55.0826 154.932 55.3775V54.525H156.011V61H154.932V60.1475C154.645 60.4352 154.303 60.6655 153.907 60.8381C153.519 61.0036 153.101 61.0863 152.655 61.0863ZM152.806 60.0287C153.216 60.0287 153.587 59.928 153.918 59.7266C154.256 59.5179 154.522 59.2446 154.716 58.9064C154.918 58.5611 155.019 58.1798 155.019 57.7625C155.019 57.3452 154.918 56.9675 154.716 56.6294C154.522 56.284 154.256 56.0107 153.918 55.8092C153.587 55.6006 153.216 55.4962 152.806 55.4962C152.396 55.4962 152.022 55.6006 151.684 55.8092C151.353 56.0107 151.087 56.284 150.885 56.6294C150.691 56.9675 150.594 57.3452 150.594 57.7625C150.594 58.1798 150.691 58.5611 150.885 58.9064C151.087 59.2446 151.353 59.5179 151.684 59.7266C152.022 59.928 152.396 60.0287 152.806 60.0287ZM160.699 64.367C160.203 64.367 159.749 64.2951 159.339 64.1512C158.936 64.0073 158.577 63.8094 158.26 63.5576L158.584 62.241C158.8 62.5504 159.088 62.8022 159.447 62.9965C159.807 63.1907 160.221 63.2878 160.688 63.2878C161.415 63.2878 162.001 63.0684 162.447 62.6295C162.901 62.1907 163.127 61.6259 163.127 60.9352V60.1475C162.839 60.4352 162.498 60.6655 162.102 60.8381C161.714 61.0036 161.296 61.0863 160.85 61.0863C160.26 61.0863 159.721 60.9388 159.231 60.6439C158.742 60.3417 158.35 59.9388 158.055 59.4352C157.767 58.9316 157.623 58.374 157.623 57.7625C157.623 57.151 157.767 56.5934 158.055 56.0898C158.35 55.5862 158.742 55.1869 159.231 54.8919C159.721 54.5897 160.26 54.4387 160.85 54.4387C161.296 54.4387 161.714 54.5214 162.102 54.6869C162.498 54.8523 162.839 55.0826 163.127 55.3775V54.525H164.206V61C164.206 61.7051 164.041 62.3094 163.71 62.813C163.386 63.3166 162.958 63.7015 162.426 63.9677C161.893 64.2339 161.318 64.367 160.699 64.367ZM161.001 60.0287C161.411 60.0287 161.782 59.928 162.113 59.7266C162.451 59.5179 162.717 59.2446 162.911 58.9064C163.113 58.5611 163.214 58.1798 163.214 57.7625C163.214 57.3452 163.113 56.9675 162.911 56.6294C162.717 56.284 162.451 56.0107 162.113 55.8092C161.782 55.6006 161.411 55.4962 161.001 55.4962C160.591 55.4962 160.217 55.6006 159.879 55.8092C159.548 56.0107 159.282 56.284 159.08 56.6294C158.886 56.9675 158.789 57.3452 158.789 57.7625C158.789 58.1798 158.886 58.5611 159.08 58.9064C159.282 59.2446 159.548 59.5179 159.879 59.7266C160.217 59.928 160.591 60.0287 161.001 60.0287ZM166.272 61V54.525H167.351V55.5718C167.588 55.1905 167.894 54.8991 168.268 54.6977C168.649 54.4962 169.059 54.3955 169.498 54.3955C169.959 54.3955 170.383 54.5106 170.772 54.7408C171.167 54.9639 171.488 55.2912 171.732 55.7229C171.977 56.1473 172.099 56.6653 172.099 57.2769V61H170.934V57.4387C170.934 56.9279 170.779 56.4783 170.47 56.0898C170.167 55.6941 169.739 55.4962 169.185 55.4962C168.732 55.4962 168.326 55.6617 167.966 55.9927C167.613 56.3164 167.437 56.7877 167.437 57.4064V61H166.272ZM176.815 61.0863C176.225 61.0863 175.686 60.9388 175.196 60.6439C174.707 60.3417 174.315 59.9388 174.02 59.4352C173.732 58.9316 173.588 58.374 173.588 57.7625C173.588 57.151 173.732 56.5934 174.02 56.0898C174.315 55.5862 174.707 55.1869 175.196 54.8919C175.686 54.5897 176.225 54.4387 176.815 54.4387C177.261 54.4387 177.678 54.5214 178.067 54.6869C178.463 54.8523 178.804 55.0826 179.092 55.3775V54.525H180.171V61H179.092V60.1475C178.804 60.4352 178.463 60.6655 178.067 60.8381C177.678 61.0036 177.261 61.0863 176.815 61.0863ZM176.966 60.0287C177.376 60.0287 177.747 59.928 178.078 59.7266C178.416 59.5179 178.682 59.2446 178.876 58.9064C179.078 58.5611 179.178 58.1798 179.178 57.7625C179.178 57.3452 179.078 56.9675 178.876 56.6294C178.682 56.284 178.416 56.0107 178.078 55.8092C177.747 55.6006 177.376 55.4962 176.966 55.4962C176.556 55.4962 176.182 55.6006 175.844 55.8092C175.513 56.0107 175.247 56.284 175.045 56.6294C174.851 56.9675 174.754 57.3452 174.754 57.7625C174.754 58.1798 174.851 58.5611 175.045 58.9064C175.247 59.2446 175.513 59.5179 175.844 59.7266C176.182 59.928 176.556 60.0287 176.966 60.0287ZM188.242 61.0863C187.653 61.0863 187.113 60.9388 186.624 60.6439C186.135 60.3417 185.742 59.9388 185.447 59.4352C185.16 58.9316 185.016 58.374 185.016 57.7625C185.016 57.151 185.16 56.5934 185.447 56.0898C185.742 55.5862 186.135 55.1869 186.624 54.8919C187.113 54.5897 187.653 54.4387 188.242 54.4387C188.689 54.4387 189.106 54.5214 189.494 54.6869C189.89 54.8523 190.232 55.0826 190.52 55.3775V54.525H191.599V61H190.52V60.1475C190.232 60.4352 189.89 60.6655 189.494 60.8381C189.106 61.0036 188.689 61.0863 188.242 61.0863ZM188.394 60.0287C188.804 60.0287 189.174 59.928 189.505 59.7266C189.843 59.5179 190.109 59.2446 190.304 58.9064C190.505 58.5611 190.606 58.1798 190.606 57.7625C190.606 57.3452 190.505 56.9675 190.304 56.6294C190.109 56.284 189.843 56.0107 189.505 55.8092C189.174 55.6006 188.804 55.4962 188.394 55.4962C187.983 55.4962 187.609 55.6006 187.271 55.8092C186.94 56.0107 186.674 56.284 186.473 56.6294C186.278 56.9675 186.181 57.3452 186.181 57.7625C186.181 58.1798 186.278 58.5611 186.473 58.9064C186.674 59.2446 186.94 59.5179 187.271 59.7266C187.609 59.928 187.983 60.0287 188.394 60.0287ZM193.664 61V50.64H194.829V61H193.664ZM196.896 61V54.525H198.062V61H196.896ZM197.479 53.3595C197.263 53.3595 197.08 53.284 196.929 53.1329C196.778 52.9818 196.702 52.7983 196.702 52.5825C196.702 52.3595 196.778 52.176 196.929 52.0321C197.08 51.881 197.263 51.8055 197.479 51.8055C197.702 51.8055 197.886 51.881 198.03 52.0321C198.181 52.176 198.256 52.3595 198.256 52.5825C198.256 52.7983 198.181 52.9818 198.03 53.1329C197.886 53.284 197.702 53.3595 197.479 53.3595ZM205.093 64.2375V60.2338C204.805 60.5 204.474 60.7086 204.1 60.8597C203.726 61.0108 203.327 61.0863 202.902 61.0863C202.312 61.0863 201.773 60.9388 201.284 60.6439C200.794 60.3417 200.402 59.9388 200.107 59.4352C199.819 58.9316 199.676 58.374 199.676 57.7625C199.676 57.151 199.819 56.5934 200.107 56.0898C200.402 55.5862 200.794 55.1869 201.284 54.8919C201.773 54.5897 202.312 54.4387 202.902 54.4387C203.348 54.4387 203.766 54.5214 204.154 54.6869C204.55 54.8523 204.892 55.0826 205.179 55.3775V54.525H206.259V64.2375H205.093ZM203.053 60.0287C203.463 60.0287 203.834 59.928 204.165 59.7266C204.503 59.5179 204.769 59.2446 204.964 58.9064C205.165 58.5611 205.266 58.1798 205.266 57.7625C205.266 57.3452 205.165 56.9675 204.964 56.6294C204.769 56.284 204.503 56.0107 204.165 55.8092C203.834 55.6006 203.463 55.4962 203.053 55.4962C202.643 55.4962 202.269 55.6006 201.931 55.8092C201.6 56.0107 201.334 56.284 201.132 56.6294C200.938 56.9675 200.841 57.3452 200.841 57.7625C200.841 58.1798 200.938 58.5611 201.132 58.9064C201.334 59.2446 201.6 59.5179 201.931 59.7266C202.269 59.928 202.643 60.0287 203.053 60.0287ZM210.795 61.1295C210.342 61.1295 209.917 61.018 209.522 60.795C209.126 60.5647 208.806 60.2338 208.561 59.8021C208.317 59.3705 208.194 58.8525 208.194 58.2481V54.525H209.36V58.0862C209.36 58.5971 209.511 59.0503 209.813 59.446C210.122 59.8345 210.554 60.0287 211.108 60.0287C211.561 60.0287 211.964 59.8669 212.317 59.5431C212.676 59.2122 212.856 58.7373 212.856 58.1186V54.525H214.022V61H212.943V59.9532C212.705 60.3345 212.396 60.6259 212.015 60.8273C211.64 61.0288 211.234 61.1295 210.795 61.1295ZM218.867 61.0863C218.277 61.0863 217.738 60.9388 217.248 60.6439C216.759 60.3417 216.367 59.9388 216.072 59.4352C215.784 58.9316 215.641 58.374 215.641 57.7625C215.641 57.151 215.784 56.5934 216.072 56.0898C216.367 55.5862 216.759 55.1869 217.248 54.8919C217.738 54.5897 218.277 54.4387 218.867 54.4387C219.313 54.4387 219.731 54.5214 220.119 54.6869C220.515 54.8523 220.856 55.0826 221.144 55.3775V54.525H222.223V61H221.144V60.1475C220.856 60.4352 220.515 60.6655 220.119 60.8381C219.731 61.0036 219.313 61.0863 218.867 61.0863ZM219.018 60.0287C219.428 60.0287 219.799 59.928 220.13 59.7266C220.468 59.5179 220.734 59.2446 220.928 58.9064C221.13 58.5611 221.231 58.1798 221.231 57.7625C221.231 57.3452 221.13 56.9675 220.928 56.6294C220.734 56.284 220.468 56.0107 220.13 55.8092C219.799 55.6006 219.428 55.4962 219.018 55.4962C218.608 55.4962 218.234 55.6006 217.896 55.8092C217.565 56.0107 217.299 56.284 217.097 56.6294C216.903 56.9675 216.806 57.3452 216.806 57.7625C216.806 58.1798 216.903 58.5611 217.097 58.9064C217.299 59.2446 217.565 59.5179 217.896 59.7266C218.234 59.928 218.608 60.0287 219.018 60.0287ZM224.71 61.1295C224.472 61.1295 224.271 61.0504 224.105 60.8921C223.947 60.7266 223.868 60.5252 223.868 60.2877C223.868 60.0503 223.947 59.8525 224.105 59.6942C224.271 59.5287 224.472 59.446 224.71 59.446C224.954 59.446 225.156 59.5287 225.314 59.6942C225.472 59.8525 225.551 60.0503 225.551 60.2877C225.551 60.5252 225.472 60.7266 225.314 60.8921C225.156 61.0504 224.954 61.1295 224.71 61.1295Z" fill="url(#paint0_radial_619_2741)"/>
</g>
<defs>
<filter id="filter0_d_619_2741" x="0.735844" y="0.986806" width="318.859" height="67.0334" filterUnits="userSpaceOnUse" color-interpolation-filters="sRGB">
<feFlood flood-opacity="0" result="BackgroundImageFix"/>
<feColorMatrix in="SourceAlpha" type="matrix" values="0 0 0 0 0 0 0 0 0 0 0 0 0 0 0 0 0 0 127 0" result="hardAlpha"/>
<feOffset/>
<feGaussianBlur stdDeviation="1.8266"/>
<feComposite in2="hardAlpha" operator="out"/>
<feColorMatrix type="matrix" values="0 0 0 0 0 0 0 0 0 0 0 0 0 0 0 0 0 0 0.25 0"/>
<feBlend mode="normal" in2="BackgroundImageFix" result="effect1_dropShadow_619_2741"/>
<feBlend mode="normal" in="SourceGraphic" in2="effect1_dropShadow_619_2741" result="shape"/>
</filter>
<radialGradient id="paint0_radial_619_2741" cx="0" cy="0" r="1" gradientUnits="userSpaceOnUse" gradientTransform="translate(160 32.5) rotate(-166.431) scale(147.044 157.147)">
<stop offset="0.26242" stop-color="#698531"/>
<stop offset="1" stop-color="#90B042"/>
</radialGradient>
</defs>
</svg>
