<svg width="124" height="68" viewBox="0 0 124 68" fill="none" xmlns="http://www.w3.org/2000/svg">
<path d="M1.91095 7.20157H4.20552V7.89746H1.05519V1.34289H1.91095V7.20157ZM10.0044 5.12329C10.0044 5.28629 9.99499 5.4587 9.97618 5.64051H5.85724C5.88859 6.14832 6.06099 6.54642 6.37446 6.83481C6.6942 7.11693 7.07976 7.25799 7.53115 7.25799C7.90104 7.25799 8.20824 7.17335 8.45274 7.00408C8.70351 6.82854 8.87905 6.59658 8.97936 6.30819H9.90095C9.76303 6.80347 9.48718 7.20784 9.0734 7.5213C8.65963 7.8285 8.14554 7.9821 7.53115 7.9821C7.04214 7.9821 6.60329 7.87238 6.21459 7.65296C5.83216 7.43353 5.53124 7.1232 5.31181 6.72196C5.09239 6.31446 4.98267 5.84426 4.98267 5.31137C4.98267 4.77848 5.08925 4.31141 5.30241 3.91018C5.51556 3.50894 5.81336 3.20174 6.19578 2.98859C6.58448 2.76916 7.0296 2.65945 7.53115 2.65945C8.02016 2.65945 8.45274 2.76603 8.8289 2.97918C9.20506 3.19234 9.49345 3.487 9.69406 3.86316C9.90095 4.23305 10.0044 4.65309 10.0044 5.12329ZM9.12042 4.94461C9.12042 4.61861 9.04832 4.33962 8.90413 4.10766C8.75994 3.86943 8.56245 3.69075 8.31168 3.57163C8.06718 3.44625 7.79446 3.38355 7.49353 3.38355C7.06095 3.38355 6.69106 3.52148 6.38386 3.79733C6.08294 4.07318 5.91053 4.45561 5.86665 4.94461H9.12042ZM12.3659 3.44938V6.48686C12.3659 6.73764 12.4192 6.91631 12.5258 7.02289C12.6323 7.1232 12.8173 7.17335 13.0806 7.17335H13.7107V7.89746H12.9395C12.4631 7.89746 12.1057 7.78775 11.8675 7.56832C11.6292 7.3489 11.5101 6.98841 11.5101 6.48686V3.44938H10.8425V2.74408H11.5101V1.44633H12.3659V2.74408H13.7107V3.44938H12.3659ZM15.0673 1.34289H16.0171L15.1143 3.47759H14.5124L15.0673 1.34289ZM19.0052 7.9821C18.6102 7.9821 18.256 7.91627 17.9425 7.78461C17.6291 7.64669 17.3814 7.45861 17.1996 7.22037C17.0178 6.97587 16.9175 6.69689 16.8987 6.38342H17.7827C17.8077 6.64046 17.9269 6.85049 18.14 7.01349C18.3594 7.17649 18.6447 7.25799 18.9958 7.25799C19.3218 7.25799 19.5788 7.18589 19.7669 7.0417C19.955 6.89751 20.049 6.71569 20.049 6.49627C20.049 6.27057 19.9487 6.10444 19.7481 5.99786C19.5475 5.88501 19.2371 5.7753 18.8171 5.66872C18.4347 5.56841 18.1212 5.4681 17.8767 5.36779C17.6385 5.26121 17.4316 5.10762 17.256 4.907C17.0868 4.70011 17.0021 4.43053 17.0021 4.09826C17.0021 3.83494 17.0805 3.59358 17.2372 3.37415C17.394 3.15472 17.6165 2.98232 17.9049 2.85693C18.1933 2.72528 18.5224 2.65945 18.8923 2.65945C19.4628 2.65945 19.9236 2.80364 20.2747 3.09203C20.6258 3.38042 20.8139 3.77539 20.8389 4.27693H19.9832C19.9644 4.00735 19.8547 3.79106 19.654 3.62806C19.4597 3.46505 19.1964 3.38355 18.8641 3.38355C18.5569 3.38355 18.3124 3.44938 18.1306 3.58104C17.9488 3.71269 17.8579 3.8851 17.8579 4.09826C17.8579 4.26753 17.9112 4.40859 18.0178 4.52143C18.1306 4.62801 18.2685 4.71578 18.4315 4.78475C18.6008 4.84744 18.8328 4.91954 19.1274 5.00104C19.4973 5.10135 19.7982 5.20165 20.0302 5.30196C20.2622 5.396 20.4597 5.5402 20.6227 5.73455C20.7919 5.9289 20.8797 6.1828 20.886 6.49627C20.886 6.77839 20.8076 7.0323 20.6509 7.25799C20.4941 7.48369 20.2716 7.66236 19.9832 7.79402C19.7011 7.9194 19.3751 7.9821 19.0052 7.9821ZM31.1745 2.65004C31.5757 2.65004 31.9331 2.73468 32.2466 2.90395C32.56 3.06695 32.8077 3.31459 32.9895 3.64686C33.1713 3.97914 33.2622 4.38351 33.2622 4.85998V7.89746H32.4158V4.98223C32.4158 4.46815 32.2873 4.07631 32.0303 3.80673C31.7795 3.53088 31.4378 3.39296 31.0052 3.39296C30.5601 3.39296 30.2059 3.53715 29.9426 3.82554C29.6793 4.10766 29.5476 4.5183 29.5476 5.05746V7.89746H28.7013V4.98223C28.7013 4.46815 28.5727 4.07631 28.3157 3.80673C28.0649 3.53088 27.7232 3.39296 27.2907 3.39296C26.8455 3.39296 26.4913 3.53715 26.228 3.82554C25.9647 4.10766 25.833 4.5183 25.833 5.05746V7.89746H24.9773V2.74408H25.833V3.487C26.0023 3.21742 26.228 3.01053 26.5101 2.86633C26.7985 2.72214 27.1151 2.65004 27.4599 2.65004C27.8925 2.65004 28.2749 2.74722 28.6072 2.94157C28.9395 3.13592 29.1871 3.42117 29.3501 3.79733C29.4943 3.43371 29.7326 3.15159 30.0648 2.95097C30.3971 2.75035 30.767 2.65004 31.1745 2.65004ZM35.296 1.90713C35.133 1.90713 34.9951 1.85071 34.8822 1.73786C34.7694 1.62501 34.713 1.48709 34.713 1.32408C34.713 1.16108 34.7694 1.02316 34.8822 0.910308C34.9951 0.797461 35.133 0.741037 35.296 0.741037C35.4527 0.741037 35.5844 0.797461 35.691 0.910308C35.8038 1.02316 35.8603 1.16108 35.8603 1.32408C35.8603 1.48709 35.8038 1.62501 35.691 1.73786C35.5844 1.85071 35.4527 1.90713 35.296 1.90713ZM35.7098 2.74408V7.89746H34.854V2.74408H35.7098ZM40.0459 7.89746L38.8234 5.97905L37.6479 7.89746H36.7545L38.419 5.33958L36.7545 2.74408H37.7231L38.9456 4.65309L40.1117 2.74408H41.0051L39.35 5.29256L41.0145 7.89746H40.0459ZM45.1816 1.90713C45.0186 1.90713 44.8806 1.85071 44.7678 1.73786C44.655 1.62501 44.5985 1.48709 44.5985 1.32408C44.5985 1.16108 44.655 1.02316 44.7678 0.910308C44.8806 0.797461 45.0186 0.741037 45.1816 0.741037C45.3383 0.741037 45.47 0.797461 45.5765 0.910308C45.6894 1.02316 45.7458 1.16108 45.7458 1.32408C45.7458 1.48709 45.6894 1.62501 45.5765 1.73786C45.47 1.85071 45.3383 1.90713 45.1816 1.90713ZM45.5953 2.74408V7.89746H44.7396V2.74408H45.5953ZM48.2858 3.44938V6.48686C48.2858 6.73764 48.3391 6.91631 48.4456 7.02289C48.5522 7.1232 48.7372 7.17335 49.0005 7.17335H49.6305V7.89746H48.8594C48.3829 7.89746 48.0256 7.78775 47.7874 7.56832C47.5491 7.3489 47.43 6.98841 47.43 6.48686V3.44938H46.7623V2.74408H47.43V1.44633H48.2858V2.74408H49.6305V3.44938H48.2858ZM57.9893 2.74408L54.886 10.3237H54.0021L55.0177 7.84104L52.9394 2.74408H53.8892L55.5067 6.91945L57.1054 2.74408H57.9893ZM61.2852 7.9821C60.8025 7.9821 60.3636 7.87238 59.9687 7.65296C59.58 7.43353 59.2728 7.1232 59.0471 6.72196C58.8276 6.31446 58.7179 5.84426 58.7179 5.31137C58.7179 4.78475 58.8308 4.32082 59.0565 3.91958C59.2884 3.51207 59.6019 3.20174 59.9969 2.98859C60.3918 2.76916 60.8338 2.65945 61.3228 2.65945C61.8118 2.65945 62.2538 2.76916 62.6488 2.98859C63.0438 3.20174 63.3541 3.50894 63.5798 3.91018C63.8118 4.31141 63.9277 4.77848 63.9277 5.31137C63.9277 5.84426 63.8086 6.31446 63.5704 6.72196C63.3384 7.1232 63.0218 7.43353 62.6206 7.65296C62.2193 7.87238 61.7742 7.9821 61.2852 7.9821ZM61.2852 7.22978C61.5924 7.22978 61.8808 7.15768 62.1504 7.01349C62.42 6.86929 62.6363 6.653 62.7993 6.36461C62.9685 6.07622 63.0532 5.72514 63.0532 5.31137C63.0532 4.89759 62.9717 4.54651 62.8087 4.25812C62.6457 3.96973 62.4325 3.75658 62.1692 3.61865C61.9059 3.47446 61.6206 3.40236 61.3134 3.40236C61 3.40236 60.7116 3.47446 60.4483 3.61865C60.1912 3.75658 59.9843 3.96973 59.8276 4.25812C59.6709 4.54651 59.5925 4.89759 59.5925 5.31137C59.5925 5.73141 59.6677 6.08563 59.8182 6.37402C59.9749 6.66241 60.1818 6.8787 60.4389 7.02289C60.6959 7.16082 60.978 7.22978 61.2852 7.22978ZM69.8113 2.74408V7.89746H68.9556V7.13574C68.7925 7.39905 68.5637 7.60594 68.2691 7.7564C67.9807 7.9006 67.6609 7.97269 67.3099 7.97269C66.9086 7.97269 66.5481 7.89119 66.2284 7.72819C65.9087 7.55892 65.6548 7.30815 65.4667 6.97587C65.2849 6.6436 65.194 6.23923 65.194 5.76276V2.74408H66.0403V5.64991C66.0403 6.15773 66.1688 6.54956 66.4259 6.82541C66.6829 7.09499 67.034 7.22978 67.4791 7.22978C67.9368 7.22978 68.2973 7.08872 68.5606 6.8066C68.8239 6.52448 68.9556 6.11384 68.9556 5.57468V2.74408H69.8113ZM72.3001 3.58104C72.4505 3.28638 72.6637 3.05755 72.9395 2.89455C73.2216 2.73154 73.5633 2.65004 73.9646 2.65004V3.53402H73.7389C72.7797 3.53402 72.3001 4.05437 72.3001 5.09508V7.89746H71.4443V2.74408H72.3001V3.58104ZM84.7006 2.74408L83.0925 7.89746H82.2085L80.9672 3.80673L79.7259 7.89746H78.8419L77.2244 2.74408H78.099L79.2839 7.06991L80.5628 2.74408H81.4374L82.6881 7.07932L83.8542 2.74408H84.7006ZM85.4182 5.30196C85.4182 4.77534 85.5248 4.31455 85.738 3.91958C85.9511 3.51834 86.2427 3.20801 86.6125 2.98859C86.9887 2.76916 87.4056 2.65945 87.8633 2.65945C88.3147 2.65945 88.7065 2.75662 89.0388 2.95097C89.371 3.14532 89.6187 3.38982 89.7817 3.68448V2.74408H90.6469V7.89746H89.7817V6.93826C89.6124 7.23918 89.3585 7.48996 89.02 7.69057C88.6877 7.88492 88.299 7.9821 87.8539 7.9821C87.3962 7.9821 86.9824 7.86925 86.6125 7.64355C86.2427 7.41786 85.9511 7.10126 85.738 6.69375C85.5248 6.28625 85.4182 5.82232 85.4182 5.30196ZM89.7817 5.31137C89.7817 4.92267 89.7033 4.58413 89.5466 4.29574C89.3899 4.00735 89.1767 3.78792 88.9071 3.63746C88.6438 3.48073 88.3523 3.40236 88.0325 3.40236C87.7128 3.40236 87.4213 3.47759 87.158 3.62806C86.8947 3.77852 86.6846 3.99795 86.5279 4.28634C86.3712 4.57472 86.2928 4.91327 86.2928 5.30196C86.2928 5.69693 86.3712 6.04174 86.5279 6.3364C86.6846 6.62479 86.8947 6.84735 87.158 7.00408C87.4213 7.15455 87.7128 7.22978 88.0325 7.22978C88.3523 7.22978 88.6438 7.15455 88.9071 7.00408C89.1767 6.84735 89.3899 6.62479 89.5466 6.3364C89.7033 6.04174 89.7817 5.70007 89.7817 5.31137ZM96.7198 2.74408L93.6164 10.3237H92.7325L93.7481 7.84104L91.6698 2.74408H92.6196L94.2371 6.91945L95.8358 2.74408H96.7198ZM98.8778 1.34289L98.7743 6.04488H98.0596L97.9562 1.34289H98.8778ZM98.4546 7.95388C98.2916 7.95388 98.1536 7.89746 98.0408 7.78461C97.9279 7.67177 97.8715 7.53384 97.8715 7.37084C97.8715 7.20784 97.9279 7.06991 98.0408 6.95706C98.1536 6.84422 98.2916 6.78779 98.4546 6.78779C98.6113 6.78779 98.743 6.84422 98.8495 6.95706C98.9624 7.06991 99.0188 7.20784 99.0188 7.37084C99.0188 7.53384 98.9624 7.67177 98.8495 7.78461C98.743 7.89746 98.6113 7.95388 98.4546 7.95388ZM0.735456 18.6155C0.735456 17.976 0.87965 17.4024 1.16804 16.8945C1.45643 16.3805 1.84826 15.9792 2.34354 15.6908C2.84508 15.4024 3.39992 15.2583 4.00804 15.2583C4.72274 15.2583 5.34654 15.4307 5.87943 15.7755C6.41232 16.1203 6.80102 16.6093 7.04552 17.2425H6.02049C5.83868 16.8475 5.57537 16.5435 5.23056 16.3303C4.89201 16.1172 4.48451 16.0106 4.00804 16.0106C3.55038 16.0106 3.13974 16.1172 2.77612 16.3303C2.4125 16.5435 2.12724 16.8475 1.92036 17.2425C1.71347 17.6312 1.61003 18.0889 1.61003 18.6155C1.61003 19.1358 1.71347 19.5935 1.92036 19.9885C2.12724 20.3772 2.4125 20.6781 2.77612 20.8912C3.13974 21.1044 3.55038 21.211 4.00804 21.211C4.48451 21.211 4.89201 21.1075 5.23056 20.9006C5.57537 20.6875 5.83868 20.3834 6.02049 19.9885H7.04552C6.80102 20.6154 6.41232 21.1013 5.87943 21.4461C5.34654 21.7846 4.72274 21.9539 4.00804 21.9539C3.39992 21.9539 2.84508 21.8128 2.34354 21.5307C1.84826 21.2423 1.45643 20.8442 1.16804 20.3364C0.87965 19.8286 0.735456 19.2549 0.735456 18.6155ZM10.755 21.9821C10.2723 21.9821 9.83343 21.8724 9.43847 21.653C9.04977 21.4335 8.74257 21.1232 8.51688 20.722C8.29745 20.3145 8.18774 19.8443 8.18774 19.3114C8.18774 18.7847 8.30059 18.3208 8.52628 17.9196C8.75825 17.5121 9.07171 17.2017 9.46668 16.9886C9.86164 16.7692 10.3036 16.6594 10.7926 16.6594C11.2816 16.6594 11.7236 16.7692 12.1186 16.9886C12.5136 17.2017 12.8239 17.5089 13.0496 17.9102C13.2816 18.3114 13.3975 18.7785 13.3975 19.3114C13.3975 19.8443 13.2784 20.3145 13.0402 20.722C12.8082 21.1232 12.4916 21.4335 12.0904 21.653C11.6892 21.8724 11.244 21.9821 10.755 21.9821ZM10.755 21.2298C11.0622 21.2298 11.3506 21.1577 11.6202 21.0135C11.8898 20.8693 12.1061 20.653 12.2691 20.3646C12.4383 20.0762 12.523 19.7251 12.523 19.3114C12.523 18.8976 12.4415 18.5465 12.2785 18.2581C12.1155 17.9697 11.9023 17.7566 11.639 17.6187C11.3757 17.4745 11.0904 17.4024 10.7832 17.4024C10.4698 17.4024 10.1814 17.4745 9.91807 17.6187C9.66103 17.7566 9.45414 17.9697 9.29741 18.2581C9.14067 18.5465 9.06231 18.8976 9.06231 19.3114C9.06231 19.7314 9.13754 20.0856 9.288 20.374C9.44474 20.6624 9.65162 20.8787 9.90866 21.0229C10.1657 21.1608 10.4478 21.2298 10.755 21.2298ZM20.908 16.65C21.3092 16.65 21.6666 16.7347 21.9801 16.904C22.2935 17.067 22.5412 17.3146 22.723 17.6469C22.9048 17.9791 22.9957 18.3835 22.9957 18.86V21.8975H22.1493V18.9822C22.1493 18.4681 22.0208 18.0763 21.7638 17.8067C21.513 17.5309 21.1713 17.393 20.7387 17.393C20.2936 17.393 19.9394 17.5372 19.6761 17.8255C19.4128 18.1077 19.2811 18.5183 19.2811 19.0575V21.8975H18.4348V18.9822C18.4348 18.4681 18.3062 18.0763 18.0492 17.8067C17.7984 17.5309 17.4567 17.393 17.0242 17.393C16.579 17.393 16.2248 17.5372 15.9615 17.8255C15.6982 18.1077 15.5666 18.5183 15.5666 19.0575V21.8975H14.7108V16.7441H15.5666V17.487C15.7358 17.2174 15.9615 17.0105 16.2436 16.8663C16.532 16.7221 16.8486 16.65 17.1934 16.65C17.626 16.65 18.0084 16.7472 18.3407 16.9416C18.673 17.1359 18.9206 17.4212 19.0836 17.7973C19.2278 17.4337 19.4661 17.1516 19.7983 16.951C20.1306 16.7504 20.5005 16.65 20.908 16.65ZM25.4433 17.7033C25.6188 17.3961 25.8759 17.1453 26.2144 16.951C26.553 16.7566 26.9385 16.6594 27.3711 16.6594C27.835 16.6594 28.2519 16.7692 28.6218 16.9886C28.9917 17.208 29.2832 17.5183 29.4964 17.9196C29.7096 18.3145 29.8161 18.7753 29.8161 19.302C29.8161 19.8223 29.7096 20.2862 29.4964 20.6938C29.2832 21.1013 28.9886 21.4179 28.6124 21.6436C28.2425 21.8692 27.8288 21.9821 27.3711 21.9821C26.926 21.9821 26.5342 21.8849 26.1956 21.6906C25.8633 21.4962 25.6126 21.2486 25.4433 20.9477V21.8975H24.5875V14.9385H25.4433V17.7033ZM28.9416 19.302C28.9416 18.9133 28.8632 18.5747 28.7065 18.2863C28.5497 17.9979 28.3366 17.7785 28.067 17.6281C27.8037 17.4776 27.5122 17.4024 27.1924 17.4024C26.879 17.4024 26.5874 17.4807 26.3179 17.6375C26.0546 17.7879 25.8414 18.0105 25.6784 18.3051C25.5217 18.5935 25.4433 18.9289 25.4433 19.3114C25.4433 19.7001 25.5217 20.0417 25.6784 20.3364C25.8414 20.6248 26.0546 20.8474 26.3179 21.0041C26.5874 21.1545 26.879 21.2298 27.1924 21.2298C27.5122 21.2298 27.8037 21.1545 28.067 21.0041C28.3366 20.8474 28.5497 20.6248 28.7065 20.3364C28.8632 20.0417 28.9416 19.6969 28.9416 19.302ZM31.5726 15.9071C31.4096 15.9071 31.2717 15.8507 31.1589 15.7379C31.046 15.625 30.9896 15.4871 30.9896 15.3241C30.9896 15.1611 31.046 15.0232 31.1589 14.9103C31.2717 14.7975 31.4096 14.741 31.5726 14.741C31.7294 14.741 31.861 14.7975 31.9676 14.9103C32.0804 15.0232 32.1369 15.1611 32.1369 15.3241C32.1369 15.4871 32.0804 15.625 31.9676 15.7379C31.861 15.8507 31.7294 15.9071 31.5726 15.9071ZM31.9864 16.7441V21.8975H31.1306V16.7441H31.9864ZM36.1438 16.65C36.7708 16.65 37.2786 16.8413 37.6673 17.2237C38.056 17.5998 38.2503 18.1453 38.2503 18.86V21.8975H37.404V18.9822C37.404 18.4681 37.2755 18.0763 37.0184 17.8067C36.7614 17.5309 36.4103 17.393 35.9652 17.393C35.5138 17.393 35.1533 17.534 34.8837 17.8161C34.6204 18.0983 34.4887 18.5089 34.4887 19.0481V21.8975H33.633V16.7441H34.4887V17.4776C34.658 17.2143 34.8868 17.0105 35.1752 16.8663C35.4699 16.7221 35.7928 16.65 36.1438 16.65ZM44.5383 19.1233C44.5383 19.2863 44.5289 19.4587 44.5101 19.6405H40.3911C40.4225 20.1483 40.5949 20.5464 40.9083 20.8348C41.2281 21.1169 41.6136 21.258 42.065 21.258C42.4349 21.258 42.7421 21.1734 42.9866 21.0041C43.2374 20.8285 43.4129 20.5966 43.5133 20.3082H44.4348C44.2969 20.8035 44.0211 21.2078 43.6073 21.5213C43.1935 21.8285 42.6794 21.9821 42.065 21.9821C41.576 21.9821 41.1372 21.8724 40.7485 21.653C40.3661 21.4335 40.0651 21.1232 39.8457 20.722C39.6263 20.3145 39.5166 19.8443 39.5166 19.3114C39.5166 18.7785 39.6231 18.3114 39.8363 17.9102C40.0495 17.5089 40.3472 17.2017 40.7297 16.9886C41.1184 16.7692 41.5635 16.6594 42.065 16.6594C42.554 16.6594 42.9866 16.766 43.3628 16.9792C43.7389 17.1923 44.0273 17.487 44.228 17.8632C44.4348 18.233 44.5383 18.6531 44.5383 19.1233ZM43.6543 18.9446C43.6543 18.6186 43.5822 18.3396 43.438 18.1077C43.2938 17.8694 43.0963 17.6907 42.8456 17.5716C42.6011 17.4462 42.3283 17.3836 42.0274 17.3836C41.5948 17.3836 41.2249 17.5215 40.9178 17.7973C40.6168 18.0732 40.4444 18.4556 40.4005 18.9446H43.6543ZM49.595 17.4494V20.4869C49.595 20.7376 49.6483 20.9163 49.7548 21.0229C49.8614 21.1232 50.0464 21.1734 50.3097 21.1734H50.9397V21.8975H50.1686C49.6922 21.8975 49.3348 21.7877 49.0966 21.5683C48.8583 21.3489 48.7392 20.9884 48.7392 20.4869V17.4494H48.0715V16.7441H48.7392V15.4463H49.595V16.7441H50.9397V17.4494H49.595ZM54.7226 16.65C55.1113 16.65 55.4623 16.7347 55.7758 16.904C56.0893 17.067 56.3338 17.3146 56.5093 17.6469C56.6911 17.9791 56.782 18.3835 56.782 18.86V21.8975H55.9357V18.9822C55.9357 18.4681 55.8072 18.0763 55.5501 17.8067C55.2931 17.5309 54.942 17.393 54.4969 17.393C54.0455 17.393 53.685 17.534 53.4154 17.8161C53.1521 18.0983 53.0204 18.5089 53.0204 19.0481V21.8975H52.1647V14.9385H53.0204V17.4776C53.1897 17.2143 53.4217 17.0105 53.7163 16.8663C54.0173 16.7221 54.3527 16.65 54.7226 16.65ZM59.2238 17.581C59.3742 17.2864 59.5874 17.0575 59.8632 16.8945C60.1454 16.7315 60.487 16.65 60.8883 16.65V17.534H60.6626C59.7034 17.534 59.2238 18.0544 59.2238 19.0951V21.8975H58.368V16.7441H59.2238V17.581ZM66.7662 19.1233C66.7662 19.2863 66.7568 19.4587 66.738 19.6405H62.619C62.6504 20.1483 62.8228 20.5464 63.1363 20.8348C63.456 21.1169 63.8416 21.258 64.2929 21.258C64.6628 21.258 64.97 21.1734 65.2145 21.0041C65.4653 20.8285 65.6409 20.5966 65.7412 20.3082H66.6627C66.5248 20.8035 66.249 21.2078 65.8352 21.5213C65.4214 21.8285 64.9073 21.9821 64.2929 21.9821C63.8039 21.9821 63.3651 21.8724 62.9764 21.653C62.594 21.4335 62.293 21.1232 62.0736 20.722C61.8542 20.3145 61.7445 19.8443 61.7445 19.3114C61.7445 18.7785 61.851 18.3114 62.0642 17.9102C62.2774 17.5089 62.5752 17.2017 62.9576 16.9886C63.3463 16.7692 63.7914 16.6594 64.2929 16.6594C64.782 16.6594 65.2145 16.766 65.5907 16.9792C65.9669 17.1923 66.2552 17.487 66.4559 17.8632C66.6627 18.233 66.7662 18.6531 66.7662 19.1233ZM65.8822 18.9446C65.8822 18.6186 65.8101 18.3396 65.6659 18.1077C65.5217 17.8694 65.3242 17.6907 65.0735 17.5716C64.829 17.4462 64.5563 17.3836 64.2553 17.3836C63.8227 17.3836 63.4529 17.5215 63.1457 17.7973C62.8447 18.0732 62.6723 18.4556 62.6284 18.9446H65.8822ZM72.7858 19.1233C72.7858 19.2863 72.7764 19.4587 72.7576 19.6405H68.6387C68.67 20.1483 68.8424 20.5464 69.1559 20.8348C69.4756 21.1169 69.8612 21.258 70.3126 21.258C70.6825 21.258 70.9897 21.1734 71.2342 21.0041C71.485 20.8285 71.6605 20.5966 71.7608 20.3082H72.6824C72.5445 20.8035 72.2686 21.2078 71.8548 21.5213C71.4411 21.8285 70.927 21.9821 70.3126 21.9821C69.8236 21.9821 69.3847 21.8724 68.996 21.653C68.6136 21.4335 68.3127 21.1232 68.0933 20.722C67.8738 20.3145 67.7641 19.8443 67.7641 19.3114C67.7641 18.7785 67.8707 18.3114 68.0838 17.9102C68.297 17.5089 68.5948 17.2017 68.9772 16.9886C69.3659 16.7692 69.811 16.6594 70.3126 16.6594C70.8016 16.6594 71.2342 16.766 71.6103 16.9792C71.9865 17.1923 72.2749 17.487 72.4755 17.8632C72.6824 18.233 72.7858 18.6531 72.7858 19.1233ZM71.9019 18.9446C71.9019 18.6186 71.8298 18.3396 71.6856 18.1077C71.5414 17.8694 71.3439 17.6907 71.0931 17.5716C70.8486 17.4462 70.5759 17.3836 70.275 17.3836C69.8424 17.3836 69.4725 17.5215 69.1653 17.7973C68.8644 18.0732 68.692 18.4556 68.6481 18.9446H71.9019ZM78.8958 17.4494H77.8143V21.8975H76.9586V17.4494H76.2909V16.7441H76.9586V16.3773C76.9586 15.8006 77.1059 15.3805 77.4005 15.1172C77.7015 14.8476 78.1811 14.7128 78.8394 14.7128V15.4275C78.4632 15.4275 78.1967 15.5028 78.04 15.6532C77.8896 15.7974 77.8143 16.0388 77.8143 16.3773V16.7441H78.8958V17.4494ZM80.9374 17.581C81.0879 17.2864 81.301 17.0575 81.5769 16.8945C81.859 16.7315 82.2007 16.65 82.6019 16.65V17.534H82.3762C81.417 17.534 80.9374 18.0544 80.9374 19.0951V21.8975H80.0816V16.7441H80.9374V17.581ZM88.3482 16.7441V21.8975H87.4924V21.1357C87.3294 21.3991 87.1006 21.6059 86.8059 21.7564C86.5175 21.9006 86.1978 21.9727 85.8467 21.9727C85.4455 21.9727 85.085 21.8912 84.7652 21.7282C84.4455 21.5589 84.1916 21.3081 84.0035 20.9759C83.8217 20.6436 83.7308 20.2392 83.7308 19.7628V16.7441H84.5772V19.6499C84.5772 20.1577 84.7057 20.5496 84.9627 20.8254C85.2198 21.095 85.5709 21.2298 86.016 21.2298C86.4736 21.2298 86.8341 21.0887 87.0974 20.8066C87.3607 20.5245 87.4924 20.1138 87.4924 19.5747V16.7441H88.3482ZM90.4231 15.9071C90.2601 15.9071 90.1222 15.8507 90.0094 15.7379C89.8965 15.625 89.8401 15.4871 89.8401 15.3241C89.8401 15.1611 89.8965 15.0232 90.0094 14.9103C90.1222 14.7975 90.2601 14.741 90.4231 14.741C90.5799 14.741 90.7115 14.7975 90.8181 14.9103C90.9309 15.0232 90.9874 15.1611 90.9874 15.3241C90.9874 15.4871 90.9309 15.625 90.8181 15.7379C90.7115 15.8507 90.5799 15.9071 90.4231 15.9071ZM90.8369 16.7441V21.8975H89.9811V16.7441H90.8369ZM93.5273 17.4494V20.4869C93.5273 20.7376 93.5806 20.9163 93.6872 21.0229C93.7938 21.1232 93.9787 21.1734 94.242 21.1734H94.8721V21.8975H94.101C93.6245 21.8975 93.2672 21.7877 93.0289 21.5683C92.7907 21.3489 92.6716 20.9884 92.6716 20.4869V17.4494H92.0039V16.7441H92.6716V15.4463H93.5273V16.7441H94.8721V17.4494H93.5273ZM97.9214 21.9821C97.5264 21.9821 97.1722 21.9163 96.8588 21.7846C96.5453 21.6467 96.2977 21.4586 96.1158 21.2204C95.934 20.9759 95.8337 20.6969 95.8149 20.3834H96.6989C96.724 20.6405 96.8431 20.8505 97.0562 21.0135C97.2757 21.1765 97.5609 21.258 97.912 21.258C98.238 21.258 98.4951 21.1859 98.6831 21.0417C98.8712 20.8975 98.9653 20.7157 98.9653 20.4963C98.9653 20.2706 98.8649 20.1044 98.6643 19.9979C98.4637 19.885 98.1534 19.7753 97.7333 19.6687C97.3509 19.5684 97.0374 19.4681 96.7929 19.3678C96.5547 19.2612 96.3478 19.1076 96.1723 18.907C96.003 18.7001 95.9184 18.4305 95.9184 18.0983C95.9184 17.8349 95.9967 17.5936 96.1535 17.3741C96.3102 17.1547 96.5328 16.9823 96.8211 16.8569C97.1095 16.7253 97.4387 16.6594 97.8086 16.6594C98.3791 16.6594 98.8399 16.8036 99.1909 17.092C99.542 17.3804 99.7301 17.7754 99.7552 18.2769H98.8994C98.8806 18.0074 98.7709 17.7911 98.5703 17.6281C98.3759 17.4651 98.1126 17.3836 97.7803 17.3836C97.4732 17.3836 97.2287 17.4494 97.0468 17.581C96.865 17.7127 96.7741 17.8851 96.7741 18.0983C96.7741 18.2675 96.8274 18.4086 96.934 18.5214C97.0468 18.628 97.1848 18.7158 97.3478 18.7847C97.517 18.8474 97.749 18.9195 98.0437 19.001C98.4136 19.1013 98.7145 19.2017 98.9464 19.302C99.1784 19.396 99.3759 19.5402 99.5389 19.7345C99.7082 19.9289 99.7959 20.1828 99.8022 20.4963C99.8022 20.7784 99.7238 21.0323 99.5671 21.258C99.4104 21.4837 99.1878 21.6624 98.8994 21.794C98.6173 21.9194 98.2913 21.9821 97.9214 21.9821ZM104.937 17.4494V20.4869C104.937 20.7376 104.991 20.9163 105.097 21.0229C105.204 21.1232 105.389 21.1734 105.652 21.1734H106.282V21.8975H105.511C105.035 21.8975 104.677 21.7877 104.439 21.5683C104.201 21.3489 104.082 20.9884 104.082 20.4869V17.4494H103.414V16.7441H104.082V15.4463H104.937V16.7441H106.282V17.4494H104.937ZM109.755 21.9821C109.272 21.9821 108.833 21.8724 108.438 21.653C108.049 21.4335 107.742 21.1232 107.516 20.722C107.297 20.3145 107.187 19.8443 107.187 19.3114C107.187 18.7847 107.3 18.3208 107.526 17.9196C107.758 17.5121 108.071 17.2017 108.466 16.9886C108.861 16.7692 109.303 16.6594 109.792 16.6594C110.281 16.6594 110.723 16.7692 111.118 16.9886C111.513 17.2017 111.823 17.5089 112.049 17.9102C112.281 18.3114 112.397 18.7785 112.397 19.3114C112.397 19.8443 112.278 20.3145 112.04 20.722C111.808 21.1232 111.491 21.4335 111.09 21.653C110.689 21.8724 110.244 21.9821 109.755 21.9821ZM109.755 21.2298C110.062 21.2298 110.35 21.1577 110.62 21.0135C110.889 20.8693 111.106 20.653 111.269 20.3646C111.438 20.0762 111.523 19.7251 111.523 19.3114C111.523 18.8976 111.441 18.5465 111.278 18.2581C111.115 17.9697 110.902 17.7566 110.639 17.6187C110.375 17.4745 110.09 17.4024 109.783 17.4024C109.469 17.4024 109.181 17.4745 108.918 17.6187C108.661 17.7566 108.454 17.9697 108.297 18.2581C108.14 18.5465 108.062 18.8976 108.062 19.3114C108.062 19.7314 108.137 20.0856 108.288 20.374C108.444 20.6624 108.651 20.8787 108.908 21.0229C109.165 21.1608 109.447 21.2298 109.755 21.2298ZM0.735456 33.3114C0.735456 32.7785 0.842034 32.3145 1.05519 31.9196C1.26835 31.5183 1.56301 31.208 1.93916 30.9886C2.32159 30.7692 2.75731 30.6594 3.24632 30.6594C3.87952 30.6594 4.39987 30.813 4.80738 31.1202C5.22115 31.4274 5.49387 31.8538 5.62552 32.3992H4.70393C4.61616 32.0857 4.44376 31.8381 4.18671 31.6563C3.93594 31.4745 3.62248 31.3836 3.24632 31.3836C2.75731 31.3836 2.36234 31.5528 2.06142 31.8914C1.76049 32.2236 1.61003 32.697 1.61003 33.3114C1.61003 33.932 1.76049 34.4116 2.06142 34.7502C2.36234 35.0887 2.75731 35.258 3.24632 35.258C3.62248 35.258 3.93594 35.1702 4.18671 34.9947C4.43749 34.8191 4.60989 34.5684 4.70393 34.2424H5.62552C5.4876 34.769 5.21175 35.1922 4.79797 35.5119C4.3842 35.8254 3.86698 35.9821 3.24632 35.9821C2.75731 35.9821 2.32159 35.8724 1.93916 35.653C1.56301 35.4335 1.26835 35.1232 1.05519 34.722C0.842034 34.3207 0.735456 33.8505 0.735456 33.3114ZM7.81121 31.581C7.96167 31.2864 8.17483 31.0575 8.45068 30.8945C8.7328 30.7315 9.07448 30.65 9.47571 30.65V31.534H9.25002C8.29081 31.534 7.81121 32.0544 7.81121 33.0951V35.8975H6.95545V30.7441H7.81121V31.581ZM15.3536 33.1233C15.3536 33.2863 15.3442 33.4587 15.3254 33.6405H11.2065C11.2378 34.1483 11.4102 34.5464 11.7237 34.8348C12.0434 35.1169 12.429 35.258 12.8804 35.258C13.2503 35.258 13.5575 35.1734 13.802 35.0041C14.0528 34.8285 14.2283 34.5966 14.3286 34.3082H15.2502C15.1123 34.8035 14.8364 35.2078 14.4226 35.5213C14.0089 35.8285 13.4948 35.9821 12.8804 35.9821C12.3914 35.9821 11.9525 35.8724 11.5638 35.653C11.1814 35.4335 10.8805 35.1232 10.6611 34.722C10.4416 34.3145 10.3319 33.8443 10.3319 33.3114C10.3319 32.7785 10.4385 32.3114 10.6517 31.9102C10.8648 31.5089 11.1626 31.2017 11.545 30.9886C11.9337 30.7692 12.3788 30.6594 12.8804 30.6594C13.3694 30.6594 13.802 30.766 14.1781 30.9792C14.5543 31.1923 14.8427 31.487 15.0433 31.8632C15.2502 32.233 15.3536 32.6531 15.3536 33.1233ZM14.4697 32.9446C14.4697 32.6186 14.3976 32.3396 14.2534 32.1077C14.1092 31.8694 13.9117 31.6907 13.6609 31.5716C13.4164 31.4462 13.1437 31.3836 12.8428 31.3836C12.4102 31.3836 12.0403 31.5215 11.7331 31.7973C11.4322 32.0732 11.2598 32.4556 11.2159 32.9446H14.4697ZM16.3516 33.302C16.3516 32.7753 16.4581 32.3145 16.6713 31.9196C16.8845 31.5183 17.176 31.208 17.5459 30.9886C17.922 30.7692 18.3389 30.6594 18.7966 30.6594C19.248 30.6594 19.6398 30.7566 19.9721 30.951C20.3044 31.1453 20.552 31.3898 20.715 31.6845V30.7441H21.5802V35.8975H20.715V34.9383C20.5457 35.2392 20.2918 35.49 19.9533 35.6906C19.621 35.8849 19.2323 35.9821 18.7872 35.9821C18.3295 35.9821 17.9158 35.8692 17.5459 35.6436C17.176 35.4179 16.8845 35.1013 16.6713 34.6938C16.4581 34.2862 16.3516 33.8223 16.3516 33.302ZM20.715 33.3114C20.715 32.9227 20.6366 32.5841 20.4799 32.2957C20.3232 32.0074 20.11 31.7879 19.8404 31.6375C19.5771 31.4807 19.2856 31.4024 18.9659 31.4024C18.6461 31.4024 18.3546 31.4776 18.0913 31.6281C17.828 31.7785 17.618 31.9979 17.4612 32.2863C17.3045 32.5747 17.2261 32.9133 17.2261 33.302C17.2261 33.6969 17.3045 34.0417 17.4612 34.3364C17.618 34.6248 17.828 34.8474 18.0913 35.0041C18.3546 35.1545 18.6461 35.2298 18.9659 35.2298C19.2856 35.2298 19.5771 35.1545 19.8404 35.0041C20.11 34.8474 20.3232 34.6248 20.4799 34.3364C20.6366 34.0417 20.715 33.7001 20.715 33.3114ZM24.2582 31.4494V34.4869C24.2582 34.7376 24.3115 34.9163 24.4181 35.0229C24.5247 35.1232 24.7096 35.1734 24.9729 35.1734H25.603V35.8975H24.8319C24.3554 35.8975 23.9981 35.7877 23.7598 35.5683C23.5216 35.3489 23.4025 34.9884 23.4025 34.4869V31.4494H22.7348V30.7441H23.4025V29.4463H24.2582V30.7441H25.603V31.4494H24.2582ZM31.5299 33.1233C31.5299 33.2863 31.5205 33.4587 31.5017 33.6405H27.3828C27.4141 34.1483 27.5865 34.5464 27.9 34.8348C28.2197 35.1169 28.6053 35.258 29.0567 35.258C29.4266 35.258 29.7338 35.1734 29.9783 35.0041C30.2291 34.8285 30.4046 34.5966 30.5049 34.3082H31.4265C31.2886 34.8035 31.0127 35.2078 30.599 35.5213C30.1852 35.8285 29.6711 35.9821 29.0567 35.9821C28.5677 35.9821 28.1288 35.8724 27.7401 35.653C27.3577 35.4335 27.0568 35.1232 26.8374 34.722C26.6179 34.3145 26.5082 33.8443 26.5082 33.3114C26.5082 32.7785 26.6148 32.3114 26.828 31.9102C27.0411 31.5089 27.3389 31.2017 27.7213 30.9886C28.11 30.7692 28.5552 30.6594 29.0567 30.6594C29.5457 30.6594 29.9783 30.766 30.3544 30.9792C30.7306 31.1923 31.019 31.487 31.2196 31.8632C31.4265 32.233 31.5299 32.6531 31.5299 33.1233ZM30.646 32.9446C30.646 32.6186 30.5739 32.3396 30.4297 32.1077C30.2855 31.8694 30.088 31.6907 29.8372 31.5716C29.5927 31.4462 29.32 31.3836 29.0191 31.3836C28.5865 31.3836 28.2166 31.5215 27.9094 31.7973C27.6085 32.0732 27.4361 32.4556 27.3922 32.9446H30.646ZM35.2231 33.302C35.2231 32.7753 35.3296 32.3145 35.5428 31.9196C35.756 31.5183 36.0475 31.208 36.4174 30.9886C36.7935 30.7692 37.2104 30.6594 37.6681 30.6594C38.1195 30.6594 38.5113 30.7566 38.8436 30.951C39.1759 31.1453 39.4235 31.3898 39.5865 31.6845V30.7441H40.4517V35.8975H39.5865V34.9383C39.4172 35.2392 39.1633 35.49 38.8248 35.6906C38.4925 35.8849 38.1038 35.9821 37.6587 35.9821C37.201 35.9821 36.7873 35.8692 36.4174 35.6436C36.0475 35.4179 35.756 35.1013 35.5428 34.6938C35.3296 34.2862 35.2231 33.8223 35.2231 33.302ZM39.5865 33.3114C39.5865 32.9227 39.5081 32.5841 39.3514 32.2957C39.1947 32.0074 38.9815 31.7879 38.7119 31.6375C38.4486 31.4807 38.1571 31.4024 37.8374 31.4024C37.5176 31.4024 37.2261 31.4776 36.9628 31.6281C36.6995 31.7785 36.4895 31.9979 36.3327 32.2863C36.176 32.5747 36.0976 32.9133 36.0976 33.302C36.0976 33.6969 36.176 34.0417 36.3327 34.3364C36.4895 34.6248 36.6995 34.8474 36.9628 35.0041C37.2261 35.1545 37.5176 35.2298 37.8374 35.2298C38.1571 35.2298 38.4486 35.1545 38.7119 35.0041C38.9815 34.8474 39.1947 34.6248 39.3514 34.3364C39.5081 34.0417 39.5865 33.7001 39.5865 33.3114ZM45.2419 29.9071C45.0789 29.9071 44.941 29.8507 44.8281 29.7379C44.7215 29.625 44.6682 29.4871 44.6682 29.3241C44.6682 29.1611 44.7215 29.0232 44.8281 28.9103C44.941 28.7975 45.0789 28.741 45.2419 28.741C45.4049 28.741 45.5397 28.7975 45.6463 28.9103C45.7591 29.0232 45.8155 29.1611 45.8155 29.3241C45.8155 29.4871 45.7591 29.625 45.6463 29.7379C45.5397 29.8507 45.4049 29.9071 45.2419 29.9071ZM45.6651 37.0165C45.6651 37.4742 45.5491 37.8096 45.3171 38.0228C45.0852 38.2359 44.7466 38.3425 44.3015 38.3425H43.8031V37.6184H44.1604C44.3987 37.6184 44.5648 37.5714 44.6588 37.4773C44.7592 37.3833 44.8093 37.2234 44.8093 36.9977V30.7441H45.6651V37.0165ZM51.8721 30.7441V35.8975H51.0164V35.1357C50.8534 35.3991 50.6245 35.6059 50.3299 35.7564C50.0415 35.9006 49.7218 35.9727 49.3707 35.9727C48.9694 35.9727 48.609 35.8912 48.2892 35.7282C47.9695 35.5589 47.7156 35.3081 47.5275 34.9759C47.3457 34.6436 47.2548 34.2392 47.2548 33.7628V30.7441H48.1011V33.6499C48.1011 34.1577 48.2297 34.5496 48.4867 34.8254C48.7437 35.095 49.0948 35.2298 49.5399 35.2298C49.9976 35.2298 50.3581 35.0887 50.6214 34.8066C50.8847 34.5245 51.0164 34.1138 51.0164 33.5747V30.7441H51.8721ZM53.9471 29.9071C53.7841 29.9071 53.6462 29.8507 53.5333 29.7379C53.4205 29.625 53.3641 29.4871 53.3641 29.3241C53.3641 29.1611 53.4205 29.0232 53.5333 28.9103C53.6462 28.7975 53.7841 28.741 53.9471 28.741C54.1038 28.741 54.2355 28.7975 54.3421 28.9103C54.4549 29.0232 54.5113 29.1611 54.5113 29.3241C54.5113 29.4871 54.4549 29.625 54.3421 29.7379C54.2355 29.8507 54.1038 29.9071 53.9471 29.9071ZM54.3609 30.7441V35.8975H53.5051V30.7441H54.3609ZM55.6877 33.3114C55.6877 32.7785 55.7943 32.3145 56.0075 31.9196C56.2206 31.5183 56.5153 31.208 56.8914 30.9886C57.2739 30.7692 57.7096 30.6594 58.1986 30.6594C58.8318 30.6594 59.3521 30.813 59.7596 31.1202C60.1734 31.4274 60.4461 31.8538 60.5778 32.3992H59.6562C59.5684 32.0857 59.396 31.8381 59.139 31.6563C58.8882 31.4745 58.5747 31.3836 58.1986 31.3836C57.7096 31.3836 57.3146 31.5528 57.0137 31.8914C56.7128 32.2236 56.5623 32.697 56.5623 33.3114C56.5623 33.932 56.7128 34.4116 57.0137 34.7502C57.3146 35.0887 57.7096 35.258 58.1986 35.258C58.5747 35.258 58.8882 35.1702 59.139 34.9947C59.3898 34.8191 59.5622 34.5684 59.6562 34.2424H60.5778C60.4399 34.769 60.164 35.1922 59.7502 35.5119C59.3365 35.8254 58.8192 35.9821 58.1986 35.9821C57.7096 35.9821 57.2739 35.8724 56.8914 35.653C56.5153 35.4335 56.2206 35.1232 56.0075 34.722C55.7943 34.3207 55.6877 33.8505 55.6877 33.3114ZM66.6097 33.1233C66.6097 33.2863 66.6003 33.4587 66.5815 33.6405H62.4625C62.4939 34.1483 62.6663 34.5464 62.9798 34.8348C63.2995 35.1169 63.6851 35.258 64.1365 35.258C64.5063 35.258 64.8135 35.1734 65.058 35.0041C65.3088 34.8285 65.4844 34.5966 65.5847 34.3082H66.5063C66.3683 34.8035 66.0925 35.2078 65.6787 35.5213C65.2649 35.8285 64.7508 35.9821 64.1365 35.9821C63.6475 35.9821 63.2086 35.8724 62.8199 35.653C62.4375 35.4335 62.1365 35.1232 61.9171 34.722C61.6977 34.3145 61.588 33.8443 61.588 33.3114C61.588 32.7785 61.6946 32.3114 61.9077 31.9102C62.1209 31.5089 62.4187 31.2017 62.8011 30.9886C63.1898 30.7692 63.6349 30.6594 64.1365 30.6594C64.6255 30.6594 65.058 30.766 65.4342 30.9792C65.8104 31.1923 66.0988 31.487 66.2994 31.8632C66.5063 32.233 66.6097 32.6531 66.6097 33.1233ZM65.7257 32.9446C65.7257 32.6186 65.6536 32.3396 65.5094 32.1077C65.3652 31.8694 65.1678 31.6907 64.917 31.5716C64.6725 31.4462 64.3998 31.3836 64.0988 31.3836C63.6663 31.3836 63.2964 31.5215 62.9892 31.7973C62.6882 32.0732 62.5158 32.4556 62.472 32.9446H65.7257ZM70.3028 33.302C70.3028 32.7753 70.4094 32.3145 70.6226 31.9196C70.8357 31.5183 71.1272 31.208 71.4971 30.9886C71.8733 30.7692 72.2902 30.6594 72.7479 30.6594C73.1992 30.6594 73.5911 30.7566 73.9234 30.951C74.2556 31.1453 74.5033 31.3898 74.6663 31.6845V30.7441H75.5314V35.8975H74.6663V34.9383C74.497 35.2392 74.2431 35.49 73.9045 35.6906C73.5723 35.8849 73.1836 35.9821 72.7385 35.9821C72.2808 35.9821 71.867 35.8692 71.4971 35.6436C71.1272 35.4179 70.8357 35.1013 70.6226 34.6938C70.4094 34.2862 70.3028 33.8223 70.3028 33.302ZM74.6663 33.3114C74.6663 32.9227 74.5879 32.5841 74.4312 32.2957C74.2744 32.0074 74.0613 31.7879 73.7917 31.6375C73.5284 31.4807 73.2369 31.4024 72.9171 31.4024C72.5974 31.4024 72.3059 31.4776 72.0426 31.6281C71.7792 31.7785 71.5692 31.9979 71.4125 32.2863C71.2558 32.5747 71.1774 32.9133 71.1774 33.302C71.1774 33.6969 71.2558 34.0417 71.4125 34.3364C71.5692 34.6248 71.7792 34.8474 72.0426 35.0041C72.3059 35.1545 72.5974 35.2298 72.9171 35.2298C73.2369 35.2298 73.5284 35.1545 73.7917 35.0041C74.0613 34.8474 74.2744 34.6248 74.4312 34.3364C74.5879 34.0417 74.6663 33.7001 74.6663 33.3114ZM78.99 35.9821C78.5951 35.9821 78.2409 35.9163 77.9274 35.7846C77.6139 35.6467 77.3663 35.4586 77.1845 35.2204C77.0027 34.9759 76.9024 34.6969 76.8835 34.3834H77.7675C77.7926 34.6405 77.9117 34.8505 78.1249 35.0135C78.3443 35.1765 78.6296 35.258 78.9806 35.258C79.3066 35.258 79.5637 35.1859 79.7518 35.0417C79.9398 34.8975 80.0339 34.7157 80.0339 34.4963C80.0339 34.2706 79.9336 34.1044 79.7329 33.9979C79.5323 33.885 79.222 33.7753 78.802 33.6687C78.4195 33.5684 78.1061 33.4681 77.8616 33.3678C77.6233 33.2612 77.4164 33.1076 77.2409 32.907C77.0716 32.7001 76.987 32.4305 76.987 32.0983C76.987 31.8349 77.0654 31.5936 77.2221 31.3741C77.3788 31.1547 77.6014 30.9823 77.8898 30.8569C78.1782 30.7253 78.5073 30.6594 78.8772 30.6594C79.4477 30.6594 79.9085 30.8036 80.2596 31.092C80.6107 31.3804 80.7987 31.7754 80.8238 32.2769H79.968C79.9492 32.0074 79.8395 31.7911 79.6389 31.6281C79.4446 31.4651 79.1812 31.3836 78.849 31.3836C78.5418 31.3836 78.2973 31.4494 78.1155 31.581C77.9337 31.7127 77.8428 31.8851 77.8428 32.0983C77.8428 32.2675 77.896 32.4086 78.0026 32.5214C78.1155 32.628 78.2534 32.7158 78.4164 32.7847C78.5857 32.8474 78.8176 32.9195 79.1123 33.001C79.4822 33.1013 79.7831 33.2017 80.0151 33.302C80.247 33.396 80.4445 33.5402 80.6075 33.7345C80.7768 33.9289 80.8646 34.1828 80.8708 34.4963C80.8708 34.7784 80.7925 35.0323 80.6357 35.258C80.479 35.4837 80.2564 35.6624 79.968 35.794C79.6859 35.9194 79.3599 35.9821 78.99 35.9821ZM85.8179 31.7033C85.9934 31.3961 86.2505 31.1453 86.589 30.951C86.9276 30.7566 87.3131 30.6594 87.7457 30.6594C88.2096 30.6594 88.6266 30.7692 88.9964 30.9886C89.3663 31.208 89.6579 31.5183 89.871 31.9196C90.0842 32.3145 90.1908 32.7753 90.1908 33.302C90.1908 33.8223 90.0842 34.2862 89.871 34.6938C89.6579 35.1013 89.3632 35.4179 88.987 35.6436C88.6172 35.8692 88.2034 35.9821 87.7457 35.9821C87.3006 35.9821 86.9088 35.8849 86.5702 35.6906C86.2379 35.4962 85.9872 35.2486 85.8179 34.9477V35.8975H84.9621V28.9385H85.8179V31.7033ZM89.3162 33.302C89.3162 32.9133 89.2378 32.5747 89.0811 32.2863C88.9244 31.9979 88.7112 31.7785 88.4416 31.6281C88.1783 31.4776 87.8868 31.4024 87.567 31.4024C87.2536 31.4024 86.9621 31.4807 86.6925 31.6375C86.4292 31.7879 86.216 32.0105 86.053 32.3051C85.8963 32.5935 85.8179 32.9289 85.8179 33.3114C85.8179 33.7001 85.8963 34.0417 86.053 34.3364C86.216 34.6248 86.4292 34.8474 86.6925 35.0041C86.9621 35.1545 87.2536 35.2298 87.567 35.2298C87.8868 35.2298 88.1783 35.1545 88.4416 35.0041C88.7112 34.8474 88.9244 34.6248 89.0811 34.3364C89.2378 34.0417 89.3162 33.6969 89.3162 33.302ZM93.7528 35.9821C93.2701 35.9821 92.8312 35.8724 92.4363 35.653C92.0476 35.4335 91.7404 35.1232 91.5147 34.722C91.2952 34.3145 91.1855 33.8443 91.1855 33.3114C91.1855 32.7847 91.2984 32.3208 91.5241 31.9196C91.756 31.5121 92.0695 31.2017 92.4645 30.9886C92.8594 30.7692 93.3014 30.6594 93.7904 30.6594C94.2794 30.6594 94.7214 30.7692 95.1164 30.9886C95.5113 31.2017 95.8217 31.5089 96.0474 31.9102C96.2793 32.3114 96.3953 32.7785 96.3953 33.3114C96.3953 33.8443 96.2762 34.3145 96.038 34.722C95.806 35.1232 95.4894 35.4335 95.0882 35.653C94.6869 35.8724 94.2418 35.9821 93.7528 35.9821ZM93.7528 35.2298C94.06 35.2298 94.3484 35.1577 94.618 35.0135C94.8876 34.8693 95.1038 34.653 95.2668 34.3646C95.4361 34.0762 95.5208 33.7251 95.5208 33.3114C95.5208 32.8976 95.4393 32.5465 95.2763 32.2581C95.1132 31.9697 94.9001 31.7566 94.6368 31.6187C94.3735 31.4745 94.0882 31.4024 93.781 31.4024C93.4676 31.4024 93.1792 31.4745 92.9159 31.6187C92.6588 31.7566 92.4519 31.9697 92.2952 32.2581C92.1385 32.5465 92.0601 32.8976 92.0601 33.3114C92.0601 33.7314 92.1353 34.0856 92.2858 34.374C92.4425 34.6624 92.6494 34.8787 92.9064 35.0229C93.1635 35.1608 93.4456 35.2298 93.7528 35.2298ZM98.5643 28.9385V35.8975H97.7086V28.9385H98.5643ZM99.8912 33.302C99.8912 32.7753 99.9978 32.3145 100.211 31.9196C100.424 31.5183 100.716 31.208 101.085 30.9886C101.462 30.7692 101.882 30.6594 102.346 30.6594C102.747 30.6594 103.12 30.7535 103.465 30.9416C103.809 31.1234 104.073 31.3647 104.255 31.6657V28.9385H105.12V35.8975H104.255V34.9289C104.085 35.236 103.835 35.49 103.502 35.6906C103.17 35.8849 102.781 35.9821 102.336 35.9821C101.879 35.9821 101.462 35.8692 101.085 35.6436C100.716 35.4179 100.424 35.1013 100.211 34.6938C99.9978 34.2862 99.8912 33.8223 99.8912 33.302ZM104.255 33.3114C104.255 32.9227 104.176 32.5841 104.02 32.2957C103.863 32.0074 103.65 31.7879 103.38 31.6375C103.117 31.4807 102.825 31.4024 102.505 31.4024C102.186 31.4024 101.894 31.4776 101.631 31.6281C101.368 31.7785 101.158 31.9979 101.001 32.2863C100.844 32.5747 100.766 32.9133 100.766 33.302C100.766 33.6969 100.844 34.0417 101.001 34.3364C101.158 34.6248 101.368 34.8474 101.631 35.0041C101.894 35.1545 102.186 35.2298 102.505 35.2298C102.825 35.2298 103.117 35.1545 103.38 35.0041C103.65 34.8474 103.863 34.6248 104.02 34.3364C104.176 34.0417 104.255 33.7001 104.255 33.3114ZM111.697 35.9821C111.214 35.9821 110.775 35.8724 110.38 35.653C109.992 35.4335 109.684 35.1232 109.459 34.722C109.239 34.3145 109.129 33.8443 109.129 33.3114C109.129 32.7847 109.242 32.3208 109.468 31.9196C109.7 31.5121 110.013 31.2017 110.408 30.9886C110.803 30.7692 111.245 30.6594 111.734 30.6594C112.223 30.6594 112.665 30.7692 113.06 30.9886C113.455 31.2017 113.766 31.5089 113.991 31.9102C114.223 32.3114 114.339 32.7785 114.339 33.3114C114.339 33.8443 114.22 34.3145 113.982 34.722C113.75 35.1232 113.433 35.4335 113.032 35.653C112.631 35.8724 112.186 35.9821 111.697 35.9821ZM111.697 35.2298C112.004 35.2298 112.292 35.1577 112.562 35.0135C112.832 34.8693 113.048 34.653 113.211 34.3646C113.38 34.0762 113.465 33.7251 113.465 33.3114C113.465 32.8976 113.383 32.5465 113.22 32.2581C113.057 31.9697 112.844 31.7566 112.581 31.6187C112.317 31.4745 112.032 31.4024 111.725 31.4024C111.412 31.4024 111.123 31.4745 110.86 31.6187C110.603 31.7566 110.396 31.9697 110.239 32.2581C110.082 32.5465 110.004 32.8976 110.004 33.3114C110.004 33.7314 110.079 34.0856 110.23 34.374C110.386 34.6624 110.593 34.8787 110.85 35.0229C111.107 35.1608 111.39 35.2298 111.697 35.2298ZM116.508 31.581C116.659 31.2864 116.872 31.0575 117.148 30.8945C117.43 30.7315 117.772 30.65 118.173 30.65V31.534H117.947C116.988 31.534 116.508 32.0544 116.508 33.0951V35.8975H115.653V30.7441H116.508V31.581ZM2.87956 50.9821C2.4846 50.9821 2.13038 50.9163 1.81691 50.7846C1.50345 50.6467 1.25581 50.4586 1.074 50.2204C0.892189 49.9759 0.79188 49.6969 0.773072 49.3834H1.65705C1.68212 49.6405 1.80124 49.8505 2.0144 50.0135C2.23382 50.1765 2.51908 50.258 2.87016 50.258C3.19616 50.258 3.4532 50.1859 3.64128 50.0417C3.82936 49.8975 3.9234 49.7157 3.9234 49.4963C3.9234 49.2706 3.82309 49.1044 3.62248 48.9979C3.42186 48.885 3.11153 48.7753 2.69148 48.6687C2.30905 48.5684 1.99559 48.4681 1.75109 48.3678C1.51285 48.2612 1.30596 48.1076 1.13042 47.907C0.961151 47.7001 0.876516 47.4305 0.876516 47.0983C0.876516 46.8349 0.954882 46.5936 1.11162 46.3741C1.26835 46.1547 1.49091 45.9823 1.7793 45.8569C2.06769 45.7253 2.39682 45.6594 2.76671 45.6594C3.33722 45.6594 3.79802 45.8036 4.1491 46.092C4.50018 46.3804 4.68826 46.7754 4.71334 47.2769H3.85758C3.83877 47.0074 3.72905 46.7911 3.52844 46.6281C3.33409 46.4651 3.07078 46.3836 2.7385 46.3836C2.43131 46.3836 2.1868 46.4494 2.00499 46.581C1.82318 46.7127 1.73228 46.8851 1.73228 47.0983C1.73228 47.2675 1.78557 47.4086 1.89214 47.5214C2.00499 47.628 2.14292 47.7158 2.30592 47.7847C2.47519 47.8474 2.70716 47.9195 3.00181 48.001C3.3717 48.1013 3.67263 48.2017 3.9046 48.302C4.13656 48.396 4.33404 48.5402 4.49705 48.7345C4.66632 48.9289 4.75409 49.1828 4.76036 49.4963C4.76036 49.7784 4.68199 50.0323 4.52526 50.258C4.36852 50.4837 4.14596 50.6624 3.85758 50.794C3.57546 50.9194 3.24945 50.9821 2.87956 50.9821ZM13.0214 45.7441L11.4133 50.8975H10.5293L9.288 46.8067L8.04668 50.8975H7.1627L5.54522 45.7441H6.41979L7.60469 50.0699L8.88363 45.7441H9.7582L11.0089 50.0793L12.175 45.7441H13.0214ZM18.7607 48.1233C18.7607 48.2863 18.7513 48.4587 18.7325 48.6405H14.6136C14.6449 49.1483 14.8173 49.5464 15.1308 49.8348C15.4505 50.1169 15.8361 50.258 16.2875 50.258C16.6574 50.258 16.9646 50.1734 17.2091 50.0041C17.4599 49.8285 17.6354 49.5966 17.7357 49.3082H18.6573C18.5194 49.8035 18.2435 50.2078 17.8297 50.5213C17.416 50.8285 16.9019 50.9821 16.2875 50.9821C15.7985 50.9821 15.3596 50.8724 14.9709 50.653C14.5885 50.4335 14.2876 50.1232 14.0682 49.722C13.8487 49.3145 13.739 48.8443 13.739 48.3114C13.739 47.7785 13.8456 47.3114 14.0588 46.9102C14.2719 46.5089 14.5697 46.2017 14.9521 45.9886C15.3408 45.7692 15.786 45.6594 16.2875 45.6594C16.7765 45.6594 17.2091 45.766 17.5852 45.9792C17.9614 46.1923 18.2498 46.487 18.4504 46.8632C18.6573 47.233 18.7607 47.6531 18.7607 48.1233ZM17.8768 47.9446C17.8768 47.6186 17.8047 47.3396 17.6605 47.1077C17.5163 46.8694 17.3188 46.6907 17.068 46.5716C16.8235 46.4462 16.5508 46.3836 16.2499 46.3836C15.8173 46.3836 15.4474 46.5215 15.1402 46.7973C14.8393 47.0732 14.6669 47.4556 14.623 47.9446H17.8768ZM24.7804 48.1233C24.7804 48.2863 24.771 48.4587 24.7522 48.6405H20.6332C20.6646 49.1483 20.837 49.5464 21.1505 49.8348C21.4702 50.1169 21.8558 50.258 22.3071 50.258C22.677 50.258 22.9842 50.1734 23.2287 50.0041C23.4795 49.8285 23.655 49.5966 23.7554 49.3082H24.6769C24.539 49.8035 24.2632 50.2078 23.8494 50.5213C23.4356 50.8285 22.9215 50.9821 22.3071 50.9821C21.8181 50.9821 21.3793 50.8724 20.9906 50.653C20.6082 50.4335 20.3072 50.1232 20.0878 49.722C19.8684 49.3145 19.7587 48.8443 19.7587 48.3114C19.7587 47.7785 19.8652 47.3114 20.0784 46.9102C20.2916 46.5089 20.5894 46.2017 20.9718 45.9886C21.3605 45.7692 21.8056 45.6594 22.3071 45.6594C22.7962 45.6594 23.2287 45.766 23.6049 45.9792C23.9811 46.1923 24.2694 46.487 24.4701 46.8632C24.6769 47.233 24.7804 47.6531 24.7804 48.1233ZM23.8964 47.9446C23.8964 47.6186 23.8243 47.3396 23.6801 47.1077C23.5359 46.8694 23.3384 46.6907 23.0877 46.5716C22.8432 46.4462 22.5705 46.3836 22.2695 46.3836C21.8369 46.3836 21.4671 46.5215 21.1599 46.7973C20.8589 47.0732 20.6865 47.4556 20.6426 47.9446H23.8964ZM27.1419 46.4494V49.4869C27.1419 49.7376 27.1952 49.9163 27.3018 50.0229C27.4083 50.1232 27.5933 50.1734 27.8566 50.1734H28.4867V50.8975H27.7155C27.2391 50.8975 26.8817 50.7877 26.6435 50.5683C26.4052 50.3489 26.2861 49.9884 26.2861 49.4869V46.4494H25.6184V45.7441H26.2861V44.4463H27.1419V45.7441H28.4867V46.4494H27.1419ZM32.0871 48.302C32.0871 47.7753 32.1936 47.3145 32.4068 46.9196C32.6199 46.5183 32.9115 46.208 33.2814 45.9886C33.6575 45.7692 34.0744 45.6594 34.5321 45.6594C34.9835 45.6594 35.3753 45.7566 35.7076 45.951C36.0399 46.1453 36.2875 46.3898 36.4505 46.6845V45.7441H37.3157V50.8975H36.4505V49.9383C36.2812 50.2392 36.0273 50.49 35.6888 50.6906C35.3565 50.8849 34.9678 50.9821 34.5227 50.9821C34.065 50.9821 33.6512 50.8692 33.2814 50.6436C32.9115 50.4179 32.6199 50.1013 32.4068 49.6938C32.1936 49.2862 32.0871 48.8223 32.0871 48.302ZM36.4505 48.3114C36.4505 47.9227 36.3721 47.5841 36.2154 47.2957C36.0587 47.0074 35.8455 46.7879 35.5759 46.6375C35.3126 46.4807 35.0211 46.4024 34.7014 46.4024C34.3816 46.4024 34.0901 46.4776 33.8268 46.6281C33.5635 46.7785 33.3535 46.9979 33.1967 47.2863C33.04 47.5747 32.9616 47.9133 32.9616 48.302C32.9616 48.6969 33.04 49.0417 33.1967 49.3364C33.3535 49.6248 33.5635 49.8474 33.8268 50.0041C34.0901 50.1545 34.3816 50.2298 34.7014 50.2298C35.0211 50.2298 35.3126 50.1545 35.5759 50.0041C35.8455 49.8474 36.0587 49.6248 36.2154 49.3364C36.3721 49.0417 36.4505 48.7001 36.4505 48.3114ZM40.7743 50.9821C40.3793 50.9821 40.0251 50.9163 39.7116 50.7846C39.3982 50.6467 39.1505 50.4586 38.9687 50.2204C38.7869 49.9759 38.6866 49.6969 38.6678 49.3834H39.5518C39.5768 49.6405 39.6959 49.8505 39.9091 50.0135C40.1285 50.1765 40.4138 50.258 40.7649 50.258C41.0909 50.258 41.3479 50.1859 41.536 50.0417C41.7241 49.8975 41.8181 49.7157 41.8181 49.4963C41.8181 49.2706 41.7178 49.1044 41.5172 48.9979C41.3166 48.885 41.0062 48.7753 40.5862 48.6687C40.2038 48.5684 39.8903 48.4681 39.6458 48.3678C39.4076 48.2612 39.2007 48.1076 39.0251 47.907C38.8559 47.7001 38.7712 47.4305 38.7712 47.0983C38.7712 46.8349 38.8496 46.5936 39.0063 46.3741C39.1631 46.1547 39.3856 45.9823 39.674 45.8569C39.9624 45.7253 40.2915 45.6594 40.6614 45.6594C41.2319 45.6594 41.6927 45.8036 42.0438 46.092C42.3949 46.3804 42.583 46.7754 42.608 47.2769H41.7523C41.7335 47.0074 41.6238 46.7911 41.4231 46.6281C41.2288 46.4651 40.9655 46.3836 40.6332 46.3836C40.326 46.3836 40.0815 46.4494 39.8997 46.581C39.7179 46.7127 39.627 46.8851 39.627 47.0983C39.627 47.2675 39.6803 47.4086 39.7869 47.5214C39.8997 47.628 40.0376 47.7158 40.2006 47.7847C40.3699 47.8474 40.6019 47.9195 40.8965 48.001C41.2664 48.1013 41.5673 48.2017 41.7993 48.302C42.0313 48.396 42.2288 48.5402 42.3918 48.7345C42.561 48.9289 42.6488 49.1828 42.6551 49.4963C42.6551 49.7784 42.5767 50.0323 42.42 50.258C42.2632 50.4837 42.0407 50.6624 41.7523 50.794C41.4702 50.9194 41.1442 50.9821 40.7743 50.9821ZM51.1851 45.7441L48.0817 53.3237H47.1978L48.2134 50.841L46.1351 45.7441H47.0849L48.7024 49.9194L50.3011 45.7441H51.1851ZM54.4809 50.9821C53.9982 50.9821 53.5593 50.8724 53.1644 50.653C52.7757 50.4335 52.4685 50.1232 52.2428 49.722C52.0234 49.3145 51.9136 48.8443 51.9136 48.3114C51.9136 47.7847 52.0265 47.3208 52.2522 46.9196C52.4842 46.5121 52.7976 46.2017 53.1926 45.9886C53.5876 45.7692 54.0295 45.6594 54.5185 45.6594C55.0076 45.6594 55.4495 45.7692 55.8445 45.9886C56.2395 46.2017 56.5498 46.5089 56.7755 46.9102C57.0075 47.3114 57.1234 47.7785 57.1234 48.3114C57.1234 48.8443 57.0043 49.3145 56.7661 49.722C56.5341 50.1232 56.2175 50.4335 55.8163 50.653C55.4151 50.8724 54.9699 50.9821 54.4809 50.9821ZM54.4809 50.2298C54.7881 50.2298 55.0765 50.1577 55.3461 50.0135C55.6157 49.8693 55.832 49.653 55.995 49.3646C56.1642 49.0762 56.2489 48.7251 56.2489 48.3114C56.2489 47.8976 56.1674 47.5465 56.0044 47.2581C55.8414 46.9697 55.6282 46.7566 55.3649 46.6187C55.1016 46.4745 54.8163 46.4024 54.5091 46.4024C54.1957 46.4024 53.9073 46.4745 53.644 46.6187C53.3869 46.7566 53.18 46.9697 53.0233 47.2581C52.8666 47.5465 52.7882 47.8976 52.7882 48.3114C52.7882 48.7314 52.8634 49.0856 53.0139 49.374C53.1706 49.6624 53.3775 49.8787 53.6346 50.0229C53.8916 50.1608 54.1737 50.2298 54.4809 50.2298ZM63.007 45.7441V50.8975H62.1513V50.1357C61.9883 50.3991 61.7594 50.6059 61.4648 50.7564C61.1764 50.9006 60.8567 50.9727 60.5056 50.9727C60.1043 50.9727 59.7438 50.8912 59.4241 50.7282C59.1044 50.5589 58.8505 50.3081 58.6624 49.9759C58.4806 49.6436 58.3897 49.2392 58.3897 48.7628V45.7441H59.236V48.6499C59.236 49.1577 59.3646 49.5496 59.6216 49.8254C59.8786 50.095 60.2297 50.2298 60.6748 50.2298C61.1325 50.2298 61.493 50.0887 61.7563 49.8066C62.0196 49.5245 62.1513 49.1138 62.1513 48.5747V45.7441H63.007ZM68.191 43.9385V50.8975H67.3352V43.9385H68.191ZM70.2795 44.9071C70.1165 44.9071 69.9786 44.8507 69.8658 44.7379C69.7529 44.625 69.6965 44.4871 69.6965 44.3241C69.6965 44.1611 69.7529 44.0232 69.8658 43.9103C69.9786 43.7975 70.1165 43.741 70.2795 43.741C70.4363 43.741 70.5679 43.7975 70.6745 43.9103C70.7873 44.0232 70.8438 44.1611 70.8438 44.3241C70.8438 44.4871 70.7873 44.625 70.6745 44.7379C70.5679 44.8507 70.4363 44.9071 70.2795 44.9071ZM70.6933 45.7441V50.8975H69.8375V45.7441H70.6933ZM75.2175 50.8975L73.1956 48.6217V50.8975H72.3399V43.9385H73.1956V48.0292L75.1799 45.7441H76.3742L73.948 48.3114L76.3836 50.8975H75.2175ZM82.0697 48.1233C82.0697 48.2863 82.0603 48.4587 82.0415 48.6405H77.9225C77.9539 49.1483 78.1263 49.5464 78.4398 49.8348C78.7595 50.1169 79.145 50.258 79.5964 50.258C79.9663 50.258 80.2735 50.1734 80.518 50.0041C80.7688 49.8285 80.9443 49.5966 81.0447 49.3082H81.9662C81.8283 49.8035 81.5525 50.2078 81.1387 50.5213C80.7249 50.8285 80.2108 50.9821 79.5964 50.9821C79.1074 50.9821 78.6686 50.8724 78.2799 50.653C77.8975 50.4335 77.5965 50.1232 77.3771 49.722C77.1577 49.3145 77.048 48.8443 77.048 48.3114C77.048 47.7785 77.1545 47.3114 77.3677 46.9102C77.5809 46.5089 77.8786 46.2017 78.2611 45.9886C78.6498 45.7692 79.0949 45.6594 79.5964 45.6594C80.0854 45.6594 80.518 45.766 80.8942 45.9792C81.2703 46.1923 81.5587 46.487 81.7594 46.8632C81.9662 47.233 82.0697 47.6531 82.0697 48.1233ZM81.1857 47.9446C81.1857 47.6186 81.1136 47.3396 80.9694 47.1077C80.8252 46.8694 80.6277 46.6907 80.377 46.5716C80.1325 46.4462 79.8598 46.3836 79.5588 46.3836C79.1262 46.3836 78.7564 46.5215 78.4492 46.7973C78.1482 47.0732 77.9758 47.4556 77.9319 47.9446H81.1857ZM50.5361 60.4494V63.4869C50.5361 63.7376 50.5894 63.9163 50.696 64.0229C50.8026 64.1232 50.9875 64.1734 51.2508 64.1734H51.8809V64.8975H51.1098C50.6333 64.8975 50.2759 64.7877 50.0377 64.5683C49.7995 64.3489 49.6803 63.9884 49.6803 63.4869V60.4494H49.0127V59.7441H49.6803V58.4463H50.5361V59.7441H51.8809V60.4494H50.5361ZM55.3534 64.9821C54.8706 64.9821 54.4318 64.8724 54.0368 64.653C53.6481 64.4335 53.3409 64.1232 53.1152 63.722C52.8958 63.3145 52.7861 62.8443 52.7861 62.3114C52.7861 61.7847 52.8989 61.3208 53.1246 60.9196C53.3566 60.5121 53.6701 60.2017 54.065 59.9886C54.46 59.7692 54.902 59.6594 55.391 59.6594C55.88 59.6594 56.322 59.7692 56.7169 59.9886C57.1119 60.2017 57.4222 60.5089 57.6479 60.9102C57.8799 61.3114 57.9959 61.7785 57.9959 62.3114C57.9959 62.8443 57.8768 63.3145 57.6385 63.722C57.4066 64.1232 57.09 64.4335 56.6887 64.653C56.2875 64.8724 55.8424 64.9821 55.3534 64.9821ZM55.3534 64.2298C55.6606 64.2298 55.949 64.1577 56.2185 64.0135C56.4881 63.8693 56.7044 63.653 56.8674 63.3646C57.0367 63.0762 57.1213 62.7251 57.1213 62.3114C57.1213 61.8976 57.0398 61.5465 56.8768 61.2581C56.7138 60.9697 56.5007 60.7566 56.2373 60.6187C55.974 60.4745 55.6888 60.4024 55.3816 60.4024C55.0681 60.4024 54.7797 60.4745 54.5164 60.6187C54.2594 60.7566 54.0525 60.9697 53.8957 61.2581C53.739 61.5465 53.6607 61.8976 53.6607 62.3114C53.6607 62.7314 53.7359 63.0856 53.8863 63.374C54.0431 63.6624 54.25 63.8787 54.507 64.0229C54.7641 64.1608 55.0462 64.2298 55.3534 64.2298ZM61.6846 62.302C61.6846 61.7753 61.7912 61.3145 62.0043 60.9196C62.2175 60.5183 62.509 60.208 62.8789 59.9886C63.2551 59.7692 63.672 59.6594 64.1296 59.6594C64.581 59.6594 64.9728 59.7566 65.3051 59.951C65.6374 60.1453 65.885 60.3898 66.048 60.6845V59.7441H66.9132V64.8975H66.048V63.9383C65.8788 64.2392 65.6249 64.49 65.2863 64.6906C64.954 64.8849 64.5653 64.9821 64.1202 64.9821C63.6626 64.9821 63.2488 64.8692 62.8789 64.6436C62.509 64.4179 62.2175 64.1013 62.0043 63.6938C61.7912 63.2862 61.6846 62.8223 61.6846 62.302ZM66.048 62.3114C66.048 61.9227 65.9697 61.5841 65.8129 61.2957C65.6562 61.0074 65.443 60.7879 65.1735 60.6375C64.9102 60.4807 64.6186 60.4024 64.2989 60.4024C63.9792 60.4024 63.6876 60.4776 63.4243 60.6281C63.161 60.7785 62.951 60.9979 62.7943 61.2863C62.6375 61.5747 62.5592 61.9133 62.5592 62.302C62.5592 62.6969 62.6375 63.0417 62.7943 63.3364C62.951 63.6248 63.161 63.8474 63.4243 64.0041C63.6876 64.1545 63.9792 64.2298 64.2989 64.2298C64.6186 64.2298 64.9102 64.1545 65.1735 64.0041C65.443 63.8474 65.6562 63.6248 65.8129 63.3364C65.9697 63.0417 66.048 62.7001 66.048 62.3114ZM72.2865 60.4494V63.4869C72.2865 63.7376 72.3398 63.9163 72.4463 64.0229C72.5529 64.1232 72.7379 64.1734 73.0012 64.1734H73.6312V64.8975H72.8601C72.3836 64.8975 72.0263 64.7877 71.7881 64.5683C71.5498 64.3489 71.4307 63.9884 71.4307 63.4869V60.4494H70.763V59.7441H71.4307V58.4463H72.2865V59.7441H73.6312V60.4494H72.2865ZM74.5364 62.302C74.5364 61.7753 74.643 61.3145 74.8562 60.9196C75.0693 60.5183 75.3609 60.208 75.7307 59.9886C76.1069 59.7692 76.5238 59.6594 76.9815 59.6594C77.4329 59.6594 77.8247 59.7566 78.157 59.951C78.4892 60.1453 78.7369 60.3898 78.8999 60.6845V59.7441H79.7651V64.8975H78.8999V63.9383C78.7306 64.2392 78.4767 64.49 78.1382 64.6906C77.8059 64.8849 77.4172 64.9821 76.9721 64.9821C76.5144 64.9821 76.1006 64.8692 75.7307 64.6436C75.3609 64.4179 75.0693 64.1013 74.8562 63.6938C74.643 63.2862 74.5364 62.8223 74.5364 62.302ZM78.8999 62.3114C78.8999 61.9227 78.8215 61.5841 78.6648 61.2957C78.5081 61.0074 78.2949 60.7879 78.0253 60.6375C77.762 60.4807 77.4705 60.4024 77.1507 60.4024C76.831 60.4024 76.5395 60.4776 76.2762 60.6281C76.0129 60.7785 75.8028 60.9979 75.6461 61.2863C75.4894 61.5747 75.411 61.9133 75.411 62.302C75.411 62.6969 75.4894 63.0417 75.6461 63.3364C75.8028 63.6248 76.0129 63.8474 76.2762 64.0041C76.5395 64.1545 76.831 64.2298 77.1507 64.2298C77.4705 64.2298 77.762 64.1545 78.0253 64.0041C78.2949 63.8474 78.5081 63.6248 78.6648 63.3364C78.8215 63.0417 78.8999 62.7001 78.8999 62.3114ZM83.2237 64.9821C82.8287 64.9821 82.4745 64.9163 82.161 64.7846C81.8475 64.6467 81.5999 64.4586 81.4181 64.2204C81.2363 63.9759 81.136 63.6969 81.1172 63.3834H82.0011C82.0262 63.6405 82.1453 63.8505 82.3585 64.0135C82.5779 64.1765 82.8632 64.258 83.2143 64.258C83.5403 64.258 83.7973 64.1859 83.9854 64.0417C84.1735 63.8975 84.2675 63.7157 84.2675 63.4963C84.2675 63.2706 84.1672 63.1044 83.9666 62.9979C83.766 62.885 83.4556 62.7753 83.0356 62.6687C82.6531 62.5684 82.3397 62.4681 82.0952 62.3678C81.8569 62.2612 81.6501 62.1076 81.4745 61.907C81.3052 61.7001 81.2206 61.4305 81.2206 61.0983C81.2206 60.8349 81.299 60.5936 81.4557 60.3741C81.6124 60.1547 81.835 59.9823 82.1234 59.8569C82.4118 59.7253 82.7409 59.6594 83.1108 59.6594C83.6813 59.6594 84.1421 59.8036 84.4932 60.092C84.8443 60.3804 85.0324 60.7754 85.0574 61.2769H84.2017C84.1829 61.0074 84.0731 60.7911 83.8725 60.6281C83.6782 60.4651 83.4149 60.3836 83.0826 60.3836C82.7754 60.3836 82.5309 60.4494 82.3491 60.581C82.1673 60.7127 82.0764 60.8851 82.0764 61.0983C82.0764 61.2675 82.1297 61.4086 82.2362 61.5214C82.3491 61.628 82.487 61.7158 82.65 61.7847C82.8193 61.8474 83.0512 61.9195 83.3459 62.001C83.7158 62.1013 84.0167 62.2017 84.2487 62.302C84.4807 62.396 84.6781 62.5402 84.8411 62.7345C85.0104 62.9289 85.0982 63.1828 85.1045 63.4963C85.1045 63.7784 85.0261 64.0323 84.8694 64.258C84.7126 64.4837 84.4901 64.6624 84.2017 64.794C83.9195 64.9194 83.5935 64.9821 83.2237 64.9821ZM87.5444 60.4494V63.4869C87.5444 63.7376 87.5977 63.9163 87.7043 64.0229C87.8109 64.1232 87.9958 64.1734 88.2591 64.1734H88.8892V64.8975H88.1181C87.6416 64.8975 87.2842 64.7877 87.046 64.5683C86.8078 64.3489 86.6887 63.9884 86.6887 63.4869V60.4494H86.021V59.7441H86.6887V58.4463H87.5444V59.7441H88.8892V60.4494H87.5444ZM94.5528 59.7441L91.4495 67.3237H90.5655L91.5811 64.841L89.5029 59.7441H90.4527L92.0702 63.9194L93.6688 59.7441H94.5528ZM99.3402 60.4494V63.4869C99.3402 63.7376 99.3934 63.9163 99.5 64.0229C99.6066 64.1232 99.7916 64.1734 100.055 64.1734H100.685V64.8975H99.9138C99.4373 64.8975 99.08 64.7877 98.8417 64.5683C98.6035 64.3489 98.4844 63.9884 98.4844 63.4869V60.4494H97.8167V59.7441H98.4844V58.4463H99.3402V59.7441H100.685V60.4494H99.3402ZM102.766 60.581C102.916 60.2864 103.129 60.0575 103.405 59.8945C103.687 59.7315 104.029 59.65 104.43 59.65V60.534H104.204C103.245 60.534 102.766 61.0544 102.766 62.0951V64.8975H101.91V59.7441H102.766V60.581ZM110.308 62.1233C110.308 62.2863 110.299 62.4587 110.28 62.6405H106.161C106.192 63.1483 106.365 63.5464 106.678 63.8348C106.998 64.1169 107.383 64.258 107.835 64.258C108.205 64.258 108.512 64.1734 108.756 64.0041C109.007 63.8285 109.183 63.5966 109.283 63.3082H110.205C110.067 63.8035 109.791 64.2078 109.377 64.5213C108.963 64.8285 108.449 64.9821 107.835 64.9821C107.346 64.9821 106.907 64.8724 106.518 64.653C106.136 64.4335 105.835 64.1232 105.615 63.722C105.396 63.3145 105.286 62.8443 105.286 62.3114C105.286 61.7785 105.393 61.3114 105.606 60.9102C105.819 60.5089 106.117 60.2017 106.499 59.9886C106.888 59.7692 107.333 59.6594 107.835 59.6594C108.324 59.6594 108.756 59.766 109.133 59.9792C109.509 60.1923 109.797 60.487 109.998 60.8632C110.205 61.233 110.308 61.6531 110.308 62.1233ZM109.424 61.9446C109.424 61.6186 109.352 61.3396 109.208 61.1077C109.064 60.8694 108.866 60.6907 108.615 60.5716C108.371 60.4462 108.098 60.3836 107.797 60.3836C107.365 60.3836 106.995 60.5215 106.688 60.7973C106.387 61.0732 106.214 61.4556 106.17 61.9446H109.424ZM111.306 62.302C111.306 61.7753 111.413 61.3145 111.626 60.9196C111.839 60.5183 112.13 60.208 112.5 59.9886C112.876 59.7692 113.293 59.6594 113.751 59.6594C114.202 59.6594 114.594 59.7566 114.927 59.951C115.259 60.1453 115.506 60.3898 115.669 60.6845V59.7441H116.535V64.8975H115.669V63.9383C115.5 64.2392 115.246 64.49 114.908 64.6906C114.575 64.8849 114.187 64.9821 113.742 64.9821C113.284 64.9821 112.87 64.8692 112.5 64.6436C112.13 64.4179 111.839 64.1013 111.626 63.6938C111.413 63.2862 111.306 62.8223 111.306 62.302ZM115.669 62.3114C115.669 61.9227 115.591 61.5841 115.434 61.2957C115.278 61.0074 115.064 60.7879 114.795 60.6375C114.532 60.4807 114.24 60.4024 113.92 60.4024C113.601 60.4024 113.309 60.4776 113.046 60.6281C112.782 60.7785 112.572 60.9979 112.416 61.2863C112.259 61.5747 112.181 61.9133 112.181 62.302C112.181 62.6969 112.259 63.0417 112.416 63.3364C112.572 63.6248 112.782 63.8474 113.046 64.0041C113.309 64.1545 113.601 64.2298 113.92 64.2298C114.24 64.2298 114.532 64.1545 114.795 64.0041C115.064 63.8474 115.278 63.6248 115.434 63.3364C115.591 63.0417 115.669 62.7001 115.669 62.3114ZM119.213 60.4494V63.4869C119.213 63.7376 119.266 63.9163 119.373 64.0229C119.479 64.1232 119.664 64.1734 119.927 64.1734H120.557V64.8975H119.786C119.31 64.8975 118.952 64.7877 118.714 64.5683C118.476 64.3489 118.357 63.9884 118.357 63.4869V60.4494H117.689V59.7441H118.357V58.4463H119.213V59.7441H120.557V60.4494H119.213ZM122.892 58.3429L122.789 63.0449H122.074L121.97 58.3429H122.892ZM122.469 64.9539C122.306 64.9539 122.168 64.8975 122.055 64.7846C121.942 64.6718 121.886 64.5338 121.886 64.3708C121.886 64.2078 121.942 64.0699 122.055 63.9571C122.168 63.8442 122.306 63.7878 122.469 63.7878C122.626 63.7878 122.757 63.8442 122.864 63.9571C122.977 64.0699 123.033 64.2078 123.033 64.3708C123.033 64.5338 122.977 64.6718 122.864 64.7846C122.757 64.8975 122.626 64.9539 122.469 64.9539Z" fill="#323842"/>
<path d="M85.1075 48.2738C85.1075 47.7283 85.2172 47.2519 85.4366 46.8443C85.6623 46.4368 85.9726 46.1234 86.3676 45.904C86.7688 45.6845 87.2265 45.5748 87.7406 45.5748C88.3989 45.5748 88.9474 45.7472 89.3863 46.092C89.8314 46.4368 90.1229 46.9227 90.2608 47.5496H88.5493C88.4051 47.1484 88.1261 46.9478 87.7124 46.9478C87.4177 46.9478 87.1826 47.0638 87.0071 47.2957C86.8315 47.5214 86.7438 47.8474 86.7438 48.2738C86.7438 48.7001 86.8315 49.0292 87.0071 49.2612C87.1826 49.4869 87.4177 49.5997 87.7124 49.5997C88.1261 49.5997 88.4051 49.3991 88.5493 48.9979H90.2608C90.1229 49.6123 89.8314 50.095 89.3863 50.4461C88.9412 50.7972 88.3926 50.9727 87.7406 50.9727C87.2265 50.9727 86.7688 50.863 86.3676 50.6436C85.9726 50.4241 85.6623 50.1107 85.4366 49.7032C85.2172 49.2957 85.1075 48.8192 85.1075 48.2738ZM94.5347 45.5936C95.1365 45.5936 95.6192 45.7942 95.9829 46.1955C96.3465 46.5904 96.5283 47.1359 96.5283 47.8318V50.8975H94.9296V48.0481C94.9296 47.697 94.8387 47.4243 94.6569 47.2299C94.4751 47.0356 94.2306 46.9384 93.9234 46.9384C93.6162 46.9384 93.3717 47.0356 93.1899 47.2299C93.0081 47.4243 92.9172 47.697 92.9172 48.0481V50.8975H91.3091V43.9385H92.9172V46.3553C93.0802 46.1234 93.3027 45.9384 93.5849 45.8005C93.867 45.6626 94.1836 45.5936 94.5347 45.5936ZM100.222 50.9727C99.7084 50.9727 99.2444 50.863 98.8307 50.6436C98.4231 50.4241 98.1003 50.1107 97.862 49.7032C97.6301 49.2957 97.5141 48.8192 97.5141 48.2738C97.5141 47.7346 97.6332 47.2613 97.8714 46.8538C98.1097 46.44 98.4357 46.1234 98.8495 45.904C99.2632 45.6845 99.7272 45.5748 100.241 45.5748C100.755 45.5748 101.219 45.6845 101.633 45.904C102.047 46.1234 102.373 46.44 102.611 46.8538C102.849 47.2613 102.968 47.7346 102.968 48.2738C102.968 48.8129 102.846 49.2894 102.602 49.7032C102.363 50.1107 102.034 50.4241 101.614 50.6436C101.2 50.863 100.737 50.9727 100.222 50.9727ZM100.222 49.5809C100.53 49.5809 100.79 49.4681 101.003 49.2424C101.222 49.0167 101.332 48.6938 101.332 48.2738C101.332 47.8537 101.226 47.5308 101.012 47.3051C100.805 47.0794 100.548 46.9666 100.241 46.9666C99.9278 46.9666 99.6676 47.0794 99.4607 47.3051C99.2538 47.5246 99.1504 47.8474 99.1504 48.2738C99.1504 48.6938 99.2507 49.0167 99.4513 49.2424C99.6582 49.4681 99.9152 49.5809 100.222 49.5809ZM106.398 50.9727C105.884 50.9727 105.42 50.863 105.006 50.6436C104.599 50.4241 104.276 50.1107 104.038 49.7032C103.806 49.2957 103.69 48.8192 103.69 48.2738C103.69 47.7346 103.809 47.2613 104.047 46.8538C104.285 46.44 104.611 46.1234 105.025 45.904C105.439 45.6845 105.903 45.5748 106.417 45.5748C106.931 45.5748 107.395 45.6845 107.809 45.904C108.223 46.1234 108.549 46.44 108.787 46.8538C109.025 47.2613 109.144 47.7346 109.144 48.2738C109.144 48.8129 109.022 49.2894 108.777 49.7032C108.539 50.1107 108.21 50.4241 107.79 50.6436C107.376 50.863 106.912 50.9727 106.398 50.9727ZM106.398 49.5809C106.705 49.5809 106.966 49.4681 107.179 49.2424C107.398 49.0167 107.508 48.6938 107.508 48.2738C107.508 47.8537 107.401 47.5308 107.188 47.3051C106.981 47.0794 106.724 46.9666 106.417 46.9666C106.104 46.9666 105.843 47.0794 105.636 47.3051C105.43 47.5246 105.326 47.8474 105.326 48.2738C105.326 48.6938 105.426 49.0167 105.627 49.2424C105.834 49.4681 106.091 49.5809 106.398 49.5809ZM112.32 50.9727C111.862 50.9727 111.455 50.8943 111.098 50.7376C110.74 50.5809 110.458 50.3677 110.251 50.0981C110.044 49.8223 109.928 49.5151 109.903 49.1765H111.493C111.511 49.3583 111.596 49.5057 111.746 49.6185C111.897 49.7314 112.082 49.7878 112.301 49.7878C112.502 49.7878 112.655 49.7502 112.762 49.6749C112.875 49.5934 112.931 49.49 112.931 49.3646C112.931 49.2141 112.853 49.1044 112.696 49.0355C112.539 48.9602 112.286 48.8787 111.935 48.791C111.558 48.7032 111.245 48.6123 110.994 48.5183C110.743 48.4179 110.527 48.2643 110.345 48.0575C110.163 47.8443 110.073 47.5591 110.073 47.2017C110.073 46.9008 110.154 46.6281 110.317 46.3836C110.486 46.1328 110.731 45.9353 111.051 45.7911C111.377 45.6469 111.762 45.5748 112.207 45.5748C112.865 45.5748 113.383 45.7378 113.759 46.0638C114.141 46.3898 114.361 46.8224 114.417 47.3616H112.931C112.906 47.1798 112.825 47.0356 112.687 46.929C112.555 46.8224 112.38 46.7691 112.16 46.7691C111.972 46.7691 111.828 46.8067 111.728 46.882C111.627 46.9509 111.577 47.0481 111.577 47.1735C111.577 47.324 111.656 47.4368 111.812 47.512C111.975 47.5873 112.226 47.6625 112.565 47.7377C112.953 47.838 113.27 47.9383 113.514 48.0387C113.759 48.1327 113.972 48.2894 114.154 48.5089C114.342 48.722 114.439 49.0104 114.445 49.374C114.445 49.6812 114.358 49.9571 114.182 50.2016C114.013 50.4398 113.765 50.6279 113.439 50.7658C113.119 50.9037 112.746 50.9727 112.32 50.9727ZM120.564 48.1891C120.564 48.3396 120.554 48.4963 120.536 48.6593H116.896C116.921 48.9853 117.025 49.2361 117.207 49.4116C117.395 49.5809 117.623 49.6655 117.893 49.6655C118.294 49.6655 118.573 49.4963 118.73 49.1577H120.442C120.354 49.5025 120.194 49.8129 119.962 50.0887C119.736 50.3646 119.451 50.5809 119.106 50.7376C118.761 50.8943 118.376 50.9727 117.949 50.9727C117.435 50.9727 116.978 50.863 116.576 50.6436C116.175 50.4241 115.862 50.1107 115.636 49.7032C115.41 49.2957 115.298 48.8192 115.298 48.2738C115.298 47.7283 115.407 47.2519 115.627 46.8443C115.852 46.4368 116.166 46.1234 116.567 45.904C116.968 45.6845 117.429 45.5748 117.949 45.5748C118.457 45.5748 118.909 45.6814 119.304 45.8945C119.699 46.1077 120.006 46.4118 120.225 46.8067C120.451 47.2017 120.564 47.6625 120.564 48.1891ZM118.918 47.7659C118.918 47.4901 118.824 47.2707 118.636 47.1077C118.448 46.9447 118.213 46.8632 117.931 46.8632C117.661 46.8632 117.432 46.9415 117.244 47.0983C117.062 47.255 116.949 47.4775 116.906 47.7659H118.918ZM6.2744 59.65L2.98301 67.3895H1.25267L2.45638 64.7188L0.321681 59.65H2.11784L3.33095 62.932L4.53466 59.65H6.2744ZM9.43259 64.9727C8.91851 64.9727 8.45458 64.863 8.0408 64.6436C7.6333 64.4241 7.31043 64.1107 7.07219 63.7032C6.84023 63.2957 6.72424 62.8192 6.72424 62.2738C6.72424 61.7346 6.84336 61.2613 7.0816 60.8538C7.31983 60.44 7.64583 60.1234 8.05961 59.904C8.47338 59.6845 8.93731 59.5748 9.4514 59.5748C9.96548 59.5748 10.4294 59.6845 10.8432 59.904C11.257 60.1234 11.583 60.44 11.8212 60.8538C12.0594 61.2613 12.1785 61.7346 12.1785 62.2738C12.1785 62.8129 12.0563 63.2894 11.8118 63.7032C11.5736 64.1107 11.2444 64.4241 10.8244 64.6436C10.4106 64.863 9.94667 64.9727 9.43259 64.9727ZM9.43259 63.5809C9.73979 63.5809 9.99996 63.4681 10.2131 63.2424C10.4325 63.0167 10.5423 62.6938 10.5423 62.2738C10.5423 61.8537 10.4357 61.5308 10.2225 61.3051C10.0156 61.0794 9.75859 60.9666 9.4514 60.9666C9.13793 60.9666 8.87775 61.0794 8.67087 61.3051C8.46398 61.5246 8.36054 61.8474 8.36054 62.2738C8.36054 62.6938 8.46085 63.0167 8.66146 63.2424C8.86835 63.4681 9.12539 63.5809 9.43259 63.5809ZM18.4013 59.65V64.8975H16.7933V64.1828C16.6303 64.4147 16.4077 64.6028 16.1256 64.747C15.8497 64.8849 15.5425 64.9539 15.204 64.9539C14.8027 64.9539 14.4485 64.8661 14.1413 64.6906C13.8341 64.5088 13.5959 64.2486 13.4266 63.91C13.2574 63.5715 13.1727 63.1734 13.1727 62.7157V59.65H14.7714V62.4994C14.7714 62.8505 14.8623 63.1232 15.0441 63.3176C15.2259 63.5119 15.4704 63.6091 15.7776 63.6091C16.0911 63.6091 16.3387 63.5119 16.5205 63.3176C16.7024 63.1232 16.7933 62.8505 16.7933 62.4994V59.65H18.4013ZM21.3526 60.5246C21.5406 60.2362 21.7757 60.0105 22.0579 59.8475C22.34 59.6783 22.6534 59.5936 22.9983 59.5936V61.2957H22.5563C22.155 61.2957 21.8541 61.3835 21.6535 61.5591C21.4529 61.7283 21.3526 62.0292 21.3526 62.4618V64.8975H19.7445V59.65H21.3526V60.5246ZM33.6685 59.65L32.2485 64.8975H30.4711L29.6436 61.4932L28.7878 64.8975H27.0199L25.5905 59.65H27.1985L27.9414 63.4022L28.8254 59.65H30.5275L31.4209 63.3834L32.1544 59.65H33.6685ZM34.1501 62.2643C34.1501 61.7252 34.2504 61.2519 34.451 60.8443C34.6579 60.4368 34.9369 60.1234 35.2879 59.904C35.639 59.6845 36.0308 59.5748 36.4634 59.5748C36.8333 59.5748 37.1562 59.65 37.432 59.8005C37.7142 59.951 37.9305 60.1485 38.0809 60.393V59.65H39.689V64.8975H38.0809V64.1545C37.9242 64.3991 37.7048 64.5965 37.4226 64.747C37.1468 64.8975 36.8239 64.9727 36.454 64.9727C36.0277 64.9727 35.639 64.863 35.2879 64.6436C34.9369 64.4179 34.6579 64.1013 34.451 63.6938C34.2504 63.28 34.1501 62.8035 34.1501 62.2643ZM38.0809 62.2738C38.0809 61.8725 37.9681 61.5559 37.7424 61.324C37.5229 61.092 37.2534 60.976 36.9336 60.976C36.6139 60.976 36.3412 61.092 36.1155 61.324C35.8961 61.5496 35.7863 61.8631 35.7863 62.2643C35.7863 62.6656 35.8961 62.9853 36.1155 63.2236C36.3412 63.4555 36.6139 63.5715 36.9336 63.5715C37.2534 63.5715 37.5229 63.4555 37.7424 63.2236C37.9681 62.9916 38.0809 62.675 38.0809 62.2738ZM46.4007 59.65L43.1093 67.3895H41.379L42.5827 64.7188L40.448 59.65H42.2442L43.4573 62.932L44.661 59.65H46.4007Z" fill="#FF6220"/>
</svg>
