<svg width="101" height="106" viewBox="0 0 101 106" fill="none" xmlns="http://www.w3.org/2000/svg">
<path d="M0.966092 6.02439V2.29803H15.3655V6.02439H10.305V23H6.02657V6.02439H0.966092ZM15.1038 23V9.19869H18.6922V11.5679C19.1675 10.7705 19.7656 10.1571 20.4863 9.72774C21.2224 9.28303 22.0811 9.06068 23.0626 9.06068L23.9366 12.603C23.6453 12.511 23.3156 12.465 22.9476 12.465C21.7974 12.465 20.8697 12.8407 20.1643 13.5921C19.4589 14.3282 19.1062 15.3863 19.1062 16.7664V23H15.1038ZM31.991 23.46C30.6262 23.46 29.3764 23.1303 28.2417 22.4709C27.1069 21.8116 26.2021 20.9221 25.5274 19.8027C24.868 18.6833 24.5383 17.4488 24.5383 16.0993C24.5383 14.7345 24.868 13.5001 25.5274 12.396C26.2021 11.2766 27.1069 10.3871 28.2417 9.72774C29.3764 9.06834 30.6262 8.73865 31.991 8.73865C33.3711 8.73865 34.6209 9.06834 35.7404 9.72774C36.8751 10.3871 37.7722 11.2766 38.4316 12.396C39.1063 13.5001 39.4437 14.7345 39.4437 16.0993C39.4437 17.4488 39.1063 18.6833 38.4316 19.8027C37.7722 20.9221 36.8751 21.8116 35.7404 22.4709C34.6209 23.1303 33.3711 23.46 31.991 23.46ZM31.991 19.8717C32.6811 19.8717 33.3021 19.703 33.8542 19.3657C34.4216 19.0283 34.8663 18.5759 35.1883 18.0085C35.5257 17.4258 35.6944 16.7894 35.6944 16.0993C35.6944 15.3939 35.5257 14.7576 35.1883 14.1902C34.8663 13.6228 34.4216 13.1704 33.8542 12.833C33.3021 12.4957 32.6811 12.327 31.991 12.327C31.3009 12.327 30.6722 12.4957 30.1048 12.833C29.5528 13.1704 29.1081 13.6228 28.7707 14.1902C28.4487 14.7576 28.2877 15.3939 28.2877 16.0993C28.2877 16.7894 28.4487 17.4258 28.7707 18.0085C29.1081 18.5759 29.5528 19.0283 30.1048 19.3657C30.6722 19.703 31.3009 19.8717 31.991 19.8717ZM41.7899 29.9007V9.19869H45.2403V10.5558C45.777 10.0191 46.4057 9.59739 47.1264 9.2907C47.8625 8.984 48.6676 8.83065 49.5417 8.83065C50.8298 8.83065 51.9952 9.16035 53.038 9.81975C54.0808 10.4638 54.9089 11.3379 55.5222 12.442C56.151 13.5461 56.4653 14.7652 56.4653 16.0993C56.4653 17.4335 56.151 18.6526 55.5222 19.7567C54.9089 20.8455 54.0808 21.7195 53.038 22.3789C51.9952 23.0383 50.8298 23.368 49.5417 23.368C48.8056 23.368 48.1232 23.253 47.4945 23.023C46.8658 22.8083 46.2984 22.5093 45.7923 22.1259V29.9007H41.7899ZM49.0816 19.8487C49.7564 19.8487 50.3698 19.68 50.9218 19.3427C51.4739 19.0053 51.9109 18.5529 52.2329 17.9855C52.5703 17.4181 52.739 16.7894 52.739 16.0993C52.739 15.4093 52.5703 14.7806 52.2329 14.2132C51.9109 13.6458 51.4739 13.1934 50.9218 12.856C50.3698 12.5187 49.7564 12.35 49.0816 12.35C48.4069 12.35 47.7935 12.5187 47.2415 12.856C46.6894 13.1934 46.2447 13.6458 45.9073 14.2132C45.5853 14.7806 45.4243 15.4093 45.4243 16.0993C45.4243 16.7894 45.5853 17.4181 45.9073 17.9855C46.2447 18.5529 46.6894 19.0053 47.2415 19.3427C47.7935 19.68 48.4069 19.8487 49.0816 19.8487ZM58.8504 23V9.19869H62.8528V23H58.8504ZM60.8516 7.1975C60.2535 7.1975 59.7475 6.99048 59.3334 6.57644C58.9194 6.1624 58.7124 5.65635 58.7124 5.0583C58.7124 4.4449 58.9194 3.93886 59.3334 3.54015C59.7475 3.12611 60.2535 2.91909 60.8516 2.91909C61.465 2.91909 61.971 3.12611 62.3697 3.54015C62.7837 3.93886 62.9908 4.4449 62.9908 5.0583C62.9908 5.65635 62.7837 6.1624 62.3697 6.57644C61.971 6.99048 61.465 7.1975 60.8516 7.1975ZM72.6833 23.46C71.3185 23.46 70.0687 23.1303 68.934 22.4709C67.7992 21.8116 66.8944 20.9221 66.2197 19.8027C65.5603 18.6833 65.2306 17.4488 65.2306 16.0993C65.2306 14.7345 65.5603 13.5001 66.2197 12.396C66.8944 11.2766 67.7992 10.3871 68.934 9.72774C70.0687 9.06834 71.3185 8.73865 72.6833 8.73865C73.6341 8.73865 74.5312 8.89966 75.3746 9.22169C76.2333 9.52839 76.9924 9.98843 77.6518 10.6018L76.6167 14.6732C76.2333 14.0445 75.7196 13.5001 75.0755 13.0401C74.4468 12.5647 73.7031 12.327 72.8443 12.327C72.1236 12.327 71.4795 12.4957 70.9121 12.833C70.3448 13.1704 69.9 13.6228 69.578 14.1902C69.256 14.7576 69.095 15.3939 69.095 16.0993C69.095 16.7894 69.256 17.4258 69.578 18.0085C69.9 18.5759 70.3448 19.0283 70.9121 19.3657C71.4795 19.703 72.1236 19.8717 72.8443 19.8717C73.7031 19.8717 74.4468 19.6417 75.0755 19.1816C75.7196 18.7063 76.2333 18.1542 76.6167 17.5255L77.6518 21.5969C76.9924 22.2103 76.2333 22.678 75.3746 23C74.5312 23.3067 73.6341 23.46 72.6833 23.46ZM85.9433 23.368C84.6706 23.368 83.5128 23.0383 82.47 22.3789C81.4273 21.7195 80.5915 20.8455 79.9628 19.7567C79.3494 18.6526 79.0427 17.4335 79.0427 16.0993C79.0427 14.7652 79.3494 13.5461 79.9628 12.442C80.5915 11.3379 81.4273 10.4638 82.47 9.81975C83.5128 9.16035 84.6706 8.83065 85.9433 8.83065C86.8328 8.83065 87.6455 8.99167 88.3816 9.3137C89.1177 9.6204 89.7464 10.0498 90.2678 10.6018V9.19869H93.7181V23H90.2678V21.5969C89.7464 22.1489 89.1177 22.586 88.3816 22.908C87.6455 23.2147 86.8328 23.368 85.9433 23.368ZM86.4264 19.8487C87.1011 19.8487 87.7145 19.68 88.2666 19.3427C88.8186 19.0053 89.2557 18.5529 89.5777 17.9855C89.9151 17.4181 90.0837 16.7894 90.0837 16.0993C90.0837 15.4093 89.9151 14.7806 89.5777 14.2132C89.2557 13.6458 88.8186 13.1934 88.2666 12.856C87.7145 12.5187 87.1011 12.35 86.4264 12.35C85.7517 12.35 85.1383 12.5187 84.5862 12.856C84.0342 13.1934 83.5895 13.6458 83.2521 14.2132C82.9301 14.7806 82.769 15.4093 82.769 16.0993C82.769 16.7894 82.9301 17.4181 83.2521 17.9855C83.5895 18.5529 84.0342 19.0053 84.5862 19.3427C85.1383 19.68 85.7517 19.8487 86.4264 19.8487ZM96.7932 23V0.917902H100.796V23H96.7932ZM7.52171 61.46C6.26426 61.46 5.06815 61.23 3.93337 60.77C2.81393 60.2946 1.91685 59.7272 1.24212 59.0678L2.36923 54.4674C2.90594 55.4028 3.66502 56.1849 4.64644 56.8136C5.62787 57.427 6.6323 57.7337 7.65973 57.7337C8.50314 57.7337 9.16254 57.5037 9.63792 57.0436C10.1286 56.5836 10.374 56.0239 10.374 55.3645C10.374 54.8277 10.2436 54.383 9.98295 54.0303C9.73759 53.6776 9.43856 53.3863 9.08586 53.1563C8.7485 52.9262 8.44947 52.7499 8.18878 52.6272L5.75055 51.4081C5.04515 51.0554 4.37042 50.6413 3.72635 50.166C3.08229 49.6753 2.55324 49.0695 2.1392 48.3488C1.7405 47.6281 1.54115 46.7386 1.54115 45.6805C1.54115 44.5151 1.80184 43.4953 2.32322 42.6213C2.85994 41.7472 3.61134 41.0648 4.57743 40.5741C5.54353 40.0833 6.6783 39.838 7.98176 39.838C9.20854 39.838 10.2973 40.0373 11.2481 40.436C12.2142 40.8194 12.9962 41.2335 13.5943 41.6782L12.5362 46.1636C11.9228 45.3662 11.1867 44.7298 10.328 44.2544C9.48457 43.7637 8.64115 43.5183 7.79774 43.5183C7.04634 43.5183 6.46361 43.71 6.04957 44.0934C5.65087 44.4768 5.45152 44.9521 5.45152 45.5195C5.45152 45.8722 5.52819 46.1866 5.68154 46.4626C5.85022 46.7386 6.08791 46.984 6.39461 47.1987C6.7013 47.4134 7.06167 47.6281 7.47571 47.8428L9.93694 49.0619C10.351 49.2612 10.8034 49.5219 11.2941 49.8439C11.7848 50.1506 12.2602 50.5417 12.7202 51.0171C13.1803 51.4924 13.556 52.0675 13.8473 52.7422C14.1387 53.4016 14.2844 54.1914 14.2844 55.1114C14.2844 56.3076 14.0083 57.3887 13.4563 58.3547C12.9042 59.3055 12.1222 60.0646 11.1101 60.632C10.1133 61.184 8.91718 61.46 7.52171 61.46ZM22.0253 61.46C21.0592 61.46 20.1468 61.23 19.2881 60.77C18.4293 60.2946 17.7316 59.6122 17.1949 58.7228C16.6735 57.818 16.4128 56.7293 16.4128 55.4565V47.1987H20.4152V54.9274C20.4152 55.6942 20.6452 56.3766 21.1052 56.9746C21.5806 57.5727 22.24 57.8717 23.0834 57.8717C23.7735 57.8717 24.3869 57.6263 24.9236 57.1356C25.4756 56.6296 25.7517 55.9088 25.7517 54.9734V47.1987H29.754V61H26.1197V59.5509C25.629 60.1643 25.0233 60.6396 24.3025 60.977C23.5971 61.299 22.8381 61.46 22.0253 61.46ZM32.7975 61V47.1987H36.3859V48.7168C36.8766 48.0728 37.4823 47.5821 38.203 47.2447C38.9238 46.9073 39.6982 46.7386 40.5263 46.7386C41.5077 46.7386 42.4201 46.9763 43.2635 47.4517C44.1223 47.9118 44.8123 48.5942 45.3337 49.4989C45.8704 50.3883 46.1388 51.4694 46.1388 52.7422V61H42.1364V53.2713C42.1364 52.5045 41.9064 51.8221 41.4463 51.2241C40.9863 50.626 40.3269 50.327 39.4682 50.327C38.7781 50.327 38.157 50.5647 37.605 51.0401C37.0683 51.5001 36.7999 52.2285 36.7999 53.2253V61H32.7975ZM48.9062 61V47.1987H52.4946V48.7168C52.9853 48.0728 53.591 47.5821 54.3117 47.2447C55.0325 46.9073 55.8069 46.7386 56.635 46.7386C57.6164 46.7386 58.5288 46.9763 59.3722 47.4517C60.231 47.9118 60.921 48.5942 61.4424 49.4989C61.9791 50.3883 62.2475 51.4694 62.2475 52.7422V61H58.2451V53.2713C58.2451 52.5045 58.0151 51.8221 57.5551 51.2241C57.095 50.626 56.4356 50.327 55.5769 50.327C54.8868 50.327 54.2657 50.5647 53.7137 51.0401C53.177 51.5001 52.9086 52.2285 52.9086 53.2253V61H48.9062ZM63.9906 67.9007L68.5911 58.6538L62.9555 47.1987H67.372L69.8102 52.2592C70.0249 52.7192 70.2089 53.1409 70.3622 53.5243C70.5309 53.8923 70.6689 54.2527 70.7763 54.6054C70.899 54.2527 71.0446 53.8923 71.2133 53.5243C71.382 53.1409 71.5814 52.7192 71.8114 52.2592L74.2956 47.1987H78.551L68.292 67.9007H63.9906ZM7.52171 99.46C6.26426 99.46 5.06815 99.23 3.93337 98.77C2.81393 98.2946 1.91685 97.7272 1.24212 97.0678L2.36923 92.4674C2.90594 93.4028 3.66502 94.1849 4.64644 94.8136C5.62787 95.427 6.6323 95.7337 7.65973 95.7337C8.50314 95.7337 9.16254 95.5037 9.63792 95.0436C10.1286 94.5836 10.374 94.0239 10.374 93.3645C10.374 92.8277 10.2436 92.383 9.98295 92.0303C9.73759 91.6776 9.43856 91.3863 9.08586 91.1563C8.7485 90.9262 8.44947 90.7499 8.18878 90.6272L5.75055 89.4081C5.04515 89.0554 4.37042 88.6413 3.72635 88.166C3.08229 87.6753 2.55324 87.0695 2.1392 86.3488C1.7405 85.6281 1.54115 84.7386 1.54115 83.6805C1.54115 82.5151 1.80184 81.4953 2.32322 80.6213C2.85994 79.7472 3.61134 79.0648 4.57743 78.5741C5.54353 78.0833 6.6783 77.838 7.98176 77.838C9.20854 77.838 10.2973 78.0373 11.2481 78.436C12.2142 78.8194 12.9962 79.2335 13.5943 79.6782L12.5362 84.1636C11.9228 83.3662 11.1867 82.7298 10.328 82.2544C9.48457 81.7637 8.64115 81.5183 7.79774 81.5183C7.04634 81.5183 6.46361 81.71 6.04957 82.0934C5.65087 82.4768 5.45152 82.9521 5.45152 83.5195C5.45152 83.8722 5.52819 84.1866 5.68154 84.4626C5.85022 84.7386 6.08791 84.984 6.39461 85.1987C6.7013 85.4134 7.06167 85.6281 7.47571 85.8428L9.93694 87.0619C10.351 87.2612 10.8034 87.5219 11.2941 87.8439C11.7848 88.1506 12.2602 88.5417 12.7202 89.0171C13.1803 89.4924 13.556 90.0675 13.8473 90.7422C14.1387 91.4016 14.2844 92.1914 14.2844 93.1114C14.2844 94.3076 14.0083 95.3887 13.4563 96.3547C12.9042 97.3055 12.1222 98.0646 11.1101 98.632C10.1133 99.184 8.91718 99.46 7.52171 99.46ZM16.6888 105.901V85.1987H20.1391V86.5558C20.6758 86.0191 21.3046 85.5974 22.0253 85.2907C22.7614 84.984 23.5665 84.8307 24.4405 84.8307C25.7287 84.8307 26.8941 85.1604 27.9369 85.8197C28.9796 86.4638 29.8077 87.3379 30.4211 88.442C31.0498 89.5461 31.3642 90.7652 31.3642 92.0993C31.3642 93.4335 31.0498 94.6526 30.4211 95.7567C29.8077 96.8455 28.9796 97.7195 27.9369 98.3789C26.8941 99.0383 25.7287 99.368 24.4405 99.368C23.7045 99.368 23.0221 99.253 22.3933 99.023C21.7646 98.8083 21.1972 98.5093 20.6912 98.1259V105.901H16.6888ZM23.9805 95.8487C24.6552 95.8487 25.2686 95.68 25.8207 95.3427C26.3727 95.0053 26.8098 94.5529 27.1318 93.9855C27.4692 93.4181 27.6378 92.7894 27.6378 92.0993C27.6378 91.4093 27.4692 90.7806 27.1318 90.2132C26.8098 89.6458 26.3727 89.1934 25.8207 88.856C25.2686 88.5187 24.6552 88.35 23.9805 88.35C23.3058 88.35 22.6924 88.5187 22.1403 88.856C21.5883 89.1934 21.1436 89.6458 20.8062 90.2132C20.4842 90.7806 20.3231 91.4093 20.3231 92.0993C20.3231 92.7894 20.4842 93.4181 20.8062 93.9855C21.1436 94.5529 21.5883 95.0053 22.1403 95.3427C22.6924 95.68 23.3058 95.8487 23.9805 95.8487ZM33.7492 99V76.9179H37.7516V99H33.7492ZM47.0301 99.368C45.7573 99.368 44.5996 99.0383 43.5568 98.3789C42.514 97.7195 41.6783 96.8455 41.0496 95.7567C40.4362 94.6526 40.1295 93.4335 40.1295 92.0993C40.1295 90.7652 40.4362 89.5461 41.0496 88.442C41.6783 87.3379 42.514 86.4638 43.5568 85.8197C44.5996 85.1604 45.7573 84.8307 47.0301 84.8307C47.9195 84.8307 48.7323 84.9917 49.4684 85.3137C50.2044 85.6204 50.8332 86.0498 51.3545 86.6018V85.1987H54.8049V99H51.3545V97.5969C50.8332 98.1489 50.2044 98.586 49.4684 98.908C48.7323 99.2147 47.9195 99.368 47.0301 99.368ZM47.5132 95.8487C48.1879 95.8487 48.8013 95.68 49.3533 95.3427C49.9054 95.0053 50.3424 94.5529 50.6645 93.9855C51.0018 93.4181 51.1705 92.7894 51.1705 92.0993C51.1705 91.4093 51.0018 90.7806 50.6645 90.2132C50.3424 89.6458 49.9054 89.1934 49.3533 88.856C48.8013 88.5187 48.1879 88.35 47.5132 88.35C46.8384 88.35 46.225 88.5187 45.673 88.856C45.1209 89.1934 44.6762 89.6458 44.3389 90.2132C44.0168 90.7806 43.8558 91.4093 43.8558 92.0993C43.8558 92.7894 44.0168 93.4181 44.3389 93.9855C44.6762 94.5529 45.1209 95.0053 45.673 95.3427C46.225 95.68 46.8384 95.8487 47.5132 95.8487ZM62.3654 99.46C61.43 99.46 60.4792 99.3067 59.5131 99C58.5624 98.6933 57.8186 98.2793 57.2819 97.7579L58.271 93.9855C58.7157 94.5989 59.3291 95.1356 60.1112 95.5957C60.9086 96.0557 61.729 96.2857 62.5724 96.2857C63.1398 96.2857 63.5462 96.1784 63.7915 95.9637C64.0522 95.749 64.1826 95.4883 64.1826 95.1816C64.1826 94.8289 64.0522 94.5759 63.7915 94.4226C63.5308 94.2539 63.2625 94.1159 62.9865 94.0085L61.0543 93.2725C60.6249 93.1038 60.1342 92.8738 59.5821 92.5824C59.0301 92.291 58.547 91.877 58.133 91.3403C57.7343 90.8036 57.5349 90.0982 57.5349 89.2241C57.5349 88.4267 57.7343 87.6906 58.133 87.0159C58.5317 86.3411 59.1068 85.7967 59.8582 85.3827C60.6249 84.9533 61.545 84.7386 62.6184 84.7386C63.6152 84.7386 64.5429 84.9073 65.4017 85.2447C66.2758 85.5821 66.9122 85.9578 67.3109 86.3718L66.3908 90.0061C65.8694 89.3314 65.2483 88.8177 64.5276 88.465C63.8222 88.097 63.1475 87.9129 62.5034 87.9129C62.0127 87.9129 61.6523 88.0126 61.4223 88.212C61.1923 88.4113 61.0773 88.6413 61.0773 88.902C61.0773 89.1014 61.1539 89.3007 61.3073 89.5001C61.476 89.6841 61.752 89.8528 62.1354 90.0061L63.9295 90.6732C64.4509 90.8572 65.003 91.1026 65.5857 91.4093C66.1838 91.716 66.6898 92.1453 67.1038 92.6974C67.5179 93.2341 67.7249 93.9779 67.7249 94.9286C67.7249 96.2627 67.2265 97.3515 66.2298 98.1949C65.2483 99.0383 63.9602 99.46 62.3654 99.46ZM70.0287 99V76.9179H74.0311V86.2338C74.5218 85.7431 75.0815 85.375 75.7103 85.1297C76.3543 84.869 77.0367 84.7386 77.7575 84.7386C78.7389 84.7386 79.6513 84.9763 80.4947 85.4517C81.3535 85.9118 82.0435 86.5942 82.5649 87.4989C83.1016 88.3883 83.37 89.4694 83.37 90.7422V99H79.3676V91.2713C79.3676 90.5045 79.1376 89.8221 78.6775 89.2241C78.2175 88.626 77.5581 88.327 76.6994 88.327C76.0093 88.327 75.3882 88.5647 74.8362 89.0401C74.2995 89.5001 74.0311 90.2285 74.0311 91.2253V99H70.0287Z" fill="black"/>
</svg>
