<svg width="160" height="41" viewBox="0 0 160 41" fill="none" xmlns="http://www.w3.org/2000/svg">
<path d="M3.912 5.76H1.48L1.032 7H0.264L2.28 1.456H3.12L5.128 7H4.36L3.912 5.76ZM3.704 5.168L2.696 2.352L1.688 5.168H3.704ZM8.50744 4.8C8.50744 4.34667 8.5981 3.952 8.77944 3.616C8.96077 3.27467 9.21144 3.01067 9.53144 2.824C9.85677 2.63733 10.2274 2.544 10.6434 2.544C11.1821 2.544 11.6248 2.67467 11.9714 2.936C12.3234 3.19733 12.5554 3.56 12.6674 4.024H11.8834C11.8088 3.75733 11.6621 3.54667 11.4434 3.392C11.2301 3.23733 10.9634 3.16 10.6434 3.16C10.2274 3.16 9.89144 3.304 9.63544 3.592C9.37944 3.87467 9.25144 4.27733 9.25144 4.8C9.25144 5.328 9.37944 5.736 9.63544 6.024C9.89144 6.312 10.2274 6.456 10.6434 6.456C10.9634 6.456 11.2301 6.38133 11.4434 6.232C11.6568 6.08267 11.8034 5.86933 11.8834 5.592H12.6674C12.5501 6.04 12.3154 6.4 11.9634 6.672C11.6114 6.93867 11.1714 7.072 10.6434 7.072C10.2274 7.072 9.85677 6.97867 9.53144 6.792C9.21144 6.60533 8.96077 6.34133 8.77944 6C8.5981 5.65867 8.50744 5.25867 8.50744 4.8ZM15.8708 7.072C15.4601 7.072 15.0868 6.97867 14.7508 6.792C14.4201 6.60533 14.1588 6.34133 13.9668 6C13.7801 5.65333 13.6868 5.25333 13.6868 4.8C13.6868 4.352 13.7828 3.95733 13.9748 3.616C14.1721 3.26933 14.4388 3.00533 14.7748 2.824C15.1108 2.63733 15.4868 2.544 15.9028 2.544C16.3188 2.544 16.6948 2.63733 17.0308 2.824C17.3668 3.00533 17.6308 3.26667 17.8228 3.608C18.0201 3.94933 18.1188 4.34667 18.1188 4.8C18.1188 5.25333 18.0175 5.65333 17.8148 6C17.6175 6.34133 17.3481 6.60533 17.0068 6.792C16.6655 6.97867 16.2868 7.072 15.8708 7.072ZM15.8708 6.432C16.1321 6.432 16.3775 6.37067 16.6068 6.248C16.8361 6.12533 17.0201 5.94133 17.1588 5.696C17.3028 5.45067 17.3748 5.152 17.3748 4.8C17.3748 4.448 17.3055 4.14933 17.1668 3.904C17.0281 3.65867 16.8468 3.47733 16.6228 3.36C16.3988 3.23733 16.1561 3.176 15.8948 3.176C15.6281 3.176 15.3828 3.23733 15.1588 3.36C14.9401 3.47733 14.7641 3.65867 14.6308 3.904C14.4975 4.14933 14.4308 4.448 14.4308 4.8C14.4308 5.15733 14.4948 5.45867 14.6228 5.704C14.7561 5.94933 14.9321 6.13333 15.1508 6.256C15.3695 6.37333 15.6095 6.432 15.8708 6.432ZM24.668 2.536C25.0093 2.536 25.3133 2.608 25.58 2.752C25.8467 2.89067 26.0573 3.10133 26.212 3.384C26.3667 3.66667 26.444 4.01067 26.444 4.416V7H25.724V4.52C25.724 4.08267 25.6147 3.74933 25.396 3.52C25.1827 3.28533 24.892 3.168 24.524 3.168C24.1453 3.168 23.844 3.29067 23.62 3.536C23.396 3.776 23.284 4.12533 23.284 4.584V7H22.564V4.52C22.564 4.08267 22.4547 3.74933 22.236 3.52C22.0227 3.28533 21.732 3.168 21.364 3.168C20.9853 3.168 20.684 3.29067 20.46 3.536C20.236 3.776 20.124 4.12533 20.124 4.584V7H19.396V2.616H20.124V3.248C20.268 3.01867 20.46 2.84267 20.7 2.72C20.9453 2.59733 21.2147 2.536 21.508 2.536C21.876 2.536 22.2013 2.61867 22.484 2.784C22.7667 2.94933 22.9773 3.192 23.116 3.512C23.2387 3.20267 23.4413 2.96267 23.724 2.792C24.0067 2.62133 24.3213 2.536 24.668 2.536ZM28.6862 3.432C28.8355 3.17067 29.0542 2.95733 29.3422 2.792C29.6302 2.62667 29.9582 2.544 30.3262 2.544C30.7209 2.544 31.0755 2.63733 31.3902 2.824C31.7049 3.01067 31.9529 3.27467 32.1342 3.616C32.3155 3.952 32.4062 4.344 32.4062 4.792C32.4062 5.23467 32.3155 5.62933 32.1342 5.976C31.9529 6.32267 31.7022 6.592 31.3822 6.784C31.0675 6.976 30.7155 7.072 30.3262 7.072C29.9475 7.072 29.6142 6.98933 29.3262 6.824C29.0435 6.65867 28.8302 6.448 28.6862 6.192V7H27.9582V1.08H28.6862V3.432ZM31.6622 4.792C31.6622 4.46133 31.5955 4.17333 31.4622 3.928C31.3289 3.68267 31.1475 3.496 30.9182 3.368C30.6942 3.24 30.4462 3.176 30.1742 3.176C29.9075 3.176 29.6595 3.24267 29.4302 3.376C29.2062 3.504 29.0249 3.69333 28.8862 3.944C28.7529 4.18933 28.6862 4.47467 28.6862 4.8C28.6862 5.13067 28.7529 5.42133 28.8862 5.672C29.0249 5.91733 29.2062 6.10667 29.4302 6.24C29.6595 6.368 29.9075 6.432 30.1742 6.432C30.4462 6.432 30.6942 6.368 30.9182 6.24C31.1475 6.10667 31.3289 5.91733 31.4622 5.672C31.5955 5.42133 31.6622 5.128 31.6622 4.792ZM34.0604 1.904C33.9218 1.904 33.8044 1.856 33.7084 1.76C33.6124 1.664 33.5644 1.54667 33.5644 1.408C33.5644 1.26933 33.6124 1.152 33.7084 1.056C33.8044 0.96 33.9218 0.912 34.0604 0.912C34.1938 0.912 34.3058 0.96 34.3964 1.056C34.4924 1.152 34.5404 1.26933 34.5404 1.408C34.5404 1.54667 34.4924 1.664 34.3964 1.76C34.3058 1.856 34.1938 1.904 34.0604 1.904ZM34.4124 2.616V7H33.6844V2.616H34.4124ZM38.1092 2.536C38.6425 2.536 39.0745 2.69867 39.4052 3.024C39.7359 3.344 39.9012 3.808 39.9012 4.416V7H39.1812V4.52C39.1812 4.08267 39.0719 3.74933 38.8532 3.52C38.6345 3.28533 38.3359 3.168 37.9572 3.168C37.5732 3.168 37.2665 3.288 37.0372 3.528C36.8132 3.768 36.7012 4.11733 36.7012 4.576V7H35.9732V2.616H36.7012V3.24C36.8452 3.016 37.0399 2.84267 37.2852 2.72C37.5359 2.59733 37.8105 2.536 38.1092 2.536ZM41.1384 4.792C41.1384 4.344 41.229 3.952 41.4104 3.616C41.5917 3.27467 41.8397 3.01067 42.1544 2.824C42.4744 2.63733 42.829 2.544 43.2184 2.544C43.6024 2.544 43.9357 2.62667 44.2184 2.792C44.501 2.95733 44.7117 3.16533 44.8504 3.416V2.616H45.5864V7H44.8504V6.184C44.7064 6.44 44.4904 6.65333 44.2024 6.824C43.9197 6.98933 43.589 7.072 43.2104 7.072C42.821 7.072 42.469 6.976 42.1544 6.784C41.8397 6.592 41.5917 6.32267 41.4104 5.976C41.229 5.62933 41.1384 5.23467 41.1384 4.792ZM44.8504 4.8C44.8504 4.46933 44.7837 4.18133 44.6504 3.936C44.517 3.69067 44.3357 3.504 44.1064 3.376C43.8824 3.24267 43.6344 3.176 43.3624 3.176C43.0904 3.176 42.8424 3.24 42.6184 3.368C42.3944 3.496 42.2157 3.68267 42.0824 3.928C41.949 4.17333 41.8824 4.46133 41.8824 4.792C41.8824 5.128 41.949 5.42133 42.0824 5.672C42.2157 5.91733 42.3944 6.10667 42.6184 6.24C42.8424 6.368 43.0904 6.432 43.3624 6.432C43.6344 6.432 43.8824 6.368 44.1064 6.24C44.3357 6.10667 44.517 5.91733 44.6504 5.672C44.7837 5.42133 44.8504 5.13067 44.8504 4.8ZM48.0246 3.216V5.8C48.0246 6.01333 48.07 6.16533 48.1606 6.256C48.2513 6.34133 48.4086 6.384 48.6326 6.384H49.1686V7H48.5126C48.1073 7 47.8033 6.90667 47.6006 6.72C47.398 6.53333 47.2966 6.22667 47.2966 5.8V3.216H46.7286V2.616H47.2966V1.512H48.0246V2.616H49.1686V3.216H48.0246ZM50.7467 1.904C50.608 1.904 50.4907 1.856 50.3947 1.76C50.2987 1.664 50.2507 1.54667 50.2507 1.408C50.2507 1.26933 50.2987 1.152 50.3947 1.056C50.4907 0.96 50.608 0.912 50.7467 0.912C50.88 0.912 50.992 0.96 51.0827 1.056C51.1787 1.152 51.2267 1.26933 51.2267 1.408C51.2267 1.54667 51.1787 1.664 51.0827 1.76C50.992 1.856 50.88 1.904 50.7467 1.904ZM51.0987 2.616V7H50.3707V2.616H51.0987ZM54.5714 7.072C54.1608 7.072 53.7874 6.97867 53.4514 6.792C53.1208 6.60533 52.8594 6.34133 52.6674 6C52.4808 5.65333 52.3874 5.25333 52.3874 4.8C52.3874 4.352 52.4834 3.95733 52.6754 3.616C52.8728 3.26933 53.1394 3.00533 53.4754 2.824C53.8114 2.63733 54.1874 2.544 54.6034 2.544C55.0194 2.544 55.3954 2.63733 55.7314 2.824C56.0674 3.00533 56.3314 3.26667 56.5234 3.608C56.7208 3.94933 56.8194 4.34667 56.8194 4.8C56.8194 5.25333 56.7181 5.65333 56.5154 6C56.3181 6.34133 56.0488 6.60533 55.7074 6.792C55.3661 6.97867 54.9874 7.072 54.5714 7.072ZM54.5714 6.432C54.8328 6.432 55.0781 6.37067 55.3074 6.248C55.5368 6.12533 55.7208 5.94133 55.8594 5.696C56.0034 5.45067 56.0754 5.152 56.0754 4.8C56.0754 4.448 56.0061 4.14933 55.8674 3.904C55.7288 3.65867 55.5474 3.47733 55.3234 3.36C55.0994 3.23733 54.8568 3.176 54.5954 3.176C54.3288 3.176 54.0834 3.23733 53.8594 3.36C53.6408 3.47733 53.4648 3.65867 53.3314 3.904C53.1981 4.14933 53.1314 4.448 53.1314 4.8C53.1314 5.15733 53.1954 5.45867 53.3234 5.704C53.4568 5.94933 53.6328 6.13333 53.8514 6.256C54.0701 6.37333 54.3101 6.432 54.5714 6.432ZM60.2326 2.536C60.766 2.536 61.198 2.69867 61.5286 3.024C61.8593 3.344 62.0246 3.808 62.0246 4.416V7H61.3046V4.52C61.3046 4.08267 61.1953 3.74933 60.9766 3.52C60.758 3.28533 60.4593 3.168 60.0806 3.168C59.6966 3.168 59.39 3.288 59.1606 3.528C58.9366 3.768 58.8246 4.11733 58.8246 4.576V7H58.0966V2.616H58.8246V3.24C58.9686 3.016 59.1633 2.84267 59.4086 2.72C59.6593 2.59733 59.934 2.536 60.2326 2.536ZM67.8986 7.072C67.488 7.072 67.1146 6.97867 66.7786 6.792C66.448 6.60533 66.1866 6.34133 65.9946 6C65.808 5.65333 65.7146 5.25333 65.7146 4.8C65.7146 4.352 65.8106 3.95733 66.0026 3.616C66.2 3.26933 66.4666 3.00533 66.8026 2.824C67.1386 2.63733 67.5146 2.544 67.9306 2.544C68.3466 2.544 68.7226 2.63733 69.0586 2.824C69.3946 3.00533 69.6586 3.26667 69.8506 3.608C70.048 3.94933 70.1466 4.34667 70.1466 4.8C70.1466 5.25333 70.0453 5.65333 69.8426 6C69.6453 6.34133 69.376 6.60533 69.0346 6.792C68.6933 6.97867 68.3146 7.072 67.8986 7.072ZM67.8986 6.432C68.16 6.432 68.4053 6.37067 68.6346 6.248C68.864 6.12533 69.048 5.94133 69.1866 5.696C69.3306 5.45067 69.4026 5.152 69.4026 4.8C69.4026 4.448 69.3333 4.14933 69.1946 3.904C69.056 3.65867 68.8746 3.47733 68.6506 3.36C68.4266 3.23733 68.184 3.176 67.9226 3.176C67.656 3.176 67.4106 3.23733 67.1866 3.36C66.968 3.47733 66.792 3.65867 66.6586 3.904C66.5253 4.14933 66.4586 4.448 66.4586 4.8C66.4586 5.15733 66.5226 5.45867 66.6506 5.704C66.784 5.94933 66.96 6.13333 67.1786 6.256C67.3973 6.37333 67.6373 6.432 67.8986 6.432ZM73.2078 3.216H72.2878V7H71.5598V3.216H70.9918V2.616H71.5598V2.304C71.5598 1.81333 71.6851 1.456 71.9358 1.232C72.1918 1.00267 72.5998 0.888 73.1598 0.888V1.496C72.8398 1.496 72.6131 1.56 72.4798 1.688C72.3518 1.81067 72.2878 2.016 72.2878 2.304V2.616H73.2078V3.216ZM78.3814 7.072C78.0454 7.072 77.7441 7.016 77.4774 6.904C77.2108 6.78667 77.0001 6.62667 76.8454 6.424C76.6908 6.216 76.6054 5.97867 76.5894 5.712H77.3414C77.3628 5.93067 77.4641 6.10933 77.6454 6.248C77.8321 6.38667 78.0748 6.456 78.3734 6.456C78.6508 6.456 78.8694 6.39467 79.0294 6.272C79.1894 6.14933 79.2694 5.99467 79.2694 5.808C79.2694 5.616 79.1841 5.47467 79.0134 5.384C78.8428 5.288 78.5788 5.19467 78.2214 5.104C77.8961 5.01867 77.6294 4.93333 77.4214 4.848C77.2188 4.75733 77.0428 4.62667 76.8934 4.456C76.7494 4.28 76.6774 4.05067 76.6774 3.768C76.6774 3.544 76.7441 3.33867 76.8774 3.152C77.0108 2.96533 77.2001 2.81867 77.4454 2.712C77.6908 2.6 77.9708 2.544 78.2854 2.544C78.7708 2.544 79.1628 2.66667 79.4614 2.912C79.7601 3.15733 79.9201 3.49333 79.9414 3.92H79.2134C79.1974 3.69067 79.1041 3.50667 78.9334 3.368C78.7681 3.22933 78.5441 3.16 78.2614 3.16C78.0001 3.16 77.7921 3.216 77.6374 3.328C77.4828 3.44 77.4054 3.58667 77.4054 3.768C77.4054 3.912 77.4508 4.032 77.5414 4.128C77.6374 4.21867 77.7548 4.29333 77.8934 4.352C78.0374 4.40533 78.2348 4.46667 78.4854 4.536C78.8001 4.62133 79.0561 4.70667 79.2534 4.792C79.4508 4.872 79.6188 4.99467 79.7574 5.16C79.9014 5.32533 79.9761 5.54133 79.9814 5.808C79.9814 6.048 79.9148 6.264 79.7814 6.456C79.6481 6.648 79.4588 6.8 79.2134 6.912C78.9734 7.01867 78.6961 7.072 78.3814 7.072ZM87.1691 2.616L85.8011 7H85.0491L83.9931 3.52L82.9371 7H82.1851L80.8091 2.616H81.5531L82.5611 6.296L83.6491 2.616H84.3931L85.4571 6.304L86.4491 2.616H87.1691ZM92.2116 4.64C92.2116 4.77867 92.2036 4.92533 92.1876 5.08H88.6836C88.7103 5.512 88.857 5.85067 89.1236 6.096C89.3956 6.336 89.7236 6.456 90.1076 6.456C90.4223 6.456 90.6836 6.384 90.8916 6.24C91.105 6.09067 91.2543 5.89333 91.3396 5.648H92.1236C92.0063 6.06933 91.7716 6.41333 91.4196 6.68C91.0676 6.94133 90.6303 7.072 90.1076 7.072C89.6916 7.072 89.3183 6.97867 88.9876 6.792C88.6623 6.60533 88.4063 6.34133 88.2196 6C88.033 5.65333 87.9396 5.25333 87.9396 4.8C87.9396 4.34667 88.0303 3.94933 88.2116 3.608C88.393 3.26667 88.6463 3.00533 88.9716 2.824C89.3023 2.63733 89.681 2.544 90.1076 2.544C90.5236 2.544 90.8916 2.63467 91.2116 2.816C91.5316 2.99733 91.777 3.248 91.9476 3.568C92.1236 3.88267 92.2116 4.24 92.2116 4.64ZM91.4596 4.488C91.4596 4.21067 91.3983 3.97333 91.2756 3.776C91.153 3.57333 90.985 3.42133 90.7716 3.32C90.5636 3.21333 90.3316 3.16 90.0756 3.16C89.7076 3.16 89.393 3.27733 89.1316 3.512C88.8756 3.74667 88.729 4.072 88.6916 4.488H91.4596ZM97.4926 4.64C97.4926 4.77867 97.4846 4.92533 97.4686 5.08H93.9646C93.9912 5.512 94.1379 5.85067 94.4046 6.096C94.6766 6.336 95.0046 6.456 95.3886 6.456C95.7032 6.456 95.9646 6.384 96.1726 6.24C96.3859 6.09067 96.5352 5.89333 96.6206 5.648H97.4046C97.2872 6.06933 97.0526 6.41333 96.7006 6.68C96.3486 6.94133 95.9112 7.072 95.3886 7.072C94.9726 7.072 94.5992 6.97867 94.2686 6.792C93.9432 6.60533 93.6872 6.34133 93.5006 6C93.3139 5.65333 93.2206 5.25333 93.2206 4.8C93.2206 4.34667 93.3112 3.94933 93.4926 3.608C93.6739 3.26667 93.9272 3.00533 94.2526 2.824C94.5832 2.63733 94.9619 2.544 95.3886 2.544C95.8046 2.544 96.1726 2.63467 96.4926 2.816C96.8126 2.99733 97.0579 3.248 97.2286 3.568C97.4046 3.88267 97.4926 4.24 97.4926 4.64ZM96.7406 4.488C96.7406 4.21067 96.6792 3.97333 96.5566 3.776C96.4339 3.57333 96.2659 3.42133 96.0526 3.32C95.8446 3.21333 95.6126 3.16 95.3566 3.16C94.9886 3.16 94.6739 3.27733 94.4126 3.512C94.1566 3.74667 94.0099 4.072 93.9726 4.488H96.7406ZM99.6615 3.216V5.8C99.6615 6.01333 99.7068 6.16533 99.7975 6.256C99.8882 6.34133 100.046 6.384 100.27 6.384H100.806V7H100.15C99.7442 7 99.4402 6.90667 99.2375 6.72C99.0348 6.53333 98.9335 6.22667 98.9335 5.8V3.216H98.3655V2.616H98.9335V1.512H99.6615V2.616H100.806V3.216H99.6615ZM109.732 2.536C110.074 2.536 110.378 2.608 110.644 2.752C110.911 2.89067 111.122 3.10133 111.276 3.384C111.431 3.66667 111.508 4.01067 111.508 4.416V7H110.788V4.52C110.788 4.08267 110.679 3.74933 110.46 3.52C110.247 3.28533 109.956 3.168 109.588 3.168C109.21 3.168 108.908 3.29067 108.684 3.536C108.46 3.776 108.348 4.12533 108.348 4.584V7H107.628V4.52C107.628 4.08267 107.519 3.74933 107.3 3.52C107.087 3.28533 106.796 3.168 106.428 3.168C106.05 3.168 105.748 3.29067 105.524 3.536C105.3 3.776 105.188 4.12533 105.188 4.584V7H104.46V2.616H105.188V3.248C105.332 3.01867 105.524 2.84267 105.764 2.72C106.01 2.59733 106.279 2.536 106.572 2.536C106.94 2.536 107.266 2.61867 107.548 2.784C107.831 2.94933 108.042 3.192 108.18 3.512C108.303 3.20267 108.506 2.96267 108.788 2.792C109.071 2.62133 109.386 2.536 109.732 2.536ZM112.751 4.792C112.751 4.344 112.841 3.952 113.023 3.616C113.204 3.27467 113.452 3.01067 113.767 2.824C114.087 2.63733 114.441 2.544 114.831 2.544C115.215 2.544 115.548 2.62667 115.831 2.792C116.113 2.95733 116.324 3.16533 116.463 3.416V2.616H117.199V7H116.463V6.184C116.319 6.44 116.103 6.65333 115.815 6.824C115.532 6.98933 115.201 7.072 114.823 7.072C114.433 7.072 114.081 6.976 113.767 6.784C113.452 6.592 113.204 6.32267 113.023 5.976C112.841 5.62933 112.751 5.23467 112.751 4.792ZM116.463 4.8C116.463 4.46933 116.396 4.18133 116.263 3.936C116.129 3.69067 115.948 3.504 115.719 3.376C115.495 3.24267 115.247 3.176 114.975 3.176C114.703 3.176 114.455 3.24 114.231 3.368C114.007 3.496 113.828 3.68267 113.695 3.928C113.561 4.17333 113.495 4.46133 113.495 4.792C113.495 5.128 113.561 5.42133 113.695 5.672C113.828 5.91733 114.007 6.10667 114.231 6.24C114.455 6.368 114.703 6.432 114.975 6.432C115.247 6.432 115.495 6.368 115.719 6.24C115.948 6.10667 116.129 5.91733 116.263 5.672C116.396 5.42133 116.463 5.13067 116.463 4.8ZM120.885 2.536C121.418 2.536 121.85 2.69867 122.181 3.024C122.511 3.344 122.677 3.808 122.677 4.416V7H121.957V4.52C121.957 4.08267 121.847 3.74933 121.629 3.52C121.41 3.28533 121.111 3.168 120.733 3.168C120.349 3.168 120.042 3.288 119.813 3.528C119.589 3.768 119.477 4.11733 119.477 4.576V7H118.749V2.616H119.477V3.24C119.621 3.016 119.815 2.84267 120.061 2.72C120.311 2.59733 120.586 2.536 120.885 2.536ZM125.994 2.544C126.373 2.544 126.703 2.62667 126.986 2.792C127.274 2.95733 127.487 3.16533 127.626 3.416V2.616H128.362V7.096C128.362 7.496 128.277 7.85067 128.106 8.16C127.935 8.47467 127.69 8.72 127.37 8.896C127.055 9.072 126.687 9.16 126.266 9.16C125.69 9.16 125.21 9.024 124.826 8.752C124.442 8.48 124.215 8.10933 124.146 7.64H124.866C124.946 7.90667 125.111 8.12 125.362 8.28C125.613 8.44533 125.914 8.528 126.266 8.528C126.666 8.528 126.991 8.40267 127.242 8.152C127.498 7.90133 127.626 7.54933 127.626 7.096V6.176C127.482 6.432 127.269 6.64533 126.986 6.816C126.703 6.98667 126.373 7.072 125.994 7.072C125.605 7.072 125.25 6.976 124.93 6.784C124.615 6.592 124.367 6.32267 124.186 5.976C124.005 5.62933 123.914 5.23467 123.914 4.792C123.914 4.344 124.005 3.952 124.186 3.616C124.367 3.27467 124.615 3.01067 124.93 2.824C125.25 2.63733 125.605 2.544 125.994 2.544ZM127.626 4.8C127.626 4.46933 127.559 4.18133 127.426 3.936C127.293 3.69067 127.111 3.504 126.882 3.376C126.658 3.24267 126.41 3.176 126.138 3.176C125.866 3.176 125.618 3.24 125.394 3.368C125.17 3.496 124.991 3.68267 124.858 3.928C124.725 4.17333 124.658 4.46133 124.658 4.792C124.658 5.128 124.725 5.42133 124.858 5.672C124.991 5.91733 125.17 6.10667 125.394 6.24C125.618 6.368 125.866 6.432 126.138 6.432C126.41 6.432 126.658 6.368 126.882 6.24C127.111 6.10667 127.293 5.91733 127.426 5.672C127.559 5.42133 127.626 5.13067 127.626 4.8ZM131.824 7.072C131.414 7.072 131.04 6.97867 130.704 6.792C130.374 6.60533 130.112 6.34133 129.92 6C129.734 5.65333 129.64 5.25333 129.64 4.8C129.64 4.352 129.736 3.95733 129.928 3.616C130.126 3.26933 130.392 3.00533 130.728 2.824C131.064 2.63733 131.44 2.544 131.856 2.544C132.272 2.544 132.648 2.63733 132.984 2.824C133.32 3.00533 133.584 3.26667 133.776 3.608C133.974 3.94933 134.072 4.34667 134.072 4.8C134.072 5.25333 133.971 5.65333 133.768 6C133.571 6.34133 133.302 6.60533 132.96 6.792C132.619 6.97867 132.24 7.072 131.824 7.072ZM131.824 6.432C132.086 6.432 132.331 6.37067 132.56 6.248C132.79 6.12533 132.974 5.94133 133.112 5.696C133.256 5.45067 133.328 5.152 133.328 4.8C133.328 4.448 133.259 4.14933 133.12 3.904C132.982 3.65867 132.8 3.47733 132.576 3.36C132.352 3.23733 132.11 3.176 131.848 3.176C131.582 3.176 131.336 3.23733 131.112 3.36C130.894 3.47733 130.718 3.65867 130.584 3.904C130.451 4.14933 130.384 4.448 130.384 4.8C130.384 5.15733 130.448 5.45867 130.576 5.704C130.71 5.94933 130.886 6.13333 131.104 6.256C131.323 6.37333 131.563 6.432 131.824 6.432ZM137.53 4.792C137.53 4.344 137.621 3.952 137.802 3.616C137.984 3.27467 138.232 3.01067 138.546 2.824C138.866 2.63733 139.221 2.544 139.61 2.544C139.994 2.544 140.328 2.62667 140.61 2.792C140.893 2.95733 141.104 3.16533 141.242 3.416V2.616H141.978V7H141.242V6.184C141.098 6.44 140.882 6.65333 140.594 6.824C140.312 6.98933 139.981 7.072 139.602 7.072C139.213 7.072 138.861 6.976 138.546 6.784C138.232 6.592 137.984 6.32267 137.802 5.976C137.621 5.62933 137.53 5.23467 137.53 4.792ZM141.242 4.8C141.242 4.46933 141.176 4.18133 141.042 3.936C140.909 3.69067 140.728 3.504 140.498 3.376C140.274 3.24267 140.026 3.176 139.754 3.176C139.482 3.176 139.234 3.24 139.01 3.368C138.786 3.496 138.608 3.68267 138.474 3.928C138.341 4.17333 138.274 4.46133 138.274 4.792C138.274 5.128 138.341 5.42133 138.474 5.672C138.608 5.91733 138.786 6.10667 139.01 6.24C139.234 6.368 139.482 6.432 139.754 6.432C140.026 6.432 140.274 6.368 140.498 6.24C140.728 6.10667 140.909 5.91733 141.042 5.672C141.176 5.42133 141.242 5.13067 141.242 4.8ZM145.665 2.536C146.198 2.536 146.63 2.69867 146.961 3.024C147.291 3.344 147.457 3.808 147.457 4.416V7H146.737V4.52C146.737 4.08267 146.627 3.74933 146.409 3.52C146.19 3.28533 145.891 3.168 145.513 3.168C145.129 3.168 144.822 3.288 144.593 3.528C144.369 3.768 144.257 4.11733 144.257 4.576V7H143.529V2.616H144.257V3.24C144.401 3.016 144.595 2.84267 144.841 2.72C145.091 2.59733 145.366 2.536 145.665 2.536ZM148.694 4.792C148.694 4.344 148.784 3.952 148.966 3.616C149.147 3.27467 149.395 3.01067 149.71 2.824C150.03 2.63733 150.387 2.544 150.782 2.544C151.123 2.544 151.44 2.624 151.734 2.784C152.027 2.93867 152.251 3.144 152.406 3.4V1.08H153.142V7H152.406V6.176C152.262 6.43733 152.048 6.65333 151.766 6.824C151.483 6.98933 151.152 7.072 150.774 7.072C150.384 7.072 150.03 6.976 149.71 6.784C149.395 6.592 149.147 6.32267 148.966 5.976C148.784 5.62933 148.694 5.23467 148.694 4.792ZM152.406 4.8C152.406 4.46933 152.339 4.18133 152.206 3.936C152.072 3.69067 151.891 3.504 151.662 3.376C151.438 3.24267 151.19 3.176 150.918 3.176C150.646 3.176 150.398 3.24 150.174 3.368C149.95 3.496 149.771 3.68267 149.638 3.928C149.504 4.17333 149.438 4.46133 149.438 4.792C149.438 5.128 149.504 5.42133 149.638 5.672C149.771 5.91733 149.95 6.10667 150.174 6.24C150.398 6.368 150.646 6.432 150.918 6.432C151.19 6.432 151.438 6.368 151.662 6.24C151.891 6.10667 152.072 5.91733 152.206 5.672C152.339 5.42133 152.406 5.13067 152.406 4.8ZM2.4 13.216H1.48V17H0.752V13.216H0.184V12.616H0.752V12.304C0.752 11.8133 0.877333 11.456 1.128 11.232C1.384 11.0027 1.792 10.888 2.352 10.888V11.496C2.032 11.496 1.80533 11.56 1.672 11.688C1.544 11.8107 1.48 12.016 1.48 12.304V12.616H2.4V13.216ZM4.29681 13.328C4.42481 13.0773 4.60615 12.8827 4.84081 12.744C5.08081 12.6053 5.37148 12.536 5.71281 12.536V13.288H5.52081C4.70481 13.288 4.29681 13.7307 4.29681 14.616V17H3.56881V12.616H4.29681V13.328ZM10.8732 14.64C10.8732 14.7787 10.8652 14.9253 10.8492 15.08H7.34519C7.37185 15.512 7.51852 15.8507 7.78519 16.096C8.05719 16.336 8.38519 16.456 8.76919 16.456C9.08385 16.456 9.34519 16.384 9.55319 16.24C9.76652 16.0907 9.91585 15.8933 10.0012 15.648H10.7852C10.6679 16.0693 10.4332 16.4133 10.0812 16.68C9.72919 16.9413 9.29185 17.072 8.76919 17.072C8.35319 17.072 7.97985 16.9787 7.64919 16.792C7.32385 16.6053 7.06785 16.3413 6.88119 16C6.69452 15.6533 6.60119 15.2533 6.60119 14.8C6.60119 14.3467 6.69185 13.9493 6.87319 13.608C7.05452 13.2667 7.30785 13.0053 7.63319 12.824C7.96385 12.6373 8.34252 12.544 8.76919 12.544C9.18519 12.544 9.55319 12.6347 9.87319 12.816C10.1932 12.9973 10.4385 13.248 10.6092 13.568C10.7852 13.8827 10.8732 14.24 10.8732 14.64ZM10.1212 14.488C10.1212 14.2107 10.0599 13.9733 9.93719 13.776C9.81452 13.5733 9.64652 13.4213 9.43319 13.32C9.22519 13.2133 8.99319 13.16 8.73719 13.16C8.36919 13.16 8.05452 13.2773 7.79319 13.512C7.53719 13.7467 7.39052 14.072 7.35319 14.488H10.1212ZM13.7061 17.072C13.3701 17.072 13.0688 17.016 12.8021 16.904C12.5355 16.7867 12.3248 16.6267 12.1701 16.424C12.0155 16.216 11.9301 15.9787 11.9141 15.712H12.6661C12.6875 15.9307 12.7888 16.1093 12.9701 16.248C13.1568 16.3867 13.3995 16.456 13.6981 16.456C13.9755 16.456 14.1941 16.3947 14.3541 16.272C14.5141 16.1493 14.5941 15.9947 14.5941 15.808C14.5941 15.616 14.5088 15.4747 14.3381 15.384C14.1675 15.288 13.9035 15.1947 13.5461 15.104C13.2208 15.0187 12.9541 14.9333 12.7461 14.848C12.5435 14.7573 12.3675 14.6267 12.2181 14.456C12.0741 14.28 12.0021 14.0507 12.0021 13.768C12.0021 13.544 12.0688 13.3387 12.2021 13.152C12.3355 12.9653 12.5248 12.8187 12.7701 12.712C13.0155 12.6 13.2955 12.544 13.6101 12.544C14.0955 12.544 14.4875 12.6667 14.7861 12.912C15.0848 13.1573 15.2448 13.4933 15.2661 13.92H14.5381C14.5221 13.6907 14.4288 13.5067 14.2581 13.368C14.0928 13.2293 13.8688 13.16 13.5861 13.16C13.3248 13.16 13.1168 13.216 12.9621 13.328C12.8075 13.44 12.7301 13.5867 12.7301 13.768C12.7301 13.912 12.7755 14.032 12.8661 14.128C12.9621 14.2187 13.0795 14.2933 13.2181 14.352C13.3621 14.4053 13.5595 14.4667 13.8101 14.536C14.1248 14.6213 14.3808 14.7067 14.5781 14.792C14.7755 14.872 14.9435 14.9947 15.0821 15.16C15.2261 15.3253 15.3008 15.5413 15.3061 15.808C15.3061 16.048 15.2395 16.264 15.1061 16.456C14.9728 16.648 14.7835 16.8 14.5381 16.912C14.2981 17.0187 14.0208 17.072 13.7061 17.072ZM18.8298 12.536C19.1605 12.536 19.4591 12.608 19.7258 12.752C19.9925 12.8907 20.2005 13.1013 20.3498 13.384C20.5045 13.6667 20.5818 14.0107 20.5818 14.416V17H19.8618V14.52C19.8618 14.0827 19.7525 13.7493 19.5338 13.52C19.3151 13.2853 19.0165 13.168 18.6378 13.168C18.2538 13.168 17.9471 13.288 17.7178 13.528C17.4938 13.768 17.3818 14.1173 17.3818 14.576V17H16.6538V11.08H17.3818V13.24C17.5258 13.016 17.7231 12.8427 17.9738 12.72C18.2298 12.5973 18.5151 12.536 18.8298 12.536ZM25.2718 13.424C25.4158 13.1733 25.6291 12.9653 25.9118 12.8C26.1998 12.6293 26.5331 12.544 26.9118 12.544C27.3011 12.544 27.6531 12.6373 27.9678 12.824C28.2878 13.0107 28.5385 13.2747 28.7198 13.616C28.9011 13.952 28.9918 14.344 28.9918 14.792C28.9918 15.2347 28.9011 15.6293 28.7198 15.976C28.5385 16.3227 28.2878 16.592 27.9678 16.784C27.6531 16.976 27.3011 17.072 26.9118 17.072C26.5385 17.072 26.2078 16.9893 25.9198 16.824C25.6371 16.6533 25.4211 16.4427 25.2718 16.192V19.08H24.5438V12.616H25.2718V13.424ZM28.2478 14.792C28.2478 14.4613 28.1811 14.1733 28.0478 13.928C27.9145 13.6827 27.7331 13.496 27.5038 13.368C27.2798 13.24 27.0318 13.176 26.7598 13.176C26.4931 13.176 26.2451 13.2427 26.0158 13.376C25.7918 13.504 25.6105 13.6933 25.4718 13.944C25.3385 14.1893 25.2718 14.4747 25.2718 14.8C25.2718 15.1307 25.3385 15.4213 25.4718 15.672C25.6105 15.9173 25.7918 16.1067 26.0158 16.24C26.2451 16.368 26.4931 16.432 26.7598 16.432C27.0318 16.432 27.2798 16.368 27.5038 16.24C27.7331 16.1067 27.9145 15.9173 28.0478 15.672C28.1811 15.4213 28.2478 15.128 28.2478 14.792ZM30.6461 11.904C30.5074 11.904 30.3901 11.856 30.2941 11.76C30.1981 11.664 30.1501 11.5467 30.1501 11.408C30.1501 11.2693 30.1981 11.152 30.2941 11.056C30.3901 10.96 30.5074 10.912 30.6461 10.912C30.7794 10.912 30.8914 10.96 30.9821 11.056C31.0781 11.152 31.1261 11.2693 31.1261 11.408C31.1261 11.5467 31.0781 11.664 30.9821 11.76C30.8914 11.856 30.7794 11.904 30.6461 11.904ZM30.9981 12.616V17H30.2701V12.616H30.9981ZM34.6948 12.536C35.2281 12.536 35.6601 12.6987 35.9908 13.024C36.3215 13.344 36.4868 13.808 36.4868 14.416V17H35.7668V14.52C35.7668 14.0827 35.6575 13.7493 35.4388 13.52C35.2201 13.2853 34.9215 13.168 34.5428 13.168C34.1588 13.168 33.8521 13.288 33.6228 13.528C33.3988 13.768 33.2868 14.1173 33.2868 14.576V17H32.5588V12.616H33.2868V13.24C33.4308 13.016 33.6255 12.8427 33.8708 12.72C34.1215 12.5973 34.3961 12.536 34.6948 12.536ZM41.996 14.64C41.996 14.7787 41.988 14.9253 41.972 15.08H38.468C38.4947 15.512 38.6413 15.8507 38.908 16.096C39.18 16.336 39.508 16.456 39.892 16.456C40.2067 16.456 40.468 16.384 40.676 16.24C40.8893 16.0907 41.0387 15.8933 41.124 15.648H41.908C41.7907 16.0693 41.556 16.4133 41.204 16.68C40.852 16.9413 40.4147 17.072 39.892 17.072C39.476 17.072 39.1027 16.9787 38.772 16.792C38.4467 16.6053 38.1907 16.3413 38.004 16C37.8173 15.6533 37.724 15.2533 37.724 14.8C37.724 14.3467 37.8147 13.9493 37.996 13.608C38.1773 13.2667 38.4307 13.0053 38.756 12.824C39.0867 12.6373 39.4653 12.544 39.892 12.544C40.308 12.544 40.676 12.6347 40.996 12.816C41.316 12.9973 41.5613 13.248 41.732 13.568C41.908 13.8827 41.996 14.24 41.996 14.64ZM41.244 14.488C41.244 14.2107 41.1827 13.9733 41.06 13.776C40.9373 13.5733 40.7693 13.4213 40.556 13.32C40.348 13.2133 40.116 13.16 39.86 13.16C39.492 13.16 39.1773 13.2773 38.916 13.512C38.66 13.7467 38.5133 14.072 38.476 14.488H41.244ZM43.0049 14.792C43.0049 14.344 43.0956 13.952 43.2769 13.616C43.4583 13.2747 43.7063 13.0107 44.0209 12.824C44.3409 12.6373 44.6956 12.544 45.0849 12.544C45.4689 12.544 45.8023 12.6267 46.0849 12.792C46.3676 12.9573 46.5783 13.1653 46.7169 13.416V12.616H47.4529V17H46.7169V16.184C46.5729 16.44 46.3569 16.6533 46.0689 16.824C45.7863 16.9893 45.4556 17.072 45.0769 17.072C44.6876 17.072 44.3356 16.976 44.0209 16.784C43.7063 16.592 43.4583 16.3227 43.2769 15.976C43.0956 15.6293 43.0049 15.2347 43.0049 14.792ZM46.7169 14.8C46.7169 14.4693 46.6503 14.1813 46.5169 13.936C46.3836 13.6907 46.2023 13.504 45.9729 13.376C45.7489 13.2427 45.5009 13.176 45.2289 13.176C44.9569 13.176 44.7089 13.24 44.4849 13.368C44.2609 13.496 44.0823 13.6827 43.9489 13.928C43.8156 14.1733 43.7489 14.4613 43.7489 14.792C43.7489 15.128 43.8156 15.4213 43.9489 15.672C44.0823 15.9173 44.2609 16.1067 44.4849 16.24C44.7089 16.368 44.9569 16.432 45.2289 16.432C45.5009 16.432 45.7489 16.368 45.9729 16.24C46.2023 16.1067 46.3836 15.9173 46.5169 15.672C46.6503 15.4213 46.7169 15.1307 46.7169 14.8ZM49.7312 13.424C49.8752 13.1733 50.0885 12.9653 50.3712 12.8C50.6592 12.6293 50.9925 12.544 51.3712 12.544C51.7605 12.544 52.1125 12.6373 52.4272 12.824C52.7472 13.0107 52.9979 13.2747 53.1792 13.616C53.3605 13.952 53.4512 14.344 53.4512 14.792C53.4512 15.2347 53.3605 15.6293 53.1792 15.976C52.9979 16.3227 52.7472 16.592 52.4272 16.784C52.1125 16.976 51.7605 17.072 51.3712 17.072C50.9979 17.072 50.6672 16.9893 50.3792 16.824C50.0965 16.6533 49.8805 16.4427 49.7312 16.192V19.08H49.0032V12.616H49.7312V13.424ZM52.7072 14.792C52.7072 14.4613 52.6405 14.1733 52.5072 13.928C52.3739 13.6827 52.1925 13.496 51.9632 13.368C51.7392 13.24 51.4912 13.176 51.2192 13.176C50.9525 13.176 50.7045 13.2427 50.4752 13.376C50.2512 13.504 50.0699 13.6933 49.9312 13.944C49.7979 14.1893 49.7312 14.4747 49.7312 14.8C49.7312 15.1307 49.7979 15.4213 49.9312 15.672C50.0699 15.9173 50.2512 16.1067 50.4752 16.24C50.7045 16.368 50.9525 16.432 51.2192 16.432C51.4912 16.432 51.7392 16.368 51.9632 16.24C52.1925 16.1067 52.3739 15.9173 52.5072 15.672C52.6405 15.4213 52.7072 15.128 52.7072 14.792ZM55.4574 13.424C55.6014 13.1733 55.8148 12.9653 56.0974 12.8C56.3854 12.6293 56.7188 12.544 57.0974 12.544C57.4868 12.544 57.8388 12.6373 58.1534 12.824C58.4734 13.0107 58.7241 13.2747 58.9054 13.616C59.0868 13.952 59.1774 14.344 59.1774 14.792C59.1774 15.2347 59.0868 15.6293 58.9054 15.976C58.7241 16.3227 58.4734 16.592 58.1534 16.784C57.8388 16.976 57.4868 17.072 57.0974 17.072C56.7241 17.072 56.3934 16.9893 56.1054 16.824C55.8228 16.6533 55.6068 16.4427 55.4574 16.192V19.08H54.7294V12.616H55.4574V13.424ZM58.4334 14.792C58.4334 14.4613 58.3668 14.1733 58.2334 13.928C58.1001 13.6827 57.9188 13.496 57.6894 13.368C57.4654 13.24 57.2174 13.176 56.9454 13.176C56.6788 13.176 56.4308 13.2427 56.2014 13.376C55.9774 13.504 55.7961 13.6933 55.6574 13.944C55.5241 14.1893 55.4574 14.4747 55.4574 14.8C55.4574 15.1307 55.5241 15.4213 55.6574 15.672C55.7961 15.9173 55.9774 16.1067 56.2014 16.24C56.4308 16.368 56.6788 16.432 56.9454 16.432C57.2174 16.432 57.4654 16.368 57.6894 16.24C57.9188 16.1067 58.1001 15.9173 58.2334 15.672C58.3668 15.4213 58.4334 15.128 58.4334 14.792ZM61.1837 11.08V17H60.4557V11.08H61.1837ZM66.7444 14.64C66.7444 14.7787 66.7364 14.9253 66.7204 15.08H63.2164C63.2431 15.512 63.3898 15.8507 63.6564 16.096C63.9284 16.336 64.2564 16.456 64.6404 16.456C64.9551 16.456 65.2164 16.384 65.4244 16.24C65.6378 16.0907 65.7871 15.8933 65.8724 15.648H66.6564C66.5391 16.0693 66.3044 16.4133 65.9524 16.68C65.6004 16.9413 65.1631 17.072 64.6404 17.072C64.2244 17.072 63.8511 16.9787 63.5204 16.792C63.1951 16.6053 62.9391 16.3413 62.7524 16C62.5658 15.6533 62.4724 15.2533 62.4724 14.8C62.4724 14.3467 62.5631 13.9493 62.7444 13.608C62.9258 13.2667 63.1791 13.0053 63.5044 12.824C63.8351 12.6373 64.2138 12.544 64.6404 12.544C65.0564 12.544 65.4244 12.6347 65.7444 12.816C66.0644 12.9973 66.3098 13.248 66.4804 13.568C66.6564 13.8827 66.7444 14.24 66.7444 14.64ZM65.9924 14.488C65.9924 14.2107 65.9311 13.9733 65.8084 13.776C65.6858 13.5733 65.5178 13.4213 65.3044 13.32C65.0964 13.2133 64.8644 13.16 64.6084 13.16C64.2404 13.16 63.9258 13.2773 63.6644 13.512C63.4084 13.7467 63.2618 14.072 63.2244 14.488H65.9924ZM68.7774 15.992L67.8814 18.144H67.3934L67.9774 15.992H68.7774ZM72.1121 14.792C72.1121 14.344 72.2028 13.952 72.3841 13.616C72.5655 13.2747 72.8135 13.0107 73.1281 12.824C73.4481 12.6373 73.8055 12.544 74.2001 12.544C74.5415 12.544 74.8588 12.624 75.1521 12.784C75.4455 12.9387 75.6695 13.144 75.8241 13.4V11.08H76.5601V17H75.8241V16.176C75.6801 16.4373 75.4668 16.6533 75.1841 16.824C74.9015 16.9893 74.5708 17.072 74.1921 17.072C73.8028 17.072 73.4481 16.976 73.1281 16.784C72.8135 16.592 72.5655 16.3227 72.3841 15.976C72.2028 15.6293 72.1121 15.2347 72.1121 14.792ZM75.8241 14.8C75.8241 14.4693 75.7575 14.1813 75.6241 13.936C75.4908 13.6907 75.3095 13.504 75.0801 13.376C74.8561 13.2427 74.6081 13.176 74.3361 13.176C74.0641 13.176 73.8161 13.24 73.5921 13.368C73.3681 13.496 73.1895 13.6827 73.0561 13.928C72.9228 14.1733 72.8561 14.4613 72.8561 14.792C72.8561 15.128 72.9228 15.4213 73.0561 15.672C73.1895 15.9173 73.3681 16.1067 73.5921 16.24C73.8161 16.368 74.0641 16.432 74.3361 16.432C74.6081 16.432 74.8561 16.368 75.0801 16.24C75.3095 16.1067 75.4908 15.9173 75.6241 15.672C75.7575 15.4213 75.8241 15.1307 75.8241 14.8ZM82.1104 14.64C82.1104 14.7787 82.1024 14.9253 82.0864 15.08H78.5824C78.609 15.512 78.7557 15.8507 79.0224 16.096C79.2944 16.336 79.6224 16.456 80.0064 16.456C80.321 16.456 80.5824 16.384 80.7904 16.24C81.0037 16.0907 81.153 15.8933 81.2384 15.648H82.0224C81.905 16.0693 81.6704 16.4133 81.3184 16.68C80.9664 16.9413 80.529 17.072 80.0064 17.072C79.5904 17.072 79.217 16.9787 78.8864 16.792C78.561 16.6053 78.305 16.3413 78.1184 16C77.9317 15.6533 77.8384 15.2533 77.8384 14.8C77.8384 14.3467 77.929 13.9493 78.1104 13.608C78.2917 13.2667 78.545 13.0053 78.8704 12.824C79.201 12.6373 79.5797 12.544 80.0064 12.544C80.4224 12.544 80.7904 12.6347 81.1104 12.816C81.4304 12.9973 81.6757 13.248 81.8464 13.568C82.0224 13.8827 82.1104 14.24 82.1104 14.64ZM81.3584 14.488C81.3584 14.2107 81.297 13.9733 81.1744 13.776C81.0517 13.5733 80.8837 13.4213 80.6704 13.32C80.4624 13.2133 80.2304 13.16 79.9744 13.16C79.6064 13.16 79.2917 13.2773 79.0304 13.512C78.7744 13.7467 78.6277 14.072 78.5904 14.488H81.3584ZM84.1193 11.08V17H83.3913V11.08H84.1193ZM86.0561 11.904C85.9174 11.904 85.8001 11.856 85.7041 11.76C85.6081 11.664 85.5601 11.5467 85.5601 11.408C85.5601 11.2693 85.6081 11.152 85.7041 11.056C85.8001 10.96 85.9174 10.912 86.0561 10.912C86.1894 10.912 86.3014 10.96 86.3921 11.056C86.4881 11.152 86.5361 11.2693 86.5361 11.408C86.5361 11.5467 86.4881 11.664 86.3921 11.76C86.3014 11.856 86.1894 11.904 86.0561 11.904ZM86.4081 12.616V17H85.6801V12.616H86.4081ZM89.6008 16.328L90.9608 12.616H91.7368L90.0168 17H89.1688L87.4488 12.616H88.2328L89.6008 16.328ZM96.7732 14.64C96.7732 14.7787 96.7652 14.9253 96.7492 15.08H93.2452C93.2719 15.512 93.4185 15.8507 93.6852 16.096C93.9572 16.336 94.2852 16.456 94.6692 16.456C94.9839 16.456 95.2452 16.384 95.4532 16.24C95.6665 16.0907 95.8159 15.8933 95.9012 15.648H96.6852C96.5679 16.0693 96.3332 16.4133 95.9812 16.68C95.6292 16.9413 95.1919 17.072 94.6692 17.072C94.2532 17.072 93.8799 16.9787 93.5492 16.792C93.2239 16.6053 92.9679 16.3413 92.7812 16C92.5945 15.6533 92.5012 15.2533 92.5012 14.8C92.5012 14.3467 92.5919 13.9493 92.7732 13.608C92.9545 13.2667 93.2079 13.0053 93.5332 12.824C93.8639 12.6373 94.2425 12.544 94.6692 12.544C95.0852 12.544 95.4532 12.6347 95.7732 12.816C96.0932 12.9973 96.3385 13.248 96.5092 13.568C96.6852 13.8827 96.7732 14.24 96.7732 14.64ZM96.0212 14.488C96.0212 14.2107 95.9599 13.9733 95.8372 13.776C95.7145 13.5733 95.5465 13.4213 95.3332 13.32C95.1252 13.2133 94.8932 13.16 94.6372 13.16C94.2692 13.16 93.9545 13.2773 93.6932 13.512C93.4372 13.7467 93.2905 14.072 93.2532 14.488H96.0212ZM98.7821 13.328C98.9101 13.0773 99.0915 12.8827 99.3261 12.744C99.5661 12.6053 99.8568 12.536 100.198 12.536V13.288H100.006C99.1901 13.288 98.7821 13.7307 98.7821 14.616V17H98.0541V12.616H98.7821V13.328ZM101.735 11.904C101.596 11.904 101.479 11.856 101.383 11.76C101.287 11.664 101.239 11.5467 101.239 11.408C101.239 11.2693 101.287 11.152 101.383 11.056C101.479 10.96 101.596 10.912 101.735 10.912C101.868 10.912 101.98 10.96 102.071 11.056C102.167 11.152 102.215 11.2693 102.215 11.408C102.215 11.5467 102.167 11.664 102.071 11.76C101.98 11.856 101.868 11.904 101.735 11.904ZM102.087 12.616V17H101.359V12.616H102.087ZM105.783 12.536C106.317 12.536 106.749 12.6987 107.079 13.024C107.41 13.344 107.575 13.808 107.575 14.416V17H106.855V14.52C106.855 14.0827 106.746 13.7493 106.527 13.52C106.309 13.2853 106.01 13.168 105.631 13.168C105.247 13.168 104.941 13.288 104.711 13.528C104.487 13.768 104.375 14.1173 104.375 14.576V17H103.647V12.616H104.375V13.24C104.519 13.016 104.714 12.8427 104.959 12.72C105.21 12.5973 105.485 12.536 105.783 12.536ZM110.892 12.544C111.271 12.544 111.602 12.6267 111.884 12.792C112.172 12.9573 112.386 13.1653 112.524 13.416V12.616H113.26V17.096C113.26 17.496 113.175 17.8507 113.004 18.16C112.834 18.4747 112.588 18.72 112.268 18.896C111.954 19.072 111.586 19.16 111.164 19.16C110.588 19.16 110.108 19.024 109.724 18.752C109.34 18.48 109.114 18.1093 109.044 17.64H109.764C109.844 17.9067 110.01 18.12 110.26 18.28C110.511 18.4453 110.812 18.528 111.164 18.528C111.564 18.528 111.89 18.4027 112.14 18.152C112.396 17.9013 112.524 17.5493 112.524 17.096V16.176C112.38 16.432 112.167 16.6453 111.884 16.816C111.602 16.9867 111.271 17.072 110.892 17.072C110.503 17.072 110.148 16.976 109.828 16.784C109.514 16.592 109.266 16.3227 109.084 15.976C108.903 15.6293 108.812 15.2347 108.812 14.792C108.812 14.344 108.903 13.952 109.084 13.616C109.266 13.2747 109.514 13.0107 109.828 12.824C110.148 12.6373 110.503 12.544 110.892 12.544ZM112.524 14.8C112.524 14.4693 112.458 14.1813 112.324 13.936C112.191 13.6907 112.01 13.504 111.78 13.376C111.556 13.2427 111.308 13.176 111.036 13.176C110.764 13.176 110.516 13.24 110.292 13.368C110.068 13.496 109.89 13.6827 109.756 13.928C109.623 14.1733 109.556 14.4613 109.556 14.792C109.556 15.128 109.623 15.4213 109.756 15.672C109.89 15.9173 110.068 16.1067 110.292 16.24C110.516 16.368 110.764 16.432 111.036 16.432C111.308 16.432 111.556 16.368 111.78 16.24C112.01 16.1067 112.191 15.9173 112.324 15.672C112.458 15.4213 112.524 15.1307 112.524 14.8ZM116.991 14.792C116.991 14.344 117.082 13.952 117.263 13.616C117.445 13.2747 117.693 13.0107 118.007 12.824C118.327 12.6373 118.682 12.544 119.071 12.544C119.455 12.544 119.789 12.6267 120.071 12.792C120.354 12.9573 120.565 13.1653 120.703 13.416V12.616H121.439V17H120.703V16.184C120.559 16.44 120.343 16.6533 120.055 16.824C119.773 16.9893 119.442 17.072 119.063 17.072C118.674 17.072 118.322 16.976 118.007 16.784C117.693 16.592 117.445 16.3227 117.263 15.976C117.082 15.6293 116.991 15.2347 116.991 14.792ZM120.703 14.8C120.703 14.4693 120.637 14.1813 120.503 13.936C120.37 13.6907 120.189 13.504 119.959 13.376C119.735 13.2427 119.487 13.176 119.215 13.176C118.943 13.176 118.695 13.24 118.471 13.368C118.247 13.496 118.069 13.6827 117.935 13.928C117.802 14.1733 117.735 14.4613 117.735 14.792C117.735 15.128 117.802 15.4213 117.935 15.672C118.069 15.9173 118.247 16.1067 118.471 16.24C118.695 16.368 118.943 16.432 119.215 16.432C119.487 16.432 119.735 16.368 119.959 16.24C120.189 16.1067 120.37 15.9173 120.503 15.672C120.637 15.4213 120.703 15.1307 120.703 14.8ZM126.331 13.216V15.8C126.331 16.0133 126.376 16.1653 126.467 16.256C126.557 16.3413 126.715 16.384 126.939 16.384H127.475V17H126.819C126.413 17 126.109 16.9067 125.907 16.72C125.704 16.5333 125.603 16.2267 125.603 15.8V13.216H125.035V12.616H125.603V11.512H126.331V12.616H127.475V13.216H126.331ZM129.405 13.328C129.533 13.0773 129.714 12.8827 129.949 12.744C130.189 12.6053 130.479 12.536 130.821 12.536V13.288H130.629C129.813 13.288 129.405 13.7307 129.405 14.616V17H128.677V12.616H129.405V13.328ZM133.893 17.072C133.482 17.072 133.109 16.9787 132.773 16.792C132.442 16.6053 132.181 16.3413 131.989 16C131.802 15.6533 131.709 15.2533 131.709 14.8C131.709 14.352 131.805 13.9573 131.997 13.616C132.194 13.2693 132.461 13.0053 132.797 12.824C133.133 12.6373 133.509 12.544 133.925 12.544C134.341 12.544 134.717 12.6373 135.053 12.824C135.389 13.0053 135.653 13.2667 135.845 13.608C136.042 13.9493 136.141 14.3467 136.141 14.8C136.141 15.2533 136.04 15.6533 135.837 16C135.64 16.3413 135.37 16.6053 135.029 16.792C134.688 16.9787 134.309 17.072 133.893 17.072ZM133.893 16.432C134.154 16.432 134.4 16.3707 134.629 16.248C134.858 16.1253 135.042 15.9413 135.181 15.696C135.325 15.4507 135.397 15.152 135.397 14.8C135.397 14.448 135.328 14.1493 135.189 13.904C135.05 13.6587 134.869 13.4773 134.645 13.36C134.421 13.2373 134.178 13.176 133.917 13.176C133.65 13.176 133.405 13.2373 133.181 13.36C132.962 13.4773 132.786 13.6587 132.653 13.904C132.52 14.1493 132.453 14.448 132.453 14.8C132.453 15.1573 132.517 15.4587 132.645 15.704C132.778 15.9493 132.954 16.1333 133.173 16.256C133.392 16.3733 133.632 16.432 133.893 16.432ZM138.146 13.424C138.29 13.1733 138.504 12.9653 138.786 12.8C139.074 12.6293 139.408 12.544 139.786 12.544C140.176 12.544 140.528 12.6373 140.842 12.824C141.162 13.0107 141.413 13.2747 141.594 13.616C141.776 13.952 141.866 14.344 141.866 14.792C141.866 15.2347 141.776 15.6293 141.594 15.976C141.413 16.3227 141.162 16.592 140.842 16.784C140.528 16.976 140.176 17.072 139.786 17.072C139.413 17.072 139.082 16.9893 138.794 16.824C138.512 16.6533 138.296 16.4427 138.146 16.192V19.08H137.418V12.616H138.146V13.424ZM141.122 14.792C141.122 14.4613 141.056 14.1733 140.922 13.928C140.789 13.6827 140.608 13.496 140.378 13.368C140.154 13.24 139.906 13.176 139.634 13.176C139.368 13.176 139.12 13.2427 138.89 13.376C138.666 13.504 138.485 13.6933 138.346 13.944C138.213 14.1893 138.146 14.4747 138.146 14.8C138.146 15.1307 138.213 15.4213 138.346 15.672C138.485 15.9173 138.666 16.1067 138.89 16.24C139.12 16.368 139.368 16.432 139.634 16.432C139.906 16.432 140.154 16.368 140.378 16.24C140.608 16.1067 140.789 15.9173 140.922 15.672C141.056 15.4213 141.122 15.128 141.122 14.792ZM143.52 11.904C143.382 11.904 143.264 11.856 143.168 11.76C143.072 11.664 143.024 11.5467 143.024 11.408C143.024 11.2693 143.072 11.152 143.168 11.056C143.264 10.96 143.382 10.912 143.52 10.912C143.654 10.912 143.766 10.96 143.856 11.056C143.952 11.152 144 11.2693 144 11.408C144 11.5467 143.952 11.664 143.856 11.76C143.766 11.856 143.654 11.904 143.52 11.904ZM143.872 12.616V17H143.144V12.616H143.872ZM145.161 14.8C145.161 14.3467 145.252 13.952 145.433 13.616C145.615 13.2747 145.865 13.0107 146.185 12.824C146.511 12.6373 146.881 12.544 147.297 12.544C147.836 12.544 148.279 12.6747 148.625 12.936C148.977 13.1973 149.209 13.56 149.321 14.024H148.537C148.463 13.7573 148.316 13.5467 148.097 13.392C147.884 13.2373 147.617 13.16 147.297 13.16C146.881 13.16 146.545 13.304 146.289 13.592C146.033 13.8747 145.905 14.2773 145.905 14.8C145.905 15.328 146.033 15.736 146.289 16.024C146.545 16.312 146.881 16.456 147.297 16.456C147.617 16.456 147.884 16.3813 148.097 16.232C148.311 16.0827 148.457 15.8693 148.537 15.592H149.321C149.204 16.04 148.969 16.4 148.617 16.672C148.265 16.9387 147.825 17.072 147.297 17.072C146.881 17.072 146.511 16.9787 146.185 16.792C145.865 16.6053 145.615 16.3413 145.433 16C145.252 15.6587 145.161 15.2587 145.161 14.8ZM150.341 14.792C150.341 14.344 150.431 13.952 150.613 13.616C150.794 13.2747 151.042 13.0107 151.357 12.824C151.677 12.6373 152.031 12.544 152.421 12.544C152.805 12.544 153.138 12.6267 153.421 12.792C153.703 12.9573 153.914 13.1653 154.053 13.416V12.616H154.789V17H154.053V16.184C153.909 16.44 153.693 16.6533 153.405 16.824C153.122 16.9893 152.791 17.072 152.413 17.072C152.023 17.072 151.671 16.976 151.357 16.784C151.042 16.592 150.794 16.3227 150.613 15.976C150.431 15.6293 150.341 15.2347 150.341 14.792ZM154.053 14.8C154.053 14.4693 153.986 14.1813 153.853 13.936C153.719 13.6907 153.538 13.504 153.309 13.376C153.085 13.2427 152.837 13.176 152.565 13.176C152.293 13.176 152.045 13.24 151.821 13.368C151.597 13.496 151.418 13.6827 151.285 13.928C151.151 14.1733 151.085 14.4613 151.085 14.792C151.085 15.128 151.151 15.4213 151.285 15.672C151.418 15.9173 151.597 16.1067 151.821 16.24C152.045 16.368 152.293 16.432 152.565 16.432C152.837 16.432 153.085 16.368 153.309 16.24C153.538 16.1067 153.719 15.9173 153.853 15.672C153.986 15.4213 154.053 15.1307 154.053 14.8ZM157.067 11.08V17H156.339V11.08H157.067ZM159.38 15.992L158.484 18.144H157.996L158.58 15.992H159.38ZM1.344 23.328C1.472 23.0773 1.65333 22.8827 1.888 22.744C2.128 22.6053 2.41867 22.536 2.76 22.536V23.288H2.568C1.752 23.288 1.344 23.7307 1.344 24.616V27H0.616V22.616H1.344V23.328ZM7.92038 24.64C7.92038 24.7787 7.91238 24.9253 7.89637 25.08H4.39237C4.41904 25.512 4.56571 25.8507 4.83238 26.096C5.10438 26.336 5.43238 26.456 5.81638 26.456C6.13104 26.456 6.39238 26.384 6.60038 26.24C6.81371 26.0907 6.96304 25.8933 7.04838 25.648H7.83238C7.71504 26.0693 7.48038 26.4133 7.12838 26.68C6.77638 26.9413 6.33904 27.072 5.81638 27.072C5.40038 27.072 5.02704 26.9787 4.69638 26.792C4.37104 26.6053 4.11504 26.3413 3.92837 26C3.74171 25.6533 3.64837 25.2533 3.64837 24.8C3.64837 24.3467 3.73904 23.9493 3.92037 23.608C4.10171 23.2667 4.35504 23.0053 4.68037 22.824C5.01104 22.6373 5.38971 22.544 5.81638 22.544C6.23238 22.544 6.60038 22.6347 6.92038 22.816C7.24038 22.9973 7.48571 23.248 7.65638 23.568C7.83238 23.8827 7.92038 24.24 7.92038 24.64ZM7.16838 24.488C7.16838 24.2107 7.10704 23.9733 6.98438 23.776C6.86171 23.5733 6.69371 23.4213 6.48038 23.32C6.27238 23.2133 6.04037 23.16 5.78437 23.16C5.41638 23.16 5.10171 23.2773 4.84037 23.512C4.58437 23.7467 4.43771 24.072 4.40038 24.488H7.16838ZM10.9853 23.216H10.0653V27H9.33731V23.216H8.76931V22.616H9.33731V22.304C9.33731 21.8133 9.46265 21.456 9.71331 21.232C9.96931 21.0027 10.3773 20.888 10.9373 20.888V21.496C10.6173 21.496 10.3906 21.56 10.2573 21.688C10.1293 21.8107 10.0653 22.016 10.0653 22.304V22.616H10.9853V23.216ZM12.8821 23.328C13.0101 23.0773 13.1915 22.8827 13.4261 22.744C13.6661 22.6053 13.9568 22.536 14.2981 22.536V23.288H14.1061C13.2901 23.288 12.8821 23.7307 12.8821 24.616V27H12.1541V22.616H12.8821V23.328ZM19.4585 24.64C19.4585 24.7787 19.4505 24.9253 19.4345 25.08H15.9305C15.9572 25.512 16.1038 25.8507 16.3705 26.096C16.6425 26.336 16.9705 26.456 17.3545 26.456C17.6692 26.456 17.9305 26.384 18.1385 26.24C18.3518 26.0907 18.5012 25.8933 18.5865 25.648H19.3705C19.2532 26.0693 19.0185 26.4133 18.6665 26.68C18.3145 26.9413 17.8772 27.072 17.3545 27.072C16.9385 27.072 16.5652 26.9787 16.2345 26.792C15.9092 26.6053 15.6532 26.3413 15.4665 26C15.2798 25.6533 15.1865 25.2533 15.1865 24.8C15.1865 24.3467 15.2772 23.9493 15.4585 23.608C15.6398 23.2667 15.8932 23.0053 16.2185 22.824C16.5492 22.6373 16.9278 22.544 17.3545 22.544C17.7705 22.544 18.1385 22.6347 18.4585 22.816C18.7785 22.9973 19.0238 23.248 19.1945 23.568C19.3705 23.8827 19.4585 24.24 19.4585 24.64ZM18.7065 24.488C18.7065 24.2107 18.6452 23.9733 18.5225 23.776C18.3998 23.5733 18.2318 23.4213 18.0185 23.32C17.8105 23.2133 17.5785 23.16 17.3225 23.16C16.9545 23.16 16.6398 23.2773 16.3785 23.512C16.1225 23.7467 15.9758 24.072 15.9385 24.488H18.7065ZM22.2914 27.072C21.9554 27.072 21.6541 27.016 21.3874 26.904C21.1208 26.7867 20.9101 26.6267 20.7554 26.424C20.6008 26.216 20.5154 25.9787 20.4994 25.712H21.2514C21.2728 25.9307 21.3741 26.1093 21.5554 26.248C21.7421 26.3867 21.9848 26.456 22.2834 26.456C22.5608 26.456 22.7794 26.3947 22.9394 26.272C23.0994 26.1493 23.1794 25.9947 23.1794 25.808C23.1794 25.616 23.0941 25.4747 22.9234 25.384C22.7528 25.288 22.4888 25.1947 22.1314 25.104C21.8061 25.0187 21.5394 24.9333 21.3314 24.848C21.1288 24.7573 20.9528 24.6267 20.8034 24.456C20.6594 24.28 20.5874 24.0507 20.5874 23.768C20.5874 23.544 20.6541 23.3387 20.7874 23.152C20.9208 22.9653 21.1101 22.8187 21.3554 22.712C21.6008 22.6 21.8808 22.544 22.1954 22.544C22.6808 22.544 23.0728 22.6667 23.3714 22.912C23.6701 23.1573 23.8301 23.4933 23.8514 23.92H23.1234C23.1074 23.6907 23.0141 23.5067 22.8434 23.368C22.6781 23.2293 22.4541 23.16 22.1714 23.16C21.9101 23.16 21.7021 23.216 21.5474 23.328C21.3928 23.44 21.3154 23.5867 21.3154 23.768C21.3154 23.912 21.3608 24.032 21.4514 24.128C21.5474 24.2187 21.6648 24.2933 21.8034 24.352C21.9474 24.4053 22.1448 24.4667 22.3954 24.536C22.7101 24.6213 22.9661 24.7067 23.1634 24.792C23.3608 24.872 23.5288 24.9947 23.6674 25.16C23.8114 25.3253 23.8861 25.5413 23.8914 25.808C23.8914 26.048 23.8248 26.264 23.6914 26.456C23.5581 26.648 23.3688 26.8 23.1234 26.912C22.8834 27.0187 22.6061 27.072 22.2914 27.072ZM27.4151 22.536C27.7458 22.536 28.0445 22.608 28.3111 22.752C28.5778 22.8907 28.7858 23.1013 28.9351 23.384C29.0898 23.6667 29.1671 24.0107 29.1671 24.416V27H28.4471V24.52C28.4471 24.0827 28.3378 23.7493 28.1191 23.52C27.9005 23.2853 27.6018 23.168 27.2231 23.168C26.8391 23.168 26.5325 23.288 26.3031 23.528C26.0791 23.768 25.9671 24.1173 25.9671 24.576V27H25.2391V21.08H25.9671V23.24C26.1111 23.016 26.3085 22.8427 26.5591 22.72C26.8151 22.5973 27.1005 22.536 27.4151 22.536ZM31.0523 21.904C30.9136 21.904 30.7963 21.856 30.7003 21.76C30.6043 21.664 30.5563 21.5467 30.5563 21.408C30.5563 21.2693 30.6043 21.152 30.7003 21.056C30.7963 20.96 30.9136 20.912 31.0523 20.912C31.1856 20.912 31.2976 20.96 31.3883 21.056C31.4843 21.152 31.5323 21.2693 31.5323 21.408C31.5323 21.5467 31.4843 21.664 31.3883 21.76C31.2976 21.856 31.1856 21.904 31.0523 21.904ZM31.4043 22.616V27H30.6763V22.616H31.4043ZM35.1011 22.536C35.6344 22.536 36.0664 22.6987 36.3971 23.024C36.7277 23.344 36.8931 23.808 36.8931 24.416V27H36.1731V24.52C36.1731 24.0827 36.0637 23.7493 35.8451 23.52C35.6264 23.2853 35.3277 23.168 34.9491 23.168C34.5651 23.168 34.2584 23.288 34.0291 23.528C33.8051 23.768 33.6931 24.1173 33.6931 24.576V27H32.9651V22.616H33.6931V23.24C33.8371 23.016 34.0317 22.8427 34.2771 22.72C34.5277 22.5973 34.8024 22.536 35.1011 22.536ZM40.2103 22.544C40.5889 22.544 40.9196 22.6267 41.2023 22.792C41.4903 22.9573 41.7036 23.1653 41.8423 23.416V22.616H42.5783V27.096C42.5783 27.496 42.4929 27.8507 42.3223 28.16C42.1516 28.4747 41.9063 28.72 41.5863 28.896C41.2716 29.072 40.9036 29.16 40.4823 29.16C39.9063 29.16 39.4263 29.024 39.0423 28.752C38.6583 28.48 38.4316 28.1093 38.3623 27.64H39.0823C39.1623 27.9067 39.3276 28.12 39.5783 28.28C39.8289 28.4453 40.1303 28.528 40.4823 28.528C40.8823 28.528 41.2076 28.4027 41.4583 28.152C41.7143 27.9013 41.8423 27.5493 41.8423 27.096V26.176C41.6983 26.432 41.4849 26.6453 41.2023 26.816C40.9196 26.9867 40.5889 27.072 40.2103 27.072C39.8209 27.072 39.4663 26.976 39.1463 26.784C38.8316 26.592 38.5836 26.3227 38.4023 25.976C38.2209 25.6293 38.1303 25.2347 38.1303 24.792C38.1303 24.344 38.2209 23.952 38.4023 23.616C38.5836 23.2747 38.8316 23.0107 39.1463 22.824C39.4663 22.6373 39.8209 22.544 40.2103 22.544ZM41.8423 24.8C41.8423 24.4693 41.7756 24.1813 41.6423 23.936C41.5089 23.6907 41.3276 23.504 41.0983 23.376C40.8743 23.2427 40.6263 23.176 40.3543 23.176C40.0823 23.176 39.8343 23.24 39.6103 23.368C39.3863 23.496 39.2076 23.6827 39.0743 23.928C38.9409 24.1733 38.8743 24.4613 38.8743 24.792C38.8743 25.128 38.9409 25.4213 39.0743 25.672C39.2076 25.9173 39.3863 26.1067 39.6103 26.24C39.8343 26.368 40.0823 26.432 40.3543 26.432C40.6263 26.432 40.8743 26.368 41.0983 26.24C41.3276 26.1067 41.5089 25.9173 41.6423 25.672C41.7756 25.4213 41.8423 25.1307 41.8423 24.8ZM44.8805 25.992L43.9845 28.144H43.4965L44.0805 25.992H44.8805ZM48.2153 24.792C48.2153 24.344 48.3059 23.952 48.4873 23.616C48.6686 23.2747 48.9166 23.0107 49.2313 22.824C49.5513 22.6373 49.9059 22.544 50.2953 22.544C50.6793 22.544 51.0126 22.6267 51.2953 22.792C51.5779 22.9573 51.7886 23.1653 51.9273 23.416V22.616H52.6633V27H51.9273V26.184C51.7833 26.44 51.5673 26.6533 51.2793 26.824C50.9966 26.9893 50.6659 27.072 50.2873 27.072C49.8979 27.072 49.5459 26.976 49.2313 26.784C48.9166 26.592 48.6686 26.3227 48.4873 25.976C48.3059 25.6293 48.2153 25.2347 48.2153 24.792ZM51.9273 24.8C51.9273 24.4693 51.8606 24.1813 51.7273 23.936C51.5939 23.6907 51.4126 23.504 51.1833 23.376C50.9593 23.2427 50.7113 23.176 50.4393 23.176C50.1673 23.176 49.9193 23.24 49.6953 23.368C49.4713 23.496 49.2926 23.6827 49.1593 23.928C49.0259 24.1733 48.9593 24.4613 48.9593 24.792C48.9593 25.128 49.0259 25.4213 49.1593 25.672C49.2926 25.9173 49.4713 26.1067 49.6953 26.24C49.9193 26.368 50.1673 26.432 50.4393 26.432C50.7113 26.432 50.9593 26.368 51.1833 26.24C51.4126 26.1067 51.5939 25.9173 51.7273 25.672C51.8606 25.4213 51.9273 25.1307 51.9273 24.8ZM56.3495 22.536C56.8828 22.536 57.3148 22.6987 57.6455 23.024C57.9762 23.344 58.1415 23.808 58.1415 24.416V27H57.4215V24.52C57.4215 24.0827 57.3122 23.7493 57.0935 23.52C56.8748 23.2853 56.5762 23.168 56.1975 23.168C55.8135 23.168 55.5068 23.288 55.2775 23.528C55.0535 23.768 54.9415 24.1173 54.9415 24.576V27H54.2135V22.616H54.9415V23.24C55.0855 23.016 55.2802 22.8427 55.5255 22.72C55.7762 22.5973 56.0508 22.536 56.3495 22.536ZM59.3787 24.792C59.3787 24.344 59.4694 23.952 59.6507 23.616C59.832 23.2747 60.08 23.0107 60.3947 22.824C60.7147 22.6373 61.072 22.544 61.4667 22.544C61.808 22.544 62.1254 22.624 62.4187 22.784C62.712 22.9387 62.936 23.144 63.0907 23.4V21.08H63.8267V27H63.0907V26.176C62.9467 26.4373 62.7334 26.6533 62.4507 26.824C62.168 26.9893 61.8374 27.072 61.4587 27.072C61.0694 27.072 60.7147 26.976 60.3947 26.784C60.08 26.592 59.832 26.3227 59.6507 25.976C59.4694 25.6293 59.3787 25.2347 59.3787 24.792ZM63.0907 24.8C63.0907 24.4693 63.024 24.1813 62.8907 23.936C62.7574 23.6907 62.576 23.504 62.3467 23.376C62.1227 23.2427 61.8747 23.176 61.6027 23.176C61.3307 23.176 61.0827 23.24 60.8587 23.368C60.6347 23.496 60.456 23.6827 60.3227 23.928C60.1894 24.1733 60.1227 24.4613 60.1227 24.792C60.1227 25.128 60.1894 25.4213 60.3227 25.672C60.456 25.9173 60.6347 26.1067 60.8587 26.24C61.0827 26.368 61.3307 26.432 61.6027 26.432C61.8747 26.432 62.1227 26.368 62.3467 26.24C62.576 26.1067 62.7574 25.9173 62.8907 25.672C63.024 25.4213 63.0907 25.1307 63.0907 24.8ZM71.8298 24.64C71.8298 24.7787 71.8218 24.9253 71.8058 25.08H68.3018C68.3284 25.512 68.4751 25.8507 68.7418 26.096C69.0138 26.336 69.3418 26.456 69.7258 26.456C70.0404 26.456 70.3018 26.384 70.5098 26.24C70.7231 26.0907 70.8724 25.8933 70.9578 25.648H71.7418C71.6244 26.0693 71.3898 26.4133 71.0378 26.68C70.6858 26.9413 70.2484 27.072 69.7258 27.072C69.3098 27.072 68.9364 26.9787 68.6058 26.792C68.2804 26.6053 68.0244 26.3413 67.8378 26C67.6511 25.6533 67.5578 25.2533 67.5578 24.8C67.5578 24.3467 67.6484 23.9493 67.8298 23.608C68.0111 23.2667 68.2644 23.0053 68.5898 22.824C68.9204 22.6373 69.2991 22.544 69.7258 22.544C70.1418 22.544 70.5098 22.6347 70.8298 22.816C71.1498 22.9973 71.3951 23.248 71.5658 23.568C71.7418 23.8827 71.8298 24.24 71.8298 24.64ZM71.0778 24.488C71.0778 24.2107 71.0164 23.9733 70.8938 23.776C70.7711 23.5733 70.6031 23.4213 70.3898 23.32C70.1818 23.2133 69.9498 23.16 69.6938 23.16C69.3258 23.16 69.0111 23.2773 68.7498 23.512C68.4938 23.7467 68.3471 24.072 68.3098 24.488H71.0778ZM75.3987 27L74.3587 25.368L73.3587 27H72.5987L74.0147 24.824L72.5987 22.616H73.4227L74.4627 24.24L75.4547 22.616H76.2147L74.8067 24.784L76.2227 27H75.3987ZM79.1708 27.072C78.7601 27.072 78.3868 26.9787 78.0508 26.792C77.7201 26.6053 77.4588 26.3413 77.2668 26C77.0801 25.6533 76.9868 25.2533 76.9868 24.8C76.9868 24.352 77.0828 23.9573 77.2748 23.616C77.4721 23.2693 77.7388 23.0053 78.0748 22.824C78.4108 22.6373 78.7868 22.544 79.2028 22.544C79.6188 22.544 79.9948 22.6373 80.3308 22.824C80.6668 23.0053 80.9308 23.2667 81.1228 23.608C81.3201 23.9493 81.4188 24.3467 81.4188 24.8C81.4188 25.2533 81.3175 25.6533 81.1148 26C80.9175 26.3413 80.6481 26.6053 80.3068 26.792C79.9655 26.9787 79.5868 27.072 79.1708 27.072ZM79.1708 26.432C79.4321 26.432 79.6775 26.3707 79.9068 26.248C80.1361 26.1253 80.3201 25.9413 80.4588 25.696C80.6028 25.4507 80.6748 25.152 80.6748 24.8C80.6748 24.448 80.6055 24.1493 80.4668 23.904C80.3281 23.6587 80.1468 23.4773 79.9228 23.36C79.6988 23.2373 79.4561 23.176 79.1948 23.176C78.9281 23.176 78.6828 23.2373 78.4588 23.36C78.2401 23.4773 78.0641 23.6587 77.9308 23.904C77.7975 24.1493 77.7308 24.448 77.7308 24.8C77.7308 25.1573 77.7948 25.4587 77.9228 25.704C78.0561 25.9493 78.2321 26.1333 78.4508 26.256C78.6695 26.3733 78.9095 26.432 79.1708 26.432ZM83.584 23.216V25.8C83.584 26.0133 83.6293 26.1653 83.72 26.256C83.8107 26.3413 83.968 26.384 84.192 26.384H84.728V27H84.072C83.6667 27 83.3627 26.9067 83.16 26.72C82.9573 26.5333 82.856 26.2267 82.856 25.8V23.216H82.288V22.616H82.856V21.512H83.584V22.616H84.728V23.216H83.584ZM86.3061 21.904C86.1674 21.904 86.0501 21.856 85.9541 21.76C85.8581 21.664 85.8101 21.5467 85.8101 21.408C85.8101 21.2693 85.8581 21.152 85.9541 21.056C86.0501 20.96 86.1674 20.912 86.3061 20.912C86.4394 20.912 86.5514 20.96 86.6421 21.056C86.7381 21.152 86.7861 21.2693 86.7861 21.408C86.7861 21.5467 86.7381 21.664 86.6421 21.76C86.5514 21.856 86.4394 21.904 86.3061 21.904ZM86.6581 22.616V27H85.9301V22.616H86.6581ZM87.9468 24.8C87.9468 24.3467 88.0375 23.952 88.2188 23.616C88.4001 23.2747 88.6508 23.0107 88.9708 22.824C89.2961 22.6373 89.6668 22.544 90.0828 22.544C90.6215 22.544 91.0641 22.6747 91.4108 22.936C91.7628 23.1973 91.9948 23.56 92.1068 24.024H91.3228C91.2481 23.7573 91.1015 23.5467 90.8828 23.392C90.6695 23.2373 90.4028 23.16 90.0828 23.16C89.6668 23.16 89.3308 23.304 89.0748 23.592C88.8188 23.8747 88.6908 24.2773 88.6908 24.8C88.6908 25.328 88.8188 25.736 89.0748 26.024C89.3308 26.312 89.6668 26.456 90.0828 26.456C90.4028 26.456 90.6695 26.3813 90.8828 26.232C91.0961 26.0827 91.2428 25.8693 91.3228 25.592H92.1068C91.9895 26.04 91.7548 26.4 91.4028 26.672C91.0508 26.9387 90.6108 27.072 90.0828 27.072C89.6668 27.072 89.2961 26.9787 88.9708 26.792C88.6508 26.6053 88.4001 26.3413 88.2188 26C88.0375 25.6587 87.9468 25.2587 87.9468 24.8ZM96.739 23.216V25.8C96.739 26.0133 96.7843 26.1653 96.875 26.256C96.9657 26.3413 97.123 26.384 97.347 26.384H97.883V27H97.227C96.8217 27 96.5177 26.9067 96.315 26.72C96.1123 26.5333 96.011 26.2267 96.011 25.8V23.216H95.443V22.616H96.011V21.512H96.739V22.616H97.883V23.216H96.739ZM98.8131 24.792C98.8131 24.344 98.9037 23.952 99.0851 23.616C99.2664 23.2747 99.5144 23.0107 99.8291 22.824C100.149 22.6373 100.504 22.544 100.893 22.544C101.277 22.544 101.61 22.6267 101.893 22.792C102.176 22.9573 102.386 23.1653 102.525 23.416V22.616H103.261V27H102.525V26.184C102.381 26.44 102.165 26.6533 101.877 26.824C101.594 26.9893 101.264 27.072 100.885 27.072C100.496 27.072 100.144 26.976 99.8291 26.784C99.5144 26.592 99.2664 26.3227 99.0851 25.976C98.9037 25.6293 98.8131 25.2347 98.8131 24.792ZM102.525 24.8C102.525 24.4693 102.458 24.1813 102.325 23.936C102.192 23.6907 102.01 23.504 101.781 23.376C101.557 23.2427 101.309 23.176 101.037 23.176C100.765 23.176 100.517 23.24 100.293 23.368C100.069 23.496 99.8904 23.6827 99.7571 23.928C99.6237 24.1733 99.5571 24.4613 99.5571 24.792C99.5571 25.128 99.6237 25.4213 99.7571 25.672C99.8904 25.9173 100.069 26.1067 100.293 26.24C100.517 26.368 100.765 26.432 101.037 26.432C101.309 26.432 101.557 26.368 101.781 26.24C102.01 26.1067 102.192 25.9173 102.325 25.672C102.458 25.4213 102.525 25.1307 102.525 24.8ZM106.363 27.072C106.027 27.072 105.726 27.016 105.459 26.904C105.193 26.7867 104.982 26.6267 104.827 26.424C104.673 26.216 104.587 25.9787 104.571 25.712H105.323C105.345 25.9307 105.446 26.1093 105.627 26.248C105.814 26.3867 106.057 26.456 106.355 26.456C106.633 26.456 106.851 26.3947 107.011 26.272C107.171 26.1493 107.251 25.9947 107.251 25.808C107.251 25.616 107.166 25.4747 106.995 25.384C106.825 25.288 106.561 25.1947 106.203 25.104C105.878 25.0187 105.611 24.9333 105.403 24.848C105.201 24.7573 105.025 24.6267 104.875 24.456C104.731 24.28 104.659 24.0507 104.659 23.768C104.659 23.544 104.726 23.3387 104.859 23.152C104.993 22.9653 105.182 22.8187 105.427 22.712C105.673 22.6 105.953 22.544 106.267 22.544C106.753 22.544 107.145 22.6667 107.443 22.912C107.742 23.1573 107.902 23.4933 107.923 23.92H107.195C107.179 23.6907 107.086 23.5067 106.915 23.368C106.75 23.2293 106.526 23.16 106.243 23.16C105.982 23.16 105.774 23.216 105.619 23.328C105.465 23.44 105.387 23.5867 105.387 23.768C105.387 23.912 105.433 24.032 105.523 24.128C105.619 24.2187 105.737 24.2933 105.875 24.352C106.019 24.4053 106.217 24.4667 106.467 24.536C106.782 24.6213 107.038 24.7067 107.235 24.792C107.433 24.872 107.601 24.9947 107.739 25.16C107.883 25.3253 107.958 25.5413 107.963 25.808C107.963 26.048 107.897 26.264 107.763 26.456C107.63 26.648 107.441 26.8 107.195 26.912C106.955 27.0187 106.678 27.072 106.363 27.072ZM110.199 23.216V25.8C110.199 26.0133 110.244 26.1653 110.335 26.256C110.426 26.3413 110.583 26.384 110.807 26.384H111.343V27H110.687C110.282 27 109.978 26.9067 109.775 26.72C109.572 26.5333 109.471 26.2267 109.471 25.8V23.216H108.903V22.616H109.471V21.512H110.199V22.616H111.343V23.216H110.199ZM116.545 24.64C116.545 24.7787 116.537 24.9253 116.521 25.08H113.017C113.044 25.512 113.19 25.8507 113.457 26.096C113.729 26.336 114.057 26.456 114.441 26.456C114.756 26.456 115.017 26.384 115.225 26.24C115.438 26.0907 115.588 25.8933 115.673 25.648H116.457C116.34 26.0693 116.105 26.4133 115.753 26.68C115.401 26.9413 114.964 27.072 114.441 27.072C114.025 27.072 113.652 26.9787 113.321 26.792C112.996 26.6053 112.74 26.3413 112.553 26C112.366 25.6533 112.273 25.2533 112.273 24.8C112.273 24.3467 112.364 23.9493 112.545 23.608C112.726 23.2667 112.98 23.0053 113.305 22.824C113.636 22.6373 114.014 22.544 114.441 22.544C114.857 22.544 115.225 22.6347 115.545 22.816C115.865 22.9973 116.11 23.248 116.281 23.568C116.457 23.8827 116.545 24.24 116.545 24.64ZM115.793 24.488C115.793 24.2107 115.732 23.9733 115.609 23.776C115.486 23.5733 115.318 23.4213 115.105 23.32C114.897 23.2133 114.665 23.16 114.409 23.16C114.041 23.16 113.726 23.2773 113.465 23.512C113.209 23.7467 113.062 24.072 113.025 24.488H115.793ZM118.578 25.992L117.682 28.144H117.194L117.778 25.992H118.578ZM122.913 23.424C123.057 23.1733 123.27 22.9653 123.553 22.8C123.841 22.6293 124.174 22.544 124.553 22.544C124.942 22.544 125.294 22.6373 125.609 22.824C125.929 23.0107 126.179 23.2747 126.361 23.616C126.542 23.952 126.633 24.344 126.633 24.792C126.633 25.2347 126.542 25.6293 126.361 25.976C126.179 26.3227 125.929 26.592 125.609 26.784C125.294 26.976 124.942 27.072 124.553 27.072C124.179 27.072 123.849 26.9893 123.561 26.824C123.278 26.6533 123.062 26.4427 122.913 26.192V29.08H122.185V22.616H122.913V23.424ZM125.889 24.792C125.889 24.4613 125.822 24.1733 125.689 23.928C125.555 23.6827 125.374 23.496 125.145 23.368C124.921 23.24 124.673 23.176 124.401 23.176C124.134 23.176 123.886 23.2427 123.657 23.376C123.433 23.504 123.251 23.6933 123.113 23.944C122.979 24.1893 122.913 24.4747 122.913 24.8C122.913 25.1307 122.979 25.4213 123.113 25.672C123.251 25.9173 123.433 26.1067 123.657 26.24C123.886 26.368 124.134 26.432 124.401 26.432C124.673 26.432 124.921 26.368 125.145 26.24C125.374 26.1067 125.555 25.9173 125.689 25.672C125.822 25.4213 125.889 25.128 125.889 24.792ZM131.911 24.64C131.911 24.7787 131.903 24.9253 131.887 25.08H128.383C128.41 25.512 128.556 25.8507 128.823 26.096C129.095 26.336 129.423 26.456 129.807 26.456C130.122 26.456 130.383 26.384 130.591 26.24C130.804 26.0907 130.954 25.8933 131.039 25.648H131.823C131.706 26.0693 131.471 26.4133 131.119 26.68C130.767 26.9413 130.33 27.072 129.807 27.072C129.391 27.072 129.018 26.9787 128.687 26.792C128.362 26.6053 128.106 26.3413 127.919 26C127.732 25.6533 127.639 25.2533 127.639 24.8C127.639 24.3467 127.73 23.9493 127.911 23.608C128.092 23.2667 128.346 23.0053 128.671 22.824C129.002 22.6373 129.38 22.544 129.807 22.544C130.223 22.544 130.591 22.6347 130.911 22.816C131.231 22.9973 131.476 23.248 131.647 23.568C131.823 23.8827 131.911 24.24 131.911 24.64ZM131.159 24.488C131.159 24.2107 131.098 23.9733 130.975 23.776C130.852 23.5733 130.684 23.4213 130.471 23.32C130.263 23.2133 130.031 23.16 129.775 23.16C129.407 23.16 129.092 23.2773 128.831 23.512C128.575 23.7467 128.428 24.072 128.391 24.488H131.159ZM133.92 23.328C134.048 23.0773 134.229 22.8827 134.464 22.744C134.704 22.6053 134.995 22.536 135.336 22.536V23.288H135.144C134.328 23.288 133.92 23.7307 133.92 24.616V27H133.192V22.616H133.92V23.328ZM138.28 23.216H137.36V27H136.632V23.216H136.064V22.616H136.632V22.304C136.632 21.8133 136.758 21.456 137.008 21.232C137.264 21.0027 137.672 20.888 138.232 20.888V21.496C137.912 21.496 137.686 21.56 137.552 21.688C137.424 21.8107 137.36 22.016 137.36 22.304V22.616H138.28V23.216ZM143.449 24.64C143.449 24.7787 143.441 24.9253 143.425 25.08H139.921C139.948 25.512 140.094 25.8507 140.361 26.096C140.633 26.336 140.961 26.456 141.345 26.456C141.66 26.456 141.921 26.384 142.129 26.24C142.342 26.0907 142.492 25.8933 142.577 25.648H143.361C143.244 26.0693 143.009 26.4133 142.657 26.68C142.305 26.9413 141.868 27.072 141.345 27.072C140.929 27.072 140.556 26.9787 140.225 26.792C139.9 26.6053 139.644 26.3413 139.457 26C139.27 25.6533 139.177 25.2533 139.177 24.8C139.177 24.3467 139.268 23.9493 139.449 23.608C139.63 23.2667 139.884 23.0053 140.209 22.824C140.54 22.6373 140.918 22.544 141.345 22.544C141.761 22.544 142.129 22.6347 142.449 22.816C142.769 22.9973 143.014 23.248 143.185 23.568C143.361 23.8827 143.449 24.24 143.449 24.64ZM142.697 24.488C142.697 24.2107 142.636 23.9733 142.513 23.776C142.39 23.5733 142.222 23.4213 142.009 23.32C141.801 23.2133 141.569 23.16 141.313 23.16C140.945 23.16 140.63 23.2773 140.369 23.512C140.113 23.7467 139.966 24.072 139.929 24.488H142.697ZM144.458 24.8C144.458 24.3467 144.549 23.952 144.73 23.616C144.911 23.2747 145.162 23.0107 145.482 22.824C145.807 22.6373 146.178 22.544 146.594 22.544C147.133 22.544 147.575 22.6747 147.922 22.936C148.274 23.1973 148.506 23.56 148.618 24.024H147.834C147.759 23.7573 147.613 23.5467 147.394 23.392C147.181 23.2373 146.914 23.16 146.594 23.16C146.178 23.16 145.842 23.304 145.586 23.592C145.33 23.8747 145.202 24.2773 145.202 24.8C145.202 25.328 145.33 25.736 145.586 26.024C145.842 26.312 146.178 26.456 146.594 26.456C146.914 26.456 147.181 26.3813 147.394 26.232C147.607 26.0827 147.754 25.8693 147.834 25.592H148.618C148.501 26.04 148.266 26.4 147.914 26.672C147.562 26.9387 147.122 27.072 146.594 27.072C146.178 27.072 145.807 26.9787 145.482 26.792C145.162 26.6053 144.911 26.3413 144.73 26C144.549 25.6587 144.458 25.2587 144.458 24.8ZM150.797 23.216V25.8C150.797 26.0133 150.843 26.1653 150.933 26.256C151.024 26.3413 151.181 26.384 151.405 26.384H151.941V27H151.285C150.88 27 150.576 26.9067 150.373 26.72C150.171 26.5333 150.069 26.2267 150.069 25.8V23.216H149.501V22.616H150.069V21.512H150.797V22.616H151.941V23.216H150.797ZM2.4 34.216H1.48V38H0.752V34.216H0.184V33.616H0.752V33.304C0.752 32.8133 0.877333 32.456 1.128 32.232C1.384 32.0027 1.792 31.888 2.352 31.888V32.496C2.032 32.496 1.80533 32.56 1.672 32.688C1.544 32.8107 1.48 33.016 1.48 33.304V33.616H2.4V34.216ZM5.48081 38.072C5.07015 38.072 4.69681 37.9787 4.36081 37.792C4.03015 37.6053 3.76881 37.3413 3.57681 37C3.39015 36.6533 3.29681 36.2533 3.29681 35.8C3.29681 35.352 3.39281 34.9573 3.58481 34.616C3.78215 34.2693 4.04881 34.0053 4.38481 33.824C4.72081 33.6373 5.09681 33.544 5.51281 33.544C5.92881 33.544 6.30481 33.6373 6.64081 33.824C6.97681 34.0053 7.24081 34.2667 7.43281 34.608C7.63015 34.9493 7.72881 35.3467 7.72881 35.8C7.72881 36.2533 7.62748 36.6533 7.42481 37C7.22748 37.3413 6.95815 37.6053 6.61681 37.792C6.27548 37.9787 5.89681 38.072 5.48081 38.072ZM5.48081 37.432C5.74215 37.432 5.98748 37.3707 6.21681 37.248C6.44615 37.1253 6.63015 36.9413 6.76881 36.696C6.91281 36.4507 6.98481 36.152 6.98481 35.8C6.98481 35.448 6.91548 35.1493 6.77681 34.904C6.63815 34.6587 6.45681 34.4773 6.23281 34.36C6.00881 34.2373 5.76615 34.176 5.50481 34.176C5.23815 34.176 4.99281 34.2373 4.76881 34.36C4.55015 34.4773 4.37415 34.6587 4.24081 34.904C4.10748 35.1493 4.04081 35.448 4.04081 35.8C4.04081 36.1573 4.10481 36.4587 4.23281 36.704C4.36615 36.9493 4.54215 37.1333 4.76081 37.256C4.97948 37.3733 5.21948 37.432 5.48081 37.432ZM9.734 34.328C9.862 34.0773 10.0433 33.8827 10.278 33.744C10.518 33.6053 10.8087 33.536 11.15 33.536V34.288H10.958C10.142 34.288 9.734 34.7307 9.734 35.616V38H9.006V33.616H9.734V34.328ZM18.5392 33.616L15.8992 40.064H15.1472L16.0112 37.952L14.2432 33.616H15.0512L16.4272 37.168L17.7872 33.616H18.5392ZM21.503 38.072C21.0923 38.072 20.719 37.9787 20.383 37.792C20.0523 37.6053 19.791 37.3413 19.599 37C19.4123 36.6533 19.319 36.2533 19.319 35.8C19.319 35.352 19.415 34.9573 19.607 34.616C19.8043 34.2693 20.071 34.0053 20.407 33.824C20.743 33.6373 21.119 33.544 21.535 33.544C21.951 33.544 22.327 33.6373 22.663 33.824C22.999 34.0053 23.263 34.2667 23.455 34.608C23.6523 34.9493 23.751 35.3467 23.751 35.8C23.751 36.2533 23.6497 36.6533 23.447 37C23.2497 37.3413 22.9803 37.6053 22.639 37.792C22.2977 37.9787 21.919 38.072 21.503 38.072ZM21.503 37.432C21.7643 37.432 22.0097 37.3707 22.239 37.248C22.4683 37.1253 22.6523 36.9413 22.791 36.696C22.935 36.4507 23.007 36.152 23.007 35.8C23.007 35.448 22.9377 35.1493 22.799 34.904C22.6603 34.6587 22.479 34.4773 22.255 34.36C22.031 34.2373 21.7883 34.176 21.527 34.176C21.2603 34.176 21.015 34.2373 20.791 34.36C20.5723 34.4773 20.3963 34.6587 20.263 34.904C20.1297 35.1493 20.063 35.448 20.063 35.8C20.063 36.1573 20.127 36.4587 20.255 36.704C20.3883 36.9493 20.5643 37.1333 20.783 37.256C21.0017 37.3733 21.2417 37.432 21.503 37.432ZM28.9162 33.616V38H28.1882V37.352C28.0495 37.576 27.8549 37.752 27.6042 37.88C27.3589 38.0027 27.0869 38.064 26.7882 38.064C26.4469 38.064 26.1402 37.9947 25.8682 37.856C25.5962 37.712 25.3802 37.4987 25.2202 37.216C25.0655 36.9333 24.9882 36.5893 24.9882 36.184V33.616H25.7082V36.088C25.7082 36.52 25.8175 36.8533 26.0362 37.088C26.2549 37.3173 26.5535 37.432 26.9322 37.432C27.3215 37.432 27.6282 37.312 27.8522 37.072C28.0762 36.832 28.1882 36.4827 28.1882 36.024V33.616H28.9162ZM31.1934 34.328C31.3214 34.0773 31.5027 33.8827 31.7374 33.744C31.9774 33.6053 32.268 33.536 32.6094 33.536V34.288H32.4174C31.6014 34.288 31.1934 34.7307 31.1934 35.616V38H30.4654V33.616H31.1934V34.328ZM35.9506 35.8C35.9506 35.3467 36.0412 34.952 36.2226 34.616C36.4039 34.2747 36.6546 34.0107 36.9746 33.824C37.2999 33.6373 37.6706 33.544 38.0866 33.544C38.6252 33.544 39.0679 33.6747 39.4146 33.936C39.7666 34.1973 39.9986 34.56 40.1106 35.024H39.3266C39.2519 34.7573 39.1052 34.5467 38.8866 34.392C38.6732 34.2373 38.4066 34.16 38.0866 34.16C37.6706 34.16 37.3346 34.304 37.0786 34.592C36.8226 34.8747 36.6946 35.2773 36.6946 35.8C36.6946 36.328 36.8226 36.736 37.0786 37.024C37.3346 37.312 37.6706 37.456 38.0866 37.456C38.4066 37.456 38.6732 37.3813 38.8866 37.232C39.0999 37.0827 39.2466 36.8693 39.3266 36.592H40.1106C39.9932 37.04 39.7586 37.4 39.4066 37.672C39.0546 37.9387 38.6146 38.072 38.0866 38.072C37.6706 38.072 37.2999 37.9787 36.9746 37.792C36.6546 37.6053 36.4039 37.3413 36.2226 37C36.0412 36.6587 35.9506 36.2587 35.9506 35.8ZM43.5779 33.536C43.9086 33.536 44.2073 33.608 44.4739 33.752C44.7406 33.8907 44.9486 34.1013 45.0979 34.384C45.2526 34.6667 45.3299 35.0107 45.3299 35.416V38H44.6099V35.52C44.6099 35.0827 44.5006 34.7493 44.2819 34.52C44.0633 34.2853 43.7646 34.168 43.3859 34.168C43.0019 34.168 42.6953 34.288 42.4659 34.528C42.2419 34.768 42.1299 35.1173 42.1299 35.576V38H41.4019V32.08H42.1299V34.24C42.2739 34.016 42.4713 33.8427 42.7219 33.72C42.9779 33.5973 43.2633 33.536 43.5779 33.536ZM50.8391 35.64C50.8391 35.7787 50.8311 35.9253 50.8151 36.08H47.3111C47.3378 36.512 47.4845 36.8507 47.7511 37.096C48.0231 37.336 48.3511 37.456 48.7351 37.456C49.0498 37.456 49.3111 37.384 49.5191 37.24C49.7325 37.0907 49.8818 36.8933 49.9671 36.648H50.7511C50.6338 37.0693 50.3991 37.4133 50.0471 37.68C49.6951 37.9413 49.2578 38.072 48.7351 38.072C48.3191 38.072 47.9458 37.9787 47.6151 37.792C47.2898 37.6053 47.0338 37.3413 46.8471 37C46.6605 36.6533 46.5671 36.2533 46.5671 35.8C46.5671 35.3467 46.6578 34.9493 46.8391 34.608C47.0205 34.2667 47.2738 34.0053 47.5991 33.824C47.9298 33.6373 48.3085 33.544 48.7351 33.544C49.1511 33.544 49.5191 33.6347 49.8391 33.816C50.1591 33.9973 50.4045 34.248 50.5751 34.568C50.7511 34.8827 50.8391 35.24 50.8391 35.64ZM50.0871 35.488C50.0871 35.2107 50.0258 34.9733 49.9031 34.776C49.7805 34.5733 49.6125 34.4213 49.3991 34.32C49.1911 34.2133 48.9591 34.16 48.7031 34.16C48.3351 34.16 48.0205 34.2773 47.7591 34.512C47.5031 34.7467 47.3565 35.072 47.3191 35.488H50.0871ZM56.1201 35.64C56.1201 35.7787 56.1121 35.9253 56.0961 36.08H52.5921C52.6187 36.512 52.7654 36.8507 53.0321 37.096C53.3041 37.336 53.6321 37.456 54.0161 37.456C54.3307 37.456 54.5921 37.384 54.8001 37.24C55.0134 37.0907 55.1627 36.8933 55.2481 36.648H56.0321C55.9147 37.0693 55.6801 37.4133 55.3281 37.68C54.9761 37.9413 54.5387 38.072 54.0161 38.072C53.6001 38.072 53.2267 37.9787 52.8961 37.792C52.5707 37.6053 52.3147 37.3413 52.1281 37C51.9414 36.6533 51.8481 36.2533 51.8481 35.8C51.8481 35.3467 51.9387 34.9493 52.1201 34.608C52.3014 34.2667 52.5547 34.0053 52.8801 33.824C53.2107 33.6373 53.5894 33.544 54.0161 33.544C54.4321 33.544 54.8001 33.6347 55.1201 33.816C55.4401 33.9973 55.6854 34.248 55.8561 34.568C56.0321 34.8827 56.1201 35.24 56.1201 35.64ZM55.3681 35.488C55.3681 35.2107 55.3067 34.9733 55.1841 34.776C55.0614 34.5733 54.8934 34.4213 54.6801 34.32C54.4721 34.2133 54.2401 34.16 53.9841 34.16C53.6161 34.16 53.3014 34.2773 53.0401 34.512C52.7841 34.7467 52.6374 35.072 52.6001 35.488H55.3681ZM58.129 34.328C58.257 34.0773 58.4383 33.8827 58.673 33.744C58.913 33.6053 59.2037 33.536 59.545 33.536V34.288H59.353C58.537 34.288 58.129 34.7307 58.129 35.616V38H57.401V33.616H58.129V34.328ZM62.4894 34.216H61.5694V38H60.8414V34.216H60.2734V33.616H60.8414V33.304C60.8414 32.8133 60.9667 32.456 61.2174 32.232C61.4734 32.0027 61.8814 31.888 62.4414 31.888V32.496C62.1214 32.496 61.8947 32.56 61.7614 32.688C61.6334 32.8107 61.5694 33.016 61.5694 33.304V33.616H62.4894V34.216ZM67.5462 33.616V38H66.8182V37.352C66.6795 37.576 66.4849 37.752 66.2342 37.88C65.9889 38.0027 65.7169 38.064 65.4182 38.064C65.0769 38.064 64.7702 37.9947 64.4982 37.856C64.2262 37.712 64.0102 37.4987 63.8502 37.216C63.6955 36.9333 63.6182 36.5893 63.6182 36.184V33.616H64.3382V36.088C64.3382 36.52 64.4475 36.8533 64.6662 37.088C64.8849 37.3173 65.1835 37.432 65.5622 37.432C65.9515 37.432 66.2582 37.312 66.4822 37.072C66.7062 36.832 66.8182 36.4827 66.8182 36.024V33.616H67.5462ZM69.8234 32.08V38H69.0954V32.08H69.8234ZM79.1089 33.536C79.4503 33.536 79.7543 33.608 80.0209 33.752C80.2876 33.8907 80.4983 34.1013 80.6529 34.384C80.8076 34.6667 80.8849 35.0107 80.8849 35.416V38H80.1649V35.52C80.1649 35.0827 80.0556 34.7493 79.8369 34.52C79.6236 34.2853 79.3329 34.168 78.9649 34.168C78.5863 34.168 78.2849 34.2907 78.0609 34.536C77.8369 34.776 77.7249 35.1253 77.7249 35.584V38H77.0049V35.52C77.0049 35.0827 76.8956 34.7493 76.6769 34.52C76.4636 34.2853 76.1729 34.168 75.8049 34.168C75.4263 34.168 75.1249 34.2907 74.9009 34.536C74.6769 34.776 74.5649 35.1253 74.5649 35.584V38H73.8369V33.616H74.5649V34.248C74.7089 34.0187 74.9009 33.8427 75.1409 33.72C75.3863 33.5973 75.6556 33.536 75.9489 33.536C76.3169 33.536 76.6423 33.6187 76.9249 33.784C77.2076 33.9493 77.4183 34.192 77.5569 34.512C77.6796 34.2027 77.8823 33.9627 78.1649 33.792C78.4476 33.6213 78.7623 33.536 79.1089 33.536ZM84.3111 38.072C83.9005 38.072 83.5271 37.9787 83.1911 37.792C82.8605 37.6053 82.5991 37.3413 82.4071 37C82.2205 36.6533 82.1271 36.2533 82.1271 35.8C82.1271 35.352 82.2231 34.9573 82.4151 34.616C82.6125 34.2693 82.8791 34.0053 83.2151 33.824C83.5511 33.6373 83.9271 33.544 84.3431 33.544C84.7591 33.544 85.1351 33.6373 85.4711 33.824C85.8071 34.0053 86.0711 34.2667 86.2631 34.608C86.4605 34.9493 86.5591 35.3467 86.5591 35.8C86.5591 36.2533 86.4578 36.6533 86.2551 37C86.0578 37.3413 85.7885 37.6053 85.4471 37.792C85.1058 37.9787 84.7271 38.072 84.3111 38.072ZM84.3111 37.432C84.5725 37.432 84.8178 37.3707 85.0471 37.248C85.2765 37.1253 85.4605 36.9413 85.5991 36.696C85.7431 36.4507 85.8151 36.152 85.8151 35.8C85.8151 35.448 85.7458 35.1493 85.6071 34.904C85.4685 34.6587 85.2871 34.4773 85.0631 34.36C84.8391 34.2373 84.5965 34.176 84.3351 34.176C84.0685 34.176 83.8231 34.2373 83.5991 34.36C83.3805 34.4773 83.2045 34.6587 83.0711 34.904C82.9378 35.1493 82.8711 35.448 82.8711 35.8C82.8711 36.1573 82.9351 36.4587 83.0631 36.704C83.1965 36.9493 83.3725 37.1333 83.5911 37.256C83.8098 37.3733 84.0498 37.432 84.3111 37.432ZM93.1083 33.536C93.4496 33.536 93.7536 33.608 94.0203 33.752C94.287 33.8907 94.4976 34.1013 94.6523 34.384C94.807 34.6667 94.8843 35.0107 94.8843 35.416V38H94.1643V35.52C94.1643 35.0827 94.055 34.7493 93.8363 34.52C93.623 34.2853 93.3323 34.168 92.9643 34.168C92.5856 34.168 92.2843 34.2907 92.0603 34.536C91.8363 34.776 91.7243 35.1253 91.7243 35.584V38H91.0043V35.52C91.0043 35.0827 90.895 34.7493 90.6763 34.52C90.463 34.2853 90.1723 34.168 89.8043 34.168C89.4256 34.168 89.1243 34.2907 88.9003 34.536C88.6763 34.776 88.5643 35.1253 88.5643 35.584V38H87.8363V33.616H88.5643V34.248C88.7083 34.0187 88.9003 33.8427 89.1403 33.72C89.3856 33.5973 89.655 33.536 89.9483 33.536C90.3163 33.536 90.6416 33.6187 90.9243 33.784C91.207 33.9493 91.4176 34.192 91.5563 34.512C91.679 34.2027 91.8816 33.9627 92.1643 33.792C92.447 33.6213 92.7616 33.536 93.1083 33.536ZM100.399 35.64C100.399 35.7787 100.391 35.9253 100.375 36.08H96.8705C96.8972 36.512 97.0438 36.8507 97.3105 37.096C97.5825 37.336 97.9105 37.456 98.2945 37.456C98.6092 37.456 98.8705 37.384 99.0785 37.24C99.2918 37.0907 99.4412 36.8933 99.5265 36.648H100.311C100.193 37.0693 99.9585 37.4133 99.6065 37.68C99.2545 37.9413 98.8172 38.072 98.2945 38.072C97.8785 38.072 97.5052 37.9787 97.1745 37.792C96.8492 37.6053 96.5932 37.3413 96.4065 37C96.2198 36.6533 96.1265 36.2533 96.1265 35.8C96.1265 35.3467 96.2172 34.9493 96.3985 34.608C96.5798 34.2667 96.8332 34.0053 97.1585 33.824C97.4892 33.6373 97.8678 33.544 98.2945 33.544C98.7105 33.544 99.0785 33.6347 99.3985 33.816C99.7185 33.9973 99.9638 34.248 100.135 34.568C100.311 34.8827 100.399 35.24 100.399 35.64ZM99.6465 35.488C99.6465 35.2107 99.5852 34.9733 99.4625 34.776C99.3398 34.5733 99.1718 34.4213 98.9585 34.32C98.7505 34.2133 98.5185 34.16 98.2625 34.16C97.8945 34.16 97.5798 34.2773 97.3185 34.512C97.0625 34.7467 96.9158 35.072 96.8785 35.488H99.6465ZM103.815 33.536C104.349 33.536 104.781 33.6987 105.111 34.024C105.442 34.344 105.607 34.808 105.607 35.416V38H104.887V35.52C104.887 35.0827 104.778 34.7493 104.559 34.52C104.341 34.2853 104.042 34.168 103.663 34.168C103.279 34.168 102.973 34.288 102.743 34.528C102.519 34.768 102.407 35.1173 102.407 35.576V38H101.679V33.616H102.407V34.24C102.551 34.016 102.746 33.8427 102.991 33.72C103.242 33.5973 103.517 33.536 103.815 33.536ZM108.005 34.216V36.8C108.005 37.0133 108.05 37.1653 108.141 37.256C108.231 37.3413 108.389 37.384 108.613 37.384H109.149V38H108.493C108.087 38 107.783 37.9067 107.581 37.72C107.378 37.5333 107.277 37.2267 107.277 36.8V34.216H106.709V33.616H107.277V32.512H108.005V33.616H109.149V34.216H108.005ZM111.903 38.072C111.567 38.072 111.265 38.016 110.999 37.904C110.732 37.7867 110.521 37.6267 110.367 37.424C110.212 37.216 110.127 36.9787 110.111 36.712H110.863C110.884 36.9307 110.985 37.1093 111.167 37.248C111.353 37.3867 111.596 37.456 111.895 37.456C112.172 37.456 112.391 37.3947 112.551 37.272C112.711 37.1493 112.791 36.9947 112.791 36.808C112.791 36.616 112.705 36.4747 112.535 36.384C112.364 36.288 112.1 36.1947 111.743 36.104C111.417 36.0187 111.151 35.9333 110.943 35.848C110.74 35.7573 110.564 35.6267 110.415 35.456C110.271 35.28 110.199 35.0507 110.199 34.768C110.199 34.544 110.265 34.3387 110.399 34.152C110.532 33.9653 110.721 33.8187 110.967 33.712C111.212 33.6 111.492 33.544 111.807 33.544C112.292 33.544 112.684 33.6667 112.983 33.912C113.281 34.1573 113.441 34.4933 113.463 34.92H112.735C112.719 34.6907 112.625 34.5067 112.455 34.368C112.289 34.2293 112.065 34.16 111.783 34.16C111.521 34.16 111.313 34.216 111.159 34.328C111.004 34.44 110.927 34.5867 110.927 34.768C110.927 34.912 110.972 35.032 111.063 35.128C111.159 35.2187 111.276 35.2933 111.415 35.352C111.559 35.4053 111.756 35.4667 112.007 35.536C112.321 35.6213 112.577 35.7067 112.775 35.792C112.972 35.872 113.14 35.9947 113.279 36.16C113.423 36.3253 113.497 36.5413 113.503 36.808C113.503 37.048 113.436 37.264 113.303 37.456C113.169 37.648 112.98 37.8 112.735 37.912C112.495 38.0187 112.217 38.072 111.903 38.072ZM115.082 38.048C114.944 38.048 114.826 38 114.73 37.904C114.634 37.808 114.586 37.6907 114.586 37.552C114.586 37.4133 114.634 37.296 114.73 37.2C114.826 37.104 114.944 37.056 115.082 37.056C115.216 37.056 115.328 37.104 115.418 37.2C115.514 37.296 115.562 37.4133 115.562 37.552C115.562 37.6907 115.514 37.808 115.418 37.904C115.328 38 115.216 38.048 115.082 38.048Z" fill="#777777"/>
</svg>
